<?xml version="1.0" encoding="UTF-8"?>
<svg width="207px" height="116px" viewBox="0 0 207 116" version="1.1" xmlns="http://www.w3.org/2000/svg" xmlns:xlink="http://www.w3.org/1999/xlink">
    <!-- Generator: Sketch 58 (84663) - https://sketch.com -->
    <title>02</title>
    <desc>Created with Sketch.</desc>
    <g id="Page-1" stroke="none" stroke-width="1" fill="none" fill-rule="evenodd" opacity="0.06">
        <g id="Cajtel-Copy" transform="translate(-302.000000, -3537.000000)" fill="#FFFFFF" fill-rule="nonzero">
            <g id="Group" transform="translate(298.000000, 3502.000000)">
                <g id="Header">
                    <path d="M62.24,150.92 C95.36,150.92 119.84,126.44 119.84,92.84 C119.84,59.56 95.36,35.08 62.08,35.08 C28.48,35.08 4,59.56 4,92.84 C4,126.44 28.48,150.92 62.24,150.92 Z M185.16,109 L210.28,109 L210.28,149 L121.64,149 L153.32,86.28 L124.2,68.36 C131.88,47.88 148.04,35.08 169,35.08 C192.52,35.08 208.84,50.6 208.84,71.72 C208.84,87.24 197.48,101.16 185.16,109 Z" id="02"></path>
                </g>
            </g>
        </g>
    </g>
</svg>