<?xml version="1.0" encoding="UTF-8"?>
<svg width="114px" height="112px" viewBox="0 0 114 112" version="1.1" xmlns="http://www.w3.org/2000/svg" xmlns:xlink="http://www.w3.org/1999/xlink">
    <!-- Generator: Sketch 58 (84663) - https://sketch.com -->
    <title>Aa</title>
    <desc>Created with Sketch.</desc>
    <g id="Page-1" stroke="none" stroke-width="1" fill="none" fill-rule="evenodd">
        <g id="Cajtel-Copy" transform="translate(-374.000000, -3799.000000)" fill="#FAFAFA" fill-rule="nonzero">
            <g id="Group" transform="translate(298.000000, 3502.000000)">
                <g id="Typeface" transform="translate(82.000000, 267.000000)">
                    <path d="M3.6,122.2 C3.7,121.7 3.7,121.3 3.7,120.8 L2.8,121.4 L2.8,121 C2.8,119.8 2.4,118.7 1.5,118 L1.2,118.5 C1.1,118.4 1,118.2 1,118.1 C1,118 1.1,118 1.3,118 C0.8,115.9 -0.3,114 -0.4,111.8 C-0.5,110.6 -0.8,109.4 -1,108.3 L-1,107 C-1,106.6 -1,106.2 -0.9,105.8 L-0.843804082,105.58824 C-0.50922449,104.211592 0.234285714,99.5 0.8,99.5 C1.3,98 1.6,96.4 2.7,95.3 C2.8,95.2 2.9,94.9 2.9,94.8 C2.9,94.1 3.1,93.8 3.4,93.5 C3.8,92.8 4.2,92.1 4.5,91.4 C4.6,91.2 4.7,91.3 4.8,91.2 C5.3,90.7 6.1,90.5 6.2,89.7 L10.2,85.8 C10.9333333,85.8 11.2465278,85.1277778 11.909838,84.8616898 L12.1,84.8 C12.9,84.6 13.5,83.9 14.1,83.5 C14.7,83.4 15.3,83.5 15.7,83.3 C16.1,83.2 16.2,82.8 16.7,82.8 C17,82.7 17.3,82.3 17.6,82.1 C18.2,81.6 18.9,81.2 19.7,81.2 L19.9296296,81.2037037 C20.1,81.2111111 20.3,81.2333333 20.5,81.3 C20.6,81 20.6,80.8 20.8,80.4 C21.1,80.7 21.2,80.9 21.3,81.1 C21.5,81.1 21.6,81 21.7,81 L22.4,80.5 C22.5,80.8 22.7,81 22.9,81 C23,81 23.1,81 23.2,80.9 L22.8,80.6 C23.6,80.6 24,80.8 24.4,81 L21,86.8 C20.5,87.5 20.3,88.3 19.8,89.1 C19,90.3 18.4,91.7 17.7,93.1 L16.3864,95.9448 C15.9528,96.8856 15.5256,97.8232 15.1112,98.7704 L11.6,107 C11.3,107.9 11.1,108.9 10.7,109.8 C10.3,110.7 9.8,111.5 9.6,112.5 C9.2,114 8.4,115.2 8.1,116.6 C7.8,118.1 7.2,119.4 6.7,120.7 C6.5,121.5 6.2,122.3 5.9,123.1 L4.9,122.2 C4.8,122.4 4.8,122.6 4.8,122.8 C4.8,123.3 5.1,123.5 5.6,123.8 C5.4,125.1 4.9,126 4.9,127.2 C4.16153846,128.953846 4.01952663,130.707692 3.76609012,132.304233 L3.7,132.7 C3.6,133.3 3.5,134 3.5,134.6 C3.5,135.6 3.7,136.6 4,137.7 L4.00466472,137.891254 C4.01632653,138.063265 4.05714286,138.257143 4.2,138.4 C5.3,140.3 7,141.3 9,142 C9,141.6 9,141.2 9.1,140.8 C9.1,140.5 9,140.1 9,139.7 C9,139.5 9,139.3 9.1,139.2 C9.5,138.6 9.3,137.8 9.5,137.2 C9.7,136.7 9.7,136.2 9.8,135.7 L10.7,131.5 C10.9,130.2 11.4,129.1 11.8,127.9 C11.9,127.6 12.3,127.4 12.6,127.1 L12.3855469,126.788867 C12.278125,126.621875 12.2,126.45 12.2,126.2 C12.2,126.1 12.3,125.9 12.3,125.8 C12.86,124.36 13.356,122.92 13.8392,121.48 L14.2,120.4 C14.5,119.5 14.8,118.6 15,117.7 L15.2,117 L15.6633745,116.065569 C16.1962963,114.97284 16.6888889,113.866667 17,112.7 L17.7,110.7 C18.4,109.2 19,107.7 19.7,106.3 L22.7,99 C23.6,97.9 24.2,96.6 24.7,95.2 C25.7,92.7 27.2,90.6 28.4,88.2 C29,86.9 29.6,85.7 30.4,84.6 C31.2,83.5 31.6,82 32.6,81.1 L32.8,80.4 C33,80.5 33.2,80.5 33.4,80.5 C33.8,80.4 33.9,80.3 34.1,80.3 C34.3,80.3 34.5,80.4 34.7,80.5 C35.1,80.6 36.3,81.1 36.6,81.1 C36.7,81.1 37,81 37.2,80.9 L37.2479745,81.1690942 C37.3426036,81.6467456 37.4923077,82.0307692 38,82.2 L38.1264,81.8048 C38.196,81.596 38.28,81.38 38.4,81.2 L38.7441773,81.4704733 C38.9942149,81.6694215 39.1,81.7818182 39.1,82 C39.1,82.2 39,82.4 38.8,82.6 L40.1,82.6 L39.7,81.9 C40.1,82 40.2,82.2 40.3,82.7 L41.5,82.1 L42.2147217,82.3662354 C42.8632812,82.6125 43.6625,82.95625 43.8,83.3 L43.3,83.3 C42.9,83.3 42.6,83.3 42.2,83.4 C42.5,83.6 42.7,83.7 43,83.7 C43.2,83.7 43.5,83.6 43.8,83.3 C44.6,83.3 45.2,83.6 45.6,84.5 C45.7,84.7 45.9,85 46.1,85.1 L47.4,85.5 L47.1,86 L47.8912209,86.4153635 C48.2135802,86.5765432 48.5222222,86.7 48.8,86.7 C49.3,86.7 49.6,86.8 49.7,87.3 C49.8,87.6 49.9,87.7 50.1,87.7 C50.2,87.7 50.4,87.6 50.6,87.5 L49.5,86.2 C48.1,84.9 46.6,83.8 45,82.9 L43.3,82 C42.7,81.7 42,81.5 41.5,81.1 C41,80.6 40.4,80.7 39.9,80.5 C39.2,80.1 38.3,80.2 37.7,79.5 C36.9,79.5 36.2,79.1 35.4,79 C34.9,78.9 34.5,78.8 34.1,78.4 L34.8,77.3 C35.5,76.2 36,75 36.8,74 C38.1,72.5 39,70.7 40.3,69.1 C41.3,68 42.2,66.7 43,65.5 C44,64 45.1,62.7 46.1,61.4 L49.5,57.1 C50.1,56.3 50.7,55.5 51.4,54.8 C52.1,54.2 52.3,53 53.3,52.8 C53.4,52.7 53.6,52.6 53.6,52.5 C53.6,52.2 55.2,50.1 55.2,50.1 C56.3,49.8 56.6,48.7 57.5,48.1 C57.9,47.8 58.1,47.4 58.6,47.1 C58.8727273,46.9181818 58.814876,46.3231405 59.1777611,46.0661908 L59.3,46 C59.7,45.8 60.2,45.5 60.4,45 C60.6,44.5 61.3,44.8 61.4,44.4 C61.5846154,43.7538462 62.0248521,43.704142 62.4060992,43.4643605 L62.5,43.4 C62.7,43.3 62.8,43 63,42.8 L63.2,42.2 L64,42.2 C64.3,41.3 65.6,41.3 65.6,40.1 L66.3,39.7 C65.8,40.8 65.4,41.5 65.2,42.4 C65,43.6 64.8,44.7 64.2,45.8 C63.7,47.1 63.6,48.7 63.1,50.1 C62.7,51.3 62.1,52.5 61.7,53.7 C61.6,54.2 61.1,54.5 61,55 C60.8,56.4 60.3,57.6 59.7,58.8 C59.4333333,59.4222222 59.0876543,59.9654321 59.0141289,60.570096 L59,60.8 C59,61.5 58.7,61.9 58.5,62.5 C58.3,63 58.4,63.6 58,64.1 C57.7,64.4 57.5,64.8 57.5,65.3 C57.5,65.5 57.5,65.7 57.6,65.9 C57.6,66.6 57.4,67.1 57.2,67.5 C57.1,68 56.8,68.4 56.6,68.9 L57.1,69.3 C56.6,69.5 56.1,69.9 56.1,70.6 C56.1,71.4181818 55.9347107,71.9057851 55.7543952,72.3633358 L55.7,72.5 C55.1,73.8 55.2,75.3 54.6,76.6 L53.8548105,79.2174927 C53.5632653,80.2408163 53.2571429,81.2714286 52.9,82.2 L52.5,83.4 C52,85.1 51.7,86.9 50.9,88.4 L50.7,89.5 C50.7,89.8 50.7,90.2 50.6,90.5 L49.5,93.9 C49.3,94.6 48.9,95.3 48.9,96 C48.7,97.8 47.9,99.3 47.6,101 L47,103.3 C46.9,103.9 46.8,104.5 46.5,105.1 C46,106.4 45.9,107.9 45.5,109.3 C44.9,110.9 44.8,112.6 44.4,114.2 C44.1,115.6 44,117 44,118.4 L44.6,118.8 C45.1,119.1 45.7,119.6 46.3,119.7 C47.1,119.8 47,120.8 47.6,121.1 L48.8,122 C48.9,122.2 48.9,122.4 49,122.4 C49.1,122.4 49.2,122.3 49.3,122.2 C49.4,122.1 49.4,121.9 49.4,121.7 C49.8,122.3 50.3,122.7 50.9,122.8 C51.5,122.5 51.2,121.8 51.4,121.4 C51.6,121 52,120.8 52.2,120.4 C52.4,120 52.5,119.4 52.7,119 C53,118.7 53.2,118.2 53.5,117.9 C53.8,117.5 54,117.1 54,116.6 C54,116.4 54.3,116.3 54.4,116.2 C55.1,115.4 56,114.7 56.5,113.7 C57,112.9 57.7,112.4 58.1,111.5 C58.4,110.9 58.8,110.4 59.3,110 C59.4,109.8 59.6,109.7 59.8,109.6 C60,109.4 60.2,109.1 60.3,108.8 L60.5,107.8 C60.7,107.9 61.1,107.9 61.2,107.9 C61.5,107.6 61.7,107.3 61.7,106.9 C61.7,106.1 62.1,106.1 62.3,105.8 L61.7,105.5 L62,105.1 L61.6125,104.9625 C61.5,104.925 61.4,104.9 61.3,104.9 C60.6,104.9 60.3,105.5 60.1,106.2 L59.8,105.8 C58.7,105.8 58.6,107.2 57.7,107.2 C57.1,107.4 56.7,107.7 56.3,108 L55.6,108.7 C54.6,109.9 53.3,110.8 52.7,112.3 L52.6058716,112.52294 C52.4266272,112.915976 52.1923077,113.215385 51.6,113.3 C52.2,111.3 52.5,109.2 53.1,107.2 C53.8,105.1 54.2,102.9 54.9,100.8 L56.9,93.4 C57.1,92.7 57.2,91.9 57.5,91.1 C58.3,88.6 59.2,86.2 59.9,83.6 C60.4,81.9 61,80.2 61.5,78.4 C62.1,76.4 62.8,74.4 63.5,72.4 C64.1,70.5 64.8,68.7 65.2,66.7 C65.4,66.1 65.4,65.4 65.7,64.9 C65.9,64.5 66,64 66.2,63.5 C66.3,63 66.5,62.6 66.5,62.1 L66.9,60.7 L66.9765,60.2554 C67.036,59.918 67.12,59.61 67.4,59.4 L67.4,58.9 C67.4,56.94 68.4453333,55.5026667 68.6660148,53.6123556 L68.7,53.2 C68.7,53 68.8,52.8 68.9,52.7 C69.7,51.8 69.4,50.4 69.7,49.3 C69.6,49.1 69.5,48.9 69.5,48.7 C69.5,48.3 69.8,48 70.2,47.8 L70.346875,47.646875 C70.4875,47.4875 70.6,47.3 70.6,47 L70.6015625,46.6609375 C70.60625,46.35625 70.625,46.15 70.7,46 C71.3,45.1 71.5,44 72,43.2 C73,41.5 73.4,39.5 74.1,37.6 C74.2,37.4 74.3,37.2 74.3,36.9 C74.3,36.1 74.5,35.7 74.7,35.2 C74.9,34.9 75,34.6 75,34.2 C75,33.5 74.7,32.7 74,32.2 C73.3333333,31.7 72.5972222,31.3388889 71.9074074,30.9430556 L71.5,30.7 C71.2,30.5 70.9,30.5 70.6,30.5 C70,30.5 69.5,30.8 69.2,31.4 C68.9,32.2 68.7,33 68.5,33.8 L68.2,34.6 C67.9,35 67.6,35.5 67.5,36.1 C67.4,36.7 67.1,37.2 67,37.8 C66.7,37.6 66.4,37.5 66.2,37.5 C66,37.5 65.8,37.6 65.8,37.8 C65.8,38.2615385 65.4591716,38.3822485 65.1707783,38.3980883 L65.1,38.4 C64.7,38.4 64.6,38.5 64.5,38.7 C64.5,38.9 64.2,39 64,39.1 C64,39.3 64.1,39.6 64.2,39.8 L63.3,39.8 C63.1,40 63,40.1 62.8,40.1 C62.6,40.1 62.4,40 62.2,40 C61.6,40 61.9,40.5 61.5,40.8 C60.8,41.3 60,41.1 60,42.2 L59.7,41.6 C58.8428571,42.2857143 58.0591837,42.8244898 57.2230321,43.3422741 L56.8,43.6 C56.6,43.7 56.4,43.9 56.2,44.1 L55.1,45 C54.8,45.4 54.7,45.7 54.3,45.7 C54.0375,45.7 53.928125,45.9296875 53.7708984,46.0541016 L53.7,46.1 C53,46.5 52.5,47.2 51.9,47.8 C50.5,49.1 49,50.2 47.6,51.5 C47,51.9 46.5,52.3 46,52.9 C45.3,53.6 44.7,54.3 44.1,55.1 C43.4,56 42.4,57.2 41.4,58.2 C40.6571429,58.3857143 40.2591837,59.175 39.8057945,59.7672012 L39.7,59.9 C39.2,60.6 38.3,61 38.1,62 C38.1,62.2 37.8,62.4 37.6,62.6 L36.1,64.5 C35.7,65 35.4,65.6 34.9,66 C34.4,66.4 34.2,67.1 33.7,67.5 C33.1,68.3 32.6,69.2 31.9,70 C31.4,70.5 31,71.2 30.6,71.8 L30.3,72.2 C30.1153846,73.1230769 29.4195266,73.6201183 28.9203004,74.3203459 L26.5,77.9 L25.6,77.9 C25.3,77.9 25,77.9 24.8,77.7 L24.6037037,77.6037037 C24.4777778,77.5444444 24.3666667,77.5 24.3,77.5 C23.9,77.5 23.7,77.8 23.3,77.8 C23,77.8 22.8,77.7 22.5,77.7 C21.8142857,77.7 21.055102,77.8469388 20.4113703,77.8889213 L20.1,77.9 C18.9,77.9 17.8,78.3 16.6,78.5 C15.2,78.8 13.9,79.4 12.5,79.9 C11.7,80.1 11.1,80.7 10.3,81 C9.41111111,81.2666667 8.68024691,81.8493827 7.82647462,82.326749 L7.5,82.5 C6.9,82.8 6.5,83.1 6,83.5 C5.1,84.2 4.3,85.1 3.4,85.9 C2.2,87 1.2,88.4 0.2,89.7 L-1.5,92.1 C-2.2,93.1 -2.5,94.3 -3.2,95.3 C-3.2,96.1 -3.5,96.5 -3.8,96.9 C-4,97.3 -4.1,97.6 -4.2,98.1 C-4.3,99 -4.6,99.8 -4.7,100.7 C-4.8,101.2 -5.1,101.6 -5.1,102.2 L-5.1,102.9 C-5.1,103.5 -5.1,104 -5.2,104.6 C-5.1,104.9 -4.9,105.2 -4.9,105.4 C-4.9,105.8 -5,106.2 -5,106.5 C-4.9,107.9 -4.6,109.2 -4.5,110.4 C-4.3,112 -4,113.5 -3,114.9 L-2.3,116.3 C-1.8,117.2 -1.2,118.1 -0.2,118.6 C-0.2,118.3 -0.1,117.9 -0.1,117.6 C0.2,118.3 0.2,119.1 0.5,119.6 C1.3,120.9 2.4,121.7 3.6,122.2 Z M19.4,96.7 L19,95.9 C18.9,95.7 18.9,95.4 18.9,94.8 L19.7,96 C20,96 20.4,95.9 20.7,95.8 C20.4,95.6 20.1,95.5 19.9,95.3 C19.9,94.6 20.3,93.9 20.3,93.8 C20.2,93.4 20,93 20,92.7 C20,92.6 20.1,92.5 20.1,92.4 L21.3,92.7 C21.5,92.6 21.6,92.4 21.6,92.3 C21.6,92.2 21.5,92.1 21.2,92 C21.2,91.5 21.2,91 21.3,90.5 C21.3,90.3 21.5,90.2 21.7,90.1 C21.8,90.8 22.1,91.5 22.8,91.6 L22.2,90.4 C22.1,90.2 21.8,90.2 21.7,90.1 L22.8,89.4 L22.6,88.3 L23.4,89.2 C23.4,88.3 23.3,87.5 23.3,86.6 L24.4,86.9 C24.4,86.2 23.7,86.2 23.7,85.7 C23.7,85.6 23.7,85.5 23.8,85.4 L24.9,85.6 L24.7,84.1 L25.5,84.6 C25.7,84.6 25.8,84.5 25.8,84.3 C25.8,84.1 25.7,83.8 25.7,83.6 L26.4,83.6 L25.7,81.9 C26.1,81.9 26.2,82 26.4,82 C26.8,82 27.1,81.8 27.2,81.1 L27.8,81.4 C27.6,81.1 27.5,80.8 27.2,80.4 C27.3,79.8 27.7,78.5 27.8,78.5 C28.2,78.5 28.9,78 29,78 C29.7,78 29.6,77.1 30.2,77.1 C29.9,76.8 29.7,76.5 29.7,76.2 C29.7,76 29.8,75.9 29.9,75.7 L30.2,76.2 C30.3,76.4 30.6,76.6 30.8,76.6 C30.9,76.6 31,76.6 31,76.4 C31,76 30.9,75.8 30.6,75.7 L30.2,75.3 C30.8,74.9 31.4,74.6 32.1,74.3 C32,74.1 31.9,73.9 31.9,73.7 C31.9,73.3 32.1,72.8 32.1,72.3 C32.1,72.1 32.1,72 32,71.8 C32.8,72.1 33.1,72.5 33.2,73 L34.9,72.5 C34.4,73.1 34.3,74.2 33.3,74.2 C33.1,75 32.8,75.8 32.1,76.3 C31.5,76.8 31.6,77.8 31.5,78.8 C31,78.9 30.5,79.1 30,79.3 C29.5,79.5 29.5,79.7 29.4,80 C29.4,80.1 29.2,80.3 29.1,80.3 L28.9110787,80.2976676 C28.744898,80.2918367 28.5714286,80.2714286 28.5,80.2 C28.5,81 28.9,81.3 29.4,81.5 C29.2,81.7 29,81.8 28.8,81.8 C28.6285714,81.8 28.5306122,81.7265306 28.4431487,81.5795918 L28.4,81.5 C28.3,81.3 28.2,81.2 28.1,81.2 C28,81.2 27.9,81.3 27.8,81.4 L28.3,82.3 L27,83 L28.2,83.4 C28.1,83.6 27.8,83.6 27.6,83.6 L27.3744856,83.5470508 C27.1555556,83.5 27.0777778,83.5 27,83.5 C26.9,83.5 26.8,83.6 26.7,83.8 C26.7,84 26.8,84.2 26.8,84.4 L26.9136,84.6048 C26.964,84.696 27,84.78 27,84.9 C27,85.1 26.9,85.3 26.7,85.6 L26.3,84.7 C26,85.1 25.8,85.6 25.5,86.2 C25.5,86.4 25.6,86.9 25.6,87.4 C25.3,87.3 25,87.3 24.5,87.3 L25.4,88.3 C25.4,88.5 25.3,88.8 25.2,89.1 C24.7,89.1 24.7,88.4 24.2,88.4 C24.2,88.7 24.4,89.3 24.4,89.4 L24.175,89.725 C24.125,89.8 24.1,89.85 24.1,89.9 C24.1,90 24.2,90.2 24.3,90.4 L23.4,89.9 L22.9,90.5 L23.7,91.5 C23.4,91.7 23.1,91.9 22.8,92.2 L23.2,92.7 C23.1,92.9 23,93.1 22.8,93.3 L22.2,92.4 L22.0625,92.7875 C22.025,92.9 22,93 22,93.1 C22.1,93.4 22.2,93.7 22.2,94 C22.2,94.2 22.2,94.3 22.1,94.5 L21.7,94.2 C21.6,94.2 21.3,94.1 21.2,94.1 C21.1,94.1 20.9,94.9 20.9,95 C20.9,95.2 20.9,95.4 21.1,95.6 L20.7,95.8 C20.6,96.5 20.4,96.8 20,96.8 L19.8460641,96.7976676 C19.7265306,96.7918367 19.6142857,96.7714286 19.4,96.7 Z M0.5,92.8 L-0.4,91.7 C-0.3,91.6 0,91.6 0.1,91.6 C0.3,91.7 0.4,91.9 0.6,92.1 C0.8,92 0.9,91.8 0.9,91.6 C0.9,91.3 0.7,90.9 0.7,90.5 C1,90.7 1.3,90.8 1.5,91 C1.5,91.3 1.3,91.4 1.3,91.7 L1.3,92.1 C1.3,92.6 0.8,93.3 0.7,93.3 C0.5,93.4 0.4,93.5 0.4,93.7 L0.4,94.3 C0.4,95.4 -0.6,94.8 -0.6,95.5 C-0.6,95.8 -0.4,96.2 -0.4,96.5 C-0.4,96.7 -0.5,96.8 -0.6,97 C-0.8,97.2 -0.9,97.5 -0.9,97.8 C-0.9,98.2 -0.7,98.7 -0.4,99.1 L-1.3,99.3 C-0.9,99.6 -0.8,99.9 -0.8,100.2 C-0.8,100.4 -0.8,100.6 -0.9,100.8 L-1.9,100.1 C-1.8,100.4 -1.7,100.7 -1.7,101 C-1.7,101.6 -2,102.1 -2.5,102.4 L-2,102.814815 C-1.73333333,103.044444 -1.6,103.2 -1.6,103.4 C-1.6,103.6 -1.8,103.8 -2.1,104 L-1.6,105 L-1.89854227,105.002332 C-2.11428571,105.008163 -2.25714286,105.028571 -2.4,105.1 C-2.6,105.3 -2.8,105.7 -2.8,105.7 C-2.5,106 -2.4,106.3 -2.4,106.5 C-2.4,107.1 -3,107.5 -3,108.3 C-3.1,108.2 -3.1,107.9 -3.1,107.8 C-3.1,106.4 -3.6,105 -3.6,103.7 C-3.6,103.4 -3.6,103.2 -3.5,102.9 C-3.5,102.7 -3.5,102.4 -3.6,102.2 C-3.8,101.6 -3.9,101.1 -3.9,100.5 C-3.9,100.2 -3.8,99.8 -3.8,99.4 L-3.2,100.2 L-2.3,99.5 L-3.2,98.2 L-2.4,97 L-1.8,98.4 C-1.6,98 -1.5,97.6 -1.5,97.2 C-1.5,96.9 -1.6,96.5 -1.7,96.2 C-1.8,96.1 -1.8,96 -1.8,95.9 C-1.8,95.7 -1.7,95.3 -1.7,95 C-1.55,95 -1.34375,94.94375 -1.165625,94.915625 L-1,94.9 C-0.7,94.9 -0.5,94.7 -0.5,94.3 C-0.6,93.9 -0.6,93.7 -0.6,93.5 C-0.6,93.2 -0.5,93 -0.4,92.8 L0.5,92.8 Z M60.9,72.4 C60.1,73 60,73.2 59.8,73.9 L59.8,74.6 L59.9907407,74.6518519 C60.2916667,74.7444444 60.5,74.8833333 60.5,75.3 L59.5,75.5 C59.5,76.4 59.3,76.8 59,77.2 C59.1,77.3 59.3,77.3 59.5,77.4 L59.2555556,78.0888889 C59.2222222,78.1888889 59.2,78.2666667 59.2,78.3 C59.2,78.6 59.5,79 59.7,79.3 C59,79.3 58.8,78.9 58.4,78.4 C58.4,78.9 58.2,79.3 58.2,79.7 C58.2,80 58.3,80.3 58.6,80.5 C58.6,81.3 58.6,82 58.5,82.8 L57.5,82.4 L57.3746356,82.5230321 C57.244898,82.6469388 57.0714286,82.8 57,82.8 L56.909695,82.6077378 C56.791716,82.3455621 56.6,81.8769231 56.6,81.6 C56.6,81.2727273 56.7338843,81.0793388 57.0564237,80.7459805 L57.3,80.5 C57.4,80.4 57.5,80.3 57.5,80.1 C57.5,79.1 57.7,78.4 57.7,77.7 C57.7,77.3 57.6,76.8 57.4,76.4 L57.8,76.4 C58,76.4 58.2,76.5 58.3,77 C58.3,77.3 58.4,77.5 58.5,77.5 C58.6,77.5 58.7,77.4 59,77.2 C58.9,77 58.7,76.9 58.7,76.7 L58.7,75.1 C58.8,75.1 58.9,75.2 59.1,75.5 C58.9,74.7 58.7,74.2 58.5,73.7 C58.8,73.6 59.2,73.5 59.6,73.5 C59.7,73.2 59.9,72.9 59.9,72.6 C59.9,72.4 59.8,72.2 59.7,72 C59.6166667,71.9166667 59.6027778,71.8333333 59.600463,71.6921296 L59.6,71.6 C59.6,71.4 59.6,71.2 59.7,71.1 C59.8,70.7 60.1,70.2 60.5,70.2 L60.7752,70.428 C61.108,70.716 61.3,70.94 61.3,71.1 C61.3,71.25 61.1875,71.4 61.0046875,71.5921875 L60.8,71.8 C60.7,71.9 60.6,72 60.6,72.1 C60.6,72.2 60.7,72.3 60.9,72.4 Z M34.3,70.6 L34.7,70.6 C34.9,70.1 34.6,69.4 35.1,69 C35.5,68.8 35.9,68.5 36.3,68.2 C36.7,68.4 37.1,68.7 37.5,69 C37.2,69 36.9,69.1 36.5,69.2 L36.6737,69.3818 C36.855,69.582 37.1,69.89 37.1,70.1 C37,70.1 36.4,69.9 36.1,69.9 C35.9,69.9 35.7,70 35.6,70.3 L36.1,70.8 C35.9,71.1 35.6,71.4 35.4,71.8 L34.5,71.5 C34.4,71.8 34.4,72.1 34.2,72.4 L33.3,71.7 C33.3,71.6 33.5,71 33.7,71 L34.1,71 C34.2,71 34.3,71 34.3,70.6 Z M39,66.4 C39,66.6 39.1,66.8 39.1,67 C39.1,67.2 39,67.5 39,67.7 L38.7,66.4 C38.6,66.5 38.5,66.5 38.4,66.5 L38.4,65.9 C38.4,65.7 38.3,65.4 37.8,65.4 C38.1,65.1 38.2,64.9 38.4,64.8 C38.3,64.6 38.2,64.5 38.2,64.5 L39.2,63.6 L41.1,64.6 C40.85,64.6833333 40.6694444,64.6972222 40.500463,64.699537 L40.4,64.7 C40.1,64.7 39.8,64.6 39.3,64.1 C39.2,64.2 39.1,64.3 39.1,64.4 C39.2,64.7 39.4,65.1 39.4,65.2 C39.3,65.2 39.3,65.4 39.3,65.5 C39.3,65.8 39.4,66.1 39.4,66.2 C39.4,66.4 39.2,66.4 39,66.4 Z M55.5,82.6 L55.7474831,82.9374155 C55.9710744,83.2355372 56.2090909,83.5 56.5,83.5 C56.6,83.5 56.8,83.4 57,83.3 L57.108,83.3918 C57.255,83.522 57.5,83.76 57.5,83.9 L57.5,84.5 C57.5,85 57.4,85.5 56.8,85.7 C56.8,85 56.7,85.1 56.3,84.4 C56,84 55.4,83.7 55.4,83.1 L55.4037037,82.9703704 C55.4111111,82.8666667 55.4333333,82.7333333 55.5,82.6 Z M61.9,63.9 C62.6,64.9 62.5,65.9 62.7,67.1 C61.9,66.8 61.3,66.5 60.7,66.2 C60.7,66 60.7,65.7 60.8,65.5 C61,65.7 61.2,65.9 61.4,66 L61.7,65.5 L61.9,63.9 Z M61.8,67.9 C61.8,68.8 61.6,69.5 60.8,70 L60.6962963,69.8888889 C60.5777778,69.7555556 60.4,69.5333333 60.4,69.4 L60.5180758,69.3921283 C60.6020408,69.3816327 60.7,69.3571429 60.7,69.3 C60.7,69.2 60.8,69.1 60.8,69 C60.8,68.9 60.7,68.8 60.7,68.7 L60.4,67.6 L60.5300292,67.4746356 C60.6714286,67.344898 60.8857143,67.1714286 61.1,67.1 C61.1,67.5 61.6,67.6 61.8,67.9 Z M37.8,68.5 C37.3,68.1 37.1,67.7 37.1,67.1 C37.1,66.8 37.2,66.3 37.3,65.8 C37.5,66 37.8,66.1 37.8,66.3 C37.9,66.7 38.1,67.2 38.1,67.7 C38.1,68 38,68.2 37.8,68.5 Z M19.4,96.7 C19.6,97.4 19.8,98.2 19.8,99 L18.8,98.7 C18.7,98.5 18.7,98.4 18.7,98.2 C18.7,97.6 19.1,97.2 19.4,96.7 Z M56.6,87.6 C55.8,87.5 55.5,87.4 55,86.5 L55.8,85.5 C56.1,85.7 56.1,85.9 56.1,86.1 L56.1,86.5 C56.1,86.8 56.4,87.1 56.6,87.6 Z M62.5,62.4 L63,63.1 L62.9976676,62.3728863 C62.9918367,61.8 62.9714286,61.3 62.9,60.8 C63.3,60.9 63.5,61 63.6,61.1 L63.6,63.3 L62.7,63.3 C62.7,63 62.6,62.7 62.5,62.4 Z M7.7,134 C7.9,134.4 8.3,134.8 8.3,135.2 C8.3,135.5 7.9,135.8 7.6,136.3 C7.5,136 7.3,135.9 7.3,135.7 L7.3,134.3 C7.3,134.2 7.5,134.1 7.7,134 Z M63.5,59.6 C64,59.3 64.4,59.2 65,58.9 C64.8,59.4 64.7,59.7 64.7,60 C64.7,60.4 64.8,60.6 64.9,60.8 C64,60.8 64,60 63.5,59.6 Z M42.1,62.1 C42.1,62.6 41.6,63 41.2,63 L41.06875,62.996875 C40.95625,62.9875 40.9,62.95 40.9,62.8 C40.9,62.4 41.3,62 41.4,61.5 L42.1,62.1 Z M62,105.1 L62.8,105.6 L62.8962963,105.296296 C62.9555556,105.088889 63,104.866667 63,104.6 L62,104.1 L62,105.1 Z M63.7,58.2 C64,57.9 64.2,57.6 64.2,56.8 L64.2624,56.8328 C64.416,56.916 64.8,57.14 64.8,57.3 L64.742602,57.6047012 C64.672449,57.9530612 64.5714286,58.2 64.1,58.2 L63.7,58.2 Z M43.3,60.4 L42.5,61 L42.5023148,60.7435185 C42.5138889,60.3083333 42.5833333,59.85 43,59.6 C43.3,59.7 43.4,59.9 43.4,60.1 C43.4,60.2 43.4,60.3 43.3,60.4 Z M3.6,122.2 C3.7,122.4 3.8,122.6 3.8,122.8 L4.09003906,122.606641 C4.221875,122.510937 4.3,122.425 4.3,122.3 C4.3,122.2 4.2,122 4,121.7 L3.6,122.2 Z M8.7,132.7 C8.5,132.9 8.2,133.1 7.9,133.1 C7.7,133.1 7.4,133 7.1,132.7 L8.7,132.7 Z M47.3,112.7 C47.6,113 47.7,113.2 47.7,113.3 C47.7,113.5 47.6,113.6 47.4,113.7 C47.2,113.7 47.1,113.6 47,113.5 L47.3,112.7 Z M54.8,89.2 C55,89.2 55.3,89.2 55.4,89.5 L54.5,90.3 L54.8,89.2 Z M35.9,81.5 C35.9,81.6 35.8,81.7 35.8,81.8 C35.9,82 36.1,82.2 36.3,82.3 C36.4,82.3 36.6,82.1 36.8,81.9 L35.9,81.5 Z M6.3,137.3 L7.1,138 L6.5,138.5 L6.3,137.3 Z M10.7,124.1 L9.9,123.2 L10.1326531,123.202332 C10.3061224,123.208163 10.4285714,123.228571 10.5,123.3 C10.7,123.4 10.8,123.5 10.8,123.6 L10.7962963,123.72963 C10.7888889,123.833333 10.7666667,123.966667 10.7,124.1 Z M33,73.9 L33.2,73 L32.9113703,73.1364431 C32.7795918,73.2040816 32.6571429,73.2857143 32.6,73.4 C32.6,73.5 32.5,73.6 32.5,73.7 C32.5,73.9 32.8,73.9 33,73.9 Z M28.5,80.2 L28.2664,79.6352 C28.156,79.364 28.06,79.1 28,78.8 C27.92,78.96 27.904,79.184 27.9008,79.3696 L27.9,79.5 C27.9,79.8 28,80.1 28.5,80.2 Z M11.7,119.8 C11.8,120 12.4,120 12.4,120.1 C12.4,120.2 11.8,120.5 11.8,120.5 C11.7,120.5 11.6,120.3 11.6,120.2 C11.6,120.1 11.6,120 11.7,119.8 Z M18.2,98.1 C18.1,98 17.8,97.6 17.8,97.4 C17.8,97.3 17.9,97.2 18,97.2 L18.3,97.5 C18.38,97.58 18.396,97.66 18.3992,97.74 L18.4,97.8 C18.4,97.9 18.4,98 18.2,98.1 Z M35.2,81.9 C35.1,81.6 34.9,81.3 34.6,81.3 C34.5,81.3 34.4,81.4 34.2,81.6 L35.2,81.9 Z M14.3,127.7 C14.2,127.6 13.9,127.4 13.8,127.4 C13.7,127.4 13.3,127.6 13.3,127.7 L13.7,127.774074 C13.7888889,127.788889 13.8666667,127.8 13.9,127.8 C13.9,127.9 14.1,127.7 14.3,127.7 Z M60.9,72.4 C60.9,72.3285714 61.0020408,72.3081633 61.096793,72.3023324 L61.2,72.3 C61.4,72.3 61.5,72.3 61.5,72.4 L61.4962963,72.5296296 C61.4888889,72.6333333 61.4666667,72.7666667 61.4,72.9 C61.2,72.7 61.1,72.5 60.9,72.4 Z M15.2,110.8 L15.0332362,110.630904 C14.9020408,110.493878 14.8,110.371429 14.8,110.3 C14.8,110.2 14.9,110.1 15.1,110 C15.1,110.2 15.2,110.4 15.2,110.8 Z M42.1,61.2 L42.5,61 L42.5015625,61.1703125 C42.50625,61.3625 42.525,61.625 42.6,62 L42.1,61.2 Z M17.9,99.4 C18,99.3 18.1,99.2 18.3,99.2 C18.3,99.1 18.4,99.3 18.5,99.4 L18.1,99.7 L17.9,99.4 Z M12.3,116.1 C12.7,116.1 12.7,116.4 12.7,116.6 C12.7,116.7 12.7,116.8 12.6,116.9 L12.3,116.1 Z M50.7,102.7 C50.6,103 50.6,103.4 50.3,103.4 L50.3,103 L50.7,102.7 Z M43.8,58.8 C43.9,58.9 44.1,59 44.1,59.1 C44.1,59.2 44,59.3 43.8,59.4 L43.8,58.8 Z M7.9,137.3 C7.7,137.2 7.5,136.7 7.5,136.7 C7.7,136.8 7.9,136.9 7.9,137.3 Z M46.2,56.2 C46.3,56.1 46.4,56.1 46.6,56.1 C46.6,56.2 46.5,56.3 46.4,56.5 C46.3,56.4 46.2,56.3 46.2,56.2 Z M34.2,70.6 C33.9,70.5 33.8,70.3 33.7,69.8 L34.2,70.6 Z M54.1,92.1 C54.1,92.2 54,92.2 54,92.4 C53.9,92.4 53.7,92.2 53.7,92.1 L54.1,92.1 Z M61.3,67 C61.5,67 61.6,67.3 61.8,67.5 C61.6,67.3 61.2,67.1 61.3,67 Z M8.3,128.1 C8.4,128.1 8.5,128.2 8.5,128.3 C8.5,128.4 8.4,128.5 8.3,128.6 L8.3,128.1 Z M48.4,109.7 L48.3050781,109.594531 C48.2171875,109.489063 48.1,109.325 48.1,109.2 L48.1949219,109.305469 C48.2828125,109.410938 48.4,109.575 48.4,109.7 Z M66.7642857,90.8 L66.7642857,94.6 C66.7642857,96.6 67.5642857,98.3 68.7642857,99.7 C70.1642857,101.4 72.0642857,102.3 73.9642857,103.4 C74.8642857,104 75.8642857,103.9 76.7642857,104.2 L78.8642857,103.6 L80.7642857,102 C82.2642857,100.8 83.5642857,99.5 84.5642857,97.9 C84.7642857,97.7 84.9642857,97.5 85.0642857,97.3 L88.0642857,92.6 C88.0642857,91.5 88.8642857,91.1 89.5642857,90.2 C89.6642857,90.7 89.8642857,91 89.8642857,91.3 C89.8642857,92.4 89.8642857,93.3 89.9642857,94.4 C90.0642857,95.4 90.2642857,96.2 90.9642857,96.9 C91.8642857,97.7 92.4642857,98.6 93.1642857,99.4 L93.5642857,99.4 C94.4642857,99.4 95.1642857,99.7 96.0642857,100 C96.3642857,99.8 96.8642857,99.8 96.8642857,99.1 C96.6642857,99 96.4642857,98.9 96.3642857,98.7 C96.1642857,98.1 96.0642857,97.3 96.0642857,96.6 C96.0642857,95.9 96.1642857,95.2 96.1642857,94.5 L96.1642857,94 C96.1642857,93.3 96.2642857,92.7 96.3642857,92 C96.3642857,91.5 96.4642857,91 96.4642857,90.6 C96.7642857,89 97.1642857,87.4 97.7642857,85.9 C98.6642857,83.9 98.6642857,81.7 99.3642857,79.6 C99.3642857,79.5 99.2642857,79 99.0642857,78.8 C98.7642857,78.6 98.3642857,78.5 98.0642857,78.4 L95.2642857,77 C94.7642857,77.8 93.6642857,78 93.5642857,78.9 C92.5642857,79.6 92.1642857,80.6 91.7642857,81.7 L91.5140306,82.4674927 C91.2081633,83.3959184 90.8714286,84.2714286 90.1642857,84.9 L90.4642857,85.5 L89.4642857,85.9 C88.9642857,86.5 88.7642857,87.2 88.7642857,87.9 C88.7642857,88.3 88.8642857,88.8 88.9642857,89.2 L88.3642857,89.2 C88.3642857,88.7 88.4642857,88.5 88.4642857,88.2 C88.4642857,87.9 88.3642857,87.7 88.0642857,87.4 C87.8642857,87.6 87.6642857,87.7 87.5642857,87.9 L87.0642857,89.2 C86.9642857,89.3 86.8642857,89.4 86.7642857,89.4 C86.5642857,89.4 86.3642857,89.3 86.2642857,89.3 C86.0642857,89.3 85.9642857,89.4 85.9642857,89.7 C85.3642857,89.7 85.3642857,90.4 84.8642857,90.6 C84.3642857,90.8 83.9642857,91.1 83.9642857,91.7 C83.8642857,92.3 83.2642857,92.4 82.8642857,92.8 C82.1642857,93.7 81.3642857,94.5 80.5642857,95.4 L78.6642857,97.4 C78.2642857,97.8 77.9642857,98.3 77.6642857,98.7 L75.4642857,100.7 C75.0642857,101 74.7642857,101.2 74.3642857,101.2 C73.9642857,101.2 73.5642857,101 73.2642857,100.7 L72.6642857,99.9 L72.8310496,99.7262391 C72.9622449,99.577551 73.0642857,99.4142857 73.0642857,99.2 C72.9642857,98.3 72.8642857,97.3 72.8642857,96.3 C72.8642857,95.3 72.9642857,94.3 73.1642857,93.3 C73.4642857,92.1 73.5642857,90.8 73.9642857,89.6 C74.3642857,88.4 75.0642857,87.3 75.5642857,86.2 C76.0642857,85 77.1642857,84.1 77.4642857,82.8 C77.5642857,82.6 77.7642857,82.5 77.9642857,82.3 C78.1642857,82 78.4642857,81.7 78.5642857,81.4 C79.4642857,79.1 81.1642857,77.3 82.4642857,75.3 C83.5642857,73.8 84.8642857,72.5 86.0642857,71.1 C86.1642857,71 86.2642857,70.7 86.4642857,70.5 L87.3642857,69.4 C87.8642857,68.8 88.5642857,68.3 88.5642857,67.6 C88.9642857,67.2 89.3642857,67.1 89.6642857,66.9 C89.8642857,66.7 90.0642857,66 90.0642857,66 C90.1642857,66 90.2642857,66.1 90.3642857,66.1 C90.7642857,66.1 90.9642857,65.7 91.0642857,65.5 C91.5285714,64.5714286 92.5102041,64.3326531 93.2885933,63.7428207 L93.4642857,63.6 C93.5642857,63.5 93.7642857,63.4 93.9642857,63.4 C94.1642857,63.4 94.2642857,63.5 94.4642857,63.7 L94.9642857,63 C94.4104396,62.4461538 94.1122147,62.3183432 93.833653,62.3019572 L92.8642857,62.3 L92.7589359,62.2862826 C92.3013227,62.2160494 90.5531746,61.9 90.4642857,61.9 C90.2642857,62.2 89.9642857,62.4 89.8642857,62.5 C89.7142857,62.5 89.5080357,62.44375 89.3299107,62.415625 L89.1601452,62.4009331 C89.1343688,62.4088643 88.9695489,62.4842105 88.1642857,63.2 C87.5642857,63.6 86.9642857,63.8 86.3642857,64.2 C84.6642857,65.2 83.2642857,66.7 81.7642857,68 C80.9642857,68.7 79.9642857,69.3 79.4642857,70.4 C78.0796703,71.2307692 77.1210904,72.487574 76.0379771,73.698498 L73.0642857,77 C71.1642857,79.2 69.8642857,81.9 68.3642857,84.4 C67.8642857,86.5 66.7642857,88.5 66.7642857,90.8 Z M72.8642857,82.9 C72.5042857,82.81 72.4682857,82.639 72.4646857,82.387 L72.4642857,82.3 C72.4642857,82.1 72.4642857,81.8 72.3642857,81.6 C72.7642857,81.8 72.8642857,82.2 72.8642857,82.9 C73.0642857,82.7 73.3642857,82.6 73.5642857,82.6 C73.7642857,82.6 73.9642857,82.7 74.2642857,82.9 L74.2642857,85.5 C74.2642857,85.8 73.9642857,86.1 73.7642857,86.3 C73.7642857,86.4 73.5642857,86.8 73.4642857,86.8 C73.2642857,86.8 73.1642857,86.3 73.0642857,86.3 C72.797619,86.6555556 72.7679894,87.0111111 72.7646972,87.3666667 L72.7642857,88 C72.7642857,88.4 72.7642857,88.8 72.3642857,89.2 L71.6642857,88.1 C71.3642857,88.2 71.1642857,88.4 71.1642857,88.5 C71.1642857,88.6 71.3642857,88.7 71.5642857,88.8 L71.3306857,89.3648 C71.2202857,89.636 71.1242857,89.9 71.0642857,90.2 L71.8642857,89.5 C71.8642857,90.8 71.1642857,91.6 71.1642857,92.5 C71.1642857,92.7 71.2642857,92.8 71.2642857,93 C70.6642857,93.2 70.0642857,93.3 69.5642857,93.5 C69.4642857,93.6 69.3642857,93.8 69.3642857,94 C69.3642857,94.4 69.6642857,94.6 69.6642857,94.8 C69.6642857,94.9 69.5642857,95.1 69.4642857,95.2 L69.0642857,95.5 C69.0642857,94.7 68.7642857,94 68.7642857,93.3 C68.7642857,93 68.7642857,92.6 68.9642857,92.3 C68.6642857,92.2 68.4642857,92 68.2642857,91.9 C68.5642857,90.8 68.2642857,89.5 69.2642857,88.3 L69.2642857,89.5 L69.7642857,89.5 C69.7642857,88.7 70.1642857,88 70.1642857,87.2 C70.1642857,86.9 70.0642857,86.7 69.9642857,86.4 C69.9642857,86.3 70.1642857,85.6 70.3642857,85.3 C70.6642857,85.7 70.4642857,86.2 70.8642857,86.2 C71.2642857,85.8 71.6642857,85.5 71.6642857,85.1 C71.6642857,84.9 71.5642857,84.7 71.4642857,84.5 C71.7642857,84.5 72.0642857,84.6 72.3642857,84.6 C72.5642857,84.6 72.7642857,84.5 72.8642857,84.1 C72.4642857,83.9 71.8642857,84.1 71.6642857,83.5 L73.0642857,83.5 L72.8642857,82.9 Z M98.0642857,98.8 L98.5642857,99.4 L100.164286,97.4 C100.264286,97.5 100.464286,97.5 100.664286,97.5 L100.664286,96.7 C101.064286,96.5 101.464286,96.4 101.764286,96.2 C102.064286,96 102.464286,95.9 102.464286,95.7 C102.564286,94.9 103.064286,95.2 103.064286,94.3 C103.064286,94.2 103.164286,94 103.164286,93.8 L103.464286,94.9 C103.814286,94.375 104.087723,93.7734375 104.485575,93.3632812 L104.664286,93.2 C105.164286,92.8 105.464286,92.2 105.964286,91.7 L105.164286,90.9 C104.964286,91.2 104.964286,91.4 104.864286,91.6 L104.664286,90.7 L105.764286,90.7 C105.664286,90.4 105.664286,90 105.664286,89.6 C105.864286,89.4 106.264286,89.4 106.264286,89.1 L106.260582,88.9703704 C106.253175,88.8666667 106.230952,88.7333333 106.164286,88.6 L105.82687,88.7636364 C105.566014,88.8909091 105.330927,89.0181818 105.276232,89.1454545 L105.264286,89.2 C105.172619,89.75 104.660813,89.8798611 104.345073,90.205787 L104.264286,90.3 C104.164286,90.5 103.564286,90.5 103.564286,90.7 C103.464286,91.4 101.464286,92.8 100.964286,93.2 L100.682381,93.4557297 C100.062902,94.0346021 100.052521,94.2058824 99.9642857,95 C99.9642857,95.2 99.8642857,95.4 99.6642857,95.8 C99.5642857,95.5 99.5642857,95.3 99.5642857,95.2 C99.4642857,95.2 99.1642857,94.9 98.9642857,94.9 C98.8642857,94.9 98.7642857,95 98.7642857,95.2 C98.7642857,95.5 98.8642857,95.8 98.8642857,96.1 C98.8642857,96.2 98.3642857,96.5 98.3642857,96.5 C98.5642857,96.7 98.5642857,96.9 98.5642857,97.1 C98.5642857,97.5 98.3642857,97.8 98.3642857,98.2 L97.6642857,98.2 L97.9642857,97.2 L97.2642857,97.2 L97.6642857,98.2 C97.0642857,98.2 96.8642857,98.5 96.8642857,98.9 L98.0642857,98.8 Z M95.2642857,67.8 C95.2642857,68.1 95.3642857,68.5 95.3642857,68.8 C95.3642857,69.1 95.2642857,69.4 95.0642857,69.7 C94.9642857,69 94.7642857,68.4 94.5642857,67.5 L93.8642857,68.3 L94.5642857,68.9 L93.7642857,69.6 L94.0642857,69.9 L93.1642857,71.8 L92.7642857,71 C92.7642857,71.3 92.6642857,71.5 92.6642857,71.7 C92.6642857,71.9 92.7642857,72.1 93.1642857,72.2 C93.1642857,72.7 93.7642857,72.5 93.8642857,72.8 L93.9457672,73.062963 C93.997619,73.2111111 94.0642857,73.3 94.2642857,73.3 L94.3939153,73.2962963 C94.497619,73.2888889 94.6309524,73.2666667 94.7642857,73.2 L94.7642857,72.2 C94.7642857,71.7 94.8642857,71.5 95.3642857,71.1 C95.7642857,70.9 95.9642857,70.5 96.1642857,70.1 C96.2642857,70.1 96.1642857,70 95.6642857,69.9 C95.6642857,69.6 95.7642857,69.3 95.7642857,69 L96.2642857,69.4 L96.2642857,68.4 C96.2642857,67.3 96.1642857,66.3 95.6642857,65.1 C95.3642857,66 95.2642857,67.3 95.2642857,67.8 Z M73.4642857,80.2 L75.8642857,80 L74.8642857,79.1 L75.6892857,78.7 C75.9392857,78.575 76.1642857,78.45 76.3642857,78.3 L76.1642857,77.9 L77.0642857,77.6 C77.0642857,77.4 77.0642857,77.3 76.9642857,77.1 C76.8642857,77.1 76.4642857,76.9 76.5642857,76.8 L77.0642857,76.4 C77.1642857,76.4 77.2642857,76.5 77.3642857,76.5 L77.4722857,76.4055 C77.6192857,76.269 77.8642857,76.01 77.8642857,75.8 C78.1642857,75.8 78.4642857,75.7 79.1642857,75.5 L78.9709263,75.9833984 C78.8943638,76.1654297 78.8240513,76.3068359 78.7349888,76.4201172 L78.6642857,76.5 C78.5642857,76.7 78.1642857,76.6 77.9642857,76.7 L78.1642857,77.5 L77.3642857,77.5 C77.3642857,78.5 76.8642857,79 76.2642857,79.2 C76.3642857,79.4 76.4642857,79.6 76.6642857,79.7 C76.3642857,80 75.8642857,80.2 75.7642857,80.5 C75.5642857,81.1 74.9642857,81.3 74.8642857,81.9 L73.6642857,81.6 L73.6642857,81.2 C73.6642857,81.1 73.6642857,81 73.4642857,81 C73.3928571,81 73.372449,80.9489796 73.3666181,80.8469388 L73.3642857,80.7 C73.3642857,80.5 73.3642857,80.3 73.4642857,80.2 Z M93.1634029,87.6121006 C93.1546328,87.6511994 93.0831392,87.3610894 93.06736,87.0970843 L93.0631138,86.9613281 C93.0549107,86.865625 92.9892857,86.7125 92.4642857,86.1 L93.0642857,85.4 L93.4642857,85.9 L93.7642857,85.1 L94.7642857,85.3 C94.6842857,85.38 94.6682857,85.524 94.6650857,85.6296 L94.6642857,86.1 C94.6642857,86.4 94.5642857,86.7 93.9642857,86.8 C93.9642857,87.1 94.0642857,87.4 94.1642857,87.8 C93.7642857,87.9 93.3642857,88 92.9642857,88 C92.9642857,87.9231091 93.0825298,87.7870962 93.1371802,87.6828801 L93.1634029,87.6121006 L93.1634029,87.6121006 Z M94.4642857,63.8 C94.1642857,64.3 94.0642857,64.6 94.0642857,64.9 C94.0642857,65.2 94.1642857,65.4 94.5642857,65.7 C94.5642857,65.5 94.5642857,65.2 94.6642857,65 L95.3642857,64.4 C95.0642857,64.1 94.7642857,63.9 94.4642857,63.8 Z M92.9642857,88.1 C93.0642857,88.6 93.2642857,89 93.3642857,89.7 L92.1642857,89.5 C92.5642857,89 92.2642857,88.3 92.9642857,88.1 Z M106.264286,90.9 C106.564286,90.7 106.764286,90.4 106.964286,90.1 C107.164286,90 107.264286,89.8 107.264286,89.7 C107.264286,89.6 107.164286,89.5 107.064286,89.3 L105.764286,90.7 L106.055095,90.857476 C106.171693,90.9185185 106.264286,90.9555556 106.264286,90.9 Z M93.0642857,73.8 C93.1642857,73.6 93.1642857,73.4 93.1642857,73.1 C92.7642857,73.2 92.4642857,73.2 92.1642857,73.2 C92.1642857,73.3 92.0642857,73.5 92.0642857,73.6 C92.0642857,73.8 92.1642857,74 92.4642857,74.1 C92.6642857,74.1 92.9642857,74 93.0642857,73.8 Z M93.2642857,91.2 L92.6642857,91.7 C92.5642857,91.5 92.3642857,91.3 92.4642857,91.3 C92.5642857,91.1 92.5642857,91 92.5642857,90.8 C92.5642857,90.6 92.4642857,90.4 92.0642857,90.3 C92.9642857,90.3 93.0642857,90.8 93.2642857,91.2 Z M107.164286,87 C106.864286,87.3 106.664286,87.6 106.664286,88 C106.664286,88.2 106.764286,88.4 106.864286,88.6 C107.164286,88.3 107.264286,88.1 107.264286,87.8 C107.264286,87.6 107.164286,87.3 107.164286,87 Z M69.9642857,90.1 L69.5642857,89.9 L69.3642857,91 C69.8642857,90.9 69.9642857,90.7 69.9642857,90.1 Z M94.6642857,83.7 L94.2642857,84.7 C94.0642857,84.5 93.9642857,84.3 93.9642857,84.2 C93.9642857,83.9 94.2642857,83.8 94.6642857,83.7 Z M71.0642857,87 C71.0642857,87.1 71.1642857,87.2 71.2642857,87.4 L71.5642857,86.3 L71.0642857,86.3 L71.0642857,87 Z M91.6642857,76 L91.6642857,75.2 C91.3642857,75.4 91.2642857,75.5 91.2642857,75.6 C91.2642857,75.7 91.3642857,75.9 91.6642857,76 Z M93.1642857,74.7 C92.8642857,74.7 92.7642857,74.8 92.7642857,75 C92.7642857,75.1 92.8642857,75.3 92.8642857,75.4 L93.1642857,74.7 Z M94.8642857,70.8 C94.8642857,70.6 94.7642857,70.4 94.7642857,70.2 L95.0642857,69.8 L94.8642857,70.8 Z M93.0642857,92.8 C92.8642857,92.8 92.6642857,92.7 92.4642857,92.7 C92.5442857,92.62 92.6242857,92.604 92.7042857,92.6008 L92.7642857,92.6 C92.8642857,92.6 92.9642857,92.6 93.0642857,92.8 Z M89.6642857,89.3 L89.9642857,89.9 C89.7642857,89.9 89.6642857,89.7 89.6642857,89.3 Z M75.4642857,77.4 L76.0642857,77.8 C75.8642857,77.8 75.5642857,77.7 75.4642857,77.4 Z" id="Aa"></path>
                </g>
            </g>
        </g>
    </g>
</svg>