<?xml version="1.0" encoding="UTF-8"?>
<svg width="155px" height="235px" viewBox="0 0 155 235" version="1.1" xmlns="http://www.w3.org/2000/svg" xmlns:xlink="http://www.w3.org/1999/xlink">
    <title>Group 9</title>
    <g id="Page-1" stroke="none" stroke-width="1" fill="none" fill-rule="evenodd">
        <g id="Bondex" transform="translate(-622.000000, -3466.000000)" fill="#FAFAFA" fill-rule="nonzero">
            <g id="Group" transform="translate(298.000000, 3144.000000)">
                <g id="Group-9" transform="translate(324.150000, 322.600000)">
                    <path d="M7.53,32.4 L7.53,18.24 L12.53,18.24 L12.53,32.4 L19.73,32.4 L19.73,2.84217094e-13 L12.53,2.84217094e-13 L12.53,13.12 L7.53,13.12 L7.53,2.84217094e-13 L0.37,2.84217094e-13 L0.37,32.4 L7.53,32.4 Z M31.83,32.8 C34.23,32.8 36.11,32.2066667 37.47,31.02 C38.83,29.8333333 39.51,28.0666667 39.51,25.72 L39.51,25.72 L39.51,23.48 L33.51,23.48 L33.51,25.92 C33.51,26.48 33.4366667,26.92 33.29,27.24 C33.1433333,27.56 32.9433333,27.7933333 32.69,27.94 C32.4366667,28.0866667 32.15,28.16 31.83,28.16 C31.51,28.16 31.23,28.08 30.99,27.92 C30.75,27.76 30.5633333,27.4933333 30.43,27.12 C30.2966667,26.7466667 30.23,26.2666667 30.23,25.68 L30.23,25.68 L30.23,21.24 L39.51,21.24 L39.51,16.6 C39.51,14.92 39.2233333,13.5066667 38.65,12.36 C38.0766667,11.2133333 37.2233333,10.3466667 36.09,9.76 C34.9566667,9.17333333 33.5366667,8.88 31.83,8.88 C30.1766667,8.88 28.7433333,9.18 27.53,9.78 C26.3166667,10.38 25.39,11.2533333 24.75,12.4 C24.11,13.5466667 23.79,14.9466667 23.79,16.6 L23.79,16.6 L23.79,25.08 C23.79,26.7066667 24.11,28.1 24.75,29.26 C25.39,30.42 26.31,31.3 27.51,31.9 C28.71,32.5 30.15,32.8 31.83,32.8 Z M33.51,18.2 L30.23,18.2 L30.23,16.24 C30.23,15.52 30.2966667,14.9666667 30.43,14.58 C30.5633333,14.1933333 30.7433333,13.92 30.97,13.76 C31.1966667,13.6 31.47,13.52 31.79,13.52 C32.1366667,13.52 32.4366667,13.5866667 32.69,13.72 C32.9433333,13.8533333 33.1433333,14.0933333 33.29,14.44 C33.4366667,14.7866667 33.51,15.2666667 33.51,15.88 L33.51,15.88 L33.51,18.2 Z M47.81,32.8 C49.0366667,32.8 50.0166667,32.4266667 50.75,31.68 C51.4833333,30.9333333 51.9833333,30.08 52.25,29.12 C52.3033333,29.2533333 52.3833333,29.68 52.49,30.4 C52.5966667,31.12 52.69,31.7866667 52.77,32.4 L52.77,32.4 L58.61,32.4 C58.5566667,32.0266667 58.4966667,31.5733333 58.43,31.04 C58.3633333,30.5066667 58.31,29.88 58.27,29.16 C58.23,28.44 58.21,27.6 58.21,26.64 L58.21,26.64 L58.21,15.84 C58.21,13.7866667 57.63,12.1133333 56.47,10.82 C55.31,9.52666667 53.5566667,8.88 51.21,8.88 C48.5166667,8.88 46.4966667,9.54 45.15,10.86 C43.8033333,12.18 43.0633333,14.2266667 42.93,17 L42.93,17 L49.01,17.24 L49.17,15.56 C49.1966667,15.2133333 49.25,14.9 49.33,14.62 C49.41,14.34 49.55,14.12 49.75,13.96 C49.95,13.8 50.2366667,13.72 50.61,13.72 C50.9833333,13.72 51.2633333,13.8066667 51.45,13.98 C51.6366667,14.1533333 51.77,14.3933333 51.85,14.7 C51.93,15.0066667 51.97,15.36 51.97,15.76 L51.97,15.76 L51.97,18.08 C50.8766667,18.4533333 49.77,18.8733333 48.65,19.34 C47.53,19.8066667 46.5033333,20.3733333 45.57,21.04 C44.6366667,21.7066667 43.8833333,22.5333333 43.31,23.52 C42.7366667,24.5066667 42.45,25.72 42.45,27.16 C42.45,28.0666667 42.65,28.9533333 43.05,29.82 C43.45,30.6866667 44.05,31.4 44.85,31.96 C45.65,32.52 46.6366667,32.8 47.81,32.8 Z M50.13,28.4 C49.57,28.4 49.13,28.1733333 48.81,27.72 C48.49,27.2666667 48.33,26.6533333 48.33,25.88 C48.33,25.2933333 48.4166667,24.7666667 48.59,24.3 C48.7633333,23.8333333 49.01,23.4 49.33,23 C49.65,22.6 50.0366667,22.2333333 50.49,21.9 C50.9433333,21.5666667 51.4366667,21.24 51.97,20.92 L51.97,20.92 L51.97,27.24 C51.8366667,27.4266667 51.6766667,27.6133333 51.49,27.8 C51.3033333,27.9866667 51.0966667,28.1333333 50.87,28.24 C50.6433333,28.3466667 50.3966667,28.4 50.13,28.4 Z M67.07,32.8 C67.8433333,32.8 68.6166667,32.6066667 69.39,32.22 C70.1633333,31.8333333 70.91,31.2933333 71.63,30.6 L71.63,30.6 L71.63,32.4 L78.15,32.4 L78.15,2.84217094e-13 L71.63,2.84217094e-13 L71.63,10.72 C70.99,10.16 70.2833333,9.71333333 69.51,9.38 C68.7366667,9.04666667 67.9233333,8.88 67.07,8.88 C65.8966667,8.88 64.91,9.18666667 64.11,9.8 C63.31,10.4133333 62.71,11.26 62.31,12.34 C61.91,13.42 61.71,14.68 61.71,16.12 L61.71,16.12 L61.71,25.68 C61.71,28.0266667 62.1766667,29.8 63.11,31 C64.0433333,32.2 65.3633333,32.8 67.07,32.8 Z M69.91,28.64 C69.51,28.64 69.19,28.5266667 68.95,28.3 C68.71,28.0733333 68.5366667,27.7666667 68.43,27.38 C68.3233333,26.9933333 68.27,26.56 68.27,26.08 L68.27,26.08 L68.27,15.44 C68.27,14.7466667 68.4033333,14.1533333 68.67,13.66 C68.9366667,13.1666667 69.3633333,12.92 69.95,12.92 C70.2166667,12.92 70.4966667,12.9733333 70.79,13.08 C71.0833333,13.1866667 71.3633333,13.3066667 71.63,13.44 L71.63,13.44 L71.63,28.04 C71.31,28.2266667 70.9966667,28.3733333 70.69,28.48 C70.3833333,28.5866667 70.1233333,28.64 69.91,28.64 Z M88.73,5.36 L88.73,0.84 L82.17,0.84 L82.17,5.36 L88.73,5.36 Z M88.73,32.4 L88.73,9.28 L82.21,9.28 L82.21,32.4 L88.73,32.4 Z M99.27,32.4 L99.27,14.32 C99.6433333,14.0533333 100.01,13.8466667 100.37,13.7 C100.73,13.5533333 101.043333,13.48 101.31,13.48 C101.816667,13.48 102.163333,13.6266667 102.35,13.92 C102.536667,14.2133333 102.63,14.64 102.63,15.2 L102.63,15.2 L102.63,32.4 L109.11,32.4 L109.11,14.28 C109.11,13.24 108.95,12.3133333 108.63,11.5 C108.31,10.6866667 107.836667,10.0466667 107.21,9.58 C106.583333,9.11333333 105.79,8.88 104.83,8.88 C103.816667,8.88 102.85,9.12 101.93,9.6 C101.01,10.08 100.123333,10.7466667 99.27,11.6 L99.27,11.6 L99.27,9.28 L92.75,9.28 L92.75,32.4 L99.27,32.4 Z M120.53,40.4 C122.903333,40.4 124.816667,40.14 126.27,39.62 C127.723333,39.1 128.776667,38.3333333 129.43,37.32 C130.083333,36.3066667 130.41,35.0666667 130.41,33.6 C130.41,31.8933333 129.943333,30.5133333 129.01,29.46 C128.076667,28.4066667 126.623333,27.7733333 124.65,27.56 L124.65,27.56 L118.57,26.88 C117.743333,26.7733333 117.17,26.6266667 116.85,26.44 C116.53,26.2533333 116.37,26 116.37,25.68 C116.37,25.4133333 116.43,25.1666667 116.55,24.94 C116.67,24.7133333 116.81,24.4933333 116.97,24.28 C117.53,24.4666667 118.143333,24.62 118.81,24.74 C119.476667,24.86 120.183333,24.92 120.93,24.92 C122.69,24.92 124.156667,24.6066667 125.33,23.98 C126.503333,23.3533333 127.39,22.44 127.99,21.24 C128.59,20.04 128.89,18.6133333 128.89,16.96 C128.89,16.16 128.81,15.3866667 128.65,14.64 C128.49,13.8933333 128.263333,13.2266667 127.97,12.64 C128.343333,12.4266667 128.763333,12.2133333 129.23,12 C129.696667,11.7866667 130.143333,11.5866667 130.57,11.4 C130.996667,11.2133333 131.33,11.08 131.57,11 L131.57,11 L130.05,7.88 L129.21,8.28 C128.596667,8.57333333 128.05,8.93333333 127.57,9.36 C127.09,9.78666667 126.703333,10.2266667 126.41,10.68 C125.77,10.0666667 124.996667,9.61333333 124.09,9.32 C123.183333,9.02666667 122.13,8.88 120.93,8.88 C119.17,8.88 117.67,9.18666667 116.43,9.8 C115.19,10.4133333 114.25,11.32 113.61,12.52 C112.97,13.72 112.65,15.1866667 112.65,16.92 C112.65,18.3066667 112.843333,19.4866667 113.23,20.46 C113.616667,21.4333333 114.183333,22.2533333 114.93,22.92 C114.13,23.6133333 113.503333,24.3 113.05,24.98 C112.596667,25.66 112.37,26.4666667 112.37,27.4 C112.37,28.3866667 112.65,29.1733333 113.21,29.76 C113.77,30.3466667 114.556667,30.7866667 115.57,31.08 C114.876667,31.4 114.256667,31.78 113.71,32.22 C113.163333,32.66 112.736667,33.1666667 112.43,33.74 C112.123333,34.3133333 111.97,34.96 111.97,35.68 C111.97,36.7466667 112.323333,37.6266667 113.03,38.32 C113.736667,39.0133333 114.73,39.5333333 116.01,39.88 C117.29,40.2266667 118.796667,40.4 120.53,40.4 Z M120.93,21.04 C120.556667,21.04 120.25,20.9666667 120.01,20.82 C119.77,20.6733333 119.59,20.4333333 119.47,20.1 C119.35,19.7666667 119.263333,19.34 119.21,18.82 C119.156667,18.3 119.13,17.6666667 119.13,16.92 C119.13,16.1466667 119.156667,15.4933333 119.21,14.96 C119.263333,14.4266667 119.35,14 119.47,13.68 C119.59,13.36 119.77,13.1266667 120.01,12.98 C120.25,12.8333333 120.556667,12.76 120.93,12.76 C121.303333,12.76 121.61,12.8333333 121.85,12.98 C122.09,13.1266667 122.27,13.3666667 122.39,13.7 C122.51,14.0333333 122.596667,14.46 122.65,14.98 C122.703333,15.5 122.73,16.1466667 122.73,16.92 C122.73,17.6666667 122.703333,18.3066667 122.65,18.84 C122.596667,19.3733333 122.51,19.8 122.39,20.12 C122.27,20.44 122.09,20.6733333 121.85,20.82 C121.61,20.9666667 121.303333,21.04 120.93,21.04 Z M121.37,35.68 C119.716667,35.68 118.543333,35.52 117.85,35.2 C117.156667,34.88 116.81,34.4 116.81,33.76 C116.81,33.4666667 116.87,33.1933333 116.99,32.94 C117.11,32.6866667 117.27,32.4466667 117.47,32.22 C117.67,31.9933333 117.903333,31.7866667 118.17,31.6 L118.17,31.6 L122.45,32.04 C123.356667,32.12 124.056667,32.2333333 124.55,32.38 C125.043333,32.5266667 125.396667,32.7133333 125.61,32.94 C125.823333,33.1666667 125.93,33.4666667 125.93,33.84 C125.93,34.5866667 125.536667,35.08 124.75,35.32 C123.963333,35.56 122.836667,35.68 121.37,35.68 Z M153.21,32.4 L153.21,2.84217094e-13 L147.97,2.84217094e-13 C147.703333,0.266666667 147.303333,0.58 146.77,0.94 C146.236667,1.3 145.663333,1.65333333 145.05,2 C144.436667,2.34666667 143.863333,2.66 143.33,2.94 C142.796667,3.22 142.383333,3.44 142.09,3.6 L142.09,3.6 L142.09,8.56 C142.41,8.4 142.763333,8.24 143.15,8.08 C143.536667,7.92 143.936667,7.75333333 144.35,7.58 C144.763333,7.40666667 145.156667,7.24 145.53,7.08 C145.903333,6.92 146.236667,6.76 146.53,6.6 L146.53,6.6 L146.53,32.4 L153.21,32.4 Z" id="Heading1"></path>
                    <path d="M8.29,130.4 L8.289,121.76 L16.929,121.76 L16.93,130.4 L22.45,130.4 L22.45,109.04 L16.93,109.04 L16.929,117.351 L8.289,117.351 L8.29,109.04 L2.77,109.04 L2.77,130.4 L8.29,130.4 Z M33.77125,130.64 C34.85125,130.64 35.93125,130.485 37.01125,130.175 C38.09125,129.865 39.01125,129.42 39.77125,128.84 L39.77125,128.84 L38.39125,125.24 C37.79125,125.68 37.10625,126.025 36.33625,126.275 C35.56625,126.525 34.80125,126.65 34.04125,126.65 C32.78125,126.65 31.86125,126.315 31.28125,125.645 C30.8559167,125.153667 30.5865389,124.417644 30.4731167,123.436933 L30.461,123.32 L40.04125,123.32 L40.04125,122.6 C40.04125,121 39.75125,119.61 39.17125,118.43 C38.59125,117.25 37.76625,116.34 36.69625,115.7 C35.62625,115.06 34.36125,114.74 32.90125,114.74 C31.40125,114.74 30.08125,115.08 28.94125,115.76 C27.80125,116.44 26.90625,117.38 26.25625,118.58 C25.60625,119.78 25.28125,121.16 25.28125,122.72 C25.28125,124.34 25.62125,125.745 26.30125,126.935 C26.98125,128.125 27.95625,129.04 29.22625,129.68 C30.49625,130.32 32.01125,130.64 33.77125,130.64 Z M35.397,120.8 L30.537,120.8 L30.555037,120.705385 C30.650895,120.253077 30.794682,119.87 30.9863979,119.556154 L31.08625,119.405 C31.53625,118.775 32.19125,118.46 33.05125,118.46 C33.83125,118.46 34.42625,118.725 34.83625,119.255 C35.1095833,119.608333 35.2918056,120.083889 35.3829167,120.681667 L35.397,120.8 Z M48.5725,130.64 C49.7325,130.64 50.7775,130.37 51.7075,129.83 C52.3275,129.47 52.8163889,129.021111 53.1741667,128.483333 L53.252,128.358 L53.2525,130.4 L58.5925,130.4 L58.5925,115.16 L53.2525,115.16 L53.252,117.093 L53.1741667,116.968333 C52.8611111,116.499722 52.4476736,116.09066 51.9338542,115.741146 L51.7075,115.595 C50.7775,115.025 49.7325,114.74 48.5725,114.74 C47.2725,114.74 46.1175,115.08 45.1075,115.76 C44.0975,116.44 43.3025,117.385 42.7225,118.595 C42.1425,119.805 41.8525,121.21 41.8525,122.81 C41.8525,124.39 42.1375,125.77 42.7075,126.95 C43.2775,128.13 44.0725,129.04 45.0925,129.68 C46.1125,130.32 47.2725,130.64 48.5725,130.64 Z M50.2525,126.59 C49.2725,126.59 48.5225,126.265 48.0025,125.615 C47.4825,124.965 47.2225,124.03 47.2225,122.81 C47.2225,121.55 47.4925,120.575 48.0325,119.885 C48.5725,119.195 49.3125,118.85 50.2525,118.85 C51.2125,118.85 51.9525,119.18 52.4725,119.84 C52.9925,120.5 53.2525,121.47 53.2525,122.75 C53.2525,123.99 52.9875,124.94 52.4575,125.6 C51.9275,126.26 51.1925,126.59 50.2525,126.59 Z M67.84375,130.64 C69.00375,130.64 70.04875,130.37 70.97875,129.83 C71.59875,129.47 72.0876389,129.021111 72.4454167,128.483333 L72.523,128.358 L72.52375,130.4 L77.86375,130.4 L77.86375,108.32 L72.43375,108.32 L72.433,116.938 L72.3051042,116.760938 C72.0121875,116.379688 71.6455208,116.039688 71.2051042,115.740938 L70.97875,115.595 C70.04875,115.025 69.00375,114.74 67.84375,114.74 C66.54375,114.74 65.38375,115.065 64.36375,115.715 C63.34375,116.365 62.54875,117.285 61.97875,118.475 C61.40875,119.665 61.12375,121.05 61.12375,122.63 C61.12375,124.23 61.41375,125.63 61.99375,126.83 C62.57375,128.03 63.36875,128.965 64.37875,129.635 C65.38875,130.305 66.54375,130.64 67.84375,130.64 Z M69.52375,126.59 C68.58375,126.59 67.84375,126.25 67.30375,125.57 C66.76375,124.89 66.49375,123.91 66.49375,122.63 C66.49375,121.41 66.75375,120.475 67.27375,119.825 C67.79375,119.175 68.54375,118.85 69.52375,118.85 C70.46375,118.85 71.19875,119.185 71.72875,119.855 C72.25875,120.525 72.52375,121.47 72.52375,122.69 C72.52375,123.97 72.26375,124.94 71.74375,125.6 C71.22375,126.26 70.48375,126.59 69.52375,126.59 Z M86.605,112.58 L86.605,107.69 L80.935,107.69 L80.935,112.58 L86.605,112.58 Z M86.515,130.4 L86.515,115.16 L81.085,115.16 L81.085,130.4 L86.515,130.4 Z M95.16625,130.4 L95.16625,121.91 C95.16625,121.01 95.41625,120.285 95.91625,119.735 C96.41625,119.185 97.07625,118.91 97.89625,118.91 C98.57625,118.91 99.07625,119.115 99.39625,119.525 C99.71625,119.935 99.87625,120.61 99.87625,121.55 L99.87625,121.55 L99.87625,130.4 L105.30625,130.4 L105.30625,121.31 C105.30625,116.93 103.51625,114.74 99.93625,114.74 C98.75625,114.74 97.71125,115.015 96.80125,115.565 C96.07325,116.005 95.45725,116.589 94.95325,117.317 L94.88,117.429 L94.59625,115.16 L89.49625,115.16 C89.59625,115.88 89.66125,116.61 89.69125,117.35 C89.72125,118.09 89.73625,118.82 89.73625,119.54 L89.73625,119.54 L89.73625,130.4 L95.16625,130.4 Z M115.8175,137.12 C118.7175,137.12 120.9175,136.47 122.4175,135.17 C123.9175,133.87 124.6675,131.96 124.6675,129.44 L124.6675,129.44 L124.6675,115.16 L119.2675,115.16 L119.267,117.08 L119.1875,116.955 C118.8725,116.494167 118.455417,116.089479 117.93625,115.740938 L117.7075,115.595 C116.7675,115.025 115.7075,114.74 114.5275,114.74 C113.2275,114.74 112.0625,115.06 111.0325,115.7 C110.0025,116.34 109.1975,117.23 108.6175,118.37 C108.0375,119.51 107.7475,120.84 107.7475,122.36 C107.7475,123.9 108.0375,125.245 108.6175,126.395 C109.1975,127.545 110.0025,128.43 111.0325,129.05 C112.0625,129.67 113.2275,129.98 114.5275,129.98 C115.3075,129.98 116.0425,129.83 116.7325,129.53 C117.4225,129.23 118.0175,128.85 118.5175,128.39 C118.803214,128.127143 119.04648,127.864286 119.247296,127.601429 L119.267,127.574 L119.2675,129.86 C119.2675,130.893846 119.016139,131.676331 118.513417,132.207456 L118.3825,132.335 C117.7925,132.865 116.8775,133.13 115.6375,133.13 C114.7975,133.13 113.9025,133.02 112.9525,132.8 C112.0025,132.58 111.0775,132.26 110.1775,131.84 L110.1775,131.84 L109.3675,135.8 C111.2275,136.68 113.3775,137.12 115.8175,137.12 Z M116.2075,125.93 C115.2675,125.93 114.5175,125.61 113.9575,124.97 C113.3975,124.33 113.1175,123.46 113.1175,122.36 C113.1175,121.26 113.3925,120.4 113.9425,119.78 C114.4925,119.16 115.2475,118.85 116.2075,118.85 C117.1875,118.85 117.9425,119.165 118.4725,119.795 C119.0025,120.425 119.2675,121.28 119.2675,122.36 C119.2675,123.48 118.9975,124.355 118.4575,124.985 C117.9175,125.615 117.1675,125.93 116.2075,125.93 Z M151.66,130.4 L151.66,125.93 L143.499,125.931 L147.76,121.58 C148.841667,120.443333 149.633438,119.403299 150.135313,118.459896 L150.265,118.205 C150.755,117.195 151,116.06 151,114.8 C151,113.58 150.685,112.515 150.055,111.605 C149.425,110.695 148.535,109.995 147.385,109.505 C146.235,109.015 144.89,108.77 143.35,108.77 C141.93,108.77 140.535,108.975 139.165,109.385 C137.795,109.795 136.68,110.35 135.82,111.05 L135.82,111.05 L137.59,115.04 C138.51,114.42 139.44,113.945 140.38,113.615 C141.32,113.285 142.21,113.12 143.05,113.12 C143.85,113.12 144.46,113.29 144.88,113.63 C145.3,113.97 145.51,114.49 145.51,115.19 C145.51,115.79 145.345,116.405 145.015,117.035 C144.685,117.665 144.2,118.32 143.56,119 L143.56,119 L136.6,126.26 L136.6,130.4 L151.66,130.4 Z" id="Heading2"></path>
                    <path d="M2.275,228.4 L2.275,220.325 L12.6,220.325 L12.6,228.4 L14.9,228.4 L14.9,210.6 L12.6,210.6 L12.6,218.4 L2.275,218.4 L2.275,210.6 L1.08002496e-12,210.6 L1.08002496e-12,228.4 L2.275,228.4 Z M24.559375,228.575 C25.459375,228.575 26.3427083,228.429167 27.209375,228.1375 C28.0760417,227.845833 28.784375,227.441667 29.334375,226.925 L29.334375,226.925 L28.609375,225.3 C28.009375,225.783333 27.3760417,226.145833 26.709375,226.3875 C26.0427083,226.629167 25.3427083,226.75 24.609375,226.75 C23.2427083,226.75 22.209375,226.345833 21.509375,225.5375 C20.809375,224.729167 20.459375,223.525 20.459375,221.925 L20.462,222.1 L29.559375,222.1 L29.559375,221.7 C29.559375,220.416667 29.346875,219.3125 28.921875,218.3875 C28.496875,217.4625 27.8802083,216.75 27.071875,216.25 C26.2635417,215.75 25.2927083,215.5 24.159375,215.5 C22.9927083,215.5 21.959375,215.779167 21.059375,216.3375 C20.159375,216.895833 19.4552083,217.666667 18.946875,218.65 C18.4385417,219.633333 18.184375,220.775 18.184375,222.075 C18.184375,223.425 18.4427083,224.5875 18.959375,225.5625 C19.4760417,226.5375 20.209375,227.283333 21.159375,227.8 C22.109375,228.316667 23.2427083,228.575 24.559375,228.575 Z M27.535,220.7 L20.545,220.7 L20.5853316,220.461671 C20.7196854,219.748406 20.9615221,219.142623 21.3108418,218.644324 L21.446875,218.4625 C22.1052083,217.6375 23.0177083,217.225 24.184375,217.225 C25.3010417,217.225 26.1510417,217.6 26.734375,218.35 C27.1510417,218.885714 27.4103954,219.591497 27.5124362,220.467347 L27.535,220.7 Z M41.5243056,217.770833 C41.2206019,217.1875 40.8020833,216.709722 40.26875,216.3375 C39.46875,215.779167 38.5020833,215.5 37.36875,215.5 C36.2854167,215.5 35.3229167,215.779167 34.48125,216.3375 C33.6395833,216.895833 32.98125,217.666667 32.50625,218.65 C32.03125,219.633333 31.79375,220.783333 31.79375,222.1 C31.79375,223.416667 32.0270833,224.5625 32.49375,225.5375 C32.9604167,226.5125 33.6145833,227.2625 34.45625,227.7875 C35.2979167,228.3125 36.26875,228.575 37.36875,228.575 C38.5020833,228.575 39.46875,228.295833 40.26875,227.7375 C40.8020833,227.365278 41.2206019,226.891204 41.5243056,226.315278 L41.593,226.175 L41.59375,228.4 L43.84375,228.4 L43.84375,215.825 L41.59375,215.825 L41.593,217.914 L41.5243056,217.770833 Z M37.86875,226.725 C36.6854167,226.725 35.7604167,226.325 35.09375,225.525 C34.4270833,224.725 34.09375,223.583333 34.09375,222.1 C34.09375,220.616667 34.4270833,219.458333 35.09375,218.625 C35.7604167,217.791667 36.6854167,217.375 37.86875,217.375 C39.0520833,217.375 39.96875,217.779167 40.61875,218.5875 C41.26875,219.395833 41.59375,220.55 41.59375,222.05 C41.59375,223.55 41.2729167,224.704167 40.63125,225.5125 C39.9895833,226.320833 39.06875,226.725 37.86875,226.725 Z M52.453125,228.575 C53.5864583,228.575 54.553125,228.295833 55.353125,227.7375 C55.8864583,227.365278 56.3049769,226.891204 56.6086806,226.315278 L56.678,226.175 L56.678125,228.4 L58.928125,228.4 L58.928125,210 L56.653125,210 L56.653,217.863 L56.6086806,217.772222 C56.3429398,217.273148 55.989294,216.847801 55.5477431,216.496181 L55.353125,216.35 C54.553125,215.783333 53.5864583,215.5 52.453125,215.5 C51.353125,215.5 50.3822917,215.766667 49.540625,216.3 C48.6989583,216.833333 48.0447917,217.5875 47.578125,218.5625 C47.1114583,219.5375 46.878125,220.683333 46.878125,222 C46.878125,223.316667 47.115625,224.470833 47.590625,225.4625 C48.065625,226.454167 48.7239583,227.220833 49.565625,227.7625 C50.4072917,228.304167 51.3697917,228.575 52.453125,228.575 Z M52.953125,226.725 C51.7697917,226.725 50.8447917,226.3125 50.178125,225.4875 C49.5114583,224.6625 49.178125,223.5 49.178125,222 C49.178125,220.533333 49.5114583,219.395833 50.178125,218.5875 C50.8447917,217.779167 51.7697917,217.375 52.953125,217.375 C54.153125,217.375 55.0739583,217.783333 55.715625,218.6 C56.3572917,219.416667 56.678125,220.566667 56.678125,222.05 C56.678125,223.55 56.353125,224.704167 55.703125,225.5125 C55.053125,226.320833 54.1364583,226.725 52.953125,226.725 Z M65.1875,212.875 L65.1875,210.4 L62.5125,210.4 L62.5125,212.875 L65.1875,212.875 Z M64.9875,228.4 L64.9875,215.825 L62.7125,215.825 L62.7125,228.4 L64.9875,228.4 Z M71.046875,228.4 L71.046875,221.2 C71.046875,220.033333 71.3802083,219.104167 72.046875,218.4125 C72.7135417,217.720833 73.6052083,217.375 74.721875,217.375 C75.6885417,217.375 76.3927083,217.6375 76.834375,218.1625 C77.2760417,218.6875 77.496875,219.516667 77.496875,220.65 L77.496875,220.65 L77.496875,228.4 L79.771875,228.4 L79.771875,220.525 C79.771875,217.175 78.2635417,215.5 75.246875,215.5 C74.196875,215.5 73.2677083,215.7625 72.459375,216.2875 C71.7980114,216.717045 71.2844783,217.3 70.9187758,218.036364 L70.915,218.044 L70.721875,215.825 L68.571875,215.825 C68.6552083,216.408333 68.709375,216.995833 68.734375,217.5875 C68.759375,218.179167 68.771875,218.766667 68.771875,219.35 L68.771875,219.35 L68.771875,228.4 L71.046875,228.4 Z M89.05625,233.975 C90.9729167,233.975 92.4270833,233.495833 93.41875,232.5375 C94.4104167,231.579167 94.90625,230.141667 94.90625,228.225 L94.90625,228.225 L94.90625,215.825 L92.63125,215.825 L92.631,217.915 L92.5604167,217.772222 C92.2930556,217.273148 91.9363715,216.847801 91.4903646,216.496181 L91.29375,216.35 C90.4854167,215.783333 89.50625,215.5 88.35625,215.5 C87.25625,215.5 86.28125,215.7625 85.43125,216.2875 C84.58125,216.8125 83.91875,217.545833 83.44375,218.4875 C82.96875,219.429167 82.73125,220.525 82.73125,221.775 C82.73125,223.025 82.96875,224.116667 83.44375,225.05 C83.91875,225.983333 84.58125,226.7125 85.43125,227.2375 C86.28125,227.7625 87.25625,228.025 88.35625,228.025 C89.1395833,228.025 89.8354167,227.891667 90.44375,227.625 C91.0520833,227.358333 91.56875,226.9875 91.99375,226.5125 C92.2366071,226.241071 92.4427296,225.941071 92.6121173,225.6125 L92.656,225.521 L92.65625,228.425 C92.65625,229.570238 92.3939838,230.45321 91.8694515,231.073916 L91.74375,231.2125 C91.1354167,231.8375 90.2395833,232.15 89.05625,232.15 C88.1895833,232.15 87.4020833,232.05 86.69375,231.85 C85.9854167,231.65 85.2395833,231.325 84.45625,230.875 L84.45625,230.875 L84.05625,232.7 C85.4729167,233.55 87.1395833,233.975 89.05625,233.975 Z M88.85625,226.15 C87.6729167,226.15 86.7395833,225.766667 86.05625,225 C85.3729167,224.233333 85.03125,223.158333 85.03125,221.775 C85.03125,220.408333 85.3729167,219.333333 86.05625,218.55 C86.7395833,217.766667 87.6729167,217.375 88.85625,217.375 C90.0395833,217.375 90.9645833,217.766667 91.63125,218.55 C92.2979167,219.333333 92.63125,220.408333 92.63125,221.775 C92.63125,223.141667 92.2979167,224.2125 91.63125,224.9875 C90.9645833,225.7625 90.0395833,226.15 88.85625,226.15 Z M110.65,228.575 C112.466667,228.575 113.9125,228.129167 114.9875,227.2375 C116.0625,226.345833 116.6,225.125 116.6,223.575 C116.6,222.391667 116.283333,221.416667 115.65,220.65 C115.114103,220.001282 114.381312,219.537525 113.451627,219.258728 L113.382,219.24 L113.49938,219.196488 C114.170455,218.926515 114.729132,218.528719 115.175413,218.003099 L115.3375,217.8 C115.9125,217.033333 116.2,216.1 116.2,215 C116.2,214.066667 115.979167,213.254167 115.5375,212.5625 C115.095833,211.870833 114.470833,211.3375 113.6625,210.9625 C112.854167,210.5875 111.9,210.4 110.8,210.4 C109.683333,210.4 108.595833,210.591667 107.5375,210.975 C106.479167,211.358333 105.591667,211.891667 104.875,212.575 L104.875,212.575 L105.725,214.325 C106.525,213.658333 107.3375,213.154167 108.1625,212.8125 C108.9875,212.470833 109.833333,212.3 110.7,212.3 C111.716667,212.3 112.504167,212.55 113.0625,213.05 C113.620833,213.55 113.9,214.266667 113.9,215.2 C113.9,216.233333 113.566667,217.025 112.9,217.575 C112.233333,218.125 111.258333,218.4 109.975,218.4 L109.975,218.4 L108.25,218.4 L108.25,220.325 L110.375,220.325 C111.708333,220.325 112.7,220.583333 113.35,221.1 C114,221.616667 114.325,222.4 114.325,223.45 C114.325,224.516667 114.008333,225.320833 113.375,225.8625 C112.741667,226.404167 111.808333,226.675 110.575,226.675 C109.658333,226.675 108.775,226.504167 107.925,226.1625 C107.075,225.820833 106.258333,225.316667 105.475,224.65 L105.475,224.65 L104.6,226.4 C105.333333,227.1 106.233333,227.6375 107.3,228.0125 C108.366667,228.3875 109.483333,228.575 110.65,228.575 Z" id="Heading3"></path>
                </g>
            </g>
        </g>
    </g>
</svg>