<?xml version="1.0" encoding="UTF-8"?>
<svg width="102px" height="288px" viewBox="0 0 102 288" version="1.1" xmlns="http://www.w3.org/2000/svg" xmlns:xlink="http://www.w3.org/1999/xlink">
    <title>Typeface</title>
    <g id="Page-1" stroke="none" stroke-width="1" fill="none" fill-rule="evenodd">
        <g id="Bondex" transform="translate(-400.000000, -3420.000000)" fill-rule="nonzero">
            <g id="Group" transform="translate(298.000000, 3144.000000)">
                <g id="Typeface" transform="translate(102.000000, 276.000000)">
                    <path d="M17.1,107 L19.62,91.61 L30.33,91.61 L32.76,107 L47.61,107 L34.02,34.1 L15.66,34.1 L1.89,107 L17.1,107 Z M28.8,81.98 L21.06,81.98 L24.93,53.54 L28.8,81.98 Z M64.8578571,107.9 C67.6178571,107.9 69.8228571,107.06 71.4728571,105.38 C73.1228571,103.7 74.2478571,101.78 74.8478571,99.62 C74.9678571,99.92 75.1478571,100.88 75.3878571,102.5 C75.6278571,104.12 75.8378571,105.62 76.0178571,107 L76.0178571,107 L89.1578571,107 C89.0378571,106.16 88.9028571,105.14 88.7528571,103.94 C88.6028571,102.74 88.4828571,101.33 88.3928571,99.71 C88.3028571,98.09 88.2578571,96.2 88.2578571,94.04 L88.2578571,94.04 L88.2578571,69.74 C88.2578571,65.12 86.9528571,61.355 84.3428571,58.445 C81.7328571,55.535 77.7878571,54.08 72.5078571,54.08 C66.4478571,54.08 61.9028571,55.565 58.8728571,58.535 C55.8428571,61.505 54.1778571,66.11 53.8778571,72.35 L53.8778571,72.35 L67.5578571,72.89 L67.9178571,69.11 C67.9778571,68.33 68.0978571,67.625 68.2778571,66.995 C68.4578571,66.365 68.7728571,65.87 69.2228571,65.51 C69.6728571,65.15 70.3178571,64.97 71.1578571,64.97 C71.9978571,64.97 72.6278571,65.165 73.0478571,65.555 C73.4678571,65.945 73.7678571,66.485 73.9478571,67.175 C74.1278571,67.865 74.2178571,68.66 74.2178571,69.56 L74.2178571,69.56 L74.2178571,74.78 C71.7578571,75.62 69.2678571,76.565 66.7478571,77.615 C64.2278571,78.665 61.9178571,79.94 59.8178571,81.44 C57.7178571,82.94 56.0228571,84.8 54.7328571,87.02 C53.4428571,89.24 52.7978571,91.97 52.7978571,95.21 C52.7978571,97.25 53.2478571,99.245 54.1478571,101.195 C55.0478571,103.145 56.3978571,104.75 58.1978571,106.01 C59.9978571,107.27 62.2178571,107.9 64.8578571,107.9 Z M70.0778571,98 C68.8178571,98 67.8278571,97.49 67.1078571,96.47 C66.3878571,95.45 66.0278571,94.07 66.0278571,92.33 C66.0278571,91.01 66.2228571,89.825 66.6128571,88.775 C67.0028571,87.725 67.5578571,86.75 68.2778571,85.85 C68.9978571,84.95 69.8678571,84.125 70.8878571,83.375 C71.9078571,82.625 73.0178571,81.89 74.2178571,81.17 L74.2178571,81.17 L74.2178571,95.39 C73.9178571,95.81 73.5578571,96.23 73.1378571,96.65 C72.7178571,97.07 72.2528571,97.4 71.7428571,97.64 C71.2328571,97.88 70.6778571,98 70.0778571,98 Z" id="Aa" fill="#FAFAFA"></path>
                    <path d="M4.354,163 L4.354,154.39 L7.406,154.39 L7.406,153.662 L0.49,153.662 L0.49,154.39 L3.542,154.39 L3.542,163 L4.354,163 Z M14.628,163 L14.628,159.01 L18.338,153.662 L17.372,153.662 L14.222,158.254 L11.072,153.662 L10.106,153.662 L13.816,159.01 L13.816,163 L14.628,163 Z M22.508,163 L22.508,159.122 L25.21,159.122 C26.988,159.122 28.024,157.862 28.024,156.392 C28.024,154.922 27.002,153.662 25.21,153.662 L21.71,153.662 L21.71,163 L22.508,163 Z M25.126,158.394 L22.508,158.394 L22.508,154.39 L25.126,154.39 C26.372,154.39 27.184,155.216 27.184,156.392 C27.184,157.554 26.372,158.394 25.126,158.394 Z M37.626,163 L37.626,162.272 L32.502,162.272 L32.502,158.576 L37.528,158.576 L37.528,157.848 L32.502,157.848 L32.502,154.39 L37.626,154.39 L37.626,153.662 L31.704,153.662 L31.704,163 L37.626,163 Z M42.398,163 L42.398,158.576 L47.424,158.576 L47.424,157.848 L42.398,157.848 L42.398,154.39 L47.522,154.39 L47.522,153.662 L41.6,153.662 L41.6,163 L42.398,163 Z M50.698,163 L51.622,160.704 L56.564,160.704 L57.488,163 L58.412,163 L54.59,153.662 L53.596,153.662 L49.774,163 L50.698,163 Z M56.298,159.976 L51.888,159.976 L54.1,154.516 L56.298,159.976 Z M65.62,163.168 C67.104,163.168 68.196,162.524 69.036,161.502 L68.35,161.082 C67.762,161.894 66.74,162.44 65.62,162.44 C63.436,162.44 61.728,160.746 61.728,158.338 C61.728,155.902 63.436,154.236 65.62,154.236 C66.74,154.236 67.762,154.782 68.35,155.594 L69.022,155.16 C68.238,154.166 67.104,153.508 65.62,153.508 C62.974,153.508 60.888,155.468 60.888,158.338 C60.888,161.208 62.974,163.168 65.62,163.168 Z M78.554,163 L78.554,162.272 L73.43,162.272 L73.43,158.576 L78.456,158.576 L78.456,157.848 L73.43,157.848 L73.43,154.39 L78.554,154.39 L78.554,153.662 L72.632,153.662 L72.632,163 L78.554,163 Z" id="TYPEFACE" fill="#9A9A9A"></path>
                    <rect id="Rectangle" fill="#606060" x="0" y="192" width="1" height="92"></rect>
                    <path d="M13.088,202.168 C13.9466667,202.168 14.6256667,202.018667 15.125,201.72 C15.6243333,201.421333 15.9813333,200.992 16.196,200.432 C16.4106667,199.872 16.518,199.204667 16.518,198.43 L16.518,198.43 L16.518,194.216 C16.518,193.432 16.4106667,192.764667 16.196,192.214 C15.9813333,191.663333 15.6243333,191.241 15.125,190.947 C14.6256667,190.653 13.9466667,190.506 13.088,190.506 C12.2386667,190.506 11.5666667,190.653 11.072,190.947 C10.5773333,191.241 10.2226667,191.663333 10.008,192.214 C9.79333333,192.764667 9.686,193.432 9.686,194.216 L9.686,194.216 L9.686,198.43 C9.686,199.204667 9.79333333,199.872 10.008,200.432 C10.2226667,200.992 10.5773333,201.421333 11.072,201.72 C11.5666667,202.018667 12.2386667,202.168 13.088,202.168 Z M13.088,200.39 C12.8266667,200.39 12.6376667,200.324667 12.521,200.194 C12.4043333,200.063333 12.3296667,199.895333 12.297,199.69 C12.2643333,199.484667 12.248,199.274667 12.248,199.06 L12.248,199.06 L12.248,193.6 C12.248,193.376 12.2666667,193.163667 12.304,192.963 C12.3413333,192.762333 12.4206667,192.596667 12.542,192.466 C12.6633333,192.335333 12.8453333,192.27 13.088,192.27 C13.3493333,192.27 13.5406667,192.335333 13.662,192.466 C13.7833333,192.596667 13.8626667,192.762333 13.9,192.963 C13.9373333,193.163667 13.956,193.376 13.956,193.6 L13.956,193.6 L13.956,199.06 C13.956,199.274667 13.9373333,199.484667 13.9,199.69 C13.8626667,199.895333 13.7833333,200.063333 13.662,200.194 C13.5406667,200.324667 13.3493333,200.39 13.088,200.39 Z M20.41,202.14 C20.8393333,202.14 21.243,202.056 21.621,201.888 C21.999,201.72 22.3046667,201.470333 22.538,201.139 C22.7713333,200.807667 22.888,200.408667 22.888,199.942 C22.888,199.596667 22.8156667,199.288667 22.671,199.018 C22.5263333,198.747333 22.342,198.5 22.118,198.276 C21.894,198.052 21.6653333,197.842 21.432,197.646 L21.432,197.646 L20.858,197.142 C20.5033333,196.852667 20.2256667,196.605333 20.025,196.4 C19.8243333,196.194667 19.724,196.003333 19.724,195.826 C19.724,195.686 19.7683333,195.574 19.857,195.49 C19.9456667,195.406 20.0646667,195.364 20.214,195.364 C20.382,195.364 20.5383333,195.424667 20.683,195.546 C20.8276667,195.667333 20.9513333,195.816667 21.054,195.994 C21.1566667,196.171333 21.236,196.348667 21.292,196.526 L21.292,196.526 L22.762,195.854 C22.5846667,195.191333 22.272,194.678 21.824,194.314 C21.376,193.95 20.8206667,193.768 20.158,193.768 C19.7193333,193.768 19.3086667,193.861333 18.926,194.048 C18.5433333,194.234667 18.2376667,194.496 18.009,194.832 C17.7803333,195.168 17.666,195.555333 17.666,195.994 C17.666,196.498 17.7896667,196.920333 18.037,197.261 C18.2843333,197.601667 18.6226667,197.954 19.052,198.318 L19.052,198.318 L19.64,198.808 C20.06,199.153333 20.3516667,199.414667 20.515,199.592 C20.6783333,199.769333 20.76,199.965333 20.76,200.18 C20.76,200.310667 20.7156667,200.413333 20.627,200.488 C20.5383333,200.562667 20.4053333,200.6 20.228,200.6 C19.9853333,200.6 19.7636667,200.495 19.563,200.285 C19.3623333,200.075 19.1873333,199.788 19.038,199.424 L19.038,199.424 L17.484,200.11 C17.7826667,200.828667 18.1676667,201.346667 18.639,201.664 C19.1103333,201.981333 19.7006667,202.14 20.41,202.14 Z M26.556,202 L27.34,197.45 L28.04,202 L30,202 L31.204,193.908 L29.44,193.908 L28.754,198.612 L28.208,193.908 L26.556,193.908 L25.926,198.5 L25.338,193.908 L23.434,193.908 L24.624,202 L26.556,202 Z M33.878,202.14 C34.3073333,202.14 34.6503333,202.009333 34.907,201.748 C35.1636667,201.486667 35.3386667,201.188 35.432,200.852 C35.4506667,200.898667 35.4786667,201.048 35.516,201.3 C35.5533333,201.552 35.586,201.785333 35.614,202 L35.614,202 L37.658,202 C37.6393333,201.869333 37.6183333,201.710667 37.595,201.524 C37.5716667,201.337333 37.553,201.118 37.539,200.866 C37.525,200.614 37.518,200.32 37.518,199.984 L37.518,199.984 L37.518,196.204 C37.518,195.485333 37.315,194.899667 36.909,194.447 C36.503,193.994333 35.8893333,193.768 35.068,193.768 C34.1253333,193.768 33.4183333,193.999 32.947,194.461 C32.4756667,194.923 32.2166667,195.639333 32.17,196.61 L32.17,196.61 L34.298,196.694 L34.354,196.106 C34.3633333,195.984667 34.382,195.875 34.41,195.777 C34.438,195.679 34.487,195.602 34.557,195.546 C34.627,195.49 34.7273333,195.462 34.858,195.462 C34.9886667,195.462 35.0866667,195.492333 35.152,195.553 C35.2173333,195.613667 35.264,195.697667 35.292,195.805 C35.32,195.912333 35.334,196.036 35.334,196.176 L35.334,196.176 L35.334,196.988 C34.9513333,197.118667 34.564,197.265667 34.172,197.429 C33.78,197.592333 33.4206667,197.790667 33.094,198.024 C32.7673333,198.257333 32.5036667,198.546667 32.303,198.892 C32.1023333,199.237333 32.002,199.662 32.002,200.166 C32.002,200.483333 32.072,200.793667 32.212,201.097 C32.352,201.400333 32.562,201.65 32.842,201.846 C33.122,202.042 33.4673333,202.14 33.878,202.14 Z M34.69,200.6 C34.494,200.6 34.34,200.520667 34.228,200.362 C34.116,200.203333 34.06,199.988667 34.06,199.718 C34.06,199.512667 34.0903333,199.328333 34.151,199.165 C34.2116667,199.001667 34.298,198.85 34.41,198.71 C34.522,198.57 34.6573333,198.441667 34.816,198.325 C34.9746667,198.208333 35.1473333,198.094 35.334,197.982 L35.334,197.982 L35.334,200.194 C35.2873333,200.259333 35.2313333,200.324667 35.166,200.39 C35.1006667,200.455333 35.0283333,200.506667 34.949,200.544 C34.8696667,200.581333 34.7833333,200.6 34.69,200.6 Z M41.242,202 L41.242,190.66 L38.974,190.66 L38.974,202 L41.242,202 Z M44.462,202.14 C44.7326667,202.14 45.0033333,202.072333 45.274,201.937 C45.5446667,201.801667 45.806,201.612667 46.058,201.37 L46.058,201.37 L46.058,202 L48.34,202 L48.34,190.66 L46.058,190.66 L46.058,194.412 C45.834,194.216 45.5866667,194.059667 45.316,193.943 C45.0453333,193.826333 44.7606667,193.768 44.462,193.768 C44.0513333,193.768 43.706,193.875333 43.426,194.09 C43.146,194.304667 42.936,194.601 42.796,194.979 C42.656,195.357 42.586,195.798 42.586,196.302 L42.586,196.302 L42.586,199.648 C42.586,200.469333 42.7493333,201.09 43.076,201.51 C43.4026667,201.93 43.8646667,202.14 44.462,202.14 Z M45.456,200.684 C45.316,200.684 45.204,200.644333 45.12,200.565 C45.036,200.485667 44.9753333,200.378333 44.938,200.243 C44.9006667,200.107667 44.882,199.956 44.882,199.788 L44.882,199.788 L44.882,196.064 C44.882,195.821333 44.9286667,195.613667 45.022,195.441 C45.1153333,195.268333 45.2646667,195.182 45.47,195.182 C45.5633333,195.182 45.6613333,195.200667 45.764,195.238 C45.8666667,195.275333 45.9646667,195.317333 46.058,195.364 L46.058,195.364 L46.058,200.474 C45.946,200.539333 45.8363333,200.590667 45.729,200.628 C45.6216667,200.665333 45.5306667,200.684 45.456,200.684 Z M57.146,197.814 L57.146,196.358 L53.52,196.358 L53.52,197.814 L57.146,197.814 Z M65.938,202 C66.4886667,202 66.9763333,201.934667 67.401,201.804 C67.8256667,201.673333 68.1826667,201.472667 68.472,201.202 C68.7613333,200.931333 68.983,200.583667 69.137,200.159 C69.291,199.734333 69.368,199.228 69.368,198.64 C69.368,198.098667 69.291,197.636667 69.137,197.254 C68.983,196.871333 68.7566667,196.565667 68.458,196.337 C68.1593333,196.108333 67.7906667,195.966 67.352,195.91 C67.6973333,195.844667 67.9936667,195.718667 68.241,195.532 C68.4883333,195.345333 68.6796667,195.095667 68.815,194.783 C68.9503333,194.470333 69.018,194.085333 69.018,193.628 C69.018,192.993333 68.9223333,192.482333 68.731,192.095 C68.5396667,191.707667 68.276,191.409 67.94,191.199 C67.604,190.989 67.219,190.846667 66.785,190.772 C66.351,190.697333 65.8913333,190.66 65.406,190.66 L65.406,190.66 L62.452,190.66 L62.452,202 L65.938,202 Z M65.448,195.196 L64.958,195.196 L64.958,192.34 L65.392,192.34 C65.7093333,192.34 65.973,192.391333 66.183,192.494 C66.393,192.596667 66.5516667,192.748333 66.659,192.949 C66.7663333,193.149667 66.82,193.399333 66.82,193.698 C66.82,194.015333 66.785,194.286 66.715,194.51 C66.645,194.734 66.512,194.904333 66.316,195.021 C66.12,195.137667 65.8306667,195.196 65.448,195.196 L65.448,195.196 Z M65.49,200.25 L64.958,200.25 L64.958,196.848 L65.476,196.848 C65.84,196.848 66.1293333,196.906333 66.344,197.023 C66.5586667,197.139667 66.7126667,197.324 66.806,197.576 C66.8993333,197.828 66.946,198.168667 66.946,198.598 C66.946,199.139333 66.841,199.55 66.631,199.83 C66.421,200.11 66.0406667,200.25 65.49,200.25 L65.49,200.25 Z M73.218,202.14 C73.7966667,202.14 74.2983333,202.042 74.723,201.846 C75.1476667,201.65 75.4766667,201.356 75.71,200.964 C75.9433333,200.572 76.06,200.082 76.06,199.494 L76.06,199.494 L76.06,196.414 C76.06,195.826 75.9433333,195.336 75.71,194.944 C75.4766667,194.552 75.1476667,194.258 74.723,194.062 C74.2983333,193.866 73.7966667,193.768 73.218,193.768 C72.6393333,193.768 72.1376667,193.866 71.713,194.062 C71.2883333,194.258 70.9616667,194.552 70.733,194.944 C70.5043333,195.336 70.39,195.826 70.39,196.414 L70.39,196.414 L70.39,199.494 C70.39,200.082 70.5043333,200.572 70.733,200.964 C70.9616667,201.356 71.2883333,201.65 71.713,201.846 C72.1376667,202.042 72.6393333,202.14 73.218,202.14 Z M73.232,200.628 C73.0826667,200.628 72.966,200.588333 72.882,200.509 C72.798,200.429667 72.7373333,200.317667 72.7,200.173 C72.6626667,200.028333 72.644,199.853333 72.644,199.648 L72.644,199.648 L72.644,196.26 C72.644,196.054667 72.6626667,195.879667 72.7,195.735 C72.7373333,195.590333 72.798,195.478333 72.882,195.399 C72.966,195.319667 73.0826667,195.28 73.232,195.28 C73.3813333,195.28 73.498,195.319667 73.582,195.399 C73.666,195.478333 73.7243333,195.590333 73.757,195.735 C73.7896667,195.879667 73.806,196.054667 73.806,196.26 L73.806,196.26 L73.806,199.648 C73.806,199.853333 73.7896667,200.028333 73.757,200.173 C73.7243333,200.317667 73.666,200.429667 73.582,200.509 C73.498,200.588333 73.3813333,200.628 73.232,200.628 Z M79.686,202 L79.686,190.66 L77.418,190.66 L77.418,202 L79.686,202 Z M82.906,202.14 C83.1766667,202.14 83.4473333,202.072333 83.718,201.937 C83.9886667,201.801667 84.25,201.612667 84.502,201.37 L84.502,201.37 L84.502,202 L86.784,202 L86.784,190.66 L84.502,190.66 L84.502,194.412 C84.278,194.216 84.0306667,194.059667 83.76,193.943 C83.4893333,193.826333 83.2046667,193.768 82.906,193.768 C82.4953333,193.768 82.15,193.875333 81.87,194.09 C81.59,194.304667 81.38,194.601 81.24,194.979 C81.1,195.357 81.03,195.798 81.03,196.302 L81.03,196.302 L81.03,199.648 C81.03,200.469333 81.1933333,201.09 81.52,201.51 C81.8466667,201.93 82.3086667,202.14 82.906,202.14 Z M83.9,200.684 C83.76,200.684 83.648,200.644333 83.564,200.565 C83.48,200.485667 83.4193333,200.378333 83.382,200.243 C83.3446667,200.107667 83.326,199.956 83.326,199.788 L83.326,199.788 L83.326,196.064 C83.326,195.821333 83.3726667,195.613667 83.466,195.441 C83.5593333,195.268333 83.7086667,195.182 83.914,195.182 C84.0073333,195.182 84.1053333,195.200667 84.208,195.238 C84.3106667,195.275333 84.4086667,195.317333 84.502,195.364 L84.502,195.364 L84.502,200.474 C84.39,200.539333 84.2803333,200.590667 84.173,200.628 C84.0656667,200.665333 83.9746667,200.684 83.9,200.684 Z" id="Oswald-Bold" fill="#FFFFFF"></path>
                    <path d="M12.22,230 L12.22,225.489 L14.124,230 L15.79,230 L17.683,225.436 L17.694,230 L19.99,230 L19.99,220.032 L17.946,220.032 L14.977,226.837 L11.996,220.032 L9.938,220.032 L9.938,230 L12.22,230 Z M24.33,230.112 C24.8433333,230.112 25.289,229.990667 25.667,229.748 C25.937,229.574667 26.1653333,229.346571 26.352,229.063714 L26.36,229.051 L26.36,230 L28.838,230 L28.838,222.888 L26.276,222.888 L26.276,226.78 C26.276,227.2 26.1663333,227.536 25.947,227.788 C25.7276667,228.04 25.4406667,228.166 25.086,228.166 C24.778,228.166 24.5493333,228.079667 24.4,227.907 C24.2506667,227.734333 24.176,227.470667 24.176,227.116 L24.176,227.116 L24.176,222.888 L21.642,222.888 L21.642,227.046 C21.642,228.082 21.8636667,228.852 22.307,229.356 C22.7503333,229.86 23.4246667,230.112 24.33,230.112 Z M32.884,230 L32.884,219.696 L30.35,219.696 L30.35,230 L32.884,230 Z M36.972,221.684 L36.972,219.402 L34.326,219.402 L34.326,221.684 L36.972,221.684 Z M36.93,230 L36.93,222.888 L34.396,222.888 L34.396,230 L36.93,230 Z M47.178,227.186 L47.178,225.226 L42.642,225.226 L42.642,227.186 L47.178,227.186 Z M57.972,230 C59.0733333,230 59.9436667,229.750333 60.583,229.251 C61.2223333,228.751667 61.542,228.091333 61.542,227.27 C61.542,226.626 61.367,226.089333 61.017,225.66 C60.667,225.230667 60.1653333,224.936667 59.512,224.778 L59.701,224.83 L59.7159844,224.824703 C60.1119219,224.682516 60.4356719,224.470766 60.6872344,224.189453 L60.807,224.043 C61.1103333,223.637 61.262,223.163333 61.262,222.622 C61.262,221.828667 60.9516667,221.198667 60.331,220.732 C59.7103333,220.265333 58.882,220.032 57.846,220.032 L57.846,220.032 L53.002,220.032 L53.002,230 L57.972,230 Z M57.398,223.938 L55.564,223.938 L55.564,222.02 L57.398,222.02 C57.874,222.02 58.2263333,222.097 58.455,222.251 C58.6836667,222.405 58.798,222.654667 58.798,223 C58.798,223.326667 58.686,223.564667 58.462,223.714 C58.238,223.863333 57.8833333,223.938 57.398,223.938 L57.398,223.938 Z M57.664,228.012 L55.564,228.012 L55.564,225.926 L57.664,225.926 C58.1773333,225.926 58.5413333,226.007667 58.756,226.171 C58.9706667,226.334333 59.078,226.602667 59.078,226.976 C59.078,227.349333 58.9683333,227.615333 58.749,227.774 C58.5296667,227.932667 58.168,228.012 57.664,228.012 L57.664,228.012 Z M65.224,230 L65.224,219.696 L62.69,219.696 L62.69,230 L65.224,230 Z M69.55,230.112 C70.0913333,230.112 70.579,229.986 71.013,229.734 C71.28425,229.5765 71.501724,229.382542 71.6654219,229.152125 L71.733,229.047 L71.734,230 L74.226,230 L74.226,222.888 L71.734,222.888 L71.733,223.791 L71.6654219,223.685453 C71.5344635,223.501411 71.3690885,223.337786 71.1692969,223.194578 L71.013,223.091 C70.579,222.825 70.0913333,222.692 69.55,222.692 C68.9433333,222.692 68.4043333,222.850667 67.933,223.168 C67.4616667,223.485333 67.0906667,223.926333 66.82,224.491 C66.5493333,225.055667 66.414,225.711333 66.414,226.458 C66.414,227.195333 66.547,227.839333 66.813,228.39 C67.079,228.940667 67.45,229.365333 67.926,229.664 C68.402,229.962667 68.9433333,230.112 69.55,230.112 Z M70.334,228.222 C69.8766667,228.222 69.5266667,228.070333 69.284,227.767 C69.0413333,227.463667 68.92,227.027333 68.92,226.458 C68.92,225.87 69.046,225.415 69.298,225.093 C69.55,224.771 69.8953333,224.61 70.334,224.61 C70.782,224.61 71.1273333,224.764 71.37,225.072 C71.6126667,225.38 71.734,225.832667 71.734,226.43 C71.734,227.008667 71.6103333,227.452 71.363,227.76 C71.1156667,228.068 70.7726667,228.222 70.334,228.222 Z M79.266,230.112 C79.8353333,230.112 80.3743333,230.037333 80.883,229.888 C81.3916667,229.738667 81.8046667,229.528667 82.122,229.258 L82.122,229.258 L81.478,227.536 C81.226,227.750667 80.932,227.916333 80.596,228.033 C80.26,228.149667 79.9426667,228.208 79.644,228.208 C79.1213333,228.208 78.7176667,228.061 78.433,227.767 C78.1483333,227.473 78.006,227.018 78.006,226.402 C78.006,225.795333 78.1506667,225.347333 78.44,225.058 C78.7293333,224.768667 79.126,224.624 79.63,224.624 C79.938,224.624 80.26,224.684667 80.596,224.806 C80.932,224.927333 81.226,225.090667 81.478,225.296 L81.478,225.296 L82.122,223.546 C81.8233333,223.284667 81.422,223.077 80.918,222.923 C80.414,222.769 79.9006667,222.692 79.378,222.692 C78.5846667,222.692 77.8916667,222.848333 77.299,223.161 C76.7063333,223.473667 76.2443333,223.912333 75.913,224.477 C75.5816667,225.041667 75.416,225.702 75.416,226.458 C75.416,227.204667 75.5676667,227.853333 75.871,228.404 C76.1743333,228.954667 76.6153333,229.377 77.194,229.671 C77.7726667,229.965 78.4633333,230.112 79.266,230.112 Z M85.482,230 L85.482,226.938 L87.904,230 L90.97,230 L88.053,226.302 L90.858,222.902 L87.862,222.902 L85.482,225.849 L85.482,219.696 L82.948,219.696 L82.948,230 L85.482,230 Z" id="Muli-Black" fill="#FFFFFF"></path>
                    <path d="M11.394,257 L11.382,249.934 L14.502,257 L15.398,257 L18.506,249.85 L18.506,257 L19.682,257 L19.682,247.032 L18.632,247.032 L14.963,255.45 L11.268,247.032 L10.204,247.032 L10.204,257 L11.394,257 Z M24.456,257.098 C25.016,257.098 25.5153333,256.955667 25.954,256.671 C26.2281667,256.493083 26.4531146,256.263214 26.6288438,255.981391 L26.724,255.814 L26.724,257 L27.97,257 L27.97,249.958 L26.682,249.958 L26.682,253.92 C26.682,254.564 26.5,255.079667 26.136,255.467 C25.772,255.854333 25.2913333,256.048 24.694,256.048 C24.1806667,256.048 23.8003333,255.905667 23.553,255.621 C23.3056667,255.336333 23.182,254.890667 23.182,254.284 L23.182,254.284 L23.182,249.958 L21.908,249.958 L21.908,254.298 C21.908,255.222 22.1203333,255.919667 22.545,256.391 C22.9696667,256.862333 23.6066667,257.098 24.456,257.098 Z M31.358,257 L31.358,246.696 L30.084,246.696 L30.084,257 L31.358,257 Z M34.872,248.306 L34.872,246.92 L33.374,246.92 L33.374,248.306 L34.872,248.306 Z M34.76,257 L34.76,249.958 L33.486,249.958 L33.486,257 L34.76,257 Z M44.546,253.752 L44.546,252.716 L40.528,252.716 L40.528,253.752 L44.546,253.752 Z M51.644,257 L51.632,249.934 L54.752,257 L55.648,257 L58.756,249.85 L58.756,257 L59.932,257 L59.932,247.032 L58.882,247.032 L55.213,255.45 L51.518,247.032 L50.454,247.032 L50.454,257 L51.644,257 Z M65.35,257.098 C65.854,257.098 66.3486667,257.016333 66.834,256.853 C67.3193333,256.689667 67.716,256.463333 68.024,256.174 L68.024,256.174 L67.618,255.264 C67.282,255.534667 66.9273333,255.737667 66.554,255.873 C66.1806667,256.008333 65.7886667,256.076 65.378,256.076 C64.6126667,256.076 64.034,255.849667 63.642,255.397 C63.25,254.944333 63.054,254.27 63.054,253.374 L63.056,253.472 L68.15,253.472 L68.15,253.248 C68.15,252.529333 68.031,251.911 67.793,251.393 C67.555,250.875 67.2096667,250.476 66.757,250.196 C66.3043333,249.916 65.7606667,249.776 65.126,249.776 C64.4726667,249.776 63.894,249.932333 63.39,250.245 C62.886,250.557667 62.4916667,250.989333 62.207,251.54 C61.9223333,252.090667 61.78,252.73 61.78,253.458 C61.78,254.214 61.9246667,254.865 62.214,255.411 C62.5033333,255.957 62.914,256.374667 63.446,256.664 C63.978,256.953333 64.6126667,257.098 65.35,257.098 Z M67.015,252.688 L63.102,252.688 L63.10377,252.67617 C63.17013,252.24413 63.30285,251.87845 63.50193,251.57913 L63.607,251.435 C63.9756667,250.973 64.4866667,250.742 65.14,250.742 C65.7653333,250.742 66.2413333,250.952 66.568,251.372 C66.7966667,251.666 66.9407267,252.051467 67.00018,252.5284 L67.015,252.688 Z M72.532,257.098 C73.1666667,257.098 73.708,256.941667 74.156,256.629 C74.436,256.433583 74.6594896,256.188036 74.8264688,255.892359 L74.898,255.751 L74.898,257 L76.158,257 L76.158,246.696 L74.884,246.696 L74.884,251.103 L74.8264688,250.989188 C74.6928854,250.754688 74.5231354,250.550521 74.3172188,250.376688 L74.156,250.252 C73.708,249.934667 73.1666667,249.776 72.532,249.776 C71.916,249.776 71.3723333,249.925333 70.901,250.224 C70.4296667,250.522667 70.0633333,250.945 69.802,251.491 C69.5406667,252.037 69.41,252.678667 69.41,253.416 C69.41,254.153333 69.543,254.799667 69.809,255.355 C70.075,255.910333 70.4436667,256.339667 70.915,256.643 C71.3863333,256.946333 71.9253333,257.098 72.532,257.098 Z M72.812,256.062 C72.1493333,256.062 71.6313333,255.831 71.258,255.369 C70.8846667,254.907 70.698,254.256 70.698,253.416 C70.698,252.594667 70.8846667,251.957667 71.258,251.505 C71.6313333,251.052333 72.1493333,250.826 72.812,250.826 C73.484,250.826 73.9996667,251.054667 74.359,251.512 C74.7183333,251.969333 74.898,252.613333 74.898,253.444 C74.898,254.284 74.716,254.930333 74.352,255.383 C73.988,255.835667 73.4746667,256.062 72.812,256.062 Z M79.672,248.306 L79.672,246.92 L78.174,246.92 L78.174,248.306 L79.672,248.306 Z M79.56,257 L79.56,249.958 L78.286,249.958 L78.286,257 L79.56,257 Z M84.194,257.098 C84.754,257.098 85.2533333,256.955667 85.692,256.671 C85.9661667,256.493083 86.1911146,256.263214 86.3668438,255.981391 L86.462,255.814 L86.462,257 L87.708,257 L87.708,249.958 L86.42,249.958 L86.42,253.92 C86.42,254.564 86.238,255.079667 85.874,255.467 C85.51,255.854333 85.0293333,256.048 84.432,256.048 C83.9186667,256.048 83.5383333,255.905667 83.291,255.621 C83.0436667,255.336333 82.92,254.890667 82.92,254.284 L82.92,254.284 L82.92,249.958 L81.646,249.958 L81.646,254.298 C81.646,255.222 81.8583333,255.919667 82.283,256.391 C82.7076667,256.862333 83.3446667,257.098 84.194,257.098 Z M91.096,257 L91.096,252.996 C91.096,252.324 91.257,251.794333 91.579,251.407 C91.901,251.019667 92.3513333,250.826 92.93,250.826 C93.4153333,250.826 93.77,250.973 93.994,251.267 C94.218,251.561 94.33,252.020667 94.33,252.646 L94.33,252.646 L94.33,257 L95.604,257 L95.604,252.996 C95.604,252.324 95.7673333,251.794333 96.094,251.407 C96.4206667,251.019667 96.8686667,250.826 97.438,250.826 C97.9233333,250.826 98.2756667,250.973 98.495,251.267 C98.7143333,251.561 98.824,252.020667 98.824,252.646 L98.824,252.646 L98.824,257 L100.098,257 L100.098,252.59 C100.098,251.647333 99.902,250.942667 99.51,250.476 C99.118,250.009333 98.53,249.776 97.746,249.776 C97.1206667,249.776 96.584,249.941667 96.136,250.273 C95.856,250.480083 95.6325104,250.731828 95.4655313,251.028234 L95.4,251.156 L95.3435309,251.004198 C95.2435144,250.767292 95.1163045,250.565416 94.9619012,250.398568 L94.841,250.28 C94.463,249.944 93.9333333,249.776 93.252,249.776 C92.6826667,249.776 92.1903333,249.923 91.775,250.217 C91.4635,250.4375 91.2215625,250.727563 91.0491875,251.087187 L91.019,251.157 L90.914,249.958 L89.71,249.958 C89.7566667,250.284667 89.787,250.613667 89.801,250.945 C89.815,251.276333 89.822,251.605333 89.822,251.932 L89.822,251.932 L89.822,257 L91.096,257 Z" id="Muli-Medium" fill="#FFFFFF"></path>
                    <path d="M11.114,284 L11.102,276.09 L14.628,284 L15.272,284 L18.772,276.022 L18.772,284 L19.584,284 L19.584,274.032 L18.856,274.032 L14.956,282.983 L11.016,274.032 L10.302,274.032 L10.302,284 L11.114,284 Z M24.498,284.098 C25.0766667,284.098 25.5923333,283.948667 26.045,283.65 C26.3467778,283.450889 26.5894444,283.187481 26.773,282.859778 L26.85,282.709 L26.85,284 L27.676,284 L27.676,276.986 L26.822,276.986 L26.822,280.962 C26.822,281.680667 26.6166667,282.257 26.206,282.691 C25.7953333,283.125 25.2446667,283.342 24.554,283.342 C23.9753333,283.342 23.546,283.181 23.266,282.859 C22.986,282.537 22.846,282.030667 22.846,281.34 L22.846,281.34 L22.846,276.986 L21.992,276.986 L21.992,281.382 C21.992,282.278 22.202,282.954667 22.622,283.412 C23.042,283.869333 23.6673333,284.098 24.498,284.098 Z M30.854,284 L30.854,273.696 L30,273.696 L30,284 L30.854,284 Z M34.2,275.18 L34.2,274.088 L33.066,274.088 L33.066,275.18 L34.2,275.18 Z M34.046,284 L34.046,276.986 L33.192,276.986 L33.192,284 L34.046,284 Z M43.678,280.612 L43.678,279.884 L39.842,279.884 L39.842,280.612 L43.678,280.612 Z M55.606,284 L55.606,283.244 L50.454,283.244 L50.454,274.032 L49.6,274.032 L49.6,284 L55.606,284 Z M58,275.18 L58,274.088 L56.866,274.088 L56.866,275.18 L58,275.18 Z M57.846,284 L57.846,276.986 L56.992,276.986 L56.992,284 L57.846,284 Z M63.208,287.122 C64.188,287.122 64.93,286.863 65.434,286.345 C65.938,285.827 66.19,285.054667 66.19,284.028 L66.19,284.028 L66.19,276.986 L65.336,276.986 L65.336,278.25 L65.2963333,278.161222 C65.1537407,277.875173 64.9657778,277.631613 64.7324444,277.430543 L64.587,277.315 C64.1343333,276.983667 63.5673333,276.818 62.886,276.818 C62.2606667,276.818 61.7123333,276.962667 61.241,277.252 C60.7696667,277.541333 60.401,277.947333 60.135,278.47 C59.869,278.992667 59.736,279.604 59.736,280.304 C59.736,280.994667 59.869,281.601333 60.135,282.124 C60.401,282.646667 60.7696667,283.055 61.241,283.349 C61.7123333,283.643 62.2606667,283.79 62.886,283.79 C63.3433333,283.79 63.747,283.713 64.097,283.559 C64.447,283.405 64.741,283.185667 64.979,282.901 C65.098,282.758667 65.20125,282.600583 65.28875,282.42675 L65.35,282.292 L65.35,284.112 C65.35,284.7756 65.20447,285.29556 64.91341,285.67188 L64.811,285.792 C64.4516667,286.174667 63.922,286.366 63.222,286.366 C62.7086667,286.366 62.2606667,286.307667 61.878,286.191 C61.4953333,286.074333 61.0846667,285.885333 60.646,285.624 L60.646,285.624 L60.478,286.366 C61.2526667,286.87 62.1626667,287.122 63.208,287.122 Z M62.998,283.02 C62.2606667,283.02 61.6796667,282.782 61.255,282.306 C60.8303333,281.83 60.618,281.162667 60.618,280.304 C60.618,279.445333 60.8303333,278.775667 61.255,278.295 C61.6796667,277.814333 62.2606667,277.574 62.998,277.574 C63.726,277.574 64.2976667,277.816667 64.713,278.302 C65.1283333,278.787333 65.336,279.454667 65.336,280.304 C65.336,281.144 65.1283333,281.806667 64.713,282.292 C64.2976667,282.777333 63.726,283.02 62.998,283.02 Z M69.368,284 L69.368,279.94 C69.368,279.212 69.5803333,278.633333 70.005,278.204 C70.4296667,277.774667 70.992,277.56 71.692,277.56 C72.308,277.56 72.756,277.723333 73.036,278.05 C73.316,278.376667 73.456,278.89 73.456,279.59 L73.456,279.59 L73.456,284 L74.31,284 L74.31,279.534 C74.31,277.723333 73.4653333,276.818 71.776,276.818 C71.1693333,276.818 70.6326667,276.967333 70.166,277.266 C69.8548889,277.465111 69.6080741,277.728519 69.4255556,278.056222 L69.367,278.171 L69.368,273.696 L68.514,273.696 L68.514,284 L69.368,284 Z M78.902,284.084 C79.0793333,284.084 79.2403333,284.074667 79.385,284.056 C79.5296667,284.037333 79.672,284.009333 79.812,283.972 L79.812,283.972 L79.812,283.202 C79.672,283.248667 79.546,283.281333 79.434,283.3 C79.322,283.318667 79.1913333,283.328 79.042,283.328 C78.7993333,283.328 78.5823333,283.286 78.391,283.202 C78.1996667,283.118 78.0503333,282.968667 77.943,282.754 C77.8356667,282.539333 77.782,282.236 77.782,281.844 L77.782,281.844 L77.782,277.672 L79.854,277.672 L79.854,276.986 L77.782,276.986 L77.782,274.802 L76.928,275.124 L76.928,276.986 L75.542,276.986 L75.542,277.672 L76.928,277.672 L76.928,282.012 C76.928,282.6504 77.07542,283.1376 77.37026,283.4736 L77.474,283.58 C77.838,283.916 78.314,284.084 78.902,284.084 Z" id="Muli-Light" fill="#FFFFFF"></path>
                </g>
            </g>
        </g>
    </g>
</svg>