<?xml version="1.0" encoding="UTF-8"?>
<svg width="136px" height="252px" viewBox="0 0 136 252" version="1.1" xmlns="http://www.w3.org/2000/svg" xmlns:xlink="http://www.w3.org/1999/xlink">
    <title>Typeface</title>
    <g id="Page-1" stroke="none" stroke-width="1" fill="none" fill-rule="evenodd">
        <g id="brycki" transform="translate(-400.000000, -3455.000000)" fill-rule="nonzero">
            <g id="Group" transform="translate(298.000000, 3144.000000)">
                <g id="Group-13" transform="translate(102.000000, 308.000000)">
                    <g id="Typeface" transform="translate(0.000000, 3.000000)">
                        <path d="M18.9,72 L23.4,60.66 L47.79,60.66 L52.29,72 L71.01,72 L44.19,8.55 L27.36,8.55 L0.63,72 L18.9,72 Z M42.66,47.07 L28.53,47.07 L35.64,29.25 L42.66,47.07 Z M90.0578571,73.08 C96.4478571,73.08 101.037857,70.56 104.457857,66.87 L104.457857,72 L121.287857,72 L121.287857,44.01 C121.287857,37.17 119.757857,32.13 116.067857,28.53 C112.197857,24.66 106.257857,22.59 97.5278571,22.59 C89.1578571,22.59 83.3078571,24.12 77.8178571,26.37 L81.3278571,38.34 C85.7378571,36.72 89.6978571,35.64 94.8278571,35.64 C101.397857,35.64 104.547857,38.52 104.547857,43.65 L104.547857,44.46 C101.757857,43.38 97.3478571,42.57 92.8478571,42.57 C81.4178571,42.57 73.7678571,47.7 73.7678571,57.87 L73.7678571,58.05 C73.7678571,67.68 80.7878571,73.08 90.0578571,73.08 Z M96.1778571,62.37 C92.6678571,62.37 90.1478571,60.39 90.1478571,57.06 L90.1478571,56.88 C90.1478571,53.19 93.0278571,50.85 97.9778571,50.85 C100.497857,50.85 102.927857,51.39 104.727857,52.11 L104.727857,54.36 C104.727857,59.22 101.217857,62.37 96.1778571,62.37 Z" id="Aa" fill="#FAFAFA"></path>
                        <path d="M4.354,128 L4.354,119.39 L7.406,119.39 L7.406,118.662 L0.49,118.662 L0.49,119.39 L3.542,119.39 L3.542,128 L4.354,128 Z M14.628,128 L14.628,124.01 L18.338,118.662 L17.372,118.662 L14.222,123.254 L11.072,118.662 L10.106,118.662 L13.816,124.01 L13.816,128 L14.628,128 Z M22.508,128 L22.508,124.122 L25.21,124.122 C26.988,124.122 28.024,122.862 28.024,121.392 C28.024,119.922 27.002,118.662 25.21,118.662 L21.71,118.662 L21.71,128 L22.508,128 Z M25.126,123.394 L22.508,123.394 L22.508,119.39 L25.126,119.39 C26.372,119.39 27.184,120.216 27.184,121.392 C27.184,122.554 26.372,123.394 25.126,123.394 Z M37.626,128 L37.626,127.272 L32.502,127.272 L32.502,123.576 L37.528,123.576 L37.528,122.848 L32.502,122.848 L32.502,119.39 L37.626,119.39 L37.626,118.662 L31.704,118.662 L31.704,128 L37.626,128 Z M42.398,128 L42.398,123.576 L47.424,123.576 L47.424,122.848 L42.398,122.848 L42.398,119.39 L47.522,119.39 L47.522,118.662 L41.6,118.662 L41.6,128 L42.398,128 Z M50.698,128 L51.622,125.704 L56.564,125.704 L57.488,128 L58.412,128 L54.59,118.662 L53.596,118.662 L49.774,128 L50.698,128 Z M56.298,124.976 L51.888,124.976 L54.1,119.516 L56.298,124.976 Z M65.62,128.168 C67.104,128.168 68.196,127.524 69.036,126.502 L68.35,126.082 C67.762,126.894 66.74,127.44 65.62,127.44 C63.436,127.44 61.728,125.746 61.728,123.338 C61.728,120.902 63.436,119.236 65.62,119.236 C66.74,119.236 67.762,119.782 68.35,120.594 L69.022,120.16 C68.238,119.166 67.104,118.508 65.62,118.508 C62.974,118.508 60.888,120.468 60.888,123.338 C60.888,126.208 62.974,128.168 65.62,128.168 Z M78.554,128 L78.554,127.272 L73.43,127.272 L73.43,123.576 L78.456,123.576 L78.456,122.848 L73.43,122.848 L73.43,119.39 L78.554,119.39 L78.554,118.662 L72.632,118.662 L72.632,128 L78.554,128 Z" id="TYPEFACE" fill="#9A9A9A"></path>
                        <rect id="Rectangle" fill="#606060" x="0" y="157" width="1" height="92"></rect>
                        <path d="M14.838,167.21 C16.616,167.21 18.1,166.608 19.164,165.74 L19.164,161.204 L14.418,161.204 L14.418,163.304 L16.098,163.304 L16.098,164.284 C15.846,164.424 15.538,164.508 14.978,164.508 C13.606,164.508 12.64,163.556 12.64,162.17 L12.64,162.142 C12.64,160.812 13.564,159.832 14.838,159.832 C15.65,159.832 16.364,160.14 17.008,160.686 L18.842,158.474 C17.778,157.55 16.42,156.99 14.74,156.99 C11.646,156.99 9.336,159.174 9.336,162.1 L9.336,162.128 C9.336,165.166 11.786,167.21 14.838,167.21 Z M24.078,167.182 C26.598,167.182 28.39,165.334 28.39,163.178 L28.39,163.15 C28.39,160.994 26.612,159.174 24.106,159.174 C21.586,159.174 19.794,161.022 19.794,163.178 L19.794,163.206 C19.794,165.362 21.572,167.182 24.078,167.182 Z M24.106,164.536 C23.406,164.536 22.846,163.934 22.846,163.178 L22.846,163.15 C22.846,162.422 23.364,161.82 24.078,161.82 C24.778,161.82 25.338,162.422 25.338,163.178 L25.338,163.206 C25.338,163.934 24.82,164.536 24.106,164.536 Z M32.576,167.168 C33.346,167.168 34.102,167 34.606,166.734 L34.606,164.284 C34.27,164.438 33.934,164.522 33.64,164.522 C33.136,164.522 32.87,164.312 32.87,163.738 L32.87,161.806 L34.634,161.806 L34.634,159.356 L32.87,159.356 L32.87,157.438 L29.692,157.438 L29.692,159.356 L28.796,159.356 L28.796,161.806 L29.692,161.806 L29.692,164.438 C29.692,166.3 30.7,167.168 32.576,167.168 Z M38.526,167 L38.526,162.982 C38.526,162.324 38.96,161.946 39.436,161.946 C39.912,161.946 40.304,162.324 40.304,162.982 L40.304,167 L43.482,167 L43.482,161.96 C43.482,160.238 42.474,159.174 40.864,159.174 C39.786,159.174 39.016,159.748 38.526,160.378 L38.526,156.78 L35.348,156.78 L35.348,167 L38.526,167 Z M46.59,167.182 C47.542,167.182 48.256,166.804 48.788,166.23 L48.788,167 L51.966,167 L51.966,162.646 C51.966,161.54 51.742,160.798 51.168,160.224 C50.496,159.552 49.488,159.23 47.934,159.23 C46.604,159.23 45.596,159.454 44.714,159.79 L45.274,161.904 C45.946,161.638 46.604,161.47 47.388,161.47 C48.368,161.47 48.802,161.876 48.802,162.576 L48.802,162.702 C48.466,162.562 47.64,162.422 46.996,162.422 C45.218,162.422 44.084,163.276 44.084,164.802 L44.084,164.83 C44.084,166.342 45.12,167.182 46.59,167.182 Z M47.85,165.348 C47.444,165.348 47.122,165.054 47.122,164.606 L47.122,164.578 C47.122,164.102 47.472,163.724 48.102,163.724 C48.368,163.724 48.648,163.78 48.83,163.85 L48.83,164.172 C48.83,164.9 48.41,165.348 47.85,165.348 Z M56.04,167 L56.04,162.954 C56.04,162.31 56.46,161.946 56.922,161.946 C57.384,161.946 57.762,162.31 57.762,162.954 L57.762,167 L60.94,167 L60.94,162.954 C60.94,162.31 61.36,161.946 61.822,161.946 C62.284,161.946 62.662,162.31 62.662,162.954 L62.662,167 L65.84,167 L65.84,161.96 C65.84,160.238 64.832,159.174 63.194,159.174 C62.018,159.174 61.248,159.706 60.604,160.434 C60.184,159.622 59.386,159.174 58.35,159.174 C57.3,159.174 56.53,159.748 56.04,160.378 L56.04,159.356 L52.862,159.356 L52.862,167 L56.04,167 Z M75.108,163.892 L75.108,161.288 L70.236,161.288 L70.236,163.892 L75.108,163.892 Z M85.076,167 C87.554,167 88.842,165.852 88.842,164.284 L88.842,164.256 C88.842,162.912 88.03,162.24 86.77,161.876 C87.82,161.512 88.52,160.798 88.52,159.636 L88.52,159.608 C88.52,158.936 88.268,158.432 87.918,158.082 C87.344,157.508 86.49,157.2 85.132,157.2 L79.644,157.2 L79.644,167 L85.076,167 Z M84.264,161.05 L82.836,161.05 L82.836,159.678 L84.25,159.678 C84.95,159.678 85.3,159.916 85.3,160.35 L85.3,160.378 C85.3,160.812 84.964,161.05 84.264,161.05 Z M84.474,164.522 L82.836,164.522 L82.836,163.066 L84.488,163.066 C85.202,163.066 85.552,163.36 85.552,163.78 L85.552,163.808 C85.552,164.228 85.188,164.522 84.474,164.522 Z M92.678,167 L92.678,156.78 L89.5,156.78 L89.5,167 L92.678,167 Z M95.87,167.182 C96.822,167.182 97.536,166.804 98.068,166.23 L98.068,167 L101.246,167 L101.246,162.646 C101.246,161.54 101.022,160.798 100.448,160.224 C99.776,159.552 98.768,159.23 97.214,159.23 C95.884,159.23 94.876,159.454 93.994,159.79 L94.554,161.904 C95.226,161.638 95.884,161.47 96.668,161.47 C97.648,161.47 98.082,161.876 98.082,162.576 L98.082,162.702 C97.746,162.562 96.92,162.422 96.276,162.422 C94.498,162.422 93.364,163.276 93.364,164.802 L93.364,164.83 C93.364,166.342 94.4,167.182 95.87,167.182 Z M97.13,165.348 C96.724,165.348 96.402,165.054 96.402,164.606 L96.402,164.578 C96.402,164.102 96.752,163.724 97.382,163.724 C97.648,163.724 97.928,163.78 98.11,163.85 L98.11,164.172 C98.11,164.9 97.69,165.348 97.13,165.348 Z M105.922,167.196 C107.742,167.196 108.904,166.384 109.59,165.11 L107.28,163.794 C106.972,164.284 106.65,164.564 106.09,164.564 C105.46,164.564 104.956,163.99 104.956,163.192 L104.956,163.164 C104.956,162.408 105.46,161.82 106.132,161.82 C106.65,161.82 106.986,162.1 107.252,162.59 L109.534,161.302 C108.946,160.056 107.756,159.188 106.076,159.188 C103.584,159.188 101.904,161.05 101.904,163.192 L101.904,163.22 C101.904,165.362 103.598,167.196 105.922,167.196 Z M113.258,167 L113.258,165.712 L113.888,164.9 L114.994,167 L118.396,167 L115.96,162.464 L118.354,159.356 L114.896,159.356 L113.258,161.708 L113.258,156.78 L110.08,156.78 L110.08,167 L113.258,167 Z" id="Gotham-Black" fill="#FFFFFF"></path>
                        <path d="M14.908,195.168 C16.644,195.168 18.03,194.468 18.996,193.642 L18.996,189.526 L14.824,189.526 L14.824,191.024 L17.33,191.024 L17.33,192.858 C16.728,193.306 15.888,193.6 14.964,193.6 C12.962,193.6 11.632,192.116 11.632,190.1 L11.632,190.072 C11.632,188.196 13.004,186.614 14.81,186.614 C16.056,186.614 16.798,187.02 17.554,187.664 L18.646,186.362 C17.638,185.508 16.588,185.032 14.88,185.032 C11.926,185.032 9.826,187.356 9.826,190.1 L9.826,190.128 C9.826,192.984 11.842,195.168 14.908,195.168 Z M24.554,195.168 C26.836,195.168 28.516,193.418 28.516,191.318 L28.516,191.29 C28.516,189.176 26.85,187.454 24.582,187.454 C22.314,187.454 20.634,189.204 20.634,191.318 L20.634,191.346 C20.634,193.446 22.3,195.168 24.554,195.168 Z M24.582,193.684 C23.266,193.684 22.328,192.606 22.328,191.318 L22.328,191.29 C22.328,190.002 23.196,188.938 24.554,188.938 C25.884,188.938 26.822,190.016 26.822,191.318 L26.822,191.346 C26.822,192.62 25.954,193.684 24.582,193.684 Z M32.716,195.126 C33.36,195.126 33.822,194.986 34.242,194.748 L34.242,193.362 C33.906,193.53 33.57,193.614 33.192,193.614 C32.618,193.614 32.282,193.348 32.282,192.69 L32.282,189.064 L34.27,189.064 L34.27,187.608 L32.282,187.608 L32.282,185.578 L30.588,185.578 L30.588,187.608 L29.65,187.608 L29.65,189.064 L30.588,189.064 L30.588,192.956 C30.588,194.58 31.47,195.126 32.716,195.126 Z M37.686,195 L37.686,190.828 C37.686,189.68 38.372,188.994 39.352,188.994 C40.36,188.994 40.934,189.652 40.934,190.8 L40.934,195 L42.628,195 L42.628,190.282 C42.628,188.574 41.662,187.454 39.996,187.454 C38.848,187.454 38.162,188.056 37.686,188.742 L37.686,184.78 L35.992,184.78 L35.992,195 L37.686,195 Z M46.8,195.154 C47.934,195.154 48.704,194.678 49.208,194.076 L49.208,195 L50.86,195 L50.86,190.618 C50.86,189.652 50.608,188.868 50.062,188.336 C49.544,187.804 48.718,187.51 47.612,187.51 C46.436,187.51 45.638,187.748 44.826,188.112 L45.274,189.442 C45.946,189.162 46.562,188.98 47.388,188.98 C48.578,188.98 49.222,189.54 49.222,190.59 L49.222,190.772 C48.648,190.59 48.06,190.464 47.234,190.464 C45.428,190.464 44.182,191.248 44.182,192.844 L44.182,192.872 C44.182,194.356 45.414,195.154 46.8,195.154 Z M47.276,193.922 C46.464,193.922 45.834,193.516 45.834,192.802 L45.834,192.774 C45.834,192.004 46.478,191.542 47.57,191.542 C48.242,191.542 48.816,191.668 49.25,191.836 L49.25,192.34 C49.25,193.278 48.396,193.922 47.276,193.922 Z M54.584,195 L54.584,190.828 C54.584,189.694 55.228,188.994 56.166,188.994 C57.104,188.994 57.664,189.638 57.664,190.786 L57.664,195 L59.358,195 L59.358,190.828 C59.358,189.638 60.016,188.994 60.94,188.994 C61.892,188.994 62.438,189.624 62.438,190.8 L62.438,195 L64.132,195 L64.132,190.282 C64.132,188.476 63.152,187.454 61.542,187.454 C60.422,187.454 59.638,187.972 59.05,188.756 C58.658,187.972 57.902,187.454 56.838,187.454 C55.704,187.454 55.06,188.07 54.584,188.728 L54.584,187.608 L52.89,187.608 L52.89,195 L54.584,195 Z M74.254,191.542 L74.254,189.876 L70.11,189.876 L70.11,191.542 L74.254,191.542 Z M82.192,195 L82.192,188 L85.258,192.592 L85.314,192.592 L88.408,187.972 L88.408,195 L90.13,195 L90.13,185.2 L88.296,185.2 L85.314,189.834 L82.332,185.2 L80.498,185.2 L80.498,195 L82.192,195 Z M95.842,195.168 C97.2,195.168 98.166,194.622 98.866,193.782 L97.872,192.9 C97.284,193.474 96.696,193.782 95.87,193.782 C94.778,193.782 93.924,193.11 93.742,191.906 L99.174,191.906 C99.188,191.738 99.202,191.584 99.202,191.43 C99.202,189.302 98.012,187.454 95.66,187.454 C93.546,187.454 92.048,189.19 92.048,191.304 L92.048,191.332 C92.048,193.614 93.7,195.168 95.842,195.168 Z M97.522,190.786 L93.728,190.786 C93.882,189.638 94.61,188.84 95.646,188.84 C96.766,188.84 97.41,189.694 97.522,190.786 Z M103.962,195.154 C105.166,195.154 105.936,194.538 106.482,193.768 L106.482,195 L108.176,195 L108.176,184.78 L106.482,184.78 L106.482,188.756 C105.95,188.056 105.18,187.454 103.962,187.454 C102.198,187.454 100.532,188.84 100.532,191.29 L100.532,191.318 C100.532,193.768 102.226,195.154 103.962,195.154 Z M104.368,193.684 C103.22,193.684 102.24,192.746 102.24,191.318 L102.24,191.29 C102.24,189.82 103.206,188.924 104.368,188.924 C105.502,188.924 106.51,189.862 106.51,191.29 L106.51,191.318 C106.51,192.732 105.502,193.684 104.368,193.684 Z M112.152,186.474 L112.152,184.864 L110.332,184.864 L110.332,186.474 L112.152,186.474 Z M112.096,195 L112.096,187.608 L110.402,187.608 L110.402,195 L112.096,195 Z M116.856,195.154 C118.004,195.154 118.69,194.552 119.166,193.852 L119.166,195 L120.874,195 L120.874,187.608 L119.166,187.608 L119.166,191.78 C119.166,192.928 118.48,193.6 117.5,193.6 C116.492,193.6 115.918,192.956 115.918,191.808 L115.918,187.608 L114.224,187.608 L114.224,192.312 C114.224,194.034 115.19,195.154 116.856,195.154 Z M124.682,195 L124.682,190.828 C124.682,189.694 125.326,188.994 126.264,188.994 C127.202,188.994 127.762,189.638 127.762,190.786 L127.762,195 L129.456,195 L129.456,190.828 C129.456,189.638 130.114,188.994 131.038,188.994 C131.99,188.994 132.536,189.624 132.536,190.8 L132.536,195 L134.23,195 L134.23,190.282 C134.23,188.476 133.25,187.454 131.64,187.454 C130.52,187.454 129.736,187.972 129.148,188.756 C128.756,187.972 128,187.454 126.936,187.454 C125.802,187.454 125.158,188.07 124.682,188.728 L124.682,187.608 L122.988,187.608 L122.988,195 L124.682,195 Z" id="Gotham-Medium" fill="#FFFFFF"></path>
                        <path d="M14.95,222.168 C16.546,222.168 17.918,221.482 18.8,220.698 L18.8,216.918 L14.824,216.918 L14.824,217.59 L18.1,217.59 L18.1,220.404 C17.386,221.006 16.224,221.524 14.978,221.524 C12.36,221.524 10.778,219.634 10.778,217.1 L10.778,217.072 C10.778,214.706 12.444,212.69 14.824,212.69 C16.308,212.69 17.204,213.194 17.974,213.866 L18.45,213.32 C17.47,212.508 16.462,212.032 14.866,212.032 C11.94,212.032 10.022,214.454 10.022,217.1 L10.022,217.128 C10.022,219.886 11.856,222.168 14.95,222.168 Z M24.442,222.168 C26.57,222.168 28.124,220.432 28.124,218.43 L28.124,218.402 C28.124,216.4 26.584,214.692 24.47,214.692 C22.342,214.692 20.788,216.428 20.788,218.43 L20.788,218.458 C20.788,220.46 22.328,222.168 24.442,222.168 Z M24.47,221.524 C22.818,221.524 21.53,220.152 21.53,218.43 L21.53,218.402 C21.53,216.722 22.748,215.336 24.442,215.336 C26.094,215.336 27.382,216.708 27.382,218.43 L27.382,218.458 C27.382,220.138 26.164,221.524 24.47,221.524 Z M32.618,222.126 C33.066,222.126 33.416,222.042 33.78,221.874 L33.78,221.23 C33.374,221.412 33.08,221.482 32.73,221.482 C31.904,221.482 31.302,221.118 31.302,220.096 L31.302,215.49 L33.808,215.49 L33.808,214.86 L31.302,214.86 L31.302,212.578 L30.616,212.578 L30.616,214.86 L29.58,214.86 L29.58,215.49 L30.616,215.49 L30.616,220.166 C30.616,221.524 31.512,222.126 32.618,222.126 Z M36.524,222 L36.524,217.87 C36.524,216.386 37.602,215.322 39.002,215.322 C40.444,215.322 41.27,216.288 41.27,217.758 L41.27,222 L41.956,222 L41.956,217.632 C41.956,215.924 40.906,214.692 39.1,214.692 C37.798,214.692 37,215.35 36.524,216.19 L36.524,211.78 L35.838,211.78 L35.838,222 L36.524,222 Z M46.59,222.168 C47.948,222.168 48.83,221.496 49.32,220.81 L49.32,222 L49.992,222 L49.992,217.548 C49.992,216.666 49.74,216.008 49.264,215.532 C48.746,215.014 47.976,214.748 47.01,214.748 C46.03,214.748 45.26,215 44.476,215.364 L44.728,215.966 C45.386,215.63 46.1,215.392 46.968,215.392 C48.438,215.392 49.32,216.134 49.32,217.576 L49.32,217.884 C48.634,217.702 47.948,217.576 46.954,217.576 C45.106,217.576 43.832,218.416 43.832,219.9 L43.832,219.928 C43.832,221.412 45.26,222.168 46.59,222.168 Z M46.632,221.524 C45.54,221.524 44.56,220.922 44.56,219.886 L44.56,219.858 C44.56,218.864 45.4,218.192 46.912,218.192 C47.934,218.192 48.732,218.36 49.334,218.514 L49.334,219.326 C49.334,220.628 48.088,221.524 46.632,221.524 Z M53.142,222 L53.142,217.884 C53.142,216.442 54.15,215.322 55.424,215.322 C56.698,215.322 57.51,216.232 57.51,217.716 L57.51,222 L58.196,222 L58.196,217.842 C58.196,216.246 59.246,215.322 60.45,215.322 C61.766,215.322 62.564,216.218 62.564,217.758 L62.564,222 L63.25,222 L63.25,217.674 C63.25,215.882 62.2,214.692 60.506,214.692 C59.162,214.692 58.392,215.434 57.93,216.232 C57.538,215.406 56.768,214.692 55.522,214.692 C54.248,214.692 53.604,215.392 53.142,216.134 L53.142,214.86 L52.456,214.86 L52.456,222 L53.142,222 Z M73.4,218.234 L73.4,217.45 L69.648,217.45 L69.648,218.234 L73.4,218.234 Z M86.518,222 L86.518,221.328 L80.764,221.328 L80.764,212.2 L80.036,212.2 L80.036,222 L86.518,222 Z M89.416,212.998 L89.416,212.06 L88.562,212.06 L88.562,212.998 L89.416,212.998 Z M89.332,222 L89.332,214.86 L88.646,214.86 L88.646,222 L89.332,222 Z M95.17,224.268 C96.22,224.268 97.144,223.932 97.76,223.316 C98.334,222.742 98.67,221.93 98.67,220.894 L98.67,214.86 L97.984,214.86 L97.984,216.288 C97.396,215.448 96.43,214.692 95.002,214.692 C93.28,214.692 91.572,216.022 91.572,218.08 L91.572,218.108 C91.572,220.152 93.28,221.468 95.002,221.468 C96.416,221.468 97.368,220.698 97.984,219.816 L97.984,220.852 C97.984,222.686 96.822,223.624 95.184,223.624 C94.134,223.624 93.154,223.274 92.3,222.616 L91.894,223.176 C92.874,223.904 93.98,224.268 95.17,224.268 Z M95.072,220.81 C93.602,220.81 92.314,219.69 92.314,218.08 L92.314,218.052 C92.314,216.386 93.574,215.35 95.072,215.35 C96.556,215.35 98.026,216.414 98.026,218.066 L98.026,218.094 C98.026,219.718 96.556,220.81 95.072,220.81 Z M101.96,222 L101.96,217.87 C101.96,216.386 103.038,215.322 104.438,215.322 C105.88,215.322 106.706,216.288 106.706,217.758 L106.706,222 L107.392,222 L107.392,217.632 C107.392,215.924 106.342,214.692 104.536,214.692 C103.234,214.692 102.436,215.35 101.96,216.19 L101.96,211.78 L101.274,211.78 L101.274,222 L101.96,222 Z M112.236,222.126 C112.684,222.126 113.034,222.042 113.398,221.874 L113.398,221.23 C112.992,221.412 112.698,221.482 112.348,221.482 C111.522,221.482 110.92,221.118 110.92,220.096 L110.92,215.49 L113.426,215.49 L113.426,214.86 L110.92,214.86 L110.92,212.578 L110.234,212.578 L110.234,214.86 L109.198,214.86 L109.198,215.49 L110.234,215.49 L110.234,220.166 C110.234,221.524 111.13,222.126 112.236,222.126 Z" id="Gotham-Light" fill="#FFFFFF"></path>
                        <path d="M14.894,249.168 C16.476,249.168 17.806,248.496 18.716,247.67 L18.716,244.016 L14.768,244.016 L14.768,244.478 L18.254,244.478 L18.254,247.488 C17.47,248.146 16.28,248.748 14.908,248.748 C12.15,248.748 10.512,246.648 10.512,244.114 L10.512,244.086 C10.512,241.678 12.234,239.466 14.838,239.466 C16.28,239.466 17.176,239.956 18.03,240.67 L18.338,240.306 C17.358,239.494 16.406,239.032 14.866,239.032 C11.912,239.032 10.022,241.468 10.022,244.1 L10.022,244.128 C10.022,246.872 11.814,249.168 14.894,249.168 Z M24.386,249.168 C26.556,249.168 28.04,247.446 28.04,245.472 L28.04,245.444 C28.04,243.47 26.556,241.776 24.4,241.776 C22.23,241.776 20.732,243.498 20.732,245.472 L20.732,245.5 C20.732,247.474 22.23,249.168 24.386,249.168 Z M24.4,248.748 C22.566,248.748 21.222,247.264 21.222,245.486 L21.222,245.458 C21.222,243.68 22.51,242.196 24.372,242.196 C26.206,242.196 27.564,243.68 27.564,245.458 L27.564,245.486 C27.564,247.264 26.262,248.748 24.4,248.748 Z M32.394,249.126 C32.786,249.126 33.15,249.056 33.5,248.888 L33.5,248.454 C33.136,248.622 32.786,248.706 32.436,248.706 C31.512,248.706 30.966,248.188 30.966,247.152 L30.966,242.35 L33.528,242.35 L33.528,241.944 L30.966,241.944 L30.966,239.578 L30.518,239.578 L30.518,241.944 L29.44,241.944 L29.44,242.35 L30.518,242.35 L30.518,247.194 C30.518,248.468 31.26,249.126 32.394,249.126 Z M35.964,249 L35.964,245.024 C35.964,243.414 37.14,242.196 38.624,242.196 C40.262,242.196 41.144,243.302 41.144,244.94 L41.144,249 L41.592,249 L41.592,244.87 C41.592,243.036 40.542,241.776 38.68,241.776 C37.168,241.776 36.286,242.784 35.964,243.624 L35.964,238.78 L35.516,238.78 L35.516,249 L35.964,249 Z M46.142,249.168 C47.766,249.168 48.746,248.3 49.11,247.53 L49.11,249 L49.558,249 L49.558,244.604 C49.558,243.736 49.306,243.064 48.858,242.602 C48.34,242.084 47.584,241.832 46.618,241.832 C45.68,241.832 44.91,242.07 44.126,242.448 L44.294,242.84 C44.994,242.49 45.722,242.252 46.59,242.252 C48.158,242.252 49.11,243.036 49.11,244.632 L49.11,245.108 C48.424,244.884 47.57,244.716 46.59,244.716 C44.798,244.716 43.468,245.514 43.468,246.984 L43.468,247.012 C43.468,248.44 44.784,249.168 46.142,249.168 Z M46.17,248.748 C44.994,248.748 43.944,248.146 43.944,246.984 L43.944,246.956 C43.944,245.794 45.022,245.136 46.576,245.136 C47.626,245.136 48.438,245.304 49.124,245.528 L49.124,246.396 C49.124,247.656 47.878,248.748 46.17,248.748 Z M52.47,249 L52.47,244.898 C52.47,243.372 53.604,242.196 54.836,242.196 C56.166,242.196 57.076,243.134 57.076,244.814 L57.076,249 L57.524,249 L57.524,244.884 C57.524,243.288 58.672,242.196 59.876,242.196 C61.234,242.196 62.13,243.12 62.13,244.828 L62.13,249 L62.578,249 L62.578,244.786 C62.578,242.868 61.514,241.776 59.904,241.776 C58.616,241.776 57.72,242.714 57.37,243.638 C57.062,242.63 56.292,241.776 54.878,241.776 C53.618,241.776 52.778,242.7 52.47,243.526 L52.47,241.944 L52.022,241.944 L52.022,249 L52.47,249 Z M72.392,245.08 L72.392,244.59 L68.808,244.59 L68.808,245.08 L72.392,245.08 Z M81.898,249 L81.898,239.634 L85.398,239.634 L85.398,239.2 L77.936,239.2 L77.936,239.634 L81.422,239.634 L81.422,249 L81.898,249 Z M87.666,249 L87.666,245.024 C87.666,243.414 88.842,242.196 90.326,242.196 C91.964,242.196 92.846,243.302 92.846,244.94 L92.846,249 L93.294,249 L93.294,244.87 C93.294,243.036 92.244,241.776 90.382,241.776 C88.87,241.776 87.988,242.784 87.666,243.624 L87.666,238.78 L87.218,238.78 L87.218,249 L87.666,249 Z M96.374,239.998 L96.374,239.144 L95.772,239.144 L95.772,239.998 L96.374,239.998 Z M96.304,249 L96.304,241.944 L95.842,241.944 L95.842,249 L96.304,249 Z M99.44,249 L99.44,245.024 C99.44,243.414 100.616,242.196 102.1,242.196 C103.738,242.196 104.62,243.302 104.62,244.94 L104.62,249 L105.068,249 L105.068,244.87 C105.068,243.036 104.018,241.776 102.156,241.776 C100.644,241.776 99.762,242.784 99.44,243.624 L99.44,241.944 L98.992,241.944 L98.992,249 L99.44,249 Z" id="Gotham-Thin" fill="#FFFFFF"></path>
                    </g>
                </g>
            </g>
        </g>
    </g>
</svg>