<?xml version="1.0" encoding="UTF-8"?>
<svg width="505px" height="249px" viewBox="0 0 505 249" version="1.1" xmlns="http://www.w3.org/2000/svg" xmlns:xlink="http://www.w3.org/1999/xlink">
    <title>Group 10</title>
    <g id="Page-1" stroke="none" stroke-width="1" fill="none" fill-rule="evenodd">
        <g id="brycki" transform="translate(-949.000000, -3457.000000)" fill-rule="nonzero">
            <g id="Group" transform="translate(298.000000, 3144.000000)">
                <g id="Group-13" transform="translate(102.000000, 308.000000)">
                    <g id="Group-10" transform="translate(549.000000, 5.000000)">
                        <path d="M6.082,21 C7.748,21 8.756,20.034 8.756,18.48 C8.756,17.374 7.93,16.338 6.936,16.184 C7.776,16.016 8.574,15.218 8.574,14.042 C8.574,12.572 7.566,11.662 5.998,11.662 L2.162,11.662 L2.162,21 L6.082,21 Z M5.9,15.848 L2.96,15.848 L2.96,12.39 L5.9,12.39 C7.104,12.39 7.734,13.174 7.734,14.126 C7.734,15.092 7.104,15.848 5.9,15.848 Z M5.956,20.272 L2.96,20.272 L2.96,16.576 L5.956,16.576 C7.258,16.576 7.916,17.472 7.916,18.424 C7.916,19.558 7.188,20.272 5.956,20.272 Z M16.958,21.168 C19.688,21.168 21.494,19.068 21.494,16.338 C21.494,13.608 19.688,11.508 16.958,11.508 C14.214,11.508 12.422,13.608 12.422,16.338 C12.422,19.068 14.214,21.168 16.958,21.168 Z M16.958,20.44 C14.704,20.44 13.262,18.69 13.262,16.338 C13.262,13.972 14.704,12.236 16.958,12.236 C19.198,12.236 20.654,13.972 20.654,16.338 C20.654,18.69 19.198,20.44 16.958,20.44 Z M28.45,21 C31.348,21 33.168,18.928 33.168,16.338 C33.168,13.776 31.348,11.662 28.45,11.662 L25.468,11.662 L25.468,21 L28.45,21 Z M28.45,20.272 L26.266,20.272 L26.266,12.39 L28.45,12.39 C30.928,12.39 32.328,14.154 32.328,16.338 C32.328,18.522 30.914,20.272 28.45,20.272 Z M40.166,21 L40.166,17.01 L43.876,11.662 L42.91,11.662 L39.76,16.254 L36.61,11.662 L35.644,11.662 L39.354,17.01 L39.354,21 L40.166,21 Z M55.492,17.948 L55.492,17.276 L52.132,17.276 L52.132,17.948 L55.492,17.948 Z M66.688,21 L66.688,11.662 L65.96,11.662 L63.902,13.832 L64.392,14.35 L65.89,12.754 L65.89,21 L66.688,21 Z M74.092,21.168 C76.094,21.168 77.228,19.712 77.228,18.186 C77.228,16.198 75.898,15.232 74.218,15.232 C72.958,15.232 71.88,16.142 71.488,16.786 C71.474,16.646 71.474,16.492 71.474,16.352 C71.474,14.364 72.216,12.25 74.232,12.25 C75.254,12.25 75.828,12.684 76.29,13.286 L76.752,12.712 C76.192,12.012 75.45,11.522 74.232,11.522 C71.67,11.522 70.662,13.944 70.662,16.338 C70.662,18.844 71.572,21.168 74.092,21.168 Z M74.064,20.44 C72.314,20.44 71.642,18.816 71.53,17.542 C72.062,16.604 73.056,15.946 74.078,15.946 C75.422,15.946 76.416,16.674 76.416,18.2 C76.416,19.208 75.66,20.44 74.064,20.44 Z M81.986,21 L81.986,17.122 L84.688,17.122 C86.466,17.122 87.502,15.862 87.502,14.392 C87.502,12.922 86.48,11.662 84.688,11.662 L81.188,11.662 L81.188,21 L81.986,21 Z M84.604,16.394 L81.986,16.394 L81.986,12.39 L84.604,12.39 C85.85,12.39 86.662,13.216 86.662,14.392 C86.662,15.554 85.85,16.394 84.604,16.394 Z M94.374,21 L94.374,12.39 L97.426,12.39 L97.426,11.662 L90.51,11.662 L90.51,12.39 L93.562,12.39 L93.562,21 L94.374,21 Z" id="BODY-16PT" fill="#9A9A9A"></path>
                        <path d="M5.082,200 C6.748,200 7.756,199.034 7.756,197.48 C7.756,196.374 6.93,195.338 5.936,195.184 C6.776,195.016 7.574,194.218 7.574,193.042 C7.574,191.572 6.566,190.662 4.998,190.662 L1.162,190.662 L1.162,200 L5.082,200 Z M4.9,194.848 L1.96,194.848 L1.96,191.39 L4.9,191.39 C6.104,191.39 6.734,192.174 6.734,193.126 C6.734,194.092 6.104,194.848 4.9,194.848 Z M4.956,199.272 L1.96,199.272 L1.96,195.576 L4.956,195.576 C6.258,195.576 6.916,196.472 6.916,197.424 C6.916,198.558 6.188,199.272 4.956,199.272 Z M15.958,200.168 C18.688,200.168 20.494,198.068 20.494,195.338 C20.494,192.608 18.688,190.508 15.958,190.508 C13.214,190.508 11.422,192.608 11.422,195.338 C11.422,198.068 13.214,200.168 15.958,200.168 Z M15.958,199.44 C13.704,199.44 12.262,197.69 12.262,195.338 C12.262,192.972 13.704,191.236 15.958,191.236 C18.198,191.236 19.654,192.972 19.654,195.338 C19.654,197.69 18.198,199.44 15.958,199.44 Z M27.45,200 C30.348,200 32.168,197.928 32.168,195.338 C32.168,192.776 30.348,190.662 27.45,190.662 L24.468,190.662 L24.468,200 L27.45,200 Z M27.45,199.272 L25.266,199.272 L25.266,191.39 L27.45,191.39 C29.928,191.39 31.328,193.154 31.328,195.338 C31.328,197.522 29.914,199.272 27.45,199.272 Z M39.166,200 L39.166,196.01 L42.876,190.662 L41.91,190.662 L38.76,195.254 L35.61,190.662 L34.644,190.662 L38.354,196.01 L38.354,200 L39.166,200 Z M54.492,196.948 L54.492,196.276 L51.132,196.276 L51.132,196.948 L54.492,196.948 Z M65.688,200 L65.688,190.662 L64.96,190.662 L62.902,192.832 L63.392,193.35 L64.89,191.754 L64.89,200 L65.688,200 Z M74.562,200 L74.562,197.452 L75.934,197.452 L75.934,196.724 L74.562,196.724 L74.562,190.662 L73.484,190.662 L69.34,196.738 L69.34,197.452 L73.764,197.452 L73.764,200 L74.562,200 Z M73.764,196.724 L70.166,196.724 L73.764,191.46 L73.764,196.724 Z M80.384,200 L80.384,196.122 L83.086,196.122 C84.864,196.122 85.9,194.862 85.9,193.392 C85.9,191.922 84.878,190.662 83.086,190.662 L79.586,190.662 L79.586,200 L80.384,200 Z M83.002,195.394 L80.384,195.394 L80.384,191.39 L83.002,191.39 C84.248,191.39 85.06,192.216 85.06,193.392 C85.06,194.554 84.248,195.394 83.002,195.394 Z M92.772,200 L92.772,191.39 L95.824,191.39 L95.824,190.662 L88.908,190.662 L88.908,191.39 L91.96,191.39 L91.96,200 L92.772,200 Z" id="BODY-14PT" fill="#9A9A9A"></path>
                        <path d="M166.568,21 L167.992,17.864 L174.6,17.864 L176.024,21 L176.936,21 L171.72,9.72 L170.92,9.72 L165.704,21 L166.568,21 Z M174.248,17.112 L168.344,17.112 L171.304,10.632 L174.248,17.112 Z M179.902,23.56 L179.902,19.24 C180.574,20.264 181.63,21.192 183.262,21.192 C185.23,21.192 187.23,19.576 187.23,16.92 L187.23,16.888 C187.23,14.232 185.23,12.648 183.262,12.648 C181.646,12.648 180.606,13.592 179.902,14.664 L179.902,12.84 L179.118,12.84 L179.118,23.56 L179.902,23.56 Z M183.182,20.44 C181.486,20.44 179.854,19.032 179.854,16.936 L179.854,16.904 C179.854,14.824 181.486,13.4 183.182,13.4 C184.894,13.4 186.382,14.776 186.382,16.92 L186.382,16.952 C186.382,19.144 184.958,20.44 183.182,20.44 Z M190.452,23.56 L190.452,19.24 C191.124,20.264 192.18,21.192 193.812,21.192 C195.78,21.192 197.78,19.576 197.78,16.92 L197.78,16.888 C197.78,14.232 195.78,12.648 193.812,12.648 C192.196,12.648 191.156,13.592 190.452,14.664 L190.452,12.84 L189.668,12.84 L189.668,23.56 L190.452,23.56 Z M193.732,20.44 C192.036,20.44 190.404,19.032 190.404,16.936 L190.404,16.904 C190.404,14.824 192.036,13.4 193.732,13.4 C195.444,13.4 196.932,14.776 196.932,16.92 L196.932,16.952 C196.932,19.144 195.508,20.44 193.732,20.44 Z M202.698,21.192 C204.25,21.192 205.258,20.424 205.818,19.64 L205.818,21 L206.586,21 L206.586,15.912 C206.586,14.904 206.298,14.152 205.754,13.608 C205.162,13.016 204.282,12.712 203.178,12.712 C202.058,12.712 201.178,13 200.282,13.416 L200.57,14.104 C201.322,13.72 202.138,13.448 203.13,13.448 C204.81,13.448 205.818,14.296 205.818,15.944 L205.818,16.296 C205.034,16.088 204.25,15.944 203.114,15.944 C201.002,15.944 199.546,16.904 199.546,18.6 L199.546,18.632 C199.546,20.328 201.178,21.192 202.698,21.192 Z M202.746,20.456 C201.498,20.456 200.378,19.768 200.378,18.584 L200.378,18.552 C200.378,17.416 201.338,16.648 203.066,16.648 C204.234,16.648 205.146,16.84 205.834,17.016 L205.834,17.944 C205.834,19.432 204.41,20.456 202.746,20.456 Z M210.176,21 L210.176,17.656 C210.176,15 211.824,13.576 213.712,13.576 L213.792,13.576 L213.792,12.712 C212.176,12.648 210.816,13.704 210.176,15.16 L210.176,12.84 L209.392,12.84 L209.392,21 L210.176,21 Z M218.822,21.192 C220.39,21.192 221.366,20.552 222.198,19.656 L221.654,19.176 C220.982,19.896 220.118,20.456 218.854,20.456 C217.254,20.456 215.798,19.272 215.654,17.24 L222.422,17.24 C222.438,17.112 222.438,17.064 222.438,16.92 C222.438,14.504 220.982,12.648 218.694,12.648 C216.486,12.648 214.822,14.536 214.822,16.904 L214.822,16.936 C214.822,19.48 216.678,21.192 218.822,21.192 Z M221.59,16.536 L215.654,16.536 C215.798,14.728 217.046,13.368 218.662,13.368 C220.534,13.368 221.478,14.888 221.59,16.536 Z M225.5,21 L225.5,16.28 C225.5,14.584 226.732,13.368 228.332,13.368 C229.98,13.368 230.924,14.472 230.924,16.152 L230.924,21 L231.708,21 L231.708,16.008 C231.708,14.056 230.508,12.648 228.444,12.648 C226.956,12.648 226.044,13.4 225.5,14.36 L225.5,12.84 L224.716,12.84 L224.716,21 L225.5,21 Z M237.234,21.144 C237.746,21.144 238.146,21.048 238.562,20.856 L238.562,20.12 C238.098,20.328 237.762,20.408 237.362,20.408 C236.418,20.408 235.73,19.992 235.73,18.824 L235.73,13.56 L238.594,13.56 L238.594,12.84 L235.73,12.84 L235.73,10.232 L234.946,10.232 L234.946,12.84 L233.762,12.84 L233.762,13.56 L234.946,13.56 L234.946,18.904 C234.946,20.456 235.97,21.144 237.234,21.144 Z M241.8,21 L241.8,9.32 L241.016,9.32 L241.016,21 L241.8,21 Z M245.87,23.608 C247.038,23.608 247.87,23 248.59,21.288 L252.126,12.84 L251.262,12.84 L248.318,20.136 L244.926,12.84 L244.014,12.84 L247.934,20.952 C247.326,22.376 246.766,22.872 245.918,22.872 C245.31,22.872 244.958,22.776 244.526,22.568 L244.254,23.256 C244.798,23.496 245.246,23.608 245.87,23.608 Z M262.026,21.064 L264.474,14.072 L266.906,21.064 L267.578,21.064 L270.57,12.84 L269.722,12.84 L267.258,20.008 L264.794,12.808 L264.17,12.808 L261.706,20.008 L259.242,12.84 L258.362,12.84 L261.354,21.064 L262.026,21.064 Z M275.872,21.192 C277.44,21.192 278.416,20.552 279.248,19.656 L278.704,19.176 C278.032,19.896 277.168,20.456 275.904,20.456 C274.304,20.456 272.848,19.272 272.704,17.24 L279.472,17.24 C279.488,17.112 279.488,17.064 279.488,16.92 C279.488,14.504 278.032,12.648 275.744,12.648 C273.536,12.648 271.872,14.536 271.872,16.904 L271.872,16.936 C271.872,19.48 273.728,21.192 275.872,21.192 Z M278.64,16.536 L272.704,16.536 C272.848,14.728 274.096,13.368 275.712,13.368 C277.584,13.368 278.528,14.888 278.64,16.536 Z M287.34,21 L287.34,16.28 C287.34,14.584 288.572,13.368 290.172,13.368 C291.82,13.368 292.764,14.472 292.764,16.152 L292.764,21 L293.548,21 L293.548,16.008 C293.548,14.056 292.348,12.648 290.284,12.648 C288.796,12.648 287.884,13.4 287.34,14.36 L287.34,9.32 L286.556,9.32 L286.556,21 L287.34,21 Z M298.834,21.192 C300.386,21.192 301.394,20.424 301.954,19.64 L301.954,21 L302.722,21 L302.722,15.912 C302.722,14.904 302.434,14.152 301.89,13.608 C301.298,13.016 300.418,12.712 299.314,12.712 C298.194,12.712 297.314,13 296.418,13.416 L296.706,14.104 C297.458,13.72 298.274,13.448 299.266,13.448 C300.946,13.448 301.954,14.296 301.954,15.944 L301.954,16.296 C301.17,16.088 300.386,15.944 299.25,15.944 C297.138,15.944 295.682,16.904 295.682,18.6 L295.682,18.632 C295.682,20.328 297.314,21.192 298.834,21.192 Z M298.882,20.456 C297.634,20.456 296.514,19.768 296.514,18.584 L296.514,18.552 C296.514,17.416 297.474,16.648 299.202,16.648 C300.37,16.648 301.282,16.84 301.97,17.016 L301.97,17.944 C301.97,19.432 300.546,20.456 298.882,20.456 Z M308.968,21.192 C310.584,21.192 311.624,20.248 312.328,19.176 L312.328,21 L313.112,21 L313.112,9.32 L312.328,9.32 L312.328,14.6 C311.656,13.576 310.6,12.648 308.968,12.648 C307,12.648 305,14.264 305,16.92 L305,16.952 C305,19.608 307,21.192 308.968,21.192 Z M309.048,20.44 C307.336,20.44 305.848,19.064 305.848,16.92 L305.848,16.888 C305.848,14.696 307.272,13.4 309.048,13.4 C310.744,13.4 312.376,14.808 312.376,16.904 L312.376,16.936 C312.376,19.016 310.744,20.44 309.048,20.44 Z M321.652,21 L321.652,17.656 C321.652,15 323.3,13.576 325.188,13.576 L325.268,13.576 L325.268,12.712 C323.652,12.648 322.292,13.704 321.652,15.16 L321.652,12.84 L320.868,12.84 L320.868,21 L321.652,21 Z M330.298,21.192 C331.866,21.192 332.842,20.552 333.674,19.656 L333.13,19.176 C332.458,19.896 331.594,20.456 330.33,20.456 C328.73,20.456 327.274,19.272 327.13,17.24 L333.898,17.24 C333.914,17.112 333.914,17.064 333.914,16.92 C333.914,14.504 332.458,12.648 330.17,12.648 C327.962,12.648 326.298,14.536 326.298,16.904 L326.298,16.936 C326.298,19.48 328.154,21.192 330.298,21.192 Z M333.066,16.536 L327.13,16.536 C327.274,14.728 328.522,13.368 330.138,13.368 C332.01,13.368 332.954,14.888 333.066,16.536 Z M338.672,21.192 C340.224,21.192 341.232,20.424 341.792,19.64 L341.792,21 L342.56,21 L342.56,15.912 C342.56,14.904 342.272,14.152 341.728,13.608 C341.136,13.016 340.256,12.712 339.152,12.712 C338.032,12.712 337.152,13 336.256,13.416 L336.544,14.104 C337.296,13.72 338.112,13.448 339.104,13.448 C340.784,13.448 341.792,14.296 341.792,15.944 L341.792,16.296 C341.008,16.088 340.224,15.944 339.088,15.944 C336.976,15.944 335.52,16.904 335.52,18.6 L335.52,18.632 C335.52,20.328 337.152,21.192 338.672,21.192 Z M338.72,20.456 C337.472,20.456 336.352,19.768 336.352,18.584 L336.352,18.552 C336.352,17.416 337.312,16.648 339.04,16.648 C340.208,16.648 341.12,16.84 341.808,17.016 L341.808,17.944 C341.808,19.432 340.384,20.456 338.72,20.456 Z M348.966,21.192 C350.47,21.192 351.462,20.52 352.294,19.576 L351.75,19.096 C351.062,19.864 350.166,20.456 349.014,20.456 C347.142,20.456 345.654,18.888 345.654,16.92 L345.654,16.888 C345.654,14.936 347.094,13.384 348.95,13.384 C350.166,13.384 350.966,14.008 351.67,14.728 L352.23,14.152 C351.462,13.352 350.502,12.648 348.966,12.648 C346.63,12.648 344.806,14.632 344.806,16.92 L344.806,16.952 C344.806,19.24 346.614,21.192 348.966,21.192 Z M355.276,21 L355.276,16.28 C355.276,14.584 356.508,13.368 358.108,13.368 C359.756,13.368 360.7,14.472 360.7,16.152 L360.7,21 L361.484,21 L361.484,16.008 C361.484,14.056 360.284,12.648 358.22,12.648 C356.732,12.648 355.82,13.4 355.276,14.36 L355.276,9.32 L354.492,9.32 L354.492,21 L355.276,21 Z M367.73,21.192 C369.298,21.192 370.274,20.552 371.106,19.656 L370.562,19.176 C369.89,19.896 369.026,20.456 367.762,20.456 C366.162,20.456 364.706,19.272 364.562,17.24 L371.33,17.24 C371.346,17.112 371.346,17.064 371.346,16.92 C371.346,14.504 369.89,12.648 367.602,12.648 C365.394,12.648 363.73,14.536 363.73,16.904 L363.73,16.936 C363.73,19.48 365.586,21.192 367.73,21.192 Z M370.498,16.536 L364.562,16.536 C364.706,14.728 365.954,13.368 367.57,13.368 C369.442,13.368 370.386,14.888 370.498,16.536 Z M377.064,21.192 C378.68,21.192 379.72,20.248 380.424,19.176 L380.424,21 L381.208,21 L381.208,9.32 L380.424,9.32 L380.424,14.6 C379.752,13.576 378.696,12.648 377.064,12.648 C375.096,12.648 373.096,14.264 373.096,16.92 L373.096,16.952 C373.096,19.608 375.096,21.192 377.064,21.192 Z M377.144,20.44 C375.432,20.44 373.944,19.064 373.944,16.92 L373.944,16.888 C373.944,14.696 375.368,13.4 377.144,13.4 C378.84,13.4 380.472,14.808 380.472,16.904 L380.472,16.936 C380.472,19.016 378.84,20.44 377.144,20.44 Z M391.444,21.192 C392.996,21.192 394.004,20.424 394.564,19.64 L394.564,21 L395.332,21 L395.332,15.912 C395.332,14.904 395.044,14.152 394.5,13.608 C393.908,13.016 393.028,12.712 391.924,12.712 C390.804,12.712 389.924,13 389.028,13.416 L389.316,14.104 C390.068,13.72 390.884,13.448 391.876,13.448 C393.556,13.448 394.564,14.296 394.564,15.944 L394.564,16.296 C393.78,16.088 392.996,15.944 391.86,15.944 C389.748,15.944 388.292,16.904 388.292,18.6 L388.292,18.632 C388.292,20.328 389.924,21.192 391.444,21.192 Z M391.492,20.456 C390.244,20.456 389.124,19.768 389.124,18.584 L389.124,18.552 C389.124,17.416 390.084,16.648 391.812,16.648 C392.98,16.648 393.892,16.84 394.58,17.016 L394.58,17.944 C394.58,19.432 393.156,20.456 391.492,20.456 Z M406.512,23.592 C407.712,23.592 408.768,23.208 409.472,22.504 C410.128,21.848 410.512,20.92 410.512,19.736 L410.512,12.84 L409.728,12.84 L409.728,14.472 C409.056,13.512 407.952,12.648 406.32,12.648 C404.352,12.648 402.4,14.168 402.4,16.52 L402.4,16.552 C402.4,18.888 404.352,20.392 406.32,20.392 C407.936,20.392 409.024,19.512 409.728,18.504 L409.728,19.688 C409.728,21.784 408.4,22.856 406.528,22.856 C405.328,22.856 404.208,22.456 403.232,21.704 L402.768,22.344 C403.888,23.176 405.152,23.592 406.512,23.592 Z M406.4,19.64 C404.72,19.64 403.248,18.36 403.248,16.52 L403.248,16.488 C403.248,14.584 404.688,13.4 406.4,13.4 C408.096,13.4 409.776,14.616 409.776,16.504 L409.776,16.536 C409.776,18.392 408.096,19.64 406.4,19.64 Z M414.262,21 L414.262,17.656 C414.262,15 415.91,13.576 417.798,13.576 L417.878,13.576 L417.878,12.712 C416.262,12.648 414.902,13.704 414.262,15.16 L414.262,12.84 L413.478,12.84 L413.478,21 L414.262,21 Z M422.908,21.192 C424.476,21.192 425.452,20.552 426.284,19.656 L425.74,19.176 C425.068,19.896 424.204,20.456 422.94,20.456 C421.34,20.456 419.884,19.272 419.74,17.24 L426.508,17.24 C426.524,17.112 426.524,17.064 426.524,16.92 C426.524,14.504 425.068,12.648 422.78,12.648 C420.572,12.648 418.908,14.536 418.908,16.904 L418.908,16.936 C418.908,19.48 420.764,21.192 422.908,21.192 Z M425.676,16.536 L419.74,16.536 C419.884,14.728 421.132,13.368 422.748,13.368 C424.62,13.368 425.564,14.888 425.676,16.536 Z M431.282,21.192 C432.834,21.192 433.842,20.424 434.402,19.64 L434.402,21 L435.17,21 L435.17,15.912 C435.17,14.904 434.882,14.152 434.338,13.608 C433.746,13.016 432.866,12.712 431.762,12.712 C430.642,12.712 429.762,13 428.866,13.416 L429.154,14.104 C429.906,13.72 430.722,13.448 431.714,13.448 C433.394,13.448 434.402,14.296 434.402,15.944 L434.402,16.296 C433.618,16.088 432.834,15.944 431.698,15.944 C429.586,15.944 428.13,16.904 428.13,18.6 L428.13,18.632 C428.13,20.328 429.762,21.192 431.282,21.192 Z M431.33,20.456 C430.082,20.456 428.962,19.768 428.962,18.584 L428.962,18.552 C428.962,17.416 429.922,16.648 431.65,16.648 C432.818,16.648 433.73,16.84 434.418,17.016 L434.418,17.944 C434.418,19.432 432.994,20.456 431.33,20.456 Z M440.616,21.144 C441.128,21.144 441.528,21.048 441.944,20.856 L441.944,20.12 C441.48,20.328 441.144,20.408 440.744,20.408 C439.8,20.408 439.112,19.992 439.112,18.824 L439.112,13.56 L441.976,13.56 L441.976,12.84 L439.112,12.84 L439.112,10.232 L438.328,10.232 L438.328,12.84 L437.144,12.84 L437.144,13.56 L438.328,13.56 L438.328,18.904 C438.328,20.456 439.352,21.144 440.616,21.144 Z M449.86,21 L449.86,16.28 C449.86,14.584 451.092,13.368 452.692,13.368 C454.34,13.368 455.284,14.472 455.284,16.152 L455.284,21 L456.068,21 L456.068,16.008 C456.068,14.056 454.868,12.648 452.804,12.648 C451.316,12.648 450.404,13.4 449.86,14.36 L449.86,9.32 L449.076,9.32 L449.076,21 L449.86,21 Z M462.314,21.192 C463.882,21.192 464.858,20.552 465.69,19.656 L465.146,19.176 C464.474,19.896 463.61,20.456 462.346,20.456 C460.746,20.456 459.29,19.272 459.146,17.24 L465.914,17.24 C465.93,17.112 465.93,17.064 465.93,16.92 C465.93,14.504 464.474,12.648 462.186,12.648 C459.978,12.648 458.314,14.536 458.314,16.904 L458.314,16.936 C458.314,19.48 460.17,21.192 462.314,21.192 Z M465.082,16.536 L459.146,16.536 C459.29,14.728 460.538,13.368 462.154,13.368 C464.026,13.368 464.97,14.888 465.082,16.536 Z M469.2,10.712 L469.2,9.64 L468.224,9.64 L468.224,10.712 L469.2,10.712 Z M469.104,21 L469.104,12.84 L468.32,12.84 L468.32,21 L469.104,21 Z M475.766,23.592 C476.966,23.592 478.022,23.208 478.726,22.504 C479.382,21.848 479.766,20.92 479.766,19.736 L479.766,12.84 L478.982,12.84 L478.982,14.472 C478.31,13.512 477.206,12.648 475.574,12.648 C473.606,12.648 471.654,14.168 471.654,16.52 L471.654,16.552 C471.654,18.888 473.606,20.392 475.574,20.392 C477.19,20.392 478.278,19.512 478.982,18.504 L478.982,19.688 C478.982,21.784 477.654,22.856 475.782,22.856 C474.582,22.856 473.462,22.456 472.486,21.704 L472.022,22.344 C473.142,23.176 474.406,23.592 475.766,23.592 Z M475.654,19.64 C473.974,19.64 472.502,18.36 472.502,16.52 L472.502,16.488 C472.502,14.584 473.942,13.4 475.654,13.4 C477.35,13.4 479.03,14.616 479.03,16.504 L479.03,16.536 C479.03,18.392 477.35,19.64 475.654,19.64 Z M483.516,21 L483.516,16.28 C483.516,14.584 484.748,13.368 486.348,13.368 C487.996,13.368 488.94,14.472 488.94,16.152 L488.94,21 L489.724,21 L489.724,16.008 C489.724,14.056 488.524,12.648 486.46,12.648 C484.972,12.648 484.06,13.4 483.516,14.36 L483.516,9.32 L482.732,9.32 L482.732,21 L483.516,21 Z M495.25,21.144 C495.762,21.144 496.162,21.048 496.578,20.856 L496.578,20.12 C496.114,20.328 495.778,20.408 495.378,20.408 C494.434,20.408 493.746,19.992 493.746,18.824 L493.746,13.56 L496.61,13.56 L496.61,12.84 L493.746,12.84 L493.746,10.232 L492.962,10.232 L492.962,12.84 L491.778,12.84 L491.778,13.56 L492.962,13.56 L492.962,18.904 C492.962,20.456 493.986,21.144 495.25,21.144 Z M167.48,35.712 L167.48,34.64 L166.504,34.64 L166.504,35.712 L167.48,35.712 Z M167.384,46 L167.384,37.84 L166.6,37.84 L166.6,46 L167.384,46 Z M171.246,46 L171.246,41.28 C171.246,39.584 172.478,38.368 174.078,38.368 C175.726,38.368 176.67,39.472 176.67,41.152 L176.67,46 L177.454,46 L177.454,41.008 C177.454,39.056 176.254,37.648 174.19,37.648 C172.702,37.648 171.79,38.4 171.246,39.36 L171.246,37.84 L170.462,37.84 L170.462,46 L171.246,46 Z M187.77,46.144 C188.282,46.144 188.682,46.048 189.098,45.856 L189.098,45.12 C188.634,45.328 188.298,45.408 187.898,45.408 C186.954,45.408 186.266,44.992 186.266,43.824 L186.266,38.56 L189.13,38.56 L189.13,37.84 L186.266,37.84 L186.266,35.232 L185.482,35.232 L185.482,37.84 L184.298,37.84 L184.298,38.56 L185.482,38.56 L185.482,43.904 C185.482,45.456 186.506,46.144 187.77,46.144 Z M192.224,46 L192.224,41.28 C192.224,39.584 193.456,38.368 195.056,38.368 C196.704,38.368 197.648,39.472 197.648,41.152 L197.648,46 L198.432,46 L198.432,41.008 C198.432,39.056 197.232,37.648 195.168,37.648 C193.68,37.648 192.768,38.4 192.224,39.36 L192.224,34.32 L191.44,34.32 L191.44,46 L192.224,46 Z M204.678,46.192 C206.246,46.192 207.222,45.552 208.054,44.656 L207.51,44.176 C206.838,44.896 205.974,45.456 204.71,45.456 C203.11,45.456 201.654,44.272 201.51,42.24 L208.278,42.24 C208.294,42.112 208.294,42.064 208.294,41.92 C208.294,39.504 206.838,37.648 204.55,37.648 C202.342,37.648 200.678,39.536 200.678,41.904 L200.678,41.936 C200.678,44.48 202.534,46.192 204.678,46.192 Z M207.446,41.536 L201.51,41.536 C201.654,39.728 202.902,38.368 204.518,38.368 C206.39,38.368 207.334,39.888 207.446,41.536 Z M217.842,46.192 C219.394,46.192 220.402,45.424 220.962,44.64 L220.962,46 L221.73,46 L221.73,40.912 C221.73,39.904 221.442,39.152 220.898,38.608 C220.306,38.016 219.426,37.712 218.322,37.712 C217.202,37.712 216.322,38 215.426,38.416 L215.714,39.104 C216.466,38.72 217.282,38.448 218.274,38.448 C219.954,38.448 220.962,39.296 220.962,40.944 L220.962,41.296 C220.178,41.088 219.394,40.944 218.258,40.944 C216.146,40.944 214.69,41.904 214.69,43.6 L214.69,43.632 C214.69,45.328 216.322,46.192 217.842,46.192 Z M217.89,45.456 C216.642,45.456 215.522,44.768 215.522,43.584 L215.522,43.552 C215.522,42.416 216.482,41.648 218.21,41.648 C219.378,41.648 220.29,41.84 220.978,42.016 L220.978,42.944 C220.978,44.432 219.554,45.456 217.89,45.456 Z M227.176,46.144 C227.688,46.144 228.088,46.048 228.504,45.856 L228.504,45.12 C228.04,45.328 227.704,45.408 227.304,45.408 C226.36,45.408 225.672,44.992 225.672,43.824 L225.672,38.56 L228.536,38.56 L228.536,37.84 L225.672,37.84 L225.672,35.232 L224.888,35.232 L224.888,37.84 L223.704,37.84 L223.704,38.56 L224.888,38.56 L224.888,43.904 C224.888,45.456 225.912,46.144 227.176,46.144 Z M231.63,46 L231.63,41.296 C231.63,39.648 232.782,38.368 234.238,38.368 C235.694,38.368 236.622,39.408 236.622,41.104 L236.622,46 L237.406,46 L237.406,41.248 C237.406,39.424 238.606,38.368 239.982,38.368 C241.486,38.368 242.398,39.392 242.398,41.152 L242.398,46 L243.182,46 L243.182,41.056 C243.182,39.008 241.982,37.648 240.046,37.648 C238.51,37.648 237.63,38.496 237.102,39.408 C236.654,38.464 235.774,37.648 234.35,37.648 C232.894,37.648 232.158,38.448 231.63,39.296 L231.63,37.84 L230.846,37.84 L230.846,46 L231.63,46 Z M249.668,46.192 C252.1,46.192 253.876,44.208 253.876,41.92 L253.876,41.888 C253.876,39.6 252.116,37.648 249.7,37.648 C247.268,37.648 245.492,39.632 245.492,41.92 L245.492,41.952 C245.492,44.24 247.252,46.192 249.668,46.192 Z M249.7,45.456 C247.812,45.456 246.34,43.888 246.34,41.92 L246.34,41.888 C246.34,39.968 247.732,38.384 249.668,38.384 C251.556,38.384 253.028,39.952 253.028,41.92 L253.028,41.952 C253.028,43.872 251.636,45.456 249.7,45.456 Z M258.922,46.16 C260.49,46.16 261.738,45.232 261.738,43.776 L261.738,43.744 C261.738,42.304 260.362,41.824 259.05,41.456 C257.882,41.12 256.778,40.784 256.778,39.872 L256.778,39.84 C256.778,39.024 257.514,38.416 258.634,38.416 C259.498,38.416 260.394,38.736 261.146,39.232 L261.562,38.576 C260.746,38.032 259.642,37.68 258.666,37.68 C257.082,37.68 255.978,38.624 255.978,39.936 L255.978,39.968 C255.978,41.424 257.45,41.824 258.778,42.208 C259.914,42.528 260.938,42.88 260.938,43.84 L260.938,43.872 C260.938,44.816 260.074,45.424 258.97,45.424 C257.93,45.424 256.938,45.04 256.042,44.352 L255.578,44.976 C256.442,45.68 257.738,46.16 258.922,46.16 Z M265.008,48.56 L265.008,44.24 C265.68,45.264 266.736,46.192 268.368,46.192 C270.336,46.192 272.336,44.576 272.336,41.92 L272.336,41.888 C272.336,39.232 270.336,37.648 268.368,37.648 C266.752,37.648 265.712,38.592 265.008,39.664 L265.008,37.84 L264.224,37.84 L264.224,48.56 L265.008,48.56 Z M268.288,45.44 C266.592,45.44 264.96,44.032 264.96,41.936 L264.96,41.904 C264.96,39.824 266.592,38.4 268.288,38.4 C270,38.4 271.488,39.776 271.488,41.92 L271.488,41.952 C271.488,44.144 270.064,45.44 268.288,45.44 Z M275.558,46 L275.558,41.28 C275.558,39.584 276.79,38.368 278.39,38.368 C280.038,38.368 280.982,39.472 280.982,41.152 L280.982,46 L281.766,46 L281.766,41.008 C281.766,39.056 280.566,37.648 278.502,37.648 C277.014,37.648 276.102,38.4 275.558,39.36 L275.558,34.32 L274.774,34.32 L274.774,46 L275.558,46 Z M288.012,46.192 C289.58,46.192 290.556,45.552 291.388,44.656 L290.844,44.176 C290.172,44.896 289.308,45.456 288.044,45.456 C286.444,45.456 284.988,44.272 284.844,42.24 L291.612,42.24 C291.628,42.112 291.628,42.064 291.628,41.92 C291.628,39.504 290.172,37.648 287.884,37.648 C285.676,37.648 284.012,39.536 284.012,41.904 L284.012,41.936 C284.012,44.48 285.868,46.192 288.012,46.192 Z M290.78,41.536 L284.844,41.536 C284.988,39.728 286.236,38.368 287.852,38.368 C289.724,38.368 290.668,39.888 290.78,41.536 Z M294.69,46 L294.69,42.656 C294.69,40 296.338,38.576 298.226,38.576 L298.306,38.576 L298.306,37.712 C296.69,37.648 295.33,38.704 294.69,40.16 L294.69,37.84 L293.906,37.84 L293.906,46 L294.69,46 Z M303.336,46.192 C304.904,46.192 305.88,45.552 306.712,44.656 L306.168,44.176 C305.496,44.896 304.632,45.456 303.368,45.456 C301.768,45.456 300.312,44.272 300.168,42.24 L306.936,42.24 C306.952,42.112 306.952,42.064 306.952,41.92 C306.952,39.504 305.496,37.648 303.208,37.648 C301,37.648 299.336,39.536 299.336,41.904 L299.336,41.936 C299.336,44.48 301.192,46.192 303.336,46.192 Z M306.104,41.536 L300.168,41.536 C300.312,39.728 301.56,38.368 303.176,38.368 C305.048,38.368 305.992,39.888 306.104,41.536 Z M308.622,47.712 C309.582,47.344 309.95,46.816 309.95,45.824 L309.95,44.64 L308.894,44.64 L308.894,46 L309.326,46 C309.374,46.608 309.118,46.96 308.43,47.312 L308.622,47.712 Z M318.794,46 L318.794,38.56 L321.642,38.56 L321.642,37.84 L318.794,37.84 L318.794,37.056 C318.794,35.664 319.322,34.992 320.442,34.992 C320.858,34.992 321.194,35.056 321.658,35.2 L321.658,34.464 C321.29,34.336 320.938,34.272 320.442,34.272 C319.722,34.272 319.146,34.496 318.73,34.912 C318.266,35.376 318.01,36.112 318.01,37.04 L318.01,37.84 L316.826,37.84 L316.826,38.56 L318.01,38.56 L318.01,46 L318.794,46 Z M326.768,46.192 C329.2,46.192 330.976,44.208 330.976,41.92 L330.976,41.888 C330.976,39.6 329.216,37.648 326.8,37.648 C324.368,37.648 322.592,39.632 322.592,41.92 L322.592,41.952 C322.592,44.24 324.352,46.192 326.768,46.192 Z M326.8,45.456 C324.912,45.456 323.44,43.888 323.44,41.92 L323.44,41.888 C323.44,39.968 324.832,38.384 326.768,38.384 C328.656,38.384 330.128,39.952 330.128,41.92 L330.128,41.952 C330.128,43.872 328.736,45.456 326.8,45.456 Z M334.166,46 L334.166,42.656 C334.166,40 335.814,38.576 337.702,38.576 L337.782,38.576 L337.782,37.712 C336.166,37.648 334.806,38.704 334.166,40.16 L334.166,37.84 L333.382,37.84 L333.382,46 L334.166,46 Z M347.282,46.144 C347.794,46.144 348.194,46.048 348.61,45.856 L348.61,45.12 C348.146,45.328 347.81,45.408 347.41,45.408 C346.466,45.408 345.778,44.992 345.778,43.824 L345.778,38.56 L348.642,38.56 L348.642,37.84 L345.778,37.84 L345.778,35.232 L344.994,35.232 L344.994,37.84 L343.81,37.84 L343.81,38.56 L344.994,38.56 L344.994,43.904 C344.994,45.456 346.018,46.144 347.282,46.144 Z M351.736,46 L351.736,41.28 C351.736,39.584 352.968,38.368 354.568,38.368 C356.216,38.368 357.16,39.472 357.16,41.152 L357.16,46 L357.944,46 L357.944,41.008 C357.944,39.056 356.744,37.648 354.68,37.648 C353.192,37.648 352.28,38.4 351.736,39.36 L351.736,34.32 L350.952,34.32 L350.952,46 L351.736,46 Z M364.19,46.192 C365.758,46.192 366.734,45.552 367.566,44.656 L367.022,44.176 C366.35,44.896 365.486,45.456 364.222,45.456 C362.622,45.456 361.166,44.272 361.022,42.24 L367.79,42.24 C367.806,42.112 367.806,42.064 367.806,41.92 C367.806,39.504 366.35,37.648 364.062,37.648 C361.854,37.648 360.19,39.536 360.19,41.904 L360.19,41.936 C360.19,44.48 362.046,46.192 364.19,46.192 Z M366.958,41.536 L361.022,41.536 C361.166,39.728 362.414,38.368 364.03,38.368 C365.902,38.368 366.846,39.888 366.958,41.536 Z M377.514,46.16 C379.082,46.16 380.33,45.232 380.33,43.776 L380.33,43.744 C380.33,42.304 378.954,41.824 377.642,41.456 C376.474,41.12 375.37,40.784 375.37,39.872 L375.37,39.84 C375.37,39.024 376.106,38.416 377.226,38.416 C378.09,38.416 378.986,38.736 379.738,39.232 L380.154,38.576 C379.338,38.032 378.234,37.68 377.258,37.68 C375.674,37.68 374.57,38.624 374.57,39.936 L374.57,39.968 C374.57,41.424 376.042,41.824 377.37,42.208 C378.506,42.528 379.53,42.88 379.53,43.84 L379.53,43.872 C379.53,44.816 378.666,45.424 377.562,45.424 C376.522,45.424 375.53,45.04 374.634,44.352 L374.17,44.976 C375.034,45.68 376.33,46.16 377.514,46.16 Z M383.6,46 L383.6,44.016 L385.584,42.016 L388.816,46 L389.808,46 L386.128,41.456 L389.696,37.84 L388.656,37.84 L383.6,43.072 L383.6,34.32 L382.816,34.32 L382.816,46 L383.6,46 Z M392.518,48.608 C393.686,48.608 394.518,48 395.238,46.288 L398.774,37.84 L397.91,37.84 L394.966,45.136 L391.574,37.84 L390.662,37.84 L394.582,45.952 C393.974,47.376 393.414,47.872 392.566,47.872 C391.958,47.872 391.606,47.776 391.174,47.568 L390.902,48.256 C391.446,48.496 391.894,48.608 392.518,48.608 Z M408.674,46.064 L411.122,39.072 L413.554,46.064 L414.226,46.064 L417.218,37.84 L416.37,37.84 L413.906,45.008 L411.442,37.808 L410.818,37.808 L408.354,45.008 L405.89,37.84 L405.01,37.84 L408.002,46.064 L408.674,46.064 Z M421.64,46.192 C423.192,46.192 424.2,45.424 424.76,44.64 L424.76,46 L425.528,46 L425.528,40.912 C425.528,39.904 425.24,39.152 424.696,38.608 C424.104,38.016 423.224,37.712 422.12,37.712 C421,37.712 420.12,38 419.224,38.416 L419.512,39.104 C420.264,38.72 421.08,38.448 422.072,38.448 C423.752,38.448 424.76,39.296 424.76,40.944 L424.76,41.296 C423.976,41.088 423.192,40.944 422.056,40.944 C419.944,40.944 418.488,41.904 418.488,43.6 L418.488,43.632 C418.488,45.328 420.12,46.192 421.64,46.192 Z M421.688,45.456 C420.44,45.456 419.32,44.768 419.32,43.584 L419.32,43.552 C419.32,42.416 420.28,41.648 422.008,41.648 C423.176,41.648 424.088,41.84 424.776,42.016 L424.776,42.944 C424.776,44.432 423.352,45.456 421.688,45.456 Z M430.974,46.16 C432.542,46.16 433.79,45.232 433.79,43.776 L433.79,43.744 C433.79,42.304 432.414,41.824 431.102,41.456 C429.934,41.12 428.83,40.784 428.83,39.872 L428.83,39.84 C428.83,39.024 429.566,38.416 430.686,38.416 C431.55,38.416 432.446,38.736 433.198,39.232 L433.614,38.576 C432.798,38.032 431.694,37.68 430.718,37.68 C429.134,37.68 428.03,38.624 428.03,39.936 L428.03,39.968 C428.03,41.424 429.502,41.824 430.83,42.208 C431.966,42.528 432.99,42.88 432.99,43.84 L432.99,43.872 C432.99,44.816 432.126,45.424 431.022,45.424 C429.982,45.424 428.99,45.04 428.094,44.352 L427.63,44.976 C428.494,45.68 429.79,46.16 430.974,46.16 Z M443.546,46.192 C445.098,46.192 446.106,45.424 446.666,44.64 L446.666,46 L447.434,46 L447.434,40.912 C447.434,39.904 447.146,39.152 446.602,38.608 C446.01,38.016 445.13,37.712 444.026,37.712 C442.906,37.712 442.026,38 441.13,38.416 L441.418,39.104 C442.17,38.72 442.986,38.448 443.978,38.448 C445.658,38.448 446.666,39.296 446.666,40.944 L446.666,41.296 C445.882,41.088 445.098,40.944 443.962,40.944 C441.85,40.944 440.394,41.904 440.394,43.6 L440.394,43.632 C440.394,45.328 442.026,46.192 443.546,46.192 Z M443.594,45.456 C442.346,45.456 441.226,44.768 441.226,43.584 L441.226,43.552 C441.226,42.416 442.186,41.648 443.914,41.648 C445.082,41.648 445.994,41.84 446.682,42.016 L446.682,42.944 C446.682,44.432 445.258,45.456 443.594,45.456 Z M458.47,46.192 C460.086,46.192 461.126,45.248 461.83,44.176 L461.83,46 L462.614,46 L462.614,34.32 L461.83,34.32 L461.83,39.6 C461.158,38.576 460.102,37.648 458.47,37.648 C456.502,37.648 454.502,39.264 454.502,41.92 L454.502,41.952 C454.502,44.608 456.502,46.192 458.47,46.192 Z M458.55,45.44 C456.838,45.44 455.35,44.064 455.35,41.92 L455.35,41.888 C455.35,39.696 456.774,38.4 458.55,38.4 C460.246,38.4 461.878,39.808 461.878,41.904 L461.878,41.936 C461.878,44.016 460.246,45.44 458.55,45.44 Z M469.02,46.192 C470.588,46.192 471.564,45.552 472.396,44.656 L471.852,44.176 C471.18,44.896 470.316,45.456 469.052,45.456 C467.452,45.456 465.996,44.272 465.852,42.24 L472.62,42.24 C472.636,42.112 472.636,42.064 472.636,41.92 C472.636,39.504 471.18,37.648 468.892,37.648 C466.684,37.648 465.02,39.536 465.02,41.904 L465.02,41.936 C465.02,44.48 466.876,46.192 469.02,46.192 Z M471.788,41.536 L465.852,41.536 C465.996,39.728 467.244,38.368 468.86,38.368 C470.732,38.368 471.676,39.888 471.788,41.536 Z M477.394,46.192 C478.946,46.192 479.954,45.424 480.514,44.64 L480.514,46 L481.282,46 L481.282,40.912 C481.282,39.904 480.994,39.152 480.45,38.608 C479.858,38.016 478.978,37.712 477.874,37.712 C476.754,37.712 475.874,38 474.978,38.416 L475.266,39.104 C476.018,38.72 476.834,38.448 477.826,38.448 C479.506,38.448 480.514,39.296 480.514,40.944 L480.514,41.296 C479.73,41.088 478.946,40.944 477.81,40.944 C475.698,40.944 474.242,41.904 474.242,43.6 L474.242,43.632 C474.242,45.328 475.874,46.192 477.394,46.192 Z M477.442,45.456 C476.194,45.456 475.074,44.768 475.074,43.584 L475.074,43.552 C475.074,42.416 476.034,41.648 477.762,41.648 C478.93,41.648 479.842,41.84 480.53,42.016 L480.53,42.944 C480.53,44.432 479.106,45.456 477.442,45.456 Z M487.528,46.192 C489.144,46.192 490.184,45.248 490.888,44.176 L490.888,46 L491.672,46 L491.672,34.32 L490.888,34.32 L490.888,39.6 C490.216,38.576 489.16,37.648 487.528,37.648 C485.56,37.648 483.56,39.264 483.56,41.92 L483.56,41.952 C483.56,44.608 485.56,46.192 487.528,46.192 Z M487.608,45.44 C485.896,45.44 484.408,44.064 484.408,41.92 L484.408,41.888 C484.408,39.696 485.832,38.4 487.608,38.4 C489.304,38.4 490.936,39.808 490.936,41.904 L490.936,41.936 C490.936,44.016 489.304,45.44 487.608,45.44 Z M170.632,71.192 C172.6,71.192 174.6,69.576 174.6,66.92 L174.6,66.888 C174.6,64.232 172.6,62.648 170.632,62.648 C169.016,62.648 167.976,63.592 167.272,64.664 L167.272,59.32 L166.488,59.32 L166.488,71 L167.272,71 L167.272,69.24 C167.944,70.264 169,71.192 170.632,71.192 Z M170.552,70.44 C168.856,70.44 167.224,69.032 167.224,66.936 L167.224,66.904 C167.224,64.824 168.856,63.4 170.552,63.4 C172.264,63.4 173.752,64.776 173.752,66.92 L173.752,66.952 C173.752,69.144 172.328,70.44 170.552,70.44 Z M177.934,71 L177.934,59.32 L177.15,59.32 L177.15,71 L177.934,71 Z M183.492,71.192 C185.044,71.192 186.052,70.424 186.612,69.64 L186.612,71 L187.38,71 L187.38,65.912 C187.38,64.904 187.092,64.152 186.548,63.608 C185.956,63.016 185.076,62.712 183.972,62.712 C182.852,62.712 181.972,63 181.076,63.416 L181.364,64.104 C182.116,63.72 182.932,63.448 183.924,63.448 C185.604,63.448 186.612,64.296 186.612,65.944 L186.612,66.296 C185.828,66.088 185.044,65.944 183.908,65.944 C181.796,65.944 180.34,66.904 180.34,68.6 L180.34,68.632 C180.34,70.328 181.972,71.192 183.492,71.192 Z M183.54,70.456 C182.292,70.456 181.172,69.768 181.172,68.584 L181.172,68.552 C181.172,67.416 182.132,66.648 183.86,66.648 C185.028,66.648 185.94,66.84 186.628,67.016 L186.628,67.944 C186.628,69.432 185.204,70.456 183.54,70.456 Z M193.786,71.192 C195.29,71.192 196.282,70.52 197.114,69.576 L196.57,69.096 C195.882,69.864 194.986,70.456 193.834,70.456 C191.962,70.456 190.474,68.888 190.474,66.92 L190.474,66.888 C190.474,64.936 191.914,63.384 193.77,63.384 C194.986,63.384 195.786,64.008 196.49,64.728 L197.05,64.152 C196.282,63.352 195.322,62.648 193.786,62.648 C191.45,62.648 189.626,64.632 189.626,66.92 L189.626,66.952 C189.626,69.24 191.434,71.192 193.786,71.192 Z M200.096,71 L200.096,69.016 L202.08,67.016 L205.312,71 L206.304,71 L202.624,66.456 L206.192,62.84 L205.152,62.84 L200.096,68.072 L200.096,59.32 L199.312,59.32 L199.312,71 L200.096,71 Z M207.814,72.712 C208.774,72.344 209.142,71.816 209.142,70.824 L209.142,69.64 L208.086,69.64 L208.086,71 L208.518,71 C208.566,71.608 208.31,71.96 207.622,72.312 L207.814,72.712 Z M219.202,71.192 C220.754,71.192 221.762,70.424 222.322,69.64 L222.322,71 L223.09,71 L223.09,65.912 C223.09,64.904 222.802,64.152 222.258,63.608 C221.666,63.016 220.786,62.712 219.682,62.712 C218.562,62.712 217.682,63 216.786,63.416 L217.074,64.104 C217.826,63.72 218.642,63.448 219.634,63.448 C221.314,63.448 222.322,64.296 222.322,65.944 L222.322,66.296 C221.538,66.088 220.754,65.944 219.618,65.944 C217.506,65.944 216.05,66.904 216.05,68.6 L216.05,68.632 C216.05,70.328 217.682,71.192 219.202,71.192 Z M219.25,70.456 C218.002,70.456 216.882,69.768 216.882,68.584 L216.882,68.552 C216.882,67.416 217.842,66.648 219.57,66.648 C220.738,66.648 221.65,66.84 222.338,67.016 L222.338,67.944 C222.338,69.432 220.914,70.456 219.25,70.456 Z M226.68,71 L226.68,66.28 C226.68,64.584 227.912,63.368 229.512,63.368 C231.16,63.368 232.104,64.472 232.104,66.152 L232.104,71 L232.888,71 L232.888,66.008 C232.888,64.056 231.688,62.648 229.624,62.648 C228.136,62.648 227.224,63.4 226.68,64.36 L226.68,62.84 L225.896,62.84 L225.896,71 L226.68,71 Z M239.134,71.192 C240.75,71.192 241.79,70.248 242.494,69.176 L242.494,71 L243.278,71 L243.278,59.32 L242.494,59.32 L242.494,64.6 C241.822,63.576 240.766,62.648 239.134,62.648 C237.166,62.648 235.166,64.264 235.166,66.92 L235.166,66.952 C235.166,69.608 237.166,71.192 239.134,71.192 Z M239.214,70.44 C237.502,70.44 236.014,69.064 236.014,66.92 L236.014,66.888 C236.014,64.696 237.438,63.4 239.214,63.4 C240.91,63.4 242.542,64.808 242.542,66.904 L242.542,66.936 C242.542,69.016 240.91,70.44 239.214,70.44 Z M253.754,71.144 C254.266,71.144 254.666,71.048 255.082,70.856 L255.082,70.12 C254.618,70.328 254.282,70.408 253.882,70.408 C252.938,70.408 252.25,69.992 252.25,68.824 L252.25,63.56 L255.114,63.56 L255.114,62.84 L252.25,62.84 L252.25,60.232 L251.466,60.232 L251.466,62.84 L250.282,62.84 L250.282,63.56 L251.466,63.56 L251.466,68.904 C251.466,70.456 252.49,71.144 253.754,71.144 Z M258.208,71 L258.208,66.28 C258.208,64.584 259.44,63.368 261.04,63.368 C262.688,63.368 263.632,64.472 263.632,66.152 L263.632,71 L264.416,71 L264.416,66.008 C264.416,64.056 263.216,62.648 261.152,62.648 C259.664,62.648 258.752,63.4 258.208,64.36 L258.208,59.32 L257.424,59.32 L257.424,71 L258.208,71 Z M270.662,71.192 C272.23,71.192 273.206,70.552 274.038,69.656 L273.494,69.176 C272.822,69.896 271.958,70.456 270.694,70.456 C269.094,70.456 267.638,69.272 267.494,67.24 L274.262,67.24 C274.278,67.112 274.278,67.064 274.278,66.92 C274.278,64.504 272.822,62.648 270.534,62.648 C268.326,62.648 266.662,64.536 266.662,66.904 L266.662,66.936 C266.662,69.48 268.518,71.192 270.662,71.192 Z M273.43,66.536 L267.494,66.536 C267.638,64.728 268.886,63.368 270.502,63.368 C272.374,63.368 273.318,64.888 273.43,66.536 Z M283.986,71.16 C285.554,71.16 286.802,70.232 286.802,68.776 L286.802,68.744 C286.802,67.304 285.426,66.824 284.114,66.456 C282.946,66.12 281.842,65.784 281.842,64.872 L281.842,64.84 C281.842,64.024 282.578,63.416 283.698,63.416 C284.562,63.416 285.458,63.736 286.21,64.232 L286.626,63.576 C285.81,63.032 284.706,62.68 283.73,62.68 C282.146,62.68 281.042,63.624 281.042,64.936 L281.042,64.968 C281.042,66.424 282.514,66.824 283.842,67.208 C284.978,67.528 286.002,67.88 286.002,68.84 L286.002,68.872 C286.002,69.816 285.138,70.424 284.034,70.424 C282.994,70.424 282.002,70.04 281.106,69.352 L280.642,69.976 C281.506,70.68 282.802,71.16 283.986,71.16 Z M291.848,71.144 C292.36,71.144 292.76,71.048 293.176,70.856 L293.176,70.12 C292.712,70.328 292.376,70.408 291.976,70.408 C291.032,70.408 290.344,69.992 290.344,68.824 L290.344,63.56 L293.208,63.56 L293.208,62.84 L290.344,62.84 L290.344,60.232 L289.56,60.232 L289.56,62.84 L288.376,62.84 L288.376,63.56 L289.56,63.56 L289.56,68.904 C289.56,70.456 290.584,71.144 291.848,71.144 Z M297.998,71.192 C299.55,71.192 300.558,70.424 301.118,69.64 L301.118,71 L301.886,71 L301.886,65.912 C301.886,64.904 301.598,64.152 301.054,63.608 C300.462,63.016 299.582,62.712 298.478,62.712 C297.358,62.712 296.478,63 295.582,63.416 L295.87,64.104 C296.622,63.72 297.438,63.448 298.43,63.448 C300.11,63.448 301.118,64.296 301.118,65.944 L301.118,66.296 C300.334,66.088 299.55,65.944 298.414,65.944 C296.302,65.944 294.846,66.904 294.846,68.6 L294.846,68.632 C294.846,70.328 296.478,71.192 297.998,71.192 Z M298.046,70.456 C296.798,70.456 295.678,69.768 295.678,68.584 L295.678,68.552 C295.678,67.416 296.638,66.648 298.366,66.648 C299.534,66.648 300.446,66.84 301.134,67.016 L301.134,67.944 C301.134,69.432 299.71,70.456 298.046,70.456 Z M305.476,71 L305.476,67.656 C305.476,65 307.124,63.576 309.012,63.576 L309.092,63.576 L309.092,62.712 C307.476,62.648 306.116,63.704 305.476,65.16 L305.476,62.84 L304.692,62.84 L304.692,71 L305.476,71 Z M313.722,71.16 C315.29,71.16 316.538,70.232 316.538,68.776 L316.538,68.744 C316.538,67.304 315.162,66.824 313.85,66.456 C312.682,66.12 311.578,65.784 311.578,64.872 L311.578,64.84 C311.578,64.024 312.314,63.416 313.434,63.416 C314.298,63.416 315.194,63.736 315.946,64.232 L316.362,63.576 C315.546,63.032 314.442,62.68 313.466,62.68 C311.882,62.68 310.778,63.624 310.778,64.936 L310.778,64.968 C310.778,66.424 312.25,66.824 313.578,67.208 C314.714,67.528 315.738,67.88 315.738,68.84 L315.738,68.872 C315.738,69.816 314.874,70.424 313.77,70.424 C312.73,70.424 311.738,70.04 310.842,69.352 L310.378,69.976 C311.242,70.68 312.538,71.16 313.722,71.16 Z M324.598,71 L324.598,66.28 C324.598,64.584 325.83,63.368 327.43,63.368 C329.078,63.368 330.022,64.472 330.022,66.152 L330.022,71 L330.806,71 L330.806,66.008 C330.806,64.056 329.606,62.648 327.542,62.648 C326.054,62.648 325.142,63.4 324.598,64.36 L324.598,59.32 L323.814,59.32 L323.814,71 L324.598,71 Z M336.092,71.192 C337.644,71.192 338.652,70.424 339.212,69.64 L339.212,71 L339.98,71 L339.98,65.912 C339.98,64.904 339.692,64.152 339.148,63.608 C338.556,63.016 337.676,62.712 336.572,62.712 C335.452,62.712 334.572,63 333.676,63.416 L333.964,64.104 C334.716,63.72 335.532,63.448 336.524,63.448 C338.204,63.448 339.212,64.296 339.212,65.944 L339.212,66.296 C338.428,66.088 337.644,65.944 336.508,65.944 C334.396,65.944 332.94,66.904 332.94,68.6 L332.94,68.632 C332.94,70.328 334.572,71.192 336.092,71.192 Z M336.14,70.456 C334.892,70.456 333.772,69.768 333.772,68.584 L333.772,68.552 C333.772,67.416 334.732,66.648 336.46,66.648 C337.628,66.648 338.54,66.84 339.228,67.016 L339.228,67.944 C339.228,69.432 337.804,70.456 336.14,70.456 Z M346.226,71.192 C347.842,71.192 348.882,70.248 349.586,69.176 L349.586,71 L350.37,71 L350.37,59.32 L349.586,59.32 L349.586,64.6 C348.914,63.576 347.858,62.648 346.226,62.648 C344.258,62.648 342.258,64.264 342.258,66.92 L342.258,66.952 C342.258,69.608 344.258,71.192 346.226,71.192 Z M346.306,70.44 C344.594,70.44 343.106,69.064 343.106,66.92 L343.106,66.888 C343.106,64.696 344.53,63.4 346.306,63.4 C348.002,63.4 349.634,64.808 349.634,66.904 L349.634,66.936 C349.634,69.016 348.002,70.44 346.306,70.44 Z M361.726,71.192 C363.23,71.192 364.222,70.52 365.054,69.576 L364.51,69.096 C363.822,69.864 362.926,70.456 361.774,70.456 C359.902,70.456 358.414,68.888 358.414,66.92 L358.414,66.888 C358.414,64.936 359.854,63.384 361.71,63.384 C362.926,63.384 363.726,64.008 364.43,64.728 L364.99,64.152 C364.222,63.352 363.262,62.648 361.726,62.648 C359.39,62.648 357.566,64.632 357.566,66.92 L357.566,66.952 C357.566,69.24 359.374,71.192 361.726,71.192 Z M370.452,71.192 C372.02,71.192 372.996,70.552 373.828,69.656 L373.284,69.176 C372.612,69.896 371.748,70.456 370.484,70.456 C368.884,70.456 367.428,69.272 367.284,67.24 L374.052,67.24 C374.068,67.112 374.068,67.064 374.068,66.92 C374.068,64.504 372.612,62.648 370.324,62.648 C368.116,62.648 366.452,64.536 366.452,66.904 L366.452,66.936 C366.452,69.48 368.308,71.192 370.452,71.192 Z M373.22,66.536 L367.284,66.536 C367.428,64.728 368.676,63.368 370.292,63.368 C372.164,63.368 373.108,64.888 373.22,66.536 Z M378.826,71.192 C380.378,71.192 381.386,70.424 381.946,69.64 L381.946,71 L382.714,71 L382.714,65.912 C382.714,64.904 382.426,64.152 381.882,63.608 C381.29,63.016 380.41,62.712 379.306,62.712 C378.186,62.712 377.306,63 376.41,63.416 L376.698,64.104 C377.45,63.72 378.266,63.448 379.258,63.448 C380.938,63.448 381.946,64.296 381.946,65.944 L381.946,66.296 C381.162,66.088 380.378,65.944 379.242,65.944 C377.13,65.944 375.674,66.904 375.674,68.6 L375.674,68.632 C375.674,70.328 377.306,71.192 378.826,71.192 Z M378.874,70.456 C377.626,70.456 376.506,69.768 376.506,68.584 L376.506,68.552 C376.506,67.416 377.466,66.648 379.194,66.648 C380.362,66.648 381.274,66.84 381.962,67.016 L381.962,67.944 C381.962,69.432 380.538,70.456 378.874,70.456 Z M388.16,71.16 C389.728,71.16 390.976,70.232 390.976,68.776 L390.976,68.744 C390.976,67.304 389.6,66.824 388.288,66.456 C387.12,66.12 386.016,65.784 386.016,64.872 L386.016,64.84 C386.016,64.024 386.752,63.416 387.872,63.416 C388.736,63.416 389.632,63.736 390.384,64.232 L390.8,63.576 C389.984,63.032 388.88,62.68 387.904,62.68 C386.32,62.68 385.216,63.624 385.216,64.936 L385.216,64.968 C385.216,66.424 386.688,66.824 388.016,67.208 C389.152,67.528 390.176,67.88 390.176,68.84 L390.176,68.872 C390.176,69.816 389.312,70.424 388.208,70.424 C387.168,70.424 386.176,70.04 385.28,69.352 L384.816,69.976 C385.68,70.68 386.976,71.16 388.16,71.16 Z M396.902,71.192 C398.47,71.192 399.446,70.552 400.278,69.656 L399.734,69.176 C399.062,69.896 398.198,70.456 396.934,70.456 C395.334,70.456 393.878,69.272 393.734,67.24 L400.502,67.24 C400.518,67.112 400.518,67.064 400.518,66.92 C400.518,64.504 399.062,62.648 396.774,62.648 C394.566,62.648 392.902,64.536 392.902,66.904 L392.902,66.936 C392.902,69.48 394.758,71.192 396.902,71.192 Z M399.67,66.536 L393.734,66.536 C393.878,64.728 395.126,63.368 396.742,63.368 C398.614,63.368 399.558,64.888 399.67,66.536 Z M406.236,71.192 C407.852,71.192 408.892,70.248 409.596,69.176 L409.596,71 L410.38,71 L410.38,59.32 L409.596,59.32 L409.596,64.6 C408.924,63.576 407.868,62.648 406.236,62.648 C404.268,62.648 402.268,64.264 402.268,66.92 L402.268,66.952 C402.268,69.608 404.268,71.192 406.236,71.192 Z M406.316,70.44 C404.604,70.44 403.116,69.064 403.116,66.92 L403.116,66.888 C403.116,64.696 404.54,63.4 406.316,63.4 C408.012,63.4 409.644,64.808 409.644,66.904 L409.644,66.936 C409.644,69.016 408.012,70.44 406.316,70.44 Z M420.856,71.144 C421.368,71.144 421.768,71.048 422.184,70.856 L422.184,70.12 C421.72,70.328 421.384,70.408 420.984,70.408 C420.04,70.408 419.352,69.992 419.352,68.824 L419.352,63.56 L422.216,63.56 L422.216,62.84 L419.352,62.84 L419.352,60.232 L418.568,60.232 L418.568,62.84 L417.384,62.84 L417.384,63.56 L418.568,63.56 L418.568,68.904 C418.568,70.456 419.592,71.144 420.856,71.144 Z M427.902,71.192 C430.334,71.192 432.11,69.208 432.11,66.92 L432.11,66.888 C432.11,64.6 430.35,62.648 427.934,62.648 C425.502,62.648 423.726,64.632 423.726,66.92 L423.726,66.952 C423.726,69.24 425.486,71.192 427.902,71.192 Z M427.934,70.456 C426.046,70.456 424.574,68.888 424.574,66.92 L424.574,66.888 C424.574,64.968 425.966,63.384 427.902,63.384 C429.79,63.384 431.262,64.952 431.262,66.92 L431.262,66.952 C431.262,68.872 429.87,70.456 427.934,70.456 Z M442.026,71.144 C442.538,71.144 442.938,71.048 443.354,70.856 L443.354,70.12 C442.89,70.328 442.554,70.408 442.154,70.408 C441.21,70.408 440.522,69.992 440.522,68.824 L440.522,63.56 L443.386,63.56 L443.386,62.84 L440.522,62.84 L440.522,60.232 L439.738,60.232 L439.738,62.84 L438.554,62.84 L438.554,63.56 L439.738,63.56 L439.738,68.904 C439.738,70.456 440.762,71.144 442.026,71.144 Z M448.656,71.064 L451.104,64.072 L453.536,71.064 L454.208,71.064 L457.2,62.84 L456.352,62.84 L453.888,70.008 L451.424,62.808 L450.8,62.808 L448.336,70.008 L445.872,62.84 L444.992,62.84 L447.984,71.064 L448.656,71.064 Z M460.454,60.712 L460.454,59.64 L459.478,59.64 L459.478,60.712 L460.454,60.712 Z M460.358,71 L460.358,62.84 L459.574,62.84 L459.574,71 L460.358,71 Z M464.22,71 L464.22,66.28 C464.22,64.584 465.452,63.368 467.052,63.368 C468.7,63.368 469.644,64.472 469.644,66.152 L469.644,71 L470.428,71 L470.428,66.008 C470.428,64.056 469.228,62.648 467.164,62.648 C465.676,62.648 464.764,63.4 464.22,64.36 L464.22,62.84 L463.436,62.84 L463.436,71 L464.22,71 Z M474.018,71 L474.018,69.016 L476.002,67.016 L479.234,71 L480.226,71 L476.546,66.456 L480.114,62.84 L479.074,62.84 L474.018,68.072 L474.018,59.32 L473.234,59.32 L473.234,71 L474.018,71 Z M483.08,71 L483.08,59.32 L482.296,59.32 L482.296,71 L483.08,71 Z M489.598,71.192 C491.166,71.192 492.142,70.552 492.974,69.656 L492.43,69.176 C491.758,69.896 490.894,70.456 489.63,70.456 C488.03,70.456 486.574,69.272 486.43,67.24 L493.198,67.24 C493.214,67.112 493.214,67.064 493.214,66.92 C493.214,64.504 491.758,62.648 489.47,62.648 C487.262,62.648 485.598,64.536 485.598,66.904 L485.598,66.936 C485.598,69.48 487.454,71.192 489.598,71.192 Z M492.366,66.536 L486.43,66.536 C486.574,64.728 487.822,63.368 489.438,63.368 C491.31,63.368 492.254,64.888 492.366,66.536 Z M496.212,71 L496.212,69.64 L495.156,69.64 L495.156,71 L496.212,71 Z" id="Apparentlywehadreachedagreatheightintheatmosphere,fortheskywasadeadblack,andthestarshadceasedtotwinkle." fill="#FFFFFF"></path>
                        <path d="M166.372,194 L167.618,191.256 L173.4,191.256 L174.646,194 L175.444,194 L170.88,184.13 L170.18,184.13 L165.616,194 L166.372,194 Z M173.092,190.598 L167.926,190.598 L170.516,184.928 L173.092,190.598 Z M178.038,196.24 L178.038,192.46 C178.626,193.356 179.55,194.168 180.978,194.168 C182.7,194.168 184.45,192.754 184.45,190.43 L184.45,190.402 C184.45,188.078 182.7,186.692 180.978,186.692 C179.564,186.692 178.654,187.518 178.038,188.456 L178.038,186.86 L177.352,186.86 L177.352,196.24 L178.038,196.24 Z M180.908,193.51 C179.424,193.51 177.996,192.278 177.996,190.444 L177.996,190.416 C177.996,188.596 179.424,187.35 180.908,187.35 C182.406,187.35 183.708,188.554 183.708,190.43 L183.708,190.458 C183.708,192.376 182.462,193.51 180.908,193.51 Z M187.268,196.24 L187.268,192.46 C187.856,193.356 188.78,194.168 190.208,194.168 C191.93,194.168 193.68,192.754 193.68,190.43 L193.68,190.402 C193.68,188.078 191.93,186.692 190.208,186.692 C188.794,186.692 187.884,187.518 187.268,188.456 L187.268,186.86 L186.582,186.86 L186.582,196.24 L187.268,196.24 Z M190.138,193.51 C188.654,193.51 187.226,192.278 187.226,190.444 L187.226,190.416 C187.226,188.596 188.654,187.35 190.138,187.35 C191.636,187.35 192.938,188.554 192.938,190.43 L192.938,190.458 C192.938,192.376 191.692,193.51 190.138,193.51 Z M197.982,194.168 C199.34,194.168 200.222,193.496 200.712,192.81 L200.712,194 L201.384,194 L201.384,189.548 C201.384,188.666 201.132,188.008 200.656,187.532 C200.138,187.014 199.368,186.748 198.402,186.748 C197.422,186.748 196.652,187 195.868,187.364 L196.12,187.966 C196.778,187.63 197.492,187.392 198.36,187.392 C199.83,187.392 200.712,188.134 200.712,189.576 L200.712,189.884 C200.026,189.702 199.34,189.576 198.346,189.576 C196.498,189.576 195.224,190.416 195.224,191.9 L195.224,191.928 C195.224,193.412 196.652,194.168 197.982,194.168 Z M198.024,193.524 C196.932,193.524 195.952,192.922 195.952,191.886 L195.952,191.858 C195.952,190.864 196.792,190.192 198.304,190.192 C199.326,190.192 200.124,190.36 200.726,190.514 L200.726,191.326 C200.726,192.628 199.48,193.524 198.024,193.524 Z M204.524,194 L204.524,191.074 C204.524,188.75 205.966,187.504 207.618,187.504 L207.688,187.504 L207.688,186.748 C206.274,186.692 205.084,187.616 204.524,188.89 L204.524,186.86 L203.838,186.86 L203.838,194 L204.524,194 Z M212.088,194.168 C213.46,194.168 214.314,193.608 215.042,192.824 L214.566,192.404 C213.978,193.034 213.222,193.524 212.116,193.524 C210.716,193.524 209.442,192.488 209.316,190.71 L215.238,190.71 C215.252,190.598 215.252,190.556 215.252,190.43 C215.252,188.316 213.978,186.692 211.976,186.692 C210.044,186.692 208.588,188.344 208.588,190.416 L208.588,190.444 C208.588,192.67 210.212,194.168 212.088,194.168 Z M214.51,190.094 L209.316,190.094 C209.442,188.512 210.534,187.322 211.948,187.322 C213.586,187.322 214.412,188.652 214.51,190.094 Z M217.93,194 L217.93,189.87 C217.93,188.386 219.008,187.322 220.408,187.322 C221.85,187.322 222.676,188.288 222.676,189.758 L222.676,194 L223.362,194 L223.362,189.632 C223.362,187.924 222.312,186.692 220.506,186.692 C219.204,186.692 218.406,187.35 217.93,188.19 L217.93,186.86 L217.244,186.86 L217.244,194 L217.93,194 Z M228.196,194.126 C228.644,194.126 228.994,194.042 229.358,193.874 L229.358,193.23 C228.952,193.412 228.658,193.482 228.308,193.482 C227.482,193.482 226.88,193.118 226.88,192.096 L226.88,187.49 L229.386,187.49 L229.386,186.86 L226.88,186.86 L226.88,184.578 L226.194,184.578 L226.194,186.86 L225.158,186.86 L225.158,187.49 L226.194,187.49 L226.194,192.166 C226.194,193.524 227.09,194.126 228.196,194.126 Z M232.19,194 L232.19,183.78 L231.504,183.78 L231.504,194 L232.19,194 Z M235.75,196.282 C236.772,196.282 237.5,195.75 238.13,194.252 L241.224,186.86 L240.468,186.86 L237.892,193.244 L234.924,186.86 L234.126,186.86 L237.556,193.958 C237.024,195.204 236.534,195.638 235.792,195.638 C235.26,195.638 234.952,195.554 234.574,195.372 L234.336,195.974 C234.812,196.184 235.204,196.282 235.75,196.282 Z M249.884,194.056 L252.026,187.938 L254.154,194.056 L254.742,194.056 L257.36,186.86 L256.618,186.86 L254.462,193.132 L252.306,186.832 L251.76,186.832 L249.604,193.132 L247.448,186.86 L246.678,186.86 L249.296,194.056 L249.884,194.056 Z M261.998,194.168 C263.37,194.168 264.224,193.608 264.952,192.824 L264.476,192.404 C263.888,193.034 263.132,193.524 262.026,193.524 C260.626,193.524 259.352,192.488 259.226,190.71 L265.148,190.71 C265.162,190.598 265.162,190.556 265.162,190.43 C265.162,188.316 263.888,186.692 261.886,186.692 C259.954,186.692 258.498,188.344 258.498,190.416 L258.498,190.444 C258.498,192.67 260.122,194.168 261.998,194.168 Z M264.42,190.094 L259.226,190.094 C259.352,188.512 260.444,187.322 261.858,187.322 C263.496,187.322 264.322,188.652 264.42,190.094 Z M272.03,194 L272.03,189.87 C272.03,188.386 273.108,187.322 274.508,187.322 C275.95,187.322 276.776,188.288 276.776,189.758 L276.776,194 L277.462,194 L277.462,189.632 C277.462,187.924 276.412,186.692 274.606,186.692 C273.304,186.692 272.506,187.35 272.03,188.19 L272.03,183.78 L271.344,183.78 L271.344,194 L272.03,194 Z M282.086,194.168 C283.444,194.168 284.326,193.496 284.816,192.81 L284.816,194 L285.488,194 L285.488,189.548 C285.488,188.666 285.236,188.008 284.76,187.532 C284.242,187.014 283.472,186.748 282.506,186.748 C281.526,186.748 280.756,187 279.972,187.364 L280.224,187.966 C280.882,187.63 281.596,187.392 282.464,187.392 C283.934,187.392 284.816,188.134 284.816,189.576 L284.816,189.884 C284.13,189.702 283.444,189.576 282.45,189.576 C280.602,189.576 279.328,190.416 279.328,191.9 L279.328,191.928 C279.328,193.412 280.756,194.168 282.086,194.168 Z M282.128,193.524 C281.036,193.524 280.056,192.922 280.056,191.886 L280.056,191.858 C280.056,190.864 280.896,190.192 282.408,190.192 C283.43,190.192 284.228,190.36 284.83,190.514 L284.83,191.326 C284.83,192.628 283.584,193.524 282.128,193.524 Z M290.952,194.168 C292.366,194.168 293.276,193.342 293.892,192.404 L293.892,194 L294.578,194 L294.578,183.78 L293.892,183.78 L293.892,188.4 C293.304,187.504 292.38,186.692 290.952,186.692 C289.23,186.692 287.48,188.106 287.48,190.43 L287.48,190.458 C287.48,192.782 289.23,194.168 290.952,194.168 Z M291.022,193.51 C289.524,193.51 288.222,192.306 288.222,190.43 L288.222,190.402 C288.222,188.484 289.468,187.35 291.022,187.35 C292.506,187.35 293.934,188.582 293.934,190.416 L293.934,190.444 C293.934,192.264 292.506,193.51 291.022,193.51 Z M302.048,194 L302.048,191.074 C302.048,188.75 303.49,187.504 305.142,187.504 L305.212,187.504 L305.212,186.748 C303.798,186.692 302.608,187.616 302.048,188.89 L302.048,186.86 L301.362,186.86 L301.362,194 L302.048,194 Z M309.612,194.168 C310.984,194.168 311.838,193.608 312.566,192.824 L312.09,192.404 C311.502,193.034 310.746,193.524 309.64,193.524 C308.24,193.524 306.966,192.488 306.84,190.71 L312.762,190.71 C312.776,190.598 312.776,190.556 312.776,190.43 C312.776,188.316 311.502,186.692 309.5,186.692 C307.568,186.692 306.112,188.344 306.112,190.416 L306.112,190.444 C306.112,192.67 307.736,194.168 309.612,194.168 Z M312.034,190.094 L306.84,190.094 C306.966,188.512 308.058,187.322 309.472,187.322 C311.11,187.322 311.936,188.652 312.034,190.094 Z M316.938,194.168 C318.296,194.168 319.178,193.496 319.668,192.81 L319.668,194 L320.34,194 L320.34,189.548 C320.34,188.666 320.088,188.008 319.612,187.532 C319.094,187.014 318.324,186.748 317.358,186.748 C316.378,186.748 315.608,187 314.824,187.364 L315.076,187.966 C315.734,187.63 316.448,187.392 317.316,187.392 C318.786,187.392 319.668,188.134 319.668,189.576 L319.668,189.884 C318.982,189.702 318.296,189.576 317.302,189.576 C315.454,189.576 314.18,190.416 314.18,191.9 L314.18,191.928 C314.18,193.412 315.608,194.168 316.938,194.168 Z M316.98,193.524 C315.888,193.524 314.908,192.922 314.908,191.886 L314.908,191.858 C314.908,190.864 315.748,190.192 317.26,190.192 C318.282,190.192 319.08,190.36 319.682,190.514 L319.682,191.326 C319.682,192.628 318.436,193.524 316.98,193.524 Z M325.944,194.168 C327.26,194.168 328.128,193.58 328.856,192.754 L328.38,192.334 C327.778,193.006 326.994,193.524 325.986,193.524 C324.348,193.524 323.046,192.152 323.046,190.43 L323.046,190.402 C323.046,188.694 324.306,187.336 325.93,187.336 C326.994,187.336 327.694,187.882 328.31,188.512 L328.8,188.008 C328.128,187.308 327.288,186.692 325.944,186.692 C323.9,186.692 322.304,188.428 322.304,190.43 L322.304,190.458 C322.304,192.46 323.886,194.168 325.944,194.168 Z M331.464,194 L331.464,189.87 C331.464,188.386 332.542,187.322 333.942,187.322 C335.384,187.322 336.21,188.288 336.21,189.758 L336.21,194 L336.896,194 L336.896,189.632 C336.896,187.924 335.846,186.692 334.04,186.692 C332.738,186.692 331.94,187.35 331.464,188.19 L331.464,183.78 L330.778,183.78 L330.778,194 L331.464,194 Z M342.36,194.168 C343.732,194.168 344.586,193.608 345.314,192.824 L344.838,192.404 C344.25,193.034 343.494,193.524 342.388,193.524 C340.988,193.524 339.714,192.488 339.588,190.71 L345.51,190.71 C345.524,190.598 345.524,190.556 345.524,190.43 C345.524,188.316 344.25,186.692 342.248,186.692 C340.316,186.692 338.86,188.344 338.86,190.416 L338.86,190.444 C338.86,192.67 340.484,194.168 342.36,194.168 Z M344.782,190.094 L339.588,190.094 C339.714,188.512 340.806,187.322 342.22,187.322 C343.858,187.322 344.684,188.652 344.782,190.094 Z M350.526,194.168 C351.94,194.168 352.85,193.342 353.466,192.404 L353.466,194 L354.152,194 L354.152,183.78 L353.466,183.78 L353.466,188.4 C352.878,187.504 351.954,186.692 350.526,186.692 C348.804,186.692 347.054,188.106 347.054,190.43 L347.054,190.458 C347.054,192.782 348.804,194.168 350.526,194.168 Z M350.596,193.51 C349.098,193.51 347.796,192.306 347.796,190.43 L347.796,190.402 C347.796,188.484 349.042,187.35 350.596,187.35 C352.08,187.35 353.508,188.582 353.508,190.416 L353.508,190.444 C353.508,192.264 352.08,193.51 350.596,193.51 Z M363.106,194.168 C364.464,194.168 365.346,193.496 365.836,192.81 L365.836,194 L366.508,194 L366.508,189.548 C366.508,188.666 366.256,188.008 365.78,187.532 C365.262,187.014 364.492,186.748 363.526,186.748 C362.546,186.748 361.776,187 360.992,187.364 L361.244,187.966 C361.902,187.63 362.616,187.392 363.484,187.392 C364.954,187.392 365.836,188.134 365.836,189.576 L365.836,189.884 C365.15,189.702 364.464,189.576 363.47,189.576 C361.622,189.576 360.348,190.416 360.348,191.9 L360.348,191.928 C360.348,193.412 361.776,194.168 363.106,194.168 Z M363.148,193.524 C362.056,193.524 361.076,192.922 361.076,191.886 L361.076,191.858 C361.076,190.864 361.916,190.192 363.428,190.192 C364.45,190.192 365.248,190.36 365.85,190.514 L365.85,191.326 C365.85,192.628 364.604,193.524 363.148,193.524 Z M376.288,196.268 C377.338,196.268 378.262,195.932 378.878,195.316 C379.452,194.742 379.788,193.93 379.788,192.894 L379.788,186.86 L379.102,186.86 L379.102,188.288 C378.514,187.448 377.548,186.692 376.12,186.692 C374.398,186.692 372.69,188.022 372.69,190.08 L372.69,190.108 C372.69,192.152 374.398,193.468 376.12,193.468 C377.534,193.468 378.486,192.698 379.102,191.816 L379.102,192.852 C379.102,194.686 377.94,195.624 376.302,195.624 C375.252,195.624 374.272,195.274 373.418,194.616 L373.012,195.176 C373.992,195.904 375.098,196.268 376.288,196.268 Z M376.19,192.81 C374.72,192.81 373.432,191.69 373.432,190.08 L373.432,190.052 C373.432,188.386 374.692,187.35 376.19,187.35 C377.674,187.35 379.144,188.414 379.144,190.066 L379.144,190.094 C379.144,191.718 377.674,192.81 376.19,192.81 Z M383.068,194 L383.068,191.074 C383.068,188.75 384.51,187.504 386.162,187.504 L386.232,187.504 L386.232,186.748 C384.818,186.692 383.628,187.616 383.068,188.89 L383.068,186.86 L382.382,186.86 L382.382,194 L383.068,194 Z M390.632,194.168 C392.004,194.168 392.858,193.608 393.586,192.824 L393.11,192.404 C392.522,193.034 391.766,193.524 390.66,193.524 C389.26,193.524 387.986,192.488 387.86,190.71 L393.782,190.71 C393.796,190.598 393.796,190.556 393.796,190.43 C393.796,188.316 392.522,186.692 390.52,186.692 C388.588,186.692 387.132,188.344 387.132,190.416 L387.132,190.444 C387.132,192.67 388.756,194.168 390.632,194.168 Z M393.054,190.094 L387.86,190.094 C387.986,188.512 389.078,187.322 390.492,187.322 C392.13,187.322 392.956,188.652 393.054,190.094 Z M397.958,194.168 C399.316,194.168 400.198,193.496 400.688,192.81 L400.688,194 L401.36,194 L401.36,189.548 C401.36,188.666 401.108,188.008 400.632,187.532 C400.114,187.014 399.344,186.748 398.378,186.748 C397.398,186.748 396.628,187 395.844,187.364 L396.096,187.966 C396.754,187.63 397.468,187.392 398.336,187.392 C399.806,187.392 400.688,188.134 400.688,189.576 L400.688,189.884 C400.002,189.702 399.316,189.576 398.322,189.576 C396.474,189.576 395.2,190.416 395.2,191.9 L395.2,191.928 C395.2,193.412 396.628,194.168 397.958,194.168 Z M398,193.524 C396.908,193.524 395.928,192.922 395.928,191.886 L395.928,191.858 C395.928,190.864 396.768,190.192 398.28,190.192 C399.302,190.192 400.1,190.36 400.702,190.514 L400.702,191.326 C400.702,192.628 399.456,193.524 398,193.524 Z M406.124,194.126 C406.572,194.126 406.922,194.042 407.286,193.874 L407.286,193.23 C406.88,193.412 406.586,193.482 406.236,193.482 C405.41,193.482 404.808,193.118 404.808,192.096 L404.808,187.49 L407.314,187.49 L407.314,186.86 L404.808,186.86 L404.808,184.578 L404.122,184.578 L404.122,186.86 L403.086,186.86 L403.086,187.49 L404.122,187.49 L404.122,192.166 C404.122,193.524 405.018,194.126 406.124,194.126 Z M414.21,194 L414.21,189.87 C414.21,188.386 415.288,187.322 416.688,187.322 C418.13,187.322 418.956,188.288 418.956,189.758 L418.956,194 L419.642,194 L419.642,189.632 C419.642,187.924 418.592,186.692 416.786,186.692 C415.484,186.692 414.686,187.35 414.21,188.19 L414.21,183.78 L413.524,183.78 L413.524,194 L414.21,194 Z M425.106,194.168 C426.478,194.168 427.332,193.608 428.06,192.824 L427.584,192.404 C426.996,193.034 426.24,193.524 425.134,193.524 C423.734,193.524 422.46,192.488 422.334,190.71 L428.256,190.71 C428.27,190.598 428.27,190.556 428.27,190.43 C428.27,188.316 426.996,186.692 424.994,186.692 C423.062,186.692 421.606,188.344 421.606,190.416 L421.606,190.444 C421.606,192.67 423.23,194.168 425.106,194.168 Z M427.528,190.094 L422.334,190.094 C422.46,188.512 423.552,187.322 424.966,187.322 C426.604,187.322 427.43,188.652 427.528,190.094 Z M431.13,184.998 L431.13,184.06 L430.276,184.06 L430.276,184.998 L431.13,184.998 Z M431.046,194 L431.046,186.86 L430.36,186.86 L430.36,194 L431.046,194 Z M436.874,196.268 C437.924,196.268 438.848,195.932 439.464,195.316 C440.038,194.742 440.374,193.93 440.374,192.894 L440.374,186.86 L439.688,186.86 L439.688,188.288 C439.1,187.448 438.134,186.692 436.706,186.692 C434.984,186.692 433.276,188.022 433.276,190.08 L433.276,190.108 C433.276,192.152 434.984,193.468 436.706,193.468 C438.12,193.468 439.072,192.698 439.688,191.816 L439.688,192.852 C439.688,194.686 438.526,195.624 436.888,195.624 C435.838,195.624 434.858,195.274 434.004,194.616 L433.598,195.176 C434.578,195.904 435.684,196.268 436.874,196.268 Z M436.776,192.81 C435.306,192.81 434.018,191.69 434.018,190.08 L434.018,190.052 C434.018,188.386 435.278,187.35 436.776,187.35 C438.26,187.35 439.73,188.414 439.73,190.066 L439.73,190.094 C439.73,191.718 438.26,192.81 436.776,192.81 Z M443.654,194 L443.654,189.87 C443.654,188.386 444.732,187.322 446.132,187.322 C447.574,187.322 448.4,188.288 448.4,189.758 L448.4,194 L449.086,194 L449.086,189.632 C449.086,187.924 448.036,186.692 446.23,186.692 C444.928,186.692 444.13,187.35 443.654,188.19 L443.654,183.78 L442.968,183.78 L442.968,194 L443.654,194 Z M453.92,194.126 C454.368,194.126 454.718,194.042 455.082,193.874 L455.082,193.23 C454.676,193.412 454.382,193.482 454.032,193.482 C453.206,193.482 452.604,193.118 452.604,192.096 L452.604,187.49 L455.11,187.49 L455.11,186.86 L452.604,186.86 L452.604,184.578 L451.918,184.578 L451.918,186.86 L450.882,186.86 L450.882,187.49 L451.918,187.49 L451.918,192.166 C451.918,193.524 452.814,194.126 453.92,194.126 Z M462.188,184.998 L462.188,184.06 L461.334,184.06 L461.334,184.998 L462.188,184.998 Z M462.104,194 L462.104,186.86 L461.418,186.86 L461.418,194 L462.104,194 Z M465.482,194 L465.482,189.87 C465.482,188.386 466.56,187.322 467.96,187.322 C469.402,187.322 470.228,188.288 470.228,189.758 L470.228,194 L470.914,194 L470.914,189.632 C470.914,187.924 469.864,186.692 468.058,186.692 C466.756,186.692 465.958,187.35 465.482,188.19 L465.482,186.86 L464.796,186.86 L464.796,194 L465.482,194 Z M479.938,194.126 C480.386,194.126 480.736,194.042 481.1,193.874 L481.1,193.23 C480.694,193.412 480.4,193.482 480.05,193.482 C479.224,193.482 478.622,193.118 478.622,192.096 L478.622,187.49 L481.128,187.49 L481.128,186.86 L478.622,186.86 L478.622,184.578 L477.936,184.578 L477.936,186.86 L476.9,186.86 L476.9,187.49 L477.936,187.49 L477.936,192.166 C477.936,193.524 478.832,194.126 479.938,194.126 Z M483.834,194 L483.834,189.87 C483.834,188.386 484.912,187.322 486.312,187.322 C487.754,187.322 488.58,188.288 488.58,189.758 L488.58,194 L489.266,194 L489.266,189.632 C489.266,187.924 488.216,186.692 486.41,186.692 C485.108,186.692 484.31,187.35 483.834,188.19 L483.834,183.78 L483.148,183.78 L483.148,194 L483.834,194 Z M494.73,194.168 C496.102,194.168 496.956,193.608 497.684,192.824 L497.208,192.404 C496.62,193.034 495.864,193.524 494.758,193.524 C493.358,193.524 492.084,192.488 491.958,190.71 L497.88,190.71 C497.894,190.598 497.894,190.556 497.894,190.43 C497.894,188.316 496.62,186.692 494.618,186.692 C492.686,186.692 491.23,188.344 491.23,190.416 L491.23,190.444 C491.23,192.67 492.854,194.168 494.73,194.168 Z M497.152,190.094 L491.958,190.094 C492.084,188.512 493.176,187.322 494.59,187.322 C496.228,187.322 497.054,188.652 497.152,190.094 Z M168.472,219.168 C169.83,219.168 170.712,218.496 171.202,217.81 L171.202,219 L171.874,219 L171.874,214.548 C171.874,213.666 171.622,213.008 171.146,212.532 C170.628,212.014 169.858,211.748 168.892,211.748 C167.912,211.748 167.142,212 166.358,212.364 L166.61,212.966 C167.268,212.63 167.982,212.392 168.85,212.392 C170.32,212.392 171.202,213.134 171.202,214.576 L171.202,214.884 C170.516,214.702 169.83,214.576 168.836,214.576 C166.988,214.576 165.714,215.416 165.714,216.9 L165.714,216.928 C165.714,218.412 167.142,219.168 168.472,219.168 Z M168.514,218.524 C167.422,218.524 166.442,217.922 166.442,216.886 L166.442,216.858 C166.442,215.864 167.282,215.192 168.794,215.192 C169.816,215.192 170.614,215.36 171.216,215.514 L171.216,216.326 C171.216,217.628 169.97,218.524 168.514,218.524 Z M176.638,219.126 C177.086,219.126 177.436,219.042 177.8,218.874 L177.8,218.23 C177.394,218.412 177.1,218.482 176.75,218.482 C175.924,218.482 175.322,218.118 175.322,217.096 L175.322,212.49 L177.828,212.49 L177.828,211.86 L175.322,211.86 L175.322,209.578 L174.636,209.578 L174.636,211.86 L173.6,211.86 L173.6,212.49 L174.636,212.49 L174.636,217.166 C174.636,218.524 175.532,219.126 176.638,219.126 Z M180.534,219 L180.534,214.884 C180.534,213.442 181.542,212.322 182.816,212.322 C184.09,212.322 184.902,213.232 184.902,214.716 L184.902,219 L185.588,219 L185.588,214.842 C185.588,213.246 186.638,212.322 187.842,212.322 C189.158,212.322 189.956,213.218 189.956,214.758 L189.956,219 L190.642,219 L190.642,214.674 C190.642,212.882 189.592,211.692 187.898,211.692 C186.554,211.692 185.784,212.434 185.322,213.232 C184.93,212.406 184.16,211.692 182.914,211.692 C181.64,211.692 180.996,212.392 180.534,213.134 L180.534,211.86 L179.848,211.86 L179.848,219 L180.534,219 Z M196.316,219.168 C198.444,219.168 199.998,217.432 199.998,215.43 L199.998,215.402 C199.998,213.4 198.458,211.692 196.344,211.692 C194.216,211.692 192.662,213.428 192.662,215.43 L192.662,215.458 C192.662,217.46 194.202,219.168 196.316,219.168 Z M196.344,218.524 C194.692,218.524 193.404,217.152 193.404,215.43 L193.404,215.402 C193.404,213.722 194.622,212.336 196.316,212.336 C197.968,212.336 199.256,213.708 199.256,215.43 L199.256,215.458 C199.256,217.138 198.038,218.524 196.344,218.524 Z M204.412,219.14 C205.784,219.14 206.876,218.328 206.876,217.054 L206.876,217.026 C206.876,215.766 205.672,215.346 204.524,215.024 C203.502,214.73 202.536,214.436 202.536,213.638 L202.536,213.61 C202.536,212.896 203.18,212.364 204.16,212.364 C204.916,212.364 205.7,212.644 206.358,213.078 L206.722,212.504 C206.008,212.028 205.042,211.72 204.188,211.72 C202.802,211.72 201.836,212.546 201.836,213.694 L201.836,213.722 C201.836,214.996 203.124,215.346 204.286,215.682 C205.28,215.962 206.176,216.27 206.176,217.11 L206.176,217.138 C206.176,217.964 205.42,218.496 204.454,218.496 C203.544,218.496 202.676,218.16 201.892,217.558 L201.486,218.104 C202.242,218.72 203.376,219.14 204.412,219.14 Z M209.736,221.24 L209.736,217.46 C210.324,218.356 211.248,219.168 212.676,219.168 C214.398,219.168 216.148,217.754 216.148,215.43 L216.148,215.402 C216.148,213.078 214.398,211.692 212.676,211.692 C211.262,211.692 210.352,212.518 209.736,213.456 L209.736,211.86 L209.05,211.86 L209.05,221.24 L209.736,221.24 Z M212.606,218.51 C211.122,218.51 209.694,217.278 209.694,215.444 L209.694,215.416 C209.694,213.596 211.122,212.35 212.606,212.35 C214.104,212.35 215.406,213.554 215.406,215.43 L215.406,215.458 C215.406,217.376 214.16,218.51 212.606,218.51 Z M218.966,219 L218.966,214.87 C218.966,213.386 220.044,212.322 221.444,212.322 C222.886,212.322 223.712,213.288 223.712,214.758 L223.712,219 L224.398,219 L224.398,214.632 C224.398,212.924 223.348,211.692 221.542,211.692 C220.24,211.692 219.442,212.35 218.966,213.19 L218.966,208.78 L218.28,208.78 L218.28,219 L218.966,219 Z M229.862,219.168 C231.234,219.168 232.088,218.608 232.816,217.824 L232.34,217.404 C231.752,218.034 230.996,218.524 229.89,218.524 C228.49,218.524 227.216,217.488 227.09,215.71 L233.012,215.71 C233.026,215.598 233.026,215.556 233.026,215.43 C233.026,213.316 231.752,211.692 229.75,211.692 C227.818,211.692 226.362,213.344 226.362,215.416 L226.362,215.444 C226.362,217.67 227.986,219.168 229.862,219.168 Z M232.284,215.094 L227.09,215.094 C227.216,213.512 228.308,212.322 229.722,212.322 C231.36,212.322 232.186,213.652 232.284,215.094 Z M235.704,219 L235.704,216.074 C235.704,213.75 237.146,212.504 238.798,212.504 L238.868,212.504 L238.868,211.748 C237.454,211.692 236.264,212.616 235.704,213.89 L235.704,211.86 L235.018,211.86 L235.018,219 L235.704,219 Z M243.268,219.168 C244.64,219.168 245.494,218.608 246.222,217.824 L245.746,217.404 C245.158,218.034 244.402,218.524 243.296,218.524 C241.896,218.524 240.622,217.488 240.496,215.71 L246.418,215.71 C246.432,215.598 246.432,215.556 246.432,215.43 C246.432,213.316 245.158,211.692 243.156,211.692 C241.224,211.692 239.768,213.344 239.768,215.416 L239.768,215.444 C239.768,217.67 241.392,219.168 243.268,219.168 Z M245.69,215.094 L240.496,215.094 C240.622,213.512 241.714,212.322 243.128,212.322 C244.766,212.322 245.592,213.652 245.69,215.094 Z M247.892,220.498 C248.732,220.176 249.054,219.714 249.054,218.846 L249.054,217.81 L248.13,217.81 L248.13,219 L248.508,219 C248.55,219.532 248.326,219.84 247.724,220.148 L247.892,220.498 Z M256.79,219 L256.79,212.49 L259.282,212.49 L259.282,211.86 L256.79,211.86 L256.79,211.174 C256.79,209.956 257.252,209.368 258.232,209.368 C258.596,209.368 258.89,209.424 259.296,209.55 L259.296,208.906 C258.974,208.794 258.666,208.738 258.232,208.738 C257.602,208.738 257.098,208.934 256.734,209.298 C256.328,209.704 256.104,210.348 256.104,211.16 L256.104,211.86 L255.068,211.86 L255.068,212.49 L256.104,212.49 L256.104,219 L256.79,219 Z M263.766,219.168 C265.894,219.168 267.448,217.432 267.448,215.43 L267.448,215.402 C267.448,213.4 265.908,211.692 263.794,211.692 C261.666,211.692 260.112,213.428 260.112,215.43 L260.112,215.458 C260.112,217.46 261.652,219.168 263.766,219.168 Z M263.794,218.524 C262.142,218.524 260.854,217.152 260.854,215.43 L260.854,215.402 C260.854,213.722 262.072,212.336 263.766,212.336 C265.418,212.336 266.706,213.708 266.706,215.43 L266.706,215.458 C266.706,217.138 265.488,218.524 263.794,218.524 Z M270.238,219 L270.238,216.074 C270.238,213.75 271.68,212.504 273.332,212.504 L273.402,212.504 L273.402,211.748 C271.988,211.692 270.798,212.616 270.238,213.89 L270.238,211.86 L269.552,211.86 L269.552,219 L270.238,219 Z M281.712,219.126 C282.16,219.126 282.51,219.042 282.874,218.874 L282.874,218.23 C282.468,218.412 282.174,218.482 281.824,218.482 C280.998,218.482 280.396,218.118 280.396,217.096 L280.396,212.49 L282.902,212.49 L282.902,211.86 L280.396,211.86 L280.396,209.578 L279.71,209.578 L279.71,211.86 L278.674,211.86 L278.674,212.49 L279.71,212.49 L279.71,217.166 C279.71,218.524 280.606,219.126 281.712,219.126 Z M285.608,219 L285.608,214.87 C285.608,213.386 286.686,212.322 288.086,212.322 C289.528,212.322 290.354,213.288 290.354,214.758 L290.354,219 L291.04,219 L291.04,214.632 C291.04,212.924 289.99,211.692 288.184,211.692 C286.882,211.692 286.084,212.35 285.608,213.19 L285.608,208.78 L284.922,208.78 L284.922,219 L285.608,219 Z M296.504,219.168 C297.876,219.168 298.73,218.608 299.458,217.824 L298.982,217.404 C298.394,218.034 297.638,218.524 296.532,218.524 C295.132,218.524 293.858,217.488 293.732,215.71 L299.654,215.71 C299.668,215.598 299.668,215.556 299.668,215.43 C299.668,213.316 298.394,211.692 296.392,211.692 C294.46,211.692 293.004,213.344 293.004,215.416 L293.004,215.444 C293.004,217.67 294.628,219.168 296.504,219.168 Z M298.926,215.094 L293.732,215.094 C293.858,213.512 294.95,212.322 296.364,212.322 C298.002,212.322 298.828,213.652 298.926,215.094 Z M308.16,219.14 C309.532,219.14 310.624,218.328 310.624,217.054 L310.624,217.026 C310.624,215.766 309.42,215.346 308.272,215.024 C307.25,214.73 306.284,214.436 306.284,213.638 L306.284,213.61 C306.284,212.896 306.928,212.364 307.908,212.364 C308.664,212.364 309.448,212.644 310.106,213.078 L310.47,212.504 C309.756,212.028 308.79,211.72 307.936,211.72 C306.55,211.72 305.584,212.546 305.584,213.694 L305.584,213.722 C305.584,214.996 306.872,215.346 308.034,215.682 C309.028,215.962 309.924,216.27 309.924,217.11 L309.924,217.138 C309.924,217.964 309.168,218.496 308.202,218.496 C307.292,218.496 306.424,218.16 305.64,217.558 L305.234,218.104 C305.99,218.72 307.124,219.14 308.16,219.14 Z M313.484,219 L313.484,217.264 L315.22,215.514 L318.048,219 L318.916,219 L315.696,215.024 L318.818,211.86 L317.908,211.86 L313.484,216.438 L313.484,208.78 L312.798,208.78 L312.798,219 L313.484,219 Z M321.286,221.282 C322.308,221.282 323.036,220.75 323.666,219.252 L326.76,211.86 L326.004,211.86 L323.428,218.244 L320.46,211.86 L319.662,211.86 L323.092,218.958 C322.56,220.204 322.07,220.638 321.328,220.638 C320.796,220.638 320.488,220.554 320.11,220.372 L319.872,220.974 C320.348,221.184 320.74,221.282 321.286,221.282 Z M335.42,219.056 L337.562,212.938 L339.69,219.056 L340.278,219.056 L342.896,211.86 L342.154,211.86 L339.998,218.132 L337.842,211.832 L337.296,211.832 L335.14,218.132 L332.984,211.86 L332.214,211.86 L334.832,219.056 L335.42,219.056 Z M346.764,219.168 C348.122,219.168 349.004,218.496 349.494,217.81 L349.494,219 L350.166,219 L350.166,214.548 C350.166,213.666 349.914,213.008 349.438,212.532 C348.92,212.014 348.15,211.748 347.184,211.748 C346.204,211.748 345.434,212 344.65,212.364 L344.902,212.966 C345.56,212.63 346.274,212.392 347.142,212.392 C348.612,212.392 349.494,213.134 349.494,214.576 L349.494,214.884 C348.808,214.702 348.122,214.576 347.128,214.576 C345.28,214.576 344.006,215.416 344.006,216.9 L344.006,216.928 C344.006,218.412 345.434,219.168 346.764,219.168 Z M346.806,218.524 C345.714,218.524 344.734,217.922 344.734,216.886 L344.734,216.858 C344.734,215.864 345.574,215.192 347.086,215.192 C348.108,215.192 348.906,215.36 349.508,215.514 L349.508,216.326 C349.508,217.628 348.262,218.524 346.806,218.524 Z M354.93,219.14 C356.302,219.14 357.394,218.328 357.394,217.054 L357.394,217.026 C357.394,215.766 356.19,215.346 355.042,215.024 C354.02,214.73 353.054,214.436 353.054,213.638 L353.054,213.61 C353.054,212.896 353.698,212.364 354.678,212.364 C355.434,212.364 356.218,212.644 356.876,213.078 L357.24,212.504 C356.526,212.028 355.56,211.72 354.706,211.72 C353.32,211.72 352.354,212.546 352.354,213.694 L352.354,213.722 C352.354,214.996 353.642,215.346 354.804,215.682 C355.798,215.962 356.694,216.27 356.694,217.11 L356.694,217.138 C356.694,217.964 355.938,218.496 354.972,218.496 C354.062,218.496 353.194,218.16 352.41,217.558 L352.004,218.104 C352.76,218.72 353.894,219.14 354.93,219.14 Z M365.928,219.168 C367.286,219.168 368.168,218.496 368.658,217.81 L368.658,219 L369.33,219 L369.33,214.548 C369.33,213.666 369.078,213.008 368.602,212.532 C368.084,212.014 367.314,211.748 366.348,211.748 C365.368,211.748 364.598,212 363.814,212.364 L364.066,212.966 C364.724,212.63 365.438,212.392 366.306,212.392 C367.776,212.392 368.658,213.134 368.658,214.576 L368.658,214.884 C367.972,214.702 367.286,214.576 366.292,214.576 C364.444,214.576 363.17,215.416 363.17,216.9 L363.17,216.928 C363.17,218.412 364.598,219.168 365.928,219.168 Z M365.97,218.524 C364.878,218.524 363.898,217.922 363.898,216.886 L363.898,216.858 C363.898,215.864 364.738,215.192 366.25,215.192 C367.272,215.192 368.07,215.36 368.672,215.514 L368.672,216.326 C368.672,217.628 367.426,218.524 365.97,218.524 Z M378.984,219.168 C380.398,219.168 381.308,218.342 381.924,217.404 L381.924,219 L382.61,219 L382.61,208.78 L381.924,208.78 L381.924,213.4 C381.336,212.504 380.412,211.692 378.984,211.692 C377.262,211.692 375.512,213.106 375.512,215.43 L375.512,215.458 C375.512,217.782 377.262,219.168 378.984,219.168 Z M379.054,218.51 C377.556,218.51 376.254,217.306 376.254,215.43 L376.254,215.402 C376.254,213.484 377.5,212.35 379.054,212.35 C380.538,212.35 381.966,213.582 381.966,215.416 L381.966,215.444 C381.966,217.264 380.538,218.51 379.054,218.51 Z M388.214,219.168 C389.586,219.168 390.44,218.608 391.168,217.824 L390.692,217.404 C390.104,218.034 389.348,218.524 388.242,218.524 C386.842,218.524 385.568,217.488 385.442,215.71 L391.364,215.71 C391.378,215.598 391.378,215.556 391.378,215.43 C391.378,213.316 390.104,211.692 388.102,211.692 C386.17,211.692 384.714,213.344 384.714,215.416 L384.714,215.444 C384.714,217.67 386.338,219.168 388.214,219.168 Z M390.636,215.094 L385.442,215.094 C385.568,213.512 386.66,212.322 388.074,212.322 C389.712,212.322 390.538,213.652 390.636,215.094 Z M395.54,219.168 C396.898,219.168 397.78,218.496 398.27,217.81 L398.27,219 L398.942,219 L398.942,214.548 C398.942,213.666 398.69,213.008 398.214,212.532 C397.696,212.014 396.926,211.748 395.96,211.748 C394.98,211.748 394.21,212 393.426,212.364 L393.678,212.966 C394.336,212.63 395.05,212.392 395.918,212.392 C397.388,212.392 398.27,213.134 398.27,214.576 L398.27,214.884 C397.584,214.702 396.898,214.576 395.904,214.576 C394.056,214.576 392.782,215.416 392.782,216.9 L392.782,216.928 C392.782,218.412 394.21,219.168 395.54,219.168 Z M395.582,218.524 C394.49,218.524 393.51,217.922 393.51,216.886 L393.51,216.858 C393.51,215.864 394.35,215.192 395.862,215.192 C396.884,215.192 397.682,215.36 398.284,215.514 L398.284,216.326 C398.284,217.628 397.038,218.524 395.582,218.524 Z M404.406,219.168 C405.82,219.168 406.73,218.342 407.346,217.404 L407.346,219 L408.032,219 L408.032,208.78 L407.346,208.78 L407.346,213.4 C406.758,212.504 405.834,211.692 404.406,211.692 C402.684,211.692 400.934,213.106 400.934,215.43 L400.934,215.458 C400.934,217.782 402.684,219.168 404.406,219.168 Z M404.476,218.51 C402.978,218.51 401.676,217.306 401.676,215.43 L401.676,215.402 C401.676,213.484 402.922,212.35 404.476,212.35 C405.96,212.35 407.388,213.582 407.388,215.416 L407.388,215.444 C407.388,217.264 405.96,218.51 404.476,218.51 Z M418.442,219.168 C420.164,219.168 421.914,217.754 421.914,215.43 L421.914,215.402 C421.914,213.078 420.164,211.692 418.442,211.692 C417.028,211.692 416.118,212.518 415.502,213.456 L415.502,208.78 L414.816,208.78 L414.816,219 L415.502,219 L415.502,217.46 C416.09,218.356 417.014,219.168 418.442,219.168 Z M418.372,218.51 C416.888,218.51 415.46,217.278 415.46,215.444 L415.46,215.416 C415.46,213.596 416.888,212.35 418.372,212.35 C419.87,212.35 421.172,213.554 421.172,215.43 L421.172,215.458 C421.172,217.376 419.926,218.51 418.372,218.51 Z M424.83,219 L424.83,208.78 L424.144,208.78 L424.144,219 L424.83,219 Z M429.692,219.168 C431.05,219.168 431.932,218.496 432.422,217.81 L432.422,219 L433.094,219 L433.094,214.548 C433.094,213.666 432.842,213.008 432.366,212.532 C431.848,212.014 431.078,211.748 430.112,211.748 C429.132,211.748 428.362,212 427.578,212.364 L427.83,212.966 C428.488,212.63 429.202,212.392 430.07,212.392 C431.54,212.392 432.422,213.134 432.422,214.576 L432.422,214.884 C431.736,214.702 431.05,214.576 430.056,214.576 C428.208,214.576 426.934,215.416 426.934,216.9 L426.934,216.928 C426.934,218.412 428.362,219.168 429.692,219.168 Z M429.734,218.524 C428.642,218.524 427.662,217.922 427.662,216.886 L427.662,216.858 C427.662,215.864 428.502,215.192 430.014,215.192 C431.036,215.192 431.834,215.36 432.436,215.514 L432.436,216.326 C432.436,217.628 431.19,218.524 429.734,218.524 Z M438.698,219.168 C440.014,219.168 440.882,218.58 441.61,217.754 L441.134,217.334 C440.532,218.006 439.748,218.524 438.74,218.524 C437.102,218.524 435.8,217.152 435.8,215.43 L435.8,215.402 C435.8,213.694 437.06,212.336 438.684,212.336 C439.748,212.336 440.448,212.882 441.064,213.512 L441.554,213.008 C440.882,212.308 440.042,211.692 438.698,211.692 C436.654,211.692 435.058,213.428 435.058,215.43 L435.058,215.458 C435.058,217.46 436.64,219.168 438.698,219.168 Z M444.218,219 L444.218,217.264 L445.954,215.514 L448.782,219 L449.65,219 L446.43,215.024 L449.552,211.86 L448.642,211.86 L444.218,216.438 L444.218,208.78 L443.532,208.78 L443.532,219 L444.218,219 Z M450.97,220.498 C451.81,220.176 452.132,219.714 452.132,218.846 L452.132,217.81 L451.208,217.81 L451.208,219 L451.586,219 C451.628,219.532 451.404,219.84 450.802,220.148 L450.97,220.498 Z M460.932,219.168 C462.29,219.168 463.172,218.496 463.662,217.81 L463.662,219 L464.334,219 L464.334,214.548 C464.334,213.666 464.082,213.008 463.606,212.532 C463.088,212.014 462.318,211.748 461.352,211.748 C460.372,211.748 459.602,212 458.818,212.364 L459.07,212.966 C459.728,212.63 460.442,212.392 461.31,212.392 C462.78,212.392 463.662,213.134 463.662,214.576 L463.662,214.884 C462.976,214.702 462.29,214.576 461.296,214.576 C459.448,214.576 458.174,215.416 458.174,216.9 L458.174,216.928 C458.174,218.412 459.602,219.168 460.932,219.168 Z M460.974,218.524 C459.882,218.524 458.902,217.922 458.902,216.886 L458.902,216.858 C458.902,215.864 459.742,215.192 461.254,215.192 C462.276,215.192 463.074,215.36 463.676,215.514 L463.676,216.326 C463.676,217.628 462.43,218.524 460.974,218.524 Z M467.474,219 L467.474,214.87 C467.474,213.386 468.552,212.322 469.952,212.322 C471.394,212.322 472.22,213.288 472.22,214.758 L472.22,219 L472.906,219 L472.906,214.632 C472.906,212.924 471.856,211.692 470.05,211.692 C468.748,211.692 467.95,212.35 467.474,213.19 L467.474,211.86 L466.788,211.86 L466.788,219 L467.474,219 Z M478.37,219.168 C479.784,219.168 480.694,218.342 481.31,217.404 L481.31,219 L481.996,219 L481.996,208.78 L481.31,208.78 L481.31,213.4 C480.722,212.504 479.798,211.692 478.37,211.692 C476.648,211.692 474.898,213.106 474.898,215.43 L474.898,215.458 C474.898,217.782 476.648,219.168 478.37,219.168 Z M478.44,218.51 C476.942,218.51 475.64,217.306 475.64,215.43 L475.64,215.402 C475.64,213.484 476.886,212.35 478.44,212.35 C479.924,212.35 481.352,213.582 481.352,215.416 L481.352,215.444 C481.352,217.264 479.924,218.51 478.44,218.51 Z M168.682,244.126 C169.13,244.126 169.48,244.042 169.844,243.874 L169.844,243.23 C169.438,243.412 169.144,243.482 168.794,243.482 C167.968,243.482 167.366,243.118 167.366,242.096 L167.366,237.49 L169.872,237.49 L169.872,236.86 L167.366,236.86 L167.366,234.578 L166.68,234.578 L166.68,236.86 L165.644,236.86 L165.644,237.49 L166.68,237.49 L166.68,242.166 C166.68,243.524 167.576,244.126 168.682,244.126 Z M172.578,244 L172.578,239.87 C172.578,238.386 173.656,237.322 175.056,237.322 C176.498,237.322 177.324,238.288 177.324,239.758 L177.324,244 L178.01,244 L178.01,239.632 C178.01,237.924 176.96,236.692 175.154,236.692 C173.852,236.692 173.054,237.35 172.578,238.19 L172.578,233.78 L171.892,233.78 L171.892,244 L172.578,244 Z M183.474,244.168 C184.846,244.168 185.7,243.608 186.428,242.824 L185.952,242.404 C185.364,243.034 184.608,243.524 183.502,243.524 C182.102,243.524 180.828,242.488 180.702,240.71 L186.624,240.71 C186.638,240.598 186.638,240.556 186.638,240.43 C186.638,238.316 185.364,236.692 183.362,236.692 C181.43,236.692 179.974,238.344 179.974,240.416 L179.974,240.444 C179.974,242.67 181.598,244.168 183.474,244.168 Z M185.896,240.094 L180.702,240.094 C180.828,238.512 181.92,237.322 183.334,237.322 C184.972,237.322 185.798,238.652 185.896,240.094 Z M195.13,244.14 C196.502,244.14 197.594,243.328 197.594,242.054 L197.594,242.026 C197.594,240.766 196.39,240.346 195.242,240.024 C194.22,239.73 193.254,239.436 193.254,238.638 L193.254,238.61 C193.254,237.896 193.898,237.364 194.878,237.364 C195.634,237.364 196.418,237.644 197.076,238.078 L197.44,237.504 C196.726,237.028 195.76,236.72 194.906,236.72 C193.52,236.72 192.554,237.546 192.554,238.694 L192.554,238.722 C192.554,239.996 193.842,240.346 195.004,240.682 C195.998,240.962 196.894,241.27 196.894,242.11 L196.894,242.138 C196.894,242.964 196.138,243.496 195.172,243.496 C194.262,243.496 193.394,243.16 192.61,242.558 L192.204,243.104 C192.96,243.72 194.094,244.14 195.13,244.14 Z M202.008,244.126 C202.456,244.126 202.806,244.042 203.17,243.874 L203.17,243.23 C202.764,243.412 202.47,243.482 202.12,243.482 C201.294,243.482 200.692,243.118 200.692,242.096 L200.692,237.49 L203.198,237.49 L203.198,236.86 L200.692,236.86 L200.692,234.578 L200.006,234.578 L200.006,236.86 L198.97,236.86 L198.97,237.49 L200.006,237.49 L200.006,242.166 C200.006,243.524 200.902,244.126 202.008,244.126 Z M207.388,244.168 C208.746,244.168 209.628,243.496 210.118,242.81 L210.118,244 L210.79,244 L210.79,239.548 C210.79,238.666 210.538,238.008 210.062,237.532 C209.544,237.014 208.774,236.748 207.808,236.748 C206.828,236.748 206.058,237 205.274,237.364 L205.526,237.966 C206.184,237.63 206.898,237.392 207.766,237.392 C209.236,237.392 210.118,238.134 210.118,239.576 L210.118,239.884 C209.432,239.702 208.746,239.576 207.752,239.576 C205.904,239.576 204.63,240.416 204.63,241.9 L204.63,241.928 C204.63,243.412 206.058,244.168 207.388,244.168 Z M207.43,243.524 C206.338,243.524 205.358,242.922 205.358,241.886 L205.358,241.858 C205.358,240.864 206.198,240.192 207.71,240.192 C208.732,240.192 209.53,240.36 210.132,240.514 L210.132,241.326 C210.132,242.628 208.886,243.524 207.43,243.524 Z M213.93,244 L213.93,241.074 C213.93,238.75 215.372,237.504 217.024,237.504 L217.094,237.504 L217.094,236.748 C215.68,236.692 214.49,237.616 213.93,238.89 L213.93,236.86 L213.244,236.86 L213.244,244 L213.93,244 Z M221.144,244.14 C222.516,244.14 223.608,243.328 223.608,242.054 L223.608,242.026 C223.608,240.766 222.404,240.346 221.256,240.024 C220.234,239.73 219.268,239.436 219.268,238.638 L219.268,238.61 C219.268,237.896 219.912,237.364 220.892,237.364 C221.648,237.364 222.432,237.644 223.09,238.078 L223.454,237.504 C222.74,237.028 221.774,236.72 220.92,236.72 C219.534,236.72 218.568,237.546 218.568,238.694 L218.568,238.722 C218.568,239.996 219.856,240.346 221.018,240.682 C222.012,240.962 222.908,241.27 222.908,242.11 L222.908,242.138 C222.908,242.964 222.152,243.496 221.186,243.496 C220.276,243.496 219.408,243.16 218.624,242.558 L218.218,243.104 C218.974,243.72 220.108,244.14 221.144,244.14 Z M230.658,244 L230.658,239.87 C230.658,238.386 231.736,237.322 233.136,237.322 C234.578,237.322 235.404,238.288 235.404,239.758 L235.404,244 L236.09,244 L236.09,239.632 C236.09,237.924 235.04,236.692 233.234,236.692 C231.932,236.692 231.134,237.35 230.658,238.19 L230.658,233.78 L229.972,233.78 L229.972,244 L230.658,244 Z M240.714,244.168 C242.072,244.168 242.954,243.496 243.444,242.81 L243.444,244 L244.116,244 L244.116,239.548 C244.116,238.666 243.864,238.008 243.388,237.532 C242.87,237.014 242.1,236.748 241.134,236.748 C240.154,236.748 239.384,237 238.6,237.364 L238.852,237.966 C239.51,237.63 240.224,237.392 241.092,237.392 C242.562,237.392 243.444,238.134 243.444,239.576 L243.444,239.884 C242.758,239.702 242.072,239.576 241.078,239.576 C239.23,239.576 237.956,240.416 237.956,241.9 L237.956,241.928 C237.956,243.412 239.384,244.168 240.714,244.168 Z M240.756,243.524 C239.664,243.524 238.684,242.922 238.684,241.886 L238.684,241.858 C238.684,240.864 239.524,240.192 241.036,240.192 C242.058,240.192 242.856,240.36 243.458,240.514 L243.458,241.326 C243.458,242.628 242.212,243.524 240.756,243.524 Z M249.58,244.168 C250.994,244.168 251.904,243.342 252.52,242.404 L252.52,244 L253.206,244 L253.206,233.78 L252.52,233.78 L252.52,238.4 C251.932,237.504 251.008,236.692 249.58,236.692 C247.858,236.692 246.108,238.106 246.108,240.43 L246.108,240.458 C246.108,242.782 247.858,244.168 249.58,244.168 Z M249.65,243.51 C248.152,243.51 246.85,242.306 246.85,240.43 L246.85,240.402 C246.85,238.484 248.096,237.35 249.65,237.35 C251.134,237.35 252.562,238.582 252.562,240.416 L252.562,240.444 C252.562,242.264 251.134,243.51 249.65,243.51 Z M263.14,244.168 C264.456,244.168 265.324,243.58 266.052,242.754 L265.576,242.334 C264.974,243.006 264.19,243.524 263.182,243.524 C261.544,243.524 260.242,242.152 260.242,240.43 L260.242,240.402 C260.242,238.694 261.502,237.336 263.126,237.336 C264.19,237.336 264.89,237.882 265.506,238.512 L265.996,238.008 C265.324,237.308 264.484,236.692 263.14,236.692 C261.096,236.692 259.5,238.428 259.5,240.43 L259.5,240.458 C259.5,242.46 261.082,244.168 263.14,244.168 Z M270.774,244.168 C272.146,244.168 273,243.608 273.728,242.824 L273.252,242.404 C272.664,243.034 271.908,243.524 270.802,243.524 C269.402,243.524 268.128,242.488 268.002,240.71 L273.924,240.71 C273.938,240.598 273.938,240.556 273.938,240.43 C273.938,238.316 272.664,236.692 270.662,236.692 C268.73,236.692 267.274,238.344 267.274,240.416 L267.274,240.444 C267.274,242.67 268.898,244.168 270.774,244.168 Z M273.196,240.094 L268.002,240.094 C268.128,238.512 269.22,237.322 270.634,237.322 C272.272,237.322 273.098,238.652 273.196,240.094 Z M278.1,244.168 C279.458,244.168 280.34,243.496 280.83,242.81 L280.83,244 L281.502,244 L281.502,239.548 C281.502,238.666 281.25,238.008 280.774,237.532 C280.256,237.014 279.486,236.748 278.52,236.748 C277.54,236.748 276.77,237 275.986,237.364 L276.238,237.966 C276.896,237.63 277.61,237.392 278.478,237.392 C279.948,237.392 280.83,238.134 280.83,239.576 L280.83,239.884 C280.144,239.702 279.458,239.576 278.464,239.576 C276.616,239.576 275.342,240.416 275.342,241.9 L275.342,241.928 C275.342,243.412 276.77,244.168 278.1,244.168 Z M278.142,243.524 C277.05,243.524 276.07,242.922 276.07,241.886 L276.07,241.858 C276.07,240.864 276.91,240.192 278.422,240.192 C279.444,240.192 280.242,240.36 280.844,240.514 L280.844,241.326 C280.844,242.628 279.598,243.524 278.142,243.524 Z M286.266,244.14 C287.638,244.14 288.73,243.328 288.73,242.054 L288.73,242.026 C288.73,240.766 287.526,240.346 286.378,240.024 C285.356,239.73 284.39,239.436 284.39,238.638 L284.39,238.61 C284.39,237.896 285.034,237.364 286.014,237.364 C286.77,237.364 287.554,237.644 288.212,238.078 L288.576,237.504 C287.862,237.028 286.896,236.72 286.042,236.72 C284.656,236.72 283.69,237.546 283.69,238.694 L283.69,238.722 C283.69,239.996 284.978,240.346 286.14,240.682 C287.134,240.962 288.03,241.27 288.03,242.11 L288.03,242.138 C288.03,242.964 287.274,243.496 286.308,243.496 C285.398,243.496 284.53,243.16 283.746,242.558 L283.34,243.104 C284.096,243.72 285.23,244.14 286.266,244.14 Z M293.914,244.168 C295.286,244.168 296.14,243.608 296.868,242.824 L296.392,242.404 C295.804,243.034 295.048,243.524 293.942,243.524 C292.542,243.524 291.268,242.488 291.142,240.71 L297.064,240.71 C297.078,240.598 297.078,240.556 297.078,240.43 C297.078,238.316 295.804,236.692 293.802,236.692 C291.87,236.692 290.414,238.344 290.414,240.416 L290.414,240.444 C290.414,242.67 292.038,244.168 293.914,244.168 Z M296.336,240.094 L291.142,240.094 C291.268,238.512 292.36,237.322 293.774,237.322 C295.412,237.322 296.238,238.652 296.336,240.094 Z M302.08,244.168 C303.494,244.168 304.404,243.342 305.02,242.404 L305.02,244 L305.706,244 L305.706,233.78 L305.02,233.78 L305.02,238.4 C304.432,237.504 303.508,236.692 302.08,236.692 C300.358,236.692 298.608,238.106 298.608,240.43 L298.608,240.458 C298.608,242.782 300.358,244.168 302.08,244.168 Z M302.15,243.51 C300.652,243.51 299.35,242.306 299.35,240.43 L299.35,240.402 C299.35,238.484 300.596,237.35 302.15,237.35 C303.634,237.35 305.062,238.582 305.062,240.416 L305.062,240.444 C305.062,242.264 303.634,243.51 302.15,243.51 Z M314.87,244.126 C315.318,244.126 315.668,244.042 316.032,243.874 L316.032,243.23 C315.626,243.412 315.332,243.482 314.982,243.482 C314.156,243.482 313.554,243.118 313.554,242.096 L313.554,237.49 L316.06,237.49 L316.06,236.86 L313.554,236.86 L313.554,234.578 L312.868,234.578 L312.868,236.86 L311.832,236.86 L311.832,237.49 L312.868,237.49 L312.868,242.166 C312.868,243.524 313.764,244.126 314.87,244.126 Z M321.034,244.168 C323.162,244.168 324.716,242.432 324.716,240.43 L324.716,240.402 C324.716,238.4 323.176,236.692 321.062,236.692 C318.934,236.692 317.38,238.428 317.38,240.43 L317.38,240.458 C317.38,242.46 318.92,244.168 321.034,244.168 Z M321.062,243.524 C319.41,243.524 318.122,242.152 318.122,240.43 L318.122,240.402 C318.122,238.722 319.34,237.336 321.034,237.336 C322.686,237.336 323.974,238.708 323.974,240.43 L323.974,240.458 C323.974,242.138 322.756,243.524 321.062,243.524 Z M333.39,244.126 C333.838,244.126 334.188,244.042 334.552,243.874 L334.552,243.23 C334.146,243.412 333.852,243.482 333.502,243.482 C332.676,243.482 332.074,243.118 332.074,242.096 L332.074,237.49 L334.58,237.49 L334.58,236.86 L332.074,236.86 L332.074,234.578 L331.388,234.578 L331.388,236.86 L330.352,236.86 L330.352,237.49 L331.388,237.49 L331.388,242.166 C331.388,243.524 332.284,244.126 333.39,244.126 Z M339.19,244.056 L341.332,237.938 L343.46,244.056 L344.048,244.056 L346.666,236.86 L345.924,236.86 L343.768,243.132 L341.612,236.832 L341.066,236.832 L338.91,243.132 L336.754,236.86 L335.984,236.86 L338.602,244.056 L339.19,244.056 Z M349.512,234.998 L349.512,234.06 L348.658,234.06 L348.658,234.998 L349.512,234.998 Z M349.428,244 L349.428,236.86 L348.742,236.86 L348.742,244 L349.428,244 Z M352.806,244 L352.806,239.87 C352.806,238.386 353.884,237.322 355.284,237.322 C356.726,237.322 357.552,238.288 357.552,239.758 L357.552,244 L358.238,244 L358.238,239.632 C358.238,237.924 357.188,236.692 355.382,236.692 C354.08,236.692 353.282,237.35 352.806,238.19 L352.806,236.86 L352.12,236.86 L352.12,244 L352.806,244 Z M361.378,244 L361.378,242.264 L363.114,240.514 L365.942,244 L366.81,244 L363.59,240.024 L366.712,236.86 L365.802,236.86 L361.378,241.438 L361.378,233.78 L360.692,233.78 L360.692,244 L361.378,244 Z M369.306,244 L369.306,233.78 L368.62,233.78 L368.62,244 L369.306,244 Z M375.008,244.168 C376.38,244.168 377.234,243.608 377.962,242.824 L377.486,242.404 C376.898,243.034 376.142,243.524 375.036,243.524 C373.636,243.524 372.362,242.488 372.236,240.71 L378.158,240.71 C378.172,240.598 378.172,240.556 378.172,240.43 C378.172,238.316 376.898,236.692 374.896,236.692 C372.964,236.692 371.508,238.344 371.508,240.416 L371.508,240.444 C371.508,242.67 373.132,244.168 375.008,244.168 Z M377.43,240.094 L372.236,240.094 C372.362,238.512 373.454,237.322 374.868,237.322 C376.506,237.322 377.332,238.652 377.43,240.094 Z M380.794,244 L380.794,242.81 L379.87,242.81 L379.87,244 L380.794,244 Z" id="Apparentlywehadreachedagreatheightintheatmosphere,fortheskywasadeadblack,andthestarshadceasedtotwinkle." fill="#FFFFFF"></path>
                    </g>
                </g>
            </g>
        </g>
    </g>
</svg>