<?xml version="1.0" encoding="UTF-8"?>
<svg width="149px" height="278px" viewBox="0 0 149 278" version="1.1" xmlns="http://www.w3.org/2000/svg" xmlns:xlink="http://www.w3.org/1999/xlink">
    <title>Typeface</title>
    <g id="Page-1" stroke="none" stroke-width="1" fill="none" fill-rule="evenodd">
        <g id="Cajtel" transform="translate(-399.000000, -3430.000000)" fill-rule="nonzero">
            <g id="Group" transform="translate(298.000000, 3144.000000)">
                <g id="Typeface" transform="translate(102.000000, 286.000000)">
                    <path d="M57.24,97 L57.24,95.2 C54.54,95.08 52.47,93.16 51.03,89.44 L51.03,89.44 L29.07,32.83 L27.63,32.83 L6.48,87.37 C4.74,91.87 2.37,94.48 -0.63,95.2 L-0.63,95.2 L-0.63,97 C1.17,96.82 3.42,96.73 6.12,96.73 C9.6,96.73 13.05,96.82 16.47,97 L16.47,97 L16.47,95.2 C13.83,95.14 11.865,94.69 10.575,93.85 C9.285,93.01 8.64,91.66 8.64,89.8 C8.64,88.12 9.24,85.66 10.44,82.42 L10.44,82.42 L14.13,72.88 L35.91,72.88 L41.4,87.64 C42.12,89.44 42.48,90.85 42.48,91.87 C42.48,93.07 41.985,93.895 40.995,94.345 C40.005,94.795 38.37,95.08 36.09,95.2 L36.09,95.2 L36.09,97 C38.61,96.82 42.45,96.73 47.61,96.73 C51.63,96.73 54.84,96.82 57.24,97 L57.24,97 Z M35.19,71.08 L14.85,71.08 L25.11,44.17 L35.19,71.08 Z M93.2078571,97.63 C94.8878571,97.63 96.2828571,97.375 97.3928571,96.865 C98.5028571,96.355 99.8378571,95.5 101.397857,94.3 L101.397857,94.3 L100.407857,92.77 C99.6878571,93.37 99.0128571,93.835 98.3828571,94.165 C97.7528571,94.495 97.0778571,94.66 96.3578571,94.66 C95.3378571,94.66 94.6178571,94.33 94.1978571,93.67 C93.7778571,93.01 93.5678571,91.93 93.5678571,90.43 L93.5678571,90.43 L93.5678571,65.41 C93.5678571,62.23 93.3128571,59.665 92.8028571,57.715 C92.2928571,55.765 91.2878571,54.1 89.7878571,52.72 C87.3878571,50.5 83.8478571,49.39 79.1678571,49.39 C76.5278571,49.39 74.0978571,49.72 71.8778571,50.38 C69.6578571,51.04 67.8278571,51.88 66.3878571,52.9 C65.0078571,53.86 63.9728571,54.82 63.2828571,55.78 C62.5928571,56.74 62.2478571,57.94 62.2478571,59.38 C62.2478571,60.88 62.6678571,62.155 63.5078571,63.205 C64.3478571,64.255 65.6078571,64.78 67.2878571,64.78 C68.7878571,64.78 70.0178571,64.345 70.9778571,63.475 C71.9378571,62.605 72.4178571,61.42 72.4178571,59.92 C72.4178571,58.48 72.0128571,57.28 71.2028571,56.32 C70.3928571,55.36 69.3878571,54.73 68.1878571,54.43 C69.9278571,52.27 72.8978571,51.19 77.0978571,51.19 C79.7378571,51.19 81.7928571,51.835 83.2628571,53.125 C84.7328571,54.415 85.4678571,56.8 85.4678571,60.28 L85.4678571,60.28 L85.4678571,65.86 C85.4678571,67.48 84.6578571,68.77 83.0378571,69.73 C81.4178571,70.69 78.9278571,71.74 75.5678571,72.88 C72.2678571,74.02 69.6128571,75.1 67.6028571,76.12 C65.5928571,77.14 63.8528571,78.52 62.3828571,80.26 C60.9128571,82 60.1778571,84.22 60.1778571,86.92 C60.1778571,90.28 61.0928571,92.905 62.9228571,94.795 C64.7528571,96.685 67.5578571,97.63 71.3378571,97.63 C74.2778571,97.63 76.9178571,97.045 79.2578571,95.875 C81.5978571,94.705 83.6678571,92.62 85.4678571,89.62 C85.4678571,92.08 86.0378571,94.03 87.1778571,95.47 C88.3178571,96.91 90.3278571,97.63 93.2078571,97.63 Z M75.2978571,94.03 C73.1378571,94.03 71.3978571,93.34 70.0778571,91.96 C68.7578571,90.58 68.0978571,88.54 68.0978571,85.84 C68.0978571,83.5 68.6078571,81.58 69.6278571,80.08 C70.6478571,78.58 71.8628571,77.395 73.2728571,76.525 C74.6828571,75.655 76.5278571,74.74 78.8078571,73.78 C80.7878571,72.88 82.2578571,72.16 83.2178571,71.62 C84.1778571,71.08 84.9278571,70.39 85.4678571,69.55 L85.4678571,69.55 L85.4678571,87.19 C82.6478571,91.75 79.2578571,94.03 75.2978571,94.03 Z" id="Aa" fill="#FAFAFA"></path>
                    <path d="M4.354,153 L4.354,144.39 L7.406,144.39 L7.406,143.662 L0.49,143.662 L0.49,144.39 L3.542,144.39 L3.542,153 L4.354,153 Z M14.628,153 L14.628,149.01 L18.338,143.662 L17.372,143.662 L14.222,148.254 L11.072,143.662 L10.106,143.662 L13.816,149.01 L13.816,153 L14.628,153 Z M22.508,153 L22.508,149.122 L25.21,149.122 C26.988,149.122 28.024,147.862 28.024,146.392 C28.024,144.922 27.002,143.662 25.21,143.662 L21.71,143.662 L21.71,153 L22.508,153 Z M25.126,148.394 L22.508,148.394 L22.508,144.39 L25.126,144.39 C26.372,144.39 27.184,145.216 27.184,146.392 C27.184,147.554 26.372,148.394 25.126,148.394 Z M37.626,153 L37.626,152.272 L32.502,152.272 L32.502,148.576 L37.528,148.576 L37.528,147.848 L32.502,147.848 L32.502,144.39 L37.626,144.39 L37.626,143.662 L31.704,143.662 L31.704,153 L37.626,153 Z M42.398,153 L42.398,148.576 L47.424,148.576 L47.424,147.848 L42.398,147.848 L42.398,144.39 L47.522,144.39 L47.522,143.662 L41.6,143.662 L41.6,153 L42.398,153 Z M50.698,153 L51.622,150.704 L56.564,150.704 L57.488,153 L58.412,153 L54.59,143.662 L53.596,143.662 L49.774,153 L50.698,153 Z M56.298,149.976 L51.888,149.976 L54.1,144.516 L56.298,149.976 Z M65.62,153.168 C67.104,153.168 68.196,152.524 69.036,151.502 L68.35,151.082 C67.762,151.894 66.74,152.44 65.62,152.44 C63.436,152.44 61.728,150.746 61.728,148.338 C61.728,145.902 63.436,144.236 65.62,144.236 C66.74,144.236 67.762,144.782 68.35,145.594 L69.022,145.16 C68.238,144.166 67.104,143.508 65.62,143.508 C62.974,143.508 60.888,145.468 60.888,148.338 C60.888,151.208 62.974,153.168 65.62,153.168 Z M78.554,153 L78.554,152.272 L73.43,152.272 L73.43,148.576 L78.456,148.576 L78.456,147.848 L73.43,147.848 L73.43,144.39 L78.554,144.39 L78.554,143.662 L72.632,143.662 L72.632,153 L78.554,153 Z" id="TYPEFACE" fill="#9A9A9A"></path>
                    <rect id="Rectangle" fill="#606060" x="0" y="182" width="1" height="92"></rect>
                    <path d="M14.25,192 L14.25,191.692 C13.8113333,191.682667 13.4916667,191.65 13.291,191.594 C13.0903333,191.538 12.9503333,191.423667 12.871,191.251 C12.7916667,191.078333 12.752,190.805333 12.752,190.432 L12.752,190.432 L12.752,187.996 L13.494,187.996 C14.5206667,187.996 15.3443333,187.837333 15.965,187.52 C16.5856667,187.202667 17.0266667,186.808333 17.288,186.337 C17.5493333,185.865667 17.68,185.373333 17.68,184.86 C17.68,184.02 17.3486667,183.350333 16.686,182.851 C16.0233333,182.351667 15.062,182.102 13.802,182.102 C13.5593333,182.102 13.3446667,182.106667 13.158,182.116 L13.158,182.116 L11.604,182.13 C10.6613333,182.13 9.952,182.116 9.476,182.088 L9.476,182.088 L9.476,182.368 C9.784,182.386667 10.0103333,182.424 10.155,182.48 C10.2996667,182.536 10.3976667,182.643333 10.449,182.802 C10.5003333,182.960667 10.526,183.217333 10.526,183.572 L10.526,183.572 L10.526,190.516 C10.526,190.870667 10.5003333,191.127333 10.449,191.286 C10.3976667,191.444667 10.2996667,191.552 10.155,191.608 C10.0103333,191.664 9.784,191.701333 9.476,191.72 L9.476,191.72 L9.476,192 L9.924,191.986 C10.6333333,191.967333 11.2213333,191.958 11.688,191.958 C12.248,191.958 13.102,191.972 14.25,192 L14.25,192 Z M13.354,187.716 L12.752,187.716 L12.752,183.572 C12.752,183.236 12.7753333,182.984 12.822,182.816 C12.8686667,182.648 12.9503333,182.531333 13.067,182.466 C13.1836667,182.400667 13.368,182.368 13.62,182.368 C14.2453333,182.368 14.691,182.582667 14.957,183.012 C15.223,183.441333 15.356,184.108667 15.356,185.014 C15.356,185.844667 15.2113333,186.502667 14.922,186.988 C14.6326667,187.473333 14.11,187.716 13.354,187.716 L13.354,187.716 Z M22.062,192 L22.062,191.706 C21.726,191.706 21.4926667,191.633667 21.362,191.489 C21.2313333,191.344333 21.166,191.080667 21.166,190.698 L21.166,190.698 L21.166,181.038 C20.6153333,181.168667 19.934,181.234 19.122,181.234 C18.842,181.234 18.5526667,181.22 18.254,181.192 L18.254,181.192 L18.254,181.486 C18.5806667,181.486 18.8116667,181.584 18.947,181.78 C19.0823333,181.976 19.15,182.288667 19.15,182.718 L19.15,182.718 L19.15,190.698 C19.15,191.080667 19.0823333,191.344333 18.947,191.489 C18.8116667,191.633667 18.5806667,191.706 18.254,191.706 L18.254,191.706 L18.254,192 C19.2246667,191.962667 19.8686667,191.944 20.186,191.944 C20.466,191.944 21.0913333,191.962667 22.062,192 L22.062,192 Z M27.97,192.098 C28.5766667,192.098 29.09,191.925333 29.51,191.58 L29.51,191.58 L29.37,191.342 C29.174,191.500667 29.006,191.58 28.866,191.58 C28.7446667,191.58 28.663,191.533333 28.621,191.44 C28.579,191.346667 28.558,191.188 28.558,190.964 L28.558,190.964 L28.558,187.156 C28.558,186.642667 28.523,186.236667 28.453,185.938 C28.383,185.639333 28.2453333,185.387333 28.04,185.182 C27.816,184.958 27.536,184.799333 27.2,184.706 C26.864,184.612667 26.4673333,184.566 26.01,184.566 C25.5713333,184.566 25.1676667,184.608 24.799,184.692 C24.4303333,184.776 24.12,184.892667 23.868,185.042 C23.6066667,185.200667 23.413,185.371 23.287,185.553 C23.161,185.735 23.098,185.956667 23.098,186.218 C23.098,186.526 23.1866667,186.782667 23.364,186.988 C23.5413333,187.193333 23.7933333,187.296 24.12,187.296 C24.428,187.296 24.6893333,187.202667 24.904,187.016 C25.1186667,186.829333 25.226,186.577333 25.226,186.26 C25.226,186.008 25.1536667,185.788667 25.009,185.602 C24.8643333,185.415333 24.6613333,185.275333 24.4,185.182 C24.6333333,184.958 24.974,184.846 25.422,184.846 C25.8046667,184.846 26.087,184.955667 26.269,185.175 C26.451,185.394333 26.542,185.7 26.542,186.092 L26.542,186.092 L26.542,187.184 C26.542,187.436 26.423,187.634333 26.185,187.779 C25.947,187.923667 25.5713333,188.084667 25.058,188.262 C24.5726667,188.43 24.1736667,188.588667 23.861,188.738 C23.5483333,188.887333 23.2823333,189.099667 23.063,189.375 C22.8436667,189.650333 22.734,189.998 22.734,190.418 C22.734,190.922 22.881,191.328 23.175,191.636 C23.469,191.944 23.9146667,192.098 24.512,192.098 C25.4173333,192.098 26.1033333,191.72 26.57,190.964 C26.5793333,191.309333 26.6866667,191.584667 26.892,191.79 C27.0973333,191.995333 27.4566667,192.098 27.97,192.098 Z M25.59,191.202 C25.3286667,191.202 25.1186667,191.111 24.96,190.929 C24.8013333,190.747 24.722,190.464667 24.722,190.082 C24.722,189.643333 24.8153333,189.307333 25.002,189.074 C25.1886667,188.840667 25.464,188.607333 25.828,188.374 C26.192,188.15 26.43,187.944667 26.542,187.758 L26.542,187.758 L26.542,190.628 C26.2713333,191.010667 25.954,191.202 25.59,191.202 Z M31.456,194.632 C31.9973333,194.632 32.4033333,194.515333 32.674,194.282 C32.898,194.104667 33.1033333,193.773333 33.29,193.288 L33.29,193.288 L35.796,186.246 C35.936,185.863333 36.083,185.581 36.237,185.399 C36.391,185.217 36.566,185.098 36.762,185.042 L36.762,185.042 L36.762,184.762 C36.51,184.79 36.1506667,184.804 35.684,184.804 C35.2173333,184.804 34.7646667,184.79 34.326,184.762 L34.326,184.762 L34.326,185.042 C35.0166667,185.107333 35.362,185.480667 35.362,186.162 C35.362,186.47 35.2873333,186.843333 35.138,187.282 L35.138,187.282 L34.172,189.97 L32.464,185.84 C32.3986667,185.681333 32.366,185.550667 32.366,185.448 C32.366,185.270667 32.4383333,185.161 32.583,185.119 C32.7276667,185.077 32.9493333,185.056 33.248,185.056 L33.248,185.056 L33.248,184.762 C32.5013333,184.818 31.8526667,184.846 31.302,184.846 C30.6393333,184.846 30,184.818 29.384,184.762 L29.384,184.762 L29.384,185.056 C29.5333333,185.056 29.678,185.107333 29.818,185.21 C29.958,185.312667 30.1026667,185.522667 30.252,185.84 L30.252,185.84 L33.22,192.588 L32.996,193.26 C32.7253333,193.997333 32.3006667,194.366 31.722,194.366 C31.5726667,194.366 31.4653333,194.361333 31.4,194.352 C31.624,194.268 31.7966667,194.144333 31.918,193.981 C32.0393333,193.817667 32.1,193.638 32.1,193.442 C32.1,193.162 32.0043333,192.945 31.813,192.791 C31.6216667,192.637 31.3673333,192.56 31.05,192.56 C30.714,192.56 30.4433333,192.646333 30.238,192.819 C30.0326667,192.991667 29.93,193.222667 29.93,193.512 C29.93,193.876 30.0863333,194.153667 30.399,194.345 C30.7116667,194.536333 31.064,194.632 31.456,194.632 Z M41.41,192 L41.41,191.706 C40.9713333,191.706 40.6423333,191.622 40.423,191.454 C40.2036667,191.286 40.094,190.987333 40.094,190.558 L40.094,190.558 L40.094,185.056 L41.592,185.056 L41.592,184.776 L40.094,184.776 L40.094,183.502 C40.094,182.960667 40.1126667,182.554667 40.15,182.284 C40.1873333,182.013333 40.2573333,181.808 40.36,181.668 C40.5093333,181.425333 40.7613333,181.304 41.116,181.304 C41.2466667,181.304 41.3563333,181.322667 41.445,181.36 C41.5336667,181.397333 41.592,181.444 41.62,181.5 C41.3493333,181.574667 41.144,181.705333 41.004,181.892 C40.864,182.078667 40.794,182.293333 40.794,182.536 C40.794,182.844 40.892,183.086667 41.088,183.264 C41.284,183.441333 41.5406667,183.53 41.858,183.53 C42.1473333,183.53 42.3853333,183.434333 42.572,183.243 C42.7586667,183.051667 42.852,182.825333 42.852,182.564 C42.852,182.34 42.8076667,182.137 42.719,181.955 C42.6303333,181.773 42.516,181.626 42.376,181.514 C41.956,181.206 41.4566667,181.052 40.878,181.052 C40.4953333,181.052 40.1313333,181.117333 39.786,181.248 C39.4406667,181.378667 39.1653333,181.546667 38.96,181.752 C38.6333333,182.069333 38.4046667,182.449667 38.274,182.893 C38.1433333,183.336333 38.078,183.964 38.078,184.776 L38.078,184.776 L37.126,184.776 L37.126,185.056 L38.078,185.056 L38.078,190.698 C38.078,191.080667 38.0126667,191.344333 37.882,191.489 C37.7513333,191.633667 37.518,191.706 37.182,191.706 L37.182,191.706 L37.182,192 C38.1153333,191.962667 38.722,191.944 39.002,191.944 C39.31,191.944 39.982,191.958 41.018,191.986 L41.018,191.986 L41.41,192 Z M47.416,192.098 C48.0226667,192.098 48.536,191.925333 48.956,191.58 L48.956,191.58 L48.816,191.342 C48.62,191.500667 48.452,191.58 48.312,191.58 C48.1906667,191.58 48.109,191.533333 48.067,191.44 C48.025,191.346667 48.004,191.188 48.004,190.964 L48.004,190.964 L48.004,187.156 C48.004,186.642667 47.969,186.236667 47.899,185.938 C47.829,185.639333 47.6913333,185.387333 47.486,185.182 C47.262,184.958 46.982,184.799333 46.646,184.706 C46.31,184.612667 45.9133333,184.566 45.456,184.566 C45.0173333,184.566 44.6136667,184.608 44.245,184.692 C43.8763333,184.776 43.566,184.892667 43.314,185.042 C43.0526667,185.200667 42.859,185.371 42.733,185.553 C42.607,185.735 42.544,185.956667 42.544,186.218 C42.544,186.526 42.6326667,186.782667 42.81,186.988 C42.9873333,187.193333 43.2393333,187.296 43.566,187.296 C43.874,187.296 44.1353333,187.202667 44.35,187.016 C44.5646667,186.829333 44.672,186.577333 44.672,186.26 C44.672,186.008 44.5996667,185.788667 44.455,185.602 C44.3103333,185.415333 44.1073333,185.275333 43.846,185.182 C44.0793333,184.958 44.42,184.846 44.868,184.846 C45.2506667,184.846 45.533,184.955667 45.715,185.175 C45.897,185.394333 45.988,185.7 45.988,186.092 L45.988,186.092 L45.988,187.184 C45.988,187.436 45.869,187.634333 45.631,187.779 C45.393,187.923667 45.0173333,188.084667 44.504,188.262 C44.0186667,188.43 43.6196667,188.588667 43.307,188.738 C42.9943333,188.887333 42.7283333,189.099667 42.509,189.375 C42.2896667,189.650333 42.18,189.998 42.18,190.418 C42.18,190.922 42.327,191.328 42.621,191.636 C42.915,191.944 43.3606667,192.098 43.958,192.098 C44.8633333,192.098 45.5493333,191.72 46.016,190.964 C46.0253333,191.309333 46.1326667,191.584667 46.338,191.79 C46.5433333,191.995333 46.9026667,192.098 47.416,192.098 Z M45.036,191.202 C44.7746667,191.202 44.5646667,191.111 44.406,190.929 C44.2473333,190.747 44.168,190.464667 44.168,190.082 C44.168,189.643333 44.2613333,189.307333 44.448,189.074 C44.6346667,188.840667 44.91,188.607333 45.274,188.374 C45.638,188.15 45.876,187.944667 45.988,187.758 L45.988,187.758 L45.988,190.628 C45.7173333,191.010667 45.4,191.202 45.036,191.202 Z M51.182,183.306 C51.574,183.306 51.8843333,183.210333 52.113,183.019 C52.3416667,182.827667 52.456,182.564 52.456,182.228 C52.456,181.892 52.3416667,181.628333 52.113,181.437 C51.8843333,181.245667 51.574,181.15 51.182,181.15 C50.79,181.15 50.4796667,181.245667 50.251,181.437 C50.0223333,181.628333 49.908,181.892 49.908,182.228 C49.908,182.564 50.0223333,182.827667 50.251,183.019 C50.4796667,183.210333 50.79,183.306 51.182,183.306 Z M53.17,192 L53.17,191.706 C52.8433333,191.706 52.6123333,191.633667 52.477,191.489 C52.3416667,191.344333 52.274,191.080667 52.274,190.698 L52.274,190.698 L52.274,184.608 C51.742,184.738667 51.0606667,184.804 50.23,184.804 C49.95,184.804 49.6606667,184.79 49.362,184.762 L49.362,184.762 L49.362,185.056 C49.698,185.056 49.9313333,185.154 50.062,185.35 C50.1926667,185.546 50.258,185.858667 50.258,186.288 L50.258,186.288 L50.258,190.698 C50.258,191.080667 50.1926667,191.344333 50.062,191.489 C49.9313333,191.633667 49.698,191.706 49.362,191.706 L49.362,191.706 L49.362,192 C50.37,191.962667 51.0186667,191.944 51.308,191.944 C51.616,191.944 52.2366667,191.962667 53.17,192 L53.17,192 Z M58,192 L58,191.706 C57.5426667,191.706 57.209,191.622 56.999,191.454 C56.789,191.286 56.684,190.987333 56.684,190.558 L56.684,190.558 L56.684,186.848 C56.684,186.456 56.8076667,186.073333 57.055,185.7 C57.3023333,185.326667 57.6033333,185.112 57.958,185.056 C58.014,185.037333 58.0886667,185.028 58.182,185.028 C58.2566667,185.028 58.3126667,185.032667 58.35,185.042 C57.9393333,185.322 57.734,185.686 57.734,186.134 C57.734,186.404667 57.8273333,186.621667 58.014,186.785 C58.2006667,186.948333 58.4526667,187.03 58.77,187.03 C59.0966667,187.03 59.3603333,186.920333 59.561,186.701 C59.7616667,186.481667 59.862,186.199333 59.862,185.854 C59.862,185.499333 59.7546667,185.196 59.54,184.944 C59.3253333,184.692 59.008,184.566 58.588,184.566 C58.168,184.566 57.79,184.689667 57.454,184.937 C57.118,185.184333 56.8613333,185.508667 56.684,185.91 L56.684,185.91 L56.684,184.608 C56.152,184.738667 55.4706667,184.804 54.64,184.804 C54.36,184.804 54.0706667,184.79 53.772,184.762 L53.772,184.762 L53.772,185.056 C54.108,185.056 54.3413333,185.154 54.472,185.35 C54.6026667,185.546 54.668,185.858667 54.668,186.288 L54.668,186.288 L54.668,190.698 C54.668,191.080667 54.6026667,191.344333 54.472,191.489 C54.3413333,191.633667 54.108,191.706 53.772,191.706 L53.772,191.706 L53.772,192 C53.884,192 53.9773333,191.995333 54.052,191.986 C54.948,191.958 55.522,191.944 55.774,191.944 C56.0913333,191.944 56.726,191.958 57.678,191.986 C57.762,191.995333 57.8693333,192 58,192 L58,192 Z M69.13,188.794 L69.13,187.632 L64.076,187.632 L64.076,188.794 L69.13,188.794 Z M78.356,192 C79.5693333,192 80.5166667,191.764333 81.198,191.293 C81.8793333,190.821667 82.22,190.152 82.22,189.284 C82.22,188.649333 81.9353333,188.098667 81.366,187.632 C80.7966667,187.165333 79.9053333,186.885333 78.692,186.792 L78.692,186.792 L78.692,186.764 C79.616,186.596 80.3136667,186.278667 80.785,185.812 C81.2563333,185.345333 81.492,184.841333 81.492,184.3 C81.492,183.637333 81.1956667,183.105333 80.603,182.704 C80.0103333,182.302667 79.154,182.102 78.034,182.102 C77.7913333,182.102 77.5766667,182.106667 77.39,182.116 L77.39,182.116 L75.836,182.13 C74.8933333,182.13 74.184,182.116 73.708,182.088 L73.708,182.088 L73.708,182.368 C74.016,182.386667 74.2423333,182.424 74.387,182.48 C74.5316667,182.536 74.6296667,182.643333 74.681,182.802 C74.7323333,182.960667 74.758,183.217333 74.758,183.572 L74.758,183.572 L74.758,190.516 C74.758,190.870667 74.7323333,191.127333 74.681,191.286 C74.6296667,191.444667 74.5316667,191.552 74.387,191.608 C74.2423333,191.664 74.016,191.701333 73.708,191.72 L73.708,191.72 L73.708,192 C74.184,191.972 74.9026667,191.958 75.864,191.958 C76.452,191.958 77.054,191.967333 77.67,191.986 C77.8566667,191.995333 78.0853333,192 78.356,192 Z M77.586,186.736 L76.984,186.736 L76.984,183.572 C76.984,183.236 77.0073333,182.984 77.054,182.816 C77.1006667,182.648 77.1823333,182.531333 77.299,182.466 C77.4156667,182.400667 77.6,182.368 77.852,182.368 C78.328,182.368 78.6756667,182.540667 78.895,182.886 C79.1143333,183.231333 79.224,183.754 79.224,184.454 C79.224,185.144667 79.1026667,185.697667 78.86,186.113 C78.6173333,186.528333 78.1926667,186.736 77.586,186.736 L77.586,186.736 Z M77.95,191.678 C77.67,191.678 77.4623333,191.647667 77.327,191.587 C77.1916667,191.526333 77.1006667,191.416667 77.054,191.258 C77.0073333,191.099333 76.984,190.852 76.984,190.516 L76.984,190.516 L76.984,186.974 L77.572,186.974 C78.3746667,186.974 78.9626667,187.165333 79.336,187.548 C79.7093333,187.930667 79.896,188.490667 79.896,189.228 C79.896,190.861333 79.2473333,191.678 77.95,191.678 Z M86.588,192.196 C87.6613333,192.196 88.5013333,191.892667 89.108,191.286 C89.7146667,190.679333 90.018,189.713333 90.018,188.388 C90.018,187.062667 89.7146667,186.094333 89.108,185.483 C88.5013333,184.871667 87.6613333,184.566 86.588,184.566 C85.524,184.566 84.6863333,184.871667 84.075,185.483 C83.4636667,186.094333 83.158,187.062667 83.158,188.388 C83.158,189.713333 83.4636667,190.679333 84.075,191.286 C84.6863333,191.892667 85.524,192.196 86.588,192.196 Z M86.588,191.916 C86.1866667,191.916 85.867,191.626667 85.629,191.048 C85.391,190.469333 85.272,189.582667 85.272,188.388 C85.272,187.193333 85.391,186.304333 85.629,185.721 C85.867,185.137667 86.1866667,184.846 86.588,184.846 C86.9893333,184.846 87.309,185.135333 87.547,185.714 C87.785,186.292667 87.904,187.184 87.904,188.388 C87.904,189.592 87.7873333,190.481 87.554,191.055 C87.3206667,191.629 86.9986667,191.916 86.588,191.916 Z M94.638,192 L94.638,191.706 C94.302,191.706 94.0686667,191.633667 93.938,191.489 C93.8073333,191.344333 93.742,191.080667 93.742,190.698 L93.742,190.698 L93.742,181.038 C93.1913333,181.168667 92.51,181.234 91.698,181.234 C91.418,181.234 91.1286667,181.22 90.83,181.192 L90.83,181.192 L90.83,181.486 C91.1566667,181.486 91.3876667,181.584 91.523,181.78 C91.6583333,181.976 91.726,182.288667 91.726,182.718 L91.726,182.718 L91.726,190.698 C91.726,191.080667 91.6583333,191.344333 91.523,191.489 C91.3876667,191.633667 91.1566667,191.706 90.83,191.706 L90.83,191.706 L90.83,192 C91.8006667,191.962667 92.4446667,191.944 92.762,191.944 C93.042,191.944 93.6673333,191.962667 94.638,192 L94.638,192 Z M98.292,192.196 C99.188,192.196 99.7946667,191.776 100.112,190.936 L100.112,190.936 L100.112,192.14 C100.644,192.009333 101.325333,191.944 102.156,191.944 C102.445333,191.944 102.734667,191.958 103.024,191.986 L103.024,191.986 L103.024,191.692 C102.688,191.692 102.454667,191.594 102.324,191.398 C102.193333,191.202 102.128,190.889333 102.128,190.46 L102.128,190.46 L102.128,181.038 C101.577333,181.168667 100.896,181.234 100.084,181.234 C99.804,181.234 99.5146667,181.22 99.216,181.192 L99.216,181.192 L99.216,181.486 C99.5426667,181.486 99.7736667,181.584 99.909,181.78 C100.044333,181.976 100.112,182.288667 100.112,182.718 L100.112,182.718 L100.112,185.098 C99.7573333,184.743333 99.2393333,184.566 98.558,184.566 C97.9513333,184.566 97.4123333,184.708333 96.941,184.993 C96.4696667,185.277667 96.101,185.702333 95.835,186.267 C95.569,186.831667 95.436,187.524667 95.436,188.346 C95.4266667,189.634 95.681,190.597667 96.199,191.237 C96.717,191.876333 97.4146667,192.196 98.292,192.196 Z M98.866,191.594 C98.4366667,191.594 98.1076667,191.342 97.879,190.838 C97.6503333,190.334 97.5406667,189.512667 97.55,188.374 C97.5406667,187.244667 97.6713333,186.395333 97.942,185.826 C98.2126667,185.256667 98.5953333,184.972 99.09,184.972 C99.538,184.972 99.8786667,185.130667 100.112,185.448 L100.112,185.448 L100.112,190.348 C100.065333,190.730667 99.923,191.034 99.685,191.258 C99.447,191.482 99.174,191.594 98.866,191.594 Z" id="Playfair-Bold" fill="#FFFFFF"></path>
                    <path d="M13.438,220 L13.438,219.72 C13.018,219.701333 12.7146667,219.664 12.528,219.608 C12.3413333,219.552 12.2106667,219.444667 12.136,219.286 C12.0613333,219.127333 12.024,218.870667 12.024,218.516 L12.024,218.516 L12.024,215.996 L13.102,215.996 C14.0073333,215.996 14.733,215.837333 15.279,215.52 C15.825,215.202667 16.2123333,214.808333 16.441,214.337 C16.6696667,213.865667 16.784,213.373333 16.784,212.86 C16.784,212.02 16.4946667,211.350333 15.916,210.851 C15.3373333,210.351667 14.502,210.102 13.41,210.102 C13.186,210.102 12.9853333,210.106667 12.808,210.116 L12.808,210.116 L11.296,210.13 C10.5493333,210.13 9.98,210.116 9.588,210.088 L9.588,210.088 L9.588,210.368 C9.924,210.386667 10.169,210.424 10.323,210.48 C10.477,210.536 10.582,210.643333 10.638,210.802 C10.694,210.960667 10.722,211.217333 10.722,211.572 L10.722,211.572 L10.722,218.516 C10.722,218.870667 10.694,219.127333 10.638,219.286 C10.582,219.444667 10.477,219.552 10.323,219.608 C10.169,219.664 9.924,219.701333 9.588,219.72 L9.588,219.72 L9.588,220 C9.98,219.972 10.5773333,219.958 11.38,219.958 C12.2666667,219.958 12.9526667,219.972 13.438,220 L13.438,220 Z M12.962,215.716 L12.024,215.716 L12.024,211.572 C12.024,211.236 12.052,210.984 12.108,210.816 C12.164,210.648 12.2643333,210.531333 12.409,210.466 C12.5536667,210.400667 12.7706667,210.368 13.06,210.368 C13.8906667,210.368 14.4856667,210.582667 14.845,211.012 C15.2043333,211.441333 15.384,212.108667 15.384,213.014 C15.384,213.835333 15.209,214.491 14.859,214.981 C14.509,215.471 13.8766667,215.716 12.962,215.716 L12.962,215.716 Z M20.886,220 L20.886,219.706 C20.494,219.706 20.2186667,219.633667 20.06,219.489 C19.9013333,219.344333 19.822,219.080667 19.822,218.698 L19.822,218.698 L19.822,209.024 C19.4393333,209.154667 18.954,209.22 18.366,209.22 C18.0766667,209.22 17.7873333,209.206 17.498,209.178 L17.498,209.178 L17.498,209.472 C17.89,209.472 18.1653333,209.57 18.324,209.766 C18.4826667,209.962 18.562,210.274667 18.562,210.704 L18.562,210.704 L18.562,218.698 C18.562,219.080667 18.4826667,219.344333 18.324,219.489 C18.1653333,219.633667 17.89,219.706 17.498,219.706 L17.498,219.706 L17.498,220 C18.3566667,219.962667 18.9213333,219.944 19.192,219.944 C19.4626667,219.944 20.0273333,219.962667 20.886,220 L20.886,220 Z M26.878,220.098 C27.1393333,220.098 27.3563333,220.058333 27.529,219.979 C27.7016667,219.899667 27.9093333,219.766667 28.152,219.58 L28.152,219.58 L27.998,219.342 C27.886,219.435333 27.781,219.507667 27.683,219.559 C27.585,219.610333 27.48,219.636 27.368,219.636 C27.2093333,219.636 27.0973333,219.584667 27.032,219.482 C26.9666667,219.379333 26.934,219.211333 26.934,218.978 L26.934,218.978 L26.934,215.086 C26.934,214.591333 26.8943333,214.192333 26.815,213.889 C26.7356667,213.585667 26.5793333,213.326667 26.346,213.112 C25.9726667,212.766667 25.422,212.594 24.694,212.594 C24.2833333,212.594 23.9053333,212.645333 23.56,212.748 C23.2146667,212.850667 22.93,212.981333 22.706,213.14 C22.4913333,213.289333 22.3303333,213.438667 22.223,213.588 C22.1156667,213.737333 22.062,213.924 22.062,214.148 C22.062,214.381333 22.1273333,214.579667 22.258,214.743 C22.3886667,214.906333 22.5846667,214.988 22.846,214.988 C23.0793333,214.988 23.2706667,214.920333 23.42,214.785 C23.5693333,214.649667 23.644,214.465333 23.644,214.232 C23.644,214.008 23.581,213.821333 23.455,213.672 C23.329,213.522667 23.1726667,213.424667 22.986,213.378 C23.2566667,213.042 23.7186667,212.874 24.372,212.874 C24.7826667,212.874 25.1023333,212.974333 25.331,213.175 C25.5596667,213.375667 25.674,213.746667 25.674,214.288 L25.674,214.288 L25.674,215.156 C25.674,215.408 25.548,215.608667 25.296,215.758 C25.044,215.907333 24.6566667,216.070667 24.134,216.248 C23.6206667,216.425333 23.2076667,216.593333 22.895,216.752 C22.5823333,216.910667 22.3116667,217.125333 22.083,217.396 C21.8543333,217.666667 21.74,218.012 21.74,218.432 C21.74,218.954667 21.8823333,219.363 22.167,219.657 C22.4516667,219.951 22.888,220.098 23.476,220.098 C23.9333333,220.098 24.344,220.007 24.708,219.825 C25.072,219.643 25.394,219.318667 25.674,218.852 C25.674,219.234667 25.7626667,219.538 25.94,219.762 C26.1173333,219.986 26.43,220.098 26.878,220.098 Z M24.092,219.538 C23.756,219.538 23.4853333,219.430667 23.28,219.216 C23.0746667,219.001333 22.972,218.684 22.972,218.264 C22.972,217.9 23.0513333,217.601333 23.21,217.368 C23.3686667,217.134667 23.5576667,216.950333 23.777,216.815 C23.9963333,216.679667 24.2833333,216.537333 24.638,216.388 C24.946,216.248 25.1746667,216.136 25.324,216.052 C25.4733333,215.968 25.59,215.860667 25.674,215.73 L25.674,215.73 L25.674,218.474 C25.2353333,219.183333 24.708,219.538 24.092,219.538 Z M29.706,222.632 C29.902,222.632 30.098,222.604 30.294,222.548 C30.49,222.492 30.658,222.398667 30.798,222.268 C31.022,222.072 31.2226667,221.745333 31.4,221.288 L31.4,221.288 L31.876,220.07 L34.172,214.05 C34.3026667,213.714 34.4403333,213.471333 34.585,213.322 C34.7296667,213.172667 34.8953333,213.088667 35.082,213.07 L35.082,213.07 L35.082,212.79 C34.7833333,212.818 34.4286667,212.832 34.018,212.832 C33.7286667,212.832 33.3366667,212.818 32.842,212.79 L32.842,212.79 L32.842,213.07 C33.206,213.098 33.472,213.163333 33.64,213.266 C33.808,213.368667 33.892,213.527333 33.892,213.742 C33.892,213.891333 33.8406667,214.106 33.738,214.386 L33.738,214.386 L32.184,218.432 L30.504,214.26 C30.392,213.998667 30.336,213.77 30.336,213.574 C30.336,213.359333 30.413,213.224 30.567,213.168 C30.721,213.112 30.966,213.084 31.302,213.084 L31.302,213.084 L31.302,212.79 C30.5553333,212.846 29.9486667,212.874 29.482,212.874 C28.9686667,212.874 28.5113333,212.846 28.11,212.79 L28.11,212.79 L28.11,213.084 C28.2686667,213.084 28.4273333,213.135333 28.586,213.238 C28.7446667,213.340667 28.9033333,213.550667 29.062,213.868 L29.062,213.868 L31.596,219.986 L31.106,221.26 C30.826,221.988 30.4293333,222.352 29.916,222.352 C29.8786667,222.352 29.8506667,222.347333 29.832,222.338 C30.084,222.198 30.21,221.988 30.21,221.708 C30.21,221.502667 30.1423333,221.341667 30.007,221.225 C29.8716667,221.108333 29.7013333,221.05 29.496,221.05 C29.2626667,221.05 29.0806667,221.117667 28.95,221.253 C28.8193333,221.388333 28.754,221.568 28.754,221.792 C28.754,222.053333 28.8426667,222.258667 29.02,222.408 C29.1973333,222.557333 29.426,222.632 29.706,222.632 Z M39.45,220 L39.45,219.706 C38.9553333,219.706 38.5843333,219.622 38.337,219.454 C38.0896667,219.286 37.966,218.987333 37.966,218.558 L37.966,218.558 L37.966,213.084 L39.464,213.084 L39.464,212.804 L37.966,212.804 L37.9666049,212.162938 C37.9698313,211.448535 37.985963,210.929556 38.015,210.606 C38.0476667,210.242 38.1153333,209.966667 38.218,209.78 C38.302,209.621333 38.4233333,209.495333 38.582,209.402 C38.7406667,209.308667 38.9226667,209.262 39.128,209.262 C39.3146667,209.262 39.4686667,209.29 39.59,209.346 C39.7113333,209.402 39.786,209.476667 39.814,209.57 C39.6366667,209.607333 39.4943333,209.686667 39.387,209.808 C39.2796667,209.929333 39.226,210.088 39.226,210.284 C39.226,210.517333 39.3006667,210.701667 39.45,210.837 C39.5993333,210.972333 39.7813333,211.04 39.996,211.04 C40.2106667,211.04 40.388,210.97 40.528,210.83 C40.668,210.69 40.738,210.512667 40.738,210.298 C40.738,209.952667 40.5933333,209.663333 40.304,209.43 C39.9773333,209.178 39.5713333,209.052 39.086,209.052 C38.7406667,209.052 38.4233333,209.115 38.134,209.241 C37.8446667,209.367 37.6066667,209.537333 37.42,209.752 C37.1493333,210.069333 36.9626667,210.452 36.86,210.9 C36.7573333,211.348 36.706,211.982667 36.706,212.804 L36.706,212.804 L35.586,212.804 L35.586,213.084 L36.706,213.084 L36.706,218.698 C36.706,219.080667 36.6266667,219.344333 36.468,219.489 C36.3093333,219.633667 36.034,219.706 35.642,219.706 L35.642,219.706 L35.642,220 C36.5006667,219.962667 37.0513333,219.944 37.294,219.944 C37.5553333,219.944 38.162,219.958 39.114,219.986 L39.114,219.986 L39.45,220 Z M45.554,220.098 C45.8153333,220.098 46.0323333,220.058333 46.205,219.979 C46.3776667,219.899667 46.5853333,219.766667 46.828,219.58 L46.828,219.58 L46.674,219.342 C46.562,219.435333 46.457,219.507667 46.359,219.559 C46.261,219.610333 46.156,219.636 46.044,219.636 C45.8853333,219.636 45.7733333,219.584667 45.708,219.482 C45.6426667,219.379333 45.61,219.211333 45.61,218.978 L45.61,218.978 L45.61,215.086 C45.61,214.591333 45.5703333,214.192333 45.491,213.889 C45.4116667,213.585667 45.2553333,213.326667 45.022,213.112 C44.6486667,212.766667 44.098,212.594 43.37,212.594 C42.9593333,212.594 42.5813333,212.645333 42.236,212.748 C41.8906667,212.850667 41.606,212.981333 41.382,213.14 C41.1673333,213.289333 41.0063333,213.438667 40.899,213.588 C40.7916667,213.737333 40.738,213.924 40.738,214.148 C40.738,214.381333 40.8033333,214.579667 40.934,214.743 C41.0646667,214.906333 41.2606667,214.988 41.522,214.988 C41.7553333,214.988 41.9466667,214.920333 42.096,214.785 C42.2453333,214.649667 42.32,214.465333 42.32,214.232 C42.32,214.008 42.257,213.821333 42.131,213.672 C42.005,213.522667 41.8486667,213.424667 41.662,213.378 C41.9326667,213.042 42.3946667,212.874 43.048,212.874 C43.4586667,212.874 43.7783333,212.974333 44.007,213.175 C44.2356667,213.375667 44.35,213.746667 44.35,214.288 L44.35,214.288 L44.35,215.156 C44.35,215.408 44.224,215.608667 43.972,215.758 C43.72,215.907333 43.3326667,216.070667 42.81,216.248 C42.2966667,216.425333 41.8836667,216.593333 41.571,216.752 C41.2583333,216.910667 40.9876667,217.125333 40.759,217.396 C40.5303333,217.666667 40.416,218.012 40.416,218.432 C40.416,218.954667 40.5583333,219.363 40.843,219.657 C41.1276667,219.951 41.564,220.098 42.152,220.098 C42.6093333,220.098 43.02,220.007 43.384,219.825 C43.748,219.643 44.07,219.318667 44.35,218.852 C44.35,219.234667 44.4386667,219.538 44.616,219.762 C44.7933333,219.986 45.106,220.098 45.554,220.098 Z M42.768,219.538 C42.432,219.538 42.1613333,219.430667 41.956,219.216 C41.7506667,219.001333 41.648,218.684 41.648,218.264 C41.648,217.9 41.7273333,217.601333 41.886,217.368 C42.0446667,217.134667 42.2336667,216.950333 42.453,216.815 C42.6723333,216.679667 42.9593333,216.537333 43.314,216.388 C43.622,216.248 43.8506667,216.136 44,216.052 C44.1493333,215.968 44.266,215.860667 44.35,215.73 L44.35,215.73 L44.35,218.474 C43.9113333,219.183333 43.384,219.538 42.768,219.538 Z M48.844,211.082 C49.0866667,211.082 49.2966667,210.993333 49.474,210.816 C49.6513333,210.638667 49.74,210.428667 49.74,210.186 C49.74,209.943333 49.6513333,209.733333 49.474,209.556 C49.2966667,209.378667 49.0866667,209.29 48.844,209.29 C48.6013333,209.29 48.3913333,209.378667 48.214,209.556 C48.0366667,209.733333 47.948,209.943333 47.948,210.186 C47.948,210.428667 48.0366667,210.638667 48.214,210.816 C48.3913333,210.993333 48.6013333,211.082 48.844,211.082 Z M50.636,220 L50.636,219.706 C50.244,219.706 49.9686667,219.633667 49.81,219.489 C49.6513333,219.344333 49.572,219.080667 49.572,218.698 L49.572,218.698 L49.572,212.636 C49.1893333,212.766667 48.704,212.832 48.116,212.832 C47.836,212.832 47.5466667,212.818 47.248,212.79 L47.248,212.79 L47.248,213.084 C47.64,213.084 47.9153333,213.182 48.074,213.378 C48.2326667,213.574 48.312,213.886667 48.312,214.316 L48.312,214.316 L48.312,218.698 C48.312,219.080667 48.2326667,219.344333 48.074,219.489 C47.9153333,219.633667 47.64,219.706 47.248,219.706 L47.248,219.706 L47.248,220 C48.1066667,219.962667 48.6713333,219.944 48.942,219.944 C49.2126667,219.944 49.7773333,219.962667 50.636,220 L50.636,220 Z M55.158,220 L55.158,219.706 C54.6633333,219.706 54.2923333,219.622 54.045,219.454 C53.7976667,219.286 53.674,218.987333 53.674,218.558 L53.674,218.558 L53.674,215.59 C53.674,215.226 53.758,214.838667 53.926,214.428 C54.094,214.017333 54.3273333,213.669667 54.626,213.385 C54.9246667,213.100333 55.256,212.958 55.62,212.958 C55.7506667,212.958 55.8486667,213.004667 55.914,213.098 C55.5966667,213.294 55.438,213.546 55.438,213.854 C55.438,214.078 55.5103333,214.255333 55.655,214.386 C55.7996667,214.516667 55.9746667,214.582 56.18,214.582 C56.4226667,214.582 56.6163333,214.495667 56.761,214.323 C56.9056667,214.150333 56.978,213.942667 56.978,213.7 C56.978,213.392 56.859,213.130667 56.621,212.916 C56.383,212.701333 56.0773333,212.594 55.704,212.594 C55.256,212.594 54.8476667,212.776 54.479,213.14 C54.1103333,213.504 53.842,213.919333 53.674,214.386 L53.674,214.386 L53.674,212.636 C53.2913333,212.766667 52.806,212.832 52.218,212.832 C51.938,212.832 51.6486667,212.818 51.35,212.79 L51.35,212.79 L51.35,213.084 C51.742,213.084 52.0173333,213.182 52.176,213.378 C52.3346667,213.574 52.414,213.886667 52.414,214.316 L52.414,214.316 L52.414,218.698 C52.414,219.080667 52.3346667,219.344333 52.176,219.489 C52.0173333,219.633667 51.742,219.706 51.35,219.706 L51.35,219.706 L51.35,220 C52.2086667,219.962667 52.7593333,219.944 53.002,219.944 C53.2633333,219.944 53.87,219.958 54.822,219.986 L54.822,219.986 L55.158,220 Z M66.68,216.64 L66.68,215.828 L61.626,215.828 L61.626,216.64 L66.68,216.64 Z M78.874,220.196 C79.2286667,220.196 79.5133333,220.126 79.728,219.986 C79.9426667,219.846 80.1573333,219.617333 80.372,219.3 L80.372,219.3 L80.162,219.146 C80.022,219.332667 79.8983333,219.468 79.791,219.552 C79.6836667,219.636 79.5506667,219.678 79.392,219.678 C79.2146667,219.678 79.0746667,219.594 78.972,219.426 C78.8693333,219.258 78.7713333,218.959333 78.678,218.53 L78.678,218.53 L78.328,217.102 C78.1973333,216.514 77.992,216.084667 77.712,215.814 C77.432,215.543333 76.984,215.356667 76.368,215.254 L76.368,215.254 L76.2,215.226 C76.8533333,215.123333 77.383,214.925 77.789,214.631 C78.195,214.337 78.4843333,214.005667 78.657,213.637 C78.8296667,213.268333 78.916,212.902 78.916,212.538 C78.916,211.819333 78.6243333,211.233667 78.041,210.781 C77.4576667,210.328333 76.6246667,210.102 75.542,210.102 C75.318,210.102 75.1173333,210.106667 74.94,210.116 L74.94,210.116 L73.428,210.13 C72.6813333,210.13 72.112,210.116 71.72,210.088 L71.72,210.088 L71.72,210.368 C72.056,210.386667 72.301,210.424 72.455,210.48 C72.609,210.536 72.714,210.643333 72.77,210.802 C72.826,210.960667 72.854,211.217333 72.854,211.572 L72.854,211.572 L72.854,218.516 C72.854,218.870667 72.826,219.127333 72.77,219.286 C72.714,219.444667 72.609,219.552 72.455,219.608 C72.301,219.664 72.056,219.701333 71.72,219.72 L71.72,219.72 L71.72,220 C72.112,219.972 72.7093333,219.958 73.512,219.958 C74.268,219.958 74.8606667,219.972 75.29,220 L75.29,220 L75.29,219.72 C74.954,219.701333 74.709,219.664 74.555,219.608 C74.401,219.552 74.296,219.444667 74.24,219.286 C74.184,219.127333 74.156,218.870667 74.156,218.516 L74.156,218.516 L74.156,215.296 L75.486,215.296 C75.8406667,215.296 76.116,215.375333 76.312,215.534 C76.508,215.692667 76.655,215.902667 76.753,216.164 C76.851,216.425333 76.956,216.798667 77.068,217.284 L77.068,217.284 L77.376,218.684 C77.4973333,219.244 77.6816667,219.636 77.929,219.86 C78.1763333,220.084 78.4913333,220.196 78.874,220.196 Z M75.094,215.016 L74.156,215.016 L74.156,211.572 C74.156,211.236 74.184,210.984 74.24,210.816 C74.296,210.648 74.3963333,210.531333 74.541,210.466 C74.6856667,210.400667 74.9026667,210.368 75.192,210.368 C76.0133333,210.368 76.606,210.564 76.97,210.956 C77.334,211.348 77.516,211.926667 77.516,212.692 C77.516,213.42 77.3433333,213.989333 76.998,214.4 C76.6526667,214.810667 76.018,215.016 75.094,215.016 L75.094,215.016 Z M84.068,220.196 C84.7213333,220.196 85.279,220.011667 85.741,219.643 C86.203,219.274333 86.518,218.833333 86.686,218.32 L86.686,218.32 L86.406,218.208 C86.1726667,218.712 85.8833333,219.071333 85.538,219.286 C85.1926667,219.500667 84.796,219.608 84.348,219.608 C83.984,219.608 83.6363333,219.484333 83.305,219.237 C82.9736667,218.989667 82.7076667,218.637333 82.507,218.18 C82.3063333,217.722667 82.206,217.186 82.206,216.57 C82.206,216.234 82.22,215.935333 82.248,215.674 L82.248,215.674 L86.63,215.674 C86.63,214.638 86.4036667,213.865667 85.951,213.357 C85.4983333,212.848333 84.852,212.594 84.012,212.594 C83.3773333,212.594 82.822,212.755 82.346,213.077 C81.87,213.399 81.5013333,213.858667 81.24,214.456 C80.9786667,215.053333 80.848,215.758 80.848,216.57 C80.848,217.288667 80.9763333,217.921 81.233,218.467 C81.4896667,219.013 81.8606667,219.437667 82.346,219.741 C82.8313333,220.044333 83.4053333,220.196 84.068,220.196 Z M85.286,215.408 L82.234,215.408 C82.3086667,214.568 82.5046667,213.933333 82.822,213.504 C83.1393333,213.074667 83.5173333,212.86 83.956,212.86 C84.404,212.86 84.7423333,213.102667 84.971,213.588 C85.1996667,214.073333 85.3046667,214.68 85.286,215.408 L85.286,215.408 Z M90.27,222.632 C91.0633333,222.632 91.74,222.515333 92.3,222.282 C92.86,222.048667 93.2846667,221.740667 93.574,221.358 C93.8633333,220.975333 94.008,220.56 94.008,220.112 C94.008,219.561333 93.8003333,219.148333 93.385,218.873 C92.9696667,218.597667 92.4446667,218.46 91.81,218.46 L91.81,218.46 L90.06,218.46 C89.612,218.46 89.388,218.310667 89.388,218.012 C89.388,217.825333 89.4673333,217.657333 89.626,217.508 C89.7846667,217.358667 90.018,217.195333 90.326,217.018 L90.326,217.018 L90.34,217.018 C91.0773333,217.018 91.67,216.833667 92.118,216.465 C92.566,216.096333 92.79,215.543333 92.79,214.806 C92.79,214.302 92.6826667,213.886667 92.468,213.56 C92.58,213.373333 92.706,213.217 92.846,213.091 C92.986,212.965 93.1773333,212.850667 93.42,212.748 C93.3266667,212.990667 93.28,213.205333 93.28,213.392 C93.28,213.606667 93.3383333,213.77 93.455,213.882 C93.5716667,213.994 93.714,214.05 93.882,214.05 C94.0593333,214.05 94.2203333,213.984667 94.365,213.854 C94.5096667,213.723333 94.582,213.527333 94.582,213.266 C94.582,213.004667 94.5073333,212.804 94.358,212.664 C94.2086667,212.524 94.0126667,212.454 93.77,212.454 C93.4993333,212.454 93.2286667,212.535667 92.958,212.699 C92.6873333,212.862333 92.4633333,213.07 92.286,213.322 C91.866,212.836667 91.2173333,212.594 90.34,212.594 C89.6026667,212.594 89.01,212.778333 88.562,213.147 C88.114,213.515667 87.89,214.068667 87.89,214.806 C87.89,215.468667 88.0743333,215.982 88.443,216.346 C88.8116667,216.71 89.304,216.924667 89.92,216.99 C89.4346667,217.242 89.087,217.498667 88.877,217.76 C88.667,218.021333 88.562,218.296667 88.562,218.586 C88.562,219.006 88.7276667,219.286 89.059,219.426 C89.3903333,219.566 89.8313333,219.636 90.382,219.636 L90.382,219.636 L91.418,219.636 C92.0246667,219.636 92.447,219.729333 92.685,219.916 C92.923,220.102667 93.042,220.364 93.042,220.7 C93.042,221.278667 92.7853333,221.705667 92.272,221.981 C91.7586667,222.256333 91.1426667,222.394 90.424,222.394 C89.7706667,222.394 89.2503333,222.279667 88.863,222.051 C88.4756667,221.822333 88.282,221.493333 88.282,221.064 C88.282,220.821333 88.3426667,220.602 88.464,220.406 C88.5853333,220.21 88.7486667,220.079333 88.954,220.014 L88.954,220.014 L88.87,219.79 C88.4126667,219.920667 88.0556667,220.102667 87.799,220.336 C87.5423333,220.569333 87.414,220.844667 87.414,221.162 C87.414,221.647333 87.687,222.013667 88.233,222.261 C88.779,222.508333 89.458,222.632 90.27,222.632 Z M90.34,216.766 C89.9666667,216.766 89.6843333,216.619 89.493,216.325 C89.3016667,216.031 89.206,215.524667 89.206,214.806 C89.206,214.087333 89.3016667,213.581 89.493,213.287 C89.6843333,212.993 89.9666667,212.846 90.34,212.846 C90.7133333,212.846 90.9956667,212.993 91.187,213.287 C91.3783333,213.581 91.474,214.087333 91.474,214.806 C91.474,215.524667 91.3783333,216.031 91.187,216.325 C90.9956667,216.619 90.7133333,216.766 90.34,216.766 Z M97.886,220.196 C98.3713333,220.196 98.8193333,220.060667 99.23,219.79 C99.6406667,219.519333 99.958,219.094667 100.182,218.516 L100.182,218.516 L100.182,220.168 C100.564667,220.037333 101.05,219.972 101.638,219.972 C101.927333,219.972 102.216667,219.986 102.506,220.014 L102.506,220.014 L102.506,219.72 C102.114,219.72 101.838667,219.622 101.68,219.426 C101.521333,219.23 101.442,218.917333 101.442,218.488 L101.442,218.488 L101.442,212.636 C101.059333,212.766667 100.574,212.832 99.986,212.832 C99.6966667,212.832 99.4073333,212.818 99.118,212.79 L99.118,212.79 L99.118,213.084 C99.51,213.084 99.7853333,213.182 99.944,213.378 C100.102667,213.574 100.182,213.886667 100.182,214.316 L100.182,214.316 L100.182,217.214 C100.182,217.680667 100.100333,218.107667 99.937,218.495 C99.7736667,218.882333 99.5473333,219.188 99.258,219.412 C98.9686667,219.636 98.6466667,219.748 98.292,219.748 C97.9746667,219.748 97.739,219.678 97.585,219.538 C97.431,219.398 97.333,219.218333 97.291,218.999 C97.249,218.779667 97.228,218.492667 97.228,218.138 L97.228,218.138 L97.228,212.636 C96.8453333,212.766667 96.36,212.832 95.772,212.832 C95.4826667,212.832 95.1933333,212.818 94.904,212.79 L94.904,212.79 L94.904,213.084 C95.296,213.084 95.5713333,213.182 95.73,213.378 C95.8886667,213.574 95.968,213.886667 95.968,214.316 L95.968,214.316 L95.968,217.83 C95.968,218.287333 96.003,218.660667 96.073,218.95 C96.143,219.239333 96.262,219.477333 96.43,219.664 C96.766,220.018667 97.2513333,220.196 97.886,220.196 Z M106.51,220 L106.51,219.706 C106.118,219.706 105.842667,219.633667 105.684,219.489 C105.525333,219.344333 105.446,219.080667 105.446,218.698 L105.446,218.698 L105.446,209.024 C105.063333,209.154667 104.578,209.22 103.99,209.22 C103.700667,209.22 103.411333,209.206 103.122,209.178 L103.122,209.178 L103.122,209.472 C103.514,209.472 103.789333,209.57 103.948,209.766 C104.106667,209.962 104.186,210.274667 104.186,210.704 L104.186,210.704 L104.186,218.698 C104.186,219.080667 104.106667,219.344333 103.948,219.489 C103.789333,219.633667 103.514,219.706 103.122,219.706 L103.122,219.706 L103.122,220 C103.980667,219.962667 104.545333,219.944 104.816,219.944 C105.086667,219.944 105.651333,219.962667 106.51,220 L106.51,220 Z M112.502,220.098 C112.763333,220.098 112.980333,220.058333 113.153,219.979 C113.325667,219.899667 113.533333,219.766667 113.776,219.58 L113.776,219.58 L113.622,219.342 C113.51,219.435333 113.405,219.507667 113.307,219.559 C113.209,219.610333 113.104,219.636 112.992,219.636 C112.833333,219.636 112.721333,219.584667 112.656,219.482 C112.590667,219.379333 112.558,219.211333 112.558,218.978 L112.558,218.978 L112.558,215.086 C112.558,214.591333 112.518333,214.192333 112.439,213.889 C112.359667,213.585667 112.203333,213.326667 111.97,213.112 C111.596667,212.766667 111.046,212.594 110.318,212.594 C109.907333,212.594 109.529333,212.645333 109.184,212.748 C108.838667,212.850667 108.554,212.981333 108.33,213.14 C108.115333,213.289333 107.954333,213.438667 107.847,213.588 C107.739667,213.737333 107.686,213.924 107.686,214.148 C107.686,214.381333 107.751333,214.579667 107.882,214.743 C108.012667,214.906333 108.208667,214.988 108.47,214.988 C108.703333,214.988 108.894667,214.920333 109.044,214.785 C109.193333,214.649667 109.268,214.465333 109.268,214.232 C109.268,214.008 109.205,213.821333 109.079,213.672 C108.953,213.522667 108.796667,213.424667 108.61,213.378 C108.880667,213.042 109.342667,212.874 109.996,212.874 C110.406667,212.874 110.726333,212.974333 110.955,213.175 C111.183667,213.375667 111.298,213.746667 111.298,214.288 L111.298,214.288 L111.298,215.156 C111.298,215.408 111.172,215.608667 110.92,215.758 C110.668,215.907333 110.280667,216.070667 109.758,216.248 C109.244667,216.425333 108.831667,216.593333 108.519,216.752 C108.206333,216.910667 107.935667,217.125333 107.707,217.396 C107.478333,217.666667 107.364,218.012 107.364,218.432 C107.364,218.954667 107.506333,219.363 107.791,219.657 C108.075667,219.951 108.512,220.098 109.1,220.098 C109.557333,220.098 109.968,220.007 110.332,219.825 C110.696,219.643 111.018,219.318667 111.298,218.852 C111.298,219.234667 111.386667,219.538 111.564,219.762 C111.741333,219.986 112.054,220.098 112.502,220.098 Z M109.716,219.538 C109.38,219.538 109.109333,219.430667 108.904,219.216 C108.698667,219.001333 108.596,218.684 108.596,218.264 C108.596,217.9 108.675333,217.601333 108.834,217.368 C108.992667,217.134667 109.181667,216.950333 109.401,216.815 C109.620333,216.679667 109.907333,216.537333 110.262,216.388 C110.57,216.248 110.798667,216.136 110.948,216.052 C111.097333,215.968 111.214,215.860667 111.298,215.73 L111.298,215.73 L111.298,218.474 C110.859333,219.183333 110.332,219.538 109.716,219.538 Z M118.004,220 L118.004,219.706 C117.509333,219.706 117.138333,219.622 116.891,219.454 C116.643667,219.286 116.52,218.987333 116.52,218.558 L116.52,218.558 L116.52,215.59 C116.52,215.226 116.604,214.838667 116.772,214.428 C116.94,214.017333 117.173333,213.669667 117.472,213.385 C117.770667,213.100333 118.102,212.958 118.466,212.958 C118.596667,212.958 118.694667,213.004667 118.76,213.098 C118.442667,213.294 118.284,213.546 118.284,213.854 C118.284,214.078 118.356333,214.255333 118.501,214.386 C118.645667,214.516667 118.820667,214.582 119.026,214.582 C119.268667,214.582 119.462333,214.495667 119.607,214.323 C119.751667,214.150333 119.824,213.942667 119.824,213.7 C119.824,213.392 119.705,213.130667 119.467,212.916 C119.229,212.701333 118.923333,212.594 118.55,212.594 C118.102,212.594 117.693667,212.776 117.325,213.14 C116.956333,213.504 116.688,213.919333 116.52,214.386 L116.52,214.386 L116.52,212.636 C116.137333,212.766667 115.652,212.832 115.064,212.832 C114.784,212.832 114.494667,212.818 114.196,212.79 L114.196,212.79 L114.196,213.084 C114.588,213.084 114.863333,213.182 115.022,213.378 C115.180667,213.574 115.26,213.886667 115.26,214.316 L115.26,214.316 L115.26,218.698 C115.26,219.080667 115.180667,219.344333 115.022,219.489 C114.863333,219.633667 114.588,219.706 114.196,219.706 L114.196,219.706 L114.196,220 C115.054667,219.962667 115.605333,219.944 115.848,219.944 C116.109333,219.944 116.716,219.958 117.668,219.986 L117.668,219.986 L118.004,220 Z" id="Playfair-Regular" fill="#FFFFFF"></path>
                    <path d="M11.59,247 L11.59,239.202 L15.44,245.754 L15.93,245.754 L19.78,239.16 L19.78,247 L20.774,247 L20.774,237.2 L19.92,237.2 L15.706,244.466 L11.45,237.2 L10.596,237.2 L10.596,247 L11.59,247 Z M26.766,247.07 C27.4753333,247.07 28.1146667,246.909 28.684,246.587 C29.2533333,246.265 29.699,245.819333 30.021,245.25 C30.343,244.680667 30.504,244.036667 30.504,243.318 C30.504,242.599333 30.343,241.955333 30.021,241.386 C29.699,240.816667 29.2533333,240.373333 28.684,240.056 C28.1146667,239.738667 27.4753333,239.58 26.766,239.58 C26.0566667,239.58 25.4173333,239.738667 24.848,240.056 C24.2786667,240.373333 23.8306667,240.816667 23.504,241.386 C23.1773333,241.955333 23.014,242.599333 23.014,243.318 C23.014,244.036667 23.1773333,244.680667 23.504,245.25 C23.8306667,245.819333 24.2786667,246.265 24.848,246.587 C25.4173333,246.909 26.0566667,247.07 26.766,247.07 Z M26.766,246.188 C26.2433333,246.188 25.7743333,246.069 25.359,245.831 C24.9436667,245.593 24.617,245.254667 24.379,244.816 C24.141,244.377333 24.022,243.878 24.022,243.318 C24.022,242.758 24.141,242.258667 24.379,241.82 C24.617,241.381333 24.9436667,241.043 25.359,240.805 C25.7743333,240.567 26.2433333,240.448 26.766,240.448 C27.2886667,240.448 27.7576667,240.567 28.173,240.805 C28.5883333,241.043 28.9126667,241.381333 29.146,241.82 C29.3793333,242.258667 29.496,242.758 29.496,243.318 C29.496,243.878 29.3793333,244.377333 29.146,244.816 C28.9126667,245.254667 28.5883333,245.593 28.173,245.831 C27.7576667,246.069 27.2886667,246.188 26.766,246.188 Z M33.528,247 L33.528,243.136 C33.528,242.305333 33.759,241.654333 34.221,241.183 C34.683,240.711667 35.3106667,240.476 36.104,240.476 C36.8133333,240.476 37.3593333,240.676667 37.742,241.078 C38.1246667,241.479333 38.316,242.062667 38.316,242.828 L38.316,242.828 L38.316,247 L39.31,247 L39.31,242.73 C39.31,241.703333 39.037,240.921667 38.491,240.385 C37.945,239.848333 37.21,239.58 36.286,239.58 C35.6513333,239.58 35.0936667,239.703667 34.613,239.951 C34.1323333,240.198333 33.7566667,240.546 33.486,240.994 L33.486,240.994 L33.486,239.636 L32.534,239.636 L32.534,247 L33.528,247 Z M44.336,247.07 C44.6346667,247.07 44.9216667,247.025667 45.197,246.937 C45.4723333,246.848333 45.7033333,246.72 45.89,246.552 L45.89,246.552 L45.54,245.838 C45.4,245.959333 45.2343333,246.052667 45.043,246.118 C44.8516667,246.183333 44.6533333,246.216 44.448,246.216 C44.0373333,246.216 43.7223333,246.101667 43.503,245.873 C43.2836667,245.644333 43.174,245.310667 43.174,244.872 L43.174,244.872 L43.174,240.476 L45.414,240.476 L45.414,239.636 L43.174,239.636 L43.174,238.026 L42.18,238.026 L42.18,239.636 L40.864,239.636 L40.864,240.476 L42.18,240.476 L42.18,244.928 C42.18,245.609333 42.3666667,246.136667 42.74,246.51 C43.1133333,246.883333 43.6453333,247.07 44.336,247.07 Z M49.67,247.07 C50.622,247.07 51.3663333,246.881 51.903,246.503 C52.4396667,246.125 52.708,245.614 52.708,244.97 C52.708,244.494 52.582,244.120667 52.33,243.85 C52.078,243.579333 51.7746667,243.388 51.42,243.276 C51.0653333,243.164 50.594,243.052 50.006,242.94 C49.53,242.856 49.1566667,242.774333 48.886,242.695 C48.6153333,242.615667 48.389,242.492 48.207,242.324 C48.025,242.156 47.934,241.932 47.934,241.652 C47.934,241.288 48.095,240.994 48.417,240.77 C48.739,240.546 49.2173333,240.434 49.852,240.434 C50.692,240.434 51.4153333,240.644 52.022,241.064 L52.022,241.064 L52.456,240.266 C52.148,240.060667 51.756,239.895 51.28,239.769 C50.804,239.643 50.328,239.58 49.852,239.58 C48.9373333,239.58 48.2233333,239.776 47.71,240.168 C47.1966667,240.56 46.94,241.064 46.94,241.68 C46.94,242.174667 47.0683333,242.562 47.325,242.842 C47.5816667,243.122 47.892,243.320333 48.256,243.437 C48.62,243.553667 49.1006667,243.668 49.698,243.78 C50.146,243.854667 50.5053333,243.931667 50.776,244.011 C51.0466667,244.090333 51.2706667,244.207 51.448,244.361 C51.6253333,244.515 51.714,244.727333 51.714,244.998 C51.714,245.380667 51.553,245.677 51.231,245.887 C50.909,246.097 50.412,246.202 49.74,246.202 C49.236,246.202 48.7506667,246.125 48.284,245.971 C47.8173333,245.817 47.43,245.618667 47.122,245.376 L47.122,245.376 L46.674,246.16 C46.982,246.421333 47.409,246.638333 47.955,246.811 C48.501,246.983667 49.0726667,247.07 49.67,247.07 Z M57.664,247.07 C58.252,247.07 58.791,246.967333 59.281,246.762 C59.771,246.556667 60.1793333,246.258 60.506,245.866 L60.506,245.866 L59.946,245.222 C59.666,245.539333 59.3346667,245.779667 58.952,245.943 C58.5693333,246.106333 58.1493333,246.188 57.692,246.188 C56.88,246.188 56.208,245.952333 55.676,245.481 C55.144,245.009667 54.85,244.391333 54.794,243.626 L54.794,243.626 L60.954,243.626 L60.968,243.318 C60.968,242.59 60.814,241.943667 60.506,241.379 C60.198,240.814333 59.7733333,240.373333 59.232,240.056 C58.6906667,239.738667 58.0793333,239.58 57.398,239.58 C56.7166667,239.58 56.103,239.738667 55.557,240.056 C55.011,240.373333 54.5816667,240.816667 54.269,241.386 C53.9563333,241.955333 53.8,242.599333 53.8,243.318 C53.8,244.036667 53.9633333,244.680667 54.29,245.25 C54.6166667,245.819333 55.0716667,246.265 55.655,246.587 C56.2383333,246.909 56.908,247.07 57.664,247.07 Z M60.016,242.884 L54.794,242.884 C54.8593333,242.156 55.1323333,241.565667 55.613,241.113 C56.0936667,240.660333 56.6886667,240.434 57.398,240.434 C58.1166667,240.434 58.7163333,240.660333 59.197,241.113 C59.6776667,241.565667 59.9506667,242.156 60.016,242.884 L60.016,242.884 Z M63.992,247 L63.992,243.248 C63.992,242.389333 64.2113333,241.722 64.65,241.246 C65.0886667,240.77 65.6953333,240.532 66.47,240.532 L66.47,240.532 L66.708,240.546 L66.708,239.58 C66.0266667,239.58 65.455,239.706 64.993,239.958 C64.531,240.21 64.1833333,240.583333 63.95,241.078 L63.95,241.078 L63.95,239.636 L62.998,239.636 L62.998,247 L63.992,247 Z M69.606,247 L69.606,243.248 C69.606,242.389333 69.8253333,241.722 70.264,241.246 C70.7026667,240.77 71.3093333,240.532 72.084,240.532 L72.084,240.532 L72.322,240.546 L72.322,239.58 C71.6406667,239.58 71.069,239.706 70.607,239.958 C70.145,240.21 69.7973333,240.583333 69.564,241.078 L69.564,241.078 L69.564,239.636 L68.612,239.636 L68.612,247 L69.606,247 Z M76.298,247.07 C76.8953333,247.07 77.411,246.962667 77.845,246.748 C78.279,246.533333 78.608,246.234667 78.832,245.852 L78.832,245.852 L78.832,247 L79.784,247 L79.784,242.436 C79.784,241.493333 79.5273333,240.781667 79.014,240.301 C78.5006667,239.820333 77.7633333,239.58 76.802,239.58 C76.2233333,239.58 75.6726667,239.666333 75.15,239.839 C74.6273333,240.011667 74.1793333,240.256667 73.806,240.574 L73.806,240.574 L74.254,241.316 C74.562,241.045333 74.9306667,240.833 75.36,240.679 C75.7893333,240.525 76.2373333,240.448 76.704,240.448 C77.3853333,240.448 77.9033333,240.613667 78.258,240.945 C78.6126667,241.276333 78.79,241.759333 78.79,242.394 L78.79,242.394 L78.79,242.842 L76.452,242.842 C75.4626667,242.842 74.7416667,243.033333 74.289,243.416 C73.8363333,243.798667 73.61,244.302667 73.61,244.928 C73.61,245.572 73.8526667,246.09 74.338,246.482 C74.8233333,246.874 75.4766667,247.07 76.298,247.07 Z M76.452,246.286 C75.864,246.286 75.4066667,246.162333 75.08,245.915 C74.7533333,245.667667 74.59,245.329333 74.59,244.9 C74.59,244.022667 75.22,243.584 76.48,243.584 L76.48,243.584 L78.79,243.584 L78.79,244.788 C78.594,245.273333 78.2953333,245.644333 77.894,245.901 C77.4926667,246.157667 77.012,246.286 76.452,246.286 Z M84.81,247.07 C85.1086667,247.07 85.3956667,247.025667 85.671,246.937 C85.9463333,246.848333 86.1773333,246.72 86.364,246.552 L86.364,246.552 L86.014,245.838 C85.874,245.959333 85.7083333,246.052667 85.517,246.118 C85.3256667,246.183333 85.1273333,246.216 84.922,246.216 C84.5113333,246.216 84.1963333,246.101667 83.977,245.873 C83.7576667,245.644333 83.648,245.310667 83.648,244.872 L83.648,244.872 L83.648,240.476 L85.888,240.476 L85.888,239.636 L83.648,239.636 L83.648,238.026 L82.654,238.026 L82.654,239.636 L81.338,239.636 L81.338,240.476 L82.654,240.476 L82.654,244.928 C82.654,245.609333 82.8406667,246.136667 83.214,246.51 C83.5873333,246.883333 84.1193333,247.07 84.81,247.07 Z M91.292,243.64 L91.292,242.772 L87.624,242.772 L87.624,243.64 L91.292,243.64 Z M94.764,247 L94.764,243.892 L97.396,243.892 C97.6666667,243.892 97.928,243.878 98.18,243.85 L98.18,243.85 L100.42,247 L101.554,247 L99.16,243.64 C99.8786667,243.406667 100.431667,243.026333 100.819,242.499 C101.206333,241.971667 101.4,241.325333 101.4,240.56 C101.4,239.514667 101.045333,238.693333 100.336,238.096 C99.6266667,237.498667 98.6466667,237.2 97.396,237.2 L97.396,237.2 L93.728,237.2 L93.728,247 L94.764,247 Z M97.368,243.01 L94.764,243.01 L94.764,238.096 L97.368,238.096 C98.3386667,238.096 99.0806667,238.308333 99.594,238.733 C100.107333,239.157667 100.364,239.766667 100.364,240.56 C100.364,241.334667 100.107333,241.936667 99.594,242.366 C99.0806667,242.795333 98.3386667,243.01 97.368,243.01 L97.368,243.01 Z M106.762,247.07 C107.35,247.07 107.889,246.967333 108.379,246.762 C108.869,246.556667 109.277333,246.258 109.604,245.866 L109.604,245.866 L109.044,245.222 C108.764,245.539333 108.432667,245.779667 108.05,245.943 C107.667333,246.106333 107.247333,246.188 106.79,246.188 C105.978,246.188 105.306,245.952333 104.774,245.481 C104.242,245.009667 103.948,244.391333 103.892,243.626 L103.892,243.626 L110.052,243.626 L110.066,243.318 C110.066,242.59 109.912,241.943667 109.604,241.379 C109.296,240.814333 108.871333,240.373333 108.33,240.056 C107.788667,239.738667 107.177333,239.58 106.496,239.58 C105.814667,239.58 105.201,239.738667 104.655,240.056 C104.109,240.373333 103.679667,240.816667 103.367,241.386 C103.054333,241.955333 102.898,242.599333 102.898,243.318 C102.898,244.036667 103.061333,244.680667 103.388,245.25 C103.714667,245.819333 104.169667,246.265 104.753,246.587 C105.336333,246.909 106.006,247.07 106.762,247.07 Z M109.114,242.884 L103.892,242.884 C103.957333,242.156 104.230333,241.565667 104.711,241.113 C105.191667,240.660333 105.786667,240.434 106.496,240.434 C107.214667,240.434 107.814333,240.660333 108.295,241.113 C108.775667,241.565667 109.048667,242.156 109.114,242.884 L109.114,242.884 Z M115.232,249.786 C116.464,249.786 117.385667,249.485 117.997,248.883 C118.608333,248.281 118.914,247.354667 118.914,246.104 L118.914,246.104 L118.914,239.636 L117.962,239.636 L117.962,241.05 C117.654,240.574 117.248,240.21 116.744,239.958 C116.24,239.706 115.675333,239.58 115.05,239.58 C114.35,239.58 113.72,239.729333 113.16,240.028 C112.6,240.326667 112.159,240.746667 111.837,241.288 C111.515,241.829333 111.354,242.445333 111.354,243.136 C111.354,243.826667 111.515,244.445 111.837,244.991 C112.159,245.537 112.602333,245.961667 113.167,246.265 C113.731667,246.568333 114.359333,246.72 115.05,246.72 C115.656667,246.72 116.209667,246.598667 116.709,246.356 C117.208333,246.113333 117.612,245.758667 117.92,245.292 L117.92,245.292 L117.92,246.23 C117.92,247.144667 117.700667,247.819 117.262,248.253 C116.823333,248.687 116.137333,248.904 115.204,248.904 C114.644,248.904 114.109667,248.815333 113.601,248.638 C113.092333,248.460667 112.660667,248.213333 112.306,247.896 L112.306,247.896 L111.802,248.652 C112.184667,249.006667 112.681667,249.284333 113.293,249.485 C113.904333,249.685667 114.550667,249.786 115.232,249.786 Z M115.148,245.838 C114.616,245.838 114.137667,245.723667 113.713,245.495 C113.288333,245.266333 112.957,244.946667 112.719,244.536 C112.481,244.125333 112.362,243.658667 112.362,243.136 C112.362,242.613333 112.481,242.146667 112.719,241.736 C112.957,241.325333 113.288333,241.008 113.713,240.784 C114.137667,240.56 114.616,240.448 115.148,240.448 C115.689333,240.448 116.172333,240.562333 116.597,240.791 C117.021667,241.019667 117.353,241.337 117.591,241.743 C117.829,242.149 117.948,242.613333 117.948,243.136 C117.948,243.658667 117.829,244.125333 117.591,244.536 C117.353,244.946667 117.019333,245.266333 116.59,245.495 C116.160667,245.723667 115.68,245.838 115.148,245.838 Z M124.738,247.07 C125.326,247.07 125.848667,246.946333 126.306,246.699 C126.763333,246.451667 127.122667,246.104 127.384,245.656 L127.384,245.656 L127.384,247 L128.336,247 L128.336,239.636 L127.342,239.636 L127.342,243.5 C127.342,244.34 127.118,244.995667 126.67,245.467 C126.222,245.938333 125.610667,246.174 124.836,246.174 C124.126667,246.174 123.580667,245.973333 123.198,245.572 C122.815333,245.170667 122.624,244.582667 122.624,243.808 L122.624,243.808 L122.624,239.636 L121.63,239.636 L121.63,243.906 C121.63,244.942 121.907667,245.728333 122.463,246.265 C123.018333,246.801667 123.776667,247.07 124.738,247.07 Z M132.116,247 L132.116,236.612 L131.122,236.612 L131.122,247 L132.116,247 Z M136.96,247.07 C137.557333,247.07 138.073,246.962667 138.507,246.748 C138.941,246.533333 139.27,246.234667 139.494,245.852 L139.494,245.852 L139.494,247 L140.446,247 L140.446,242.436 C140.446,241.493333 140.189333,240.781667 139.676,240.301 C139.162667,239.820333 138.425333,239.58 137.464,239.58 C136.885333,239.58 136.334667,239.666333 135.812,239.839 C135.289333,240.011667 134.841333,240.256667 134.468,240.574 L134.468,240.574 L134.916,241.316 C135.224,241.045333 135.592667,240.833 136.022,240.679 C136.451333,240.525 136.899333,240.448 137.366,240.448 C138.047333,240.448 138.565333,240.613667 138.92,240.945 C139.274667,241.276333 139.452,241.759333 139.452,242.394 L139.452,242.394 L139.452,242.842 L137.114,242.842 C136.124667,242.842 135.403667,243.033333 134.951,243.416 C134.498333,243.798667 134.272,244.302667 134.272,244.928 C134.272,245.572 134.514667,246.09 135,246.482 C135.485333,246.874 136.138667,247.07 136.96,247.07 Z M137.114,246.286 C136.526,246.286 136.068667,246.162333 135.742,245.915 C135.415333,245.667667 135.252,245.329333 135.252,244.9 C135.252,244.022667 135.882,243.584 137.142,243.584 L137.142,243.584 L139.452,243.584 L139.452,244.788 C139.256,245.273333 138.957333,245.644333 138.556,245.901 C138.154667,246.157667 137.674,246.286 137.114,246.286 Z M144.142,247 L144.142,243.248 C144.142,242.389333 144.361333,241.722 144.8,241.246 C145.238667,240.77 145.845333,240.532 146.62,240.532 L146.62,240.532 L146.858,240.546 L146.858,239.58 C146.176667,239.58 145.605,239.706 145.143,239.958 C144.681,240.21 144.333333,240.583333 144.1,241.078 L144.1,241.078 L144.1,239.636 L143.148,239.636 L143.148,247 L144.142,247 Z" id="Montserrat-Regular" fill="#FFFFFF"></path>
                    <path d="M11.408,274 L11.408,265.642 L15.51,272.698 L15.86,272.698 L19.962,265.614 L19.976,274 L20.676,274 L20.662,264.2 L20.074,264.2 L15.692,271.774 L11.31,264.2 L10.708,264.2 L10.708,274 L11.408,274 Z M26.724,274.056 C27.4146667,274.056 28.0376667,273.897333 28.593,273.58 C29.1483333,273.262667 29.5846667,272.821667 29.902,272.257 C30.2193333,271.692333 30.378,271.055333 30.378,270.346 C30.378,269.636667 30.2193333,268.999667 29.902,268.435 C29.5846667,267.870333 29.1483333,267.429333 28.593,267.112 C28.0376667,266.794667 27.4146667,266.636 26.724,266.636 C26.0333333,266.636 25.4103333,266.794667 24.855,267.112 C24.2996667,267.429333 23.8633333,267.870333 23.546,268.435 C23.2286667,268.999667 23.07,269.636667 23.07,270.346 C23.07,271.055333 23.2286667,271.692333 23.546,272.257 C23.8633333,272.821667 24.2996667,273.262667 24.855,273.58 C25.4103333,273.897333 26.0333333,274.056 26.724,274.056 Z M26.724,273.426 C26.164,273.426 25.6623333,273.295333 25.219,273.034 C24.7756667,272.772667 24.4256667,272.408667 24.169,271.942 C23.9123333,271.475333 23.784,270.943333 23.784,270.346 C23.784,269.748667 23.9123333,269.216667 24.169,268.75 C24.4256667,268.283333 24.7756667,267.919333 25.219,267.658 C25.6623333,267.396667 26.164,267.266 26.724,267.266 C27.284,267.266 27.7856667,267.396667 28.229,267.658 C28.6723333,267.919333 29.0223333,268.283333 29.279,268.75 C29.5356667,269.216667 29.664,269.748667 29.664,270.346 C29.664,270.943333 29.5356667,271.475333 29.279,271.942 C29.0223333,272.408667 28.6723333,272.772667 28.229,273.034 C27.7856667,273.295333 27.284,273.426 26.724,273.426 Z M33.248,274 L33.248,270.108 C33.248,269.24 33.4953333,268.549333 33.99,268.036 C34.4846667,267.522667 35.1613333,267.266 36.02,267.266 C36.7666667,267.266 37.3476667,267.480667 37.763,267.91 C38.1783333,268.339333 38.386,268.964667 38.386,269.786 L38.386,269.786 L38.386,274 L39.086,274 L39.086,269.73 C39.086,268.731333 38.82,267.966 38.288,267.434 C37.756,266.902 37.0326667,266.636 36.118,266.636 C35.4366667,266.636 34.8463333,266.780667 34.347,267.07 C33.8476667,267.359333 33.472,267.760667 33.22,268.274 L33.22,268.274 L33.22,266.692 L32.548,266.692 L32.548,274 L33.248,274 Z M44.098,274.056 C44.3873333,274.056 44.665,274.011667 44.931,273.923 C45.197,273.834333 45.4186667,273.706 45.596,273.538 L45.596,273.538 L45.302,273.048 C45.0033333,273.318667 44.6253333,273.454 44.168,273.454 C43.72,273.454 43.3816667,273.330333 43.153,273.083 C42.9243333,272.835667 42.81,272.474 42.81,271.998 L42.81,271.998 L42.81,267.294 L45.134,267.294 L45.134,266.692 L42.81,266.692 L42.81,265.096 L42.11,265.096 L42.11,266.692 L40.766,266.692 L40.766,267.294 L42.11,267.294 L42.11,272.068 C42.11,272.693333 42.2826667,273.181 42.628,273.531 C42.9733333,273.881 43.4633333,274.056 44.098,274.056 Z M49.39,274.056 C50.3046667,274.056 51.014,273.874 51.518,273.51 C52.022,273.146 52.274,272.660667 52.274,272.054 C52.274,271.596667 52.1526667,271.237333 51.91,270.976 C51.6673333,270.714667 51.371,270.525667 51.021,270.409 C50.671,270.292333 50.2113333,270.182667 49.642,270.08 C49.1286667,269.977333 48.7296667,269.881667 48.445,269.793 C48.1603333,269.704333 47.92,269.569 47.724,269.387 C47.528,269.205 47.43,268.950667 47.43,268.624 C47.43,268.213333 47.6026667,267.882 47.948,267.63 C48.2933333,267.378 48.8066667,267.252 49.488,267.252 C49.8893333,267.252 50.2813333,267.308 50.664,267.42 C51.0466667,267.532 51.3873333,267.695333 51.686,267.91 L51.686,267.91 L52.008,267.35 C51.7186667,267.135333 51.3453333,266.962667 50.888,266.832 C50.4306667,266.701333 49.9686667,266.636 49.502,266.636 C48.6153333,266.636 47.9316667,266.825 47.451,267.203 C46.9703333,267.581 46.73,268.059333 46.73,268.638 C46.73,269.114 46.856,269.487333 47.108,269.758 C47.36,270.028667 47.6633333,270.224667 48.018,270.346 C48.3726667,270.467333 48.8393333,270.579333 49.418,270.682 C49.9126667,270.775333 50.3,270.864 50.58,270.948 C50.86,271.032 51.0956667,271.162667 51.287,271.34 C51.4783333,271.517333 51.574,271.76 51.574,272.068 C51.574,272.497333 51.399,272.833333 51.049,273.076 C50.699,273.318667 50.1553333,273.44 49.418,273.44 C48.9046667,273.44 48.4123333,273.356 47.941,273.188 C47.4696667,273.02 47.0846667,272.81 46.786,272.558 L46.786,272.558 L46.464,273.118 C46.7626667,273.388667 47.178,273.612667 47.71,273.79 C48.242,273.967333 48.802,274.056 49.39,274.056 Z M57.202,274.056 C57.762,274.056 58.2823333,273.953333 58.763,273.748 C59.2436667,273.542667 59.6426667,273.248667 59.96,272.866 L59.96,272.866 L59.554,272.404 C59.2833333,272.74 58.945,272.994333 58.539,273.167 C58.133,273.339667 57.692,273.426 57.216,273.426 C56.6373333,273.426 56.117,273.304667 55.655,273.062 C55.193,272.819333 54.8266667,272.476333 54.556,272.033 C54.2853333,271.589667 54.1406667,271.083333 54.122,270.514 L54.122,270.514 L60.408,270.514 L60.422,270.318 C60.422,269.608667 60.2703333,268.974 59.967,268.414 C59.6636667,267.854 59.2483333,267.417667 58.721,267.105 C58.1936667,266.792333 57.5986667,266.636 56.936,266.636 C56.2733333,266.636 55.676,266.794667 55.144,267.112 C54.612,267.429333 54.1943333,267.870333 53.891,268.435 C53.5876667,268.999667 53.436,269.636667 53.436,270.346 C53.436,271.064667 53.597,271.704 53.919,272.264 C54.241,272.824 54.6866667,273.262667 55.256,273.58 C55.8253333,273.897333 56.474,274.056 57.202,274.056 Z M59.736,269.968 L54.136,269.968 C54.1733333,269.445333 54.3156667,268.976333 54.563,268.561 C54.8103333,268.145667 55.1393333,267.823667 55.55,267.595 C55.9606667,267.366333 56.4226667,267.252 56.936,267.252 C57.4493333,267.252 57.9113333,267.368667 58.322,267.602 C58.7326667,267.835333 59.064,268.157333 59.316,268.568 C59.568,268.978667 59.708,269.445333 59.736,269.968 L59.736,269.968 Z M63.292,274 L63.292,270.192 C63.292,269.286667 63.5206667,268.579667 63.978,268.071 C64.4353333,267.562333 65.07,267.308 65.882,267.308 L65.882,267.308 L66.05,267.322 L66.05,266.636 C65.3686667,266.636 64.79,266.778333 64.314,267.063 C63.838,267.347667 63.488,267.756 63.264,268.288 L63.264,268.288 L63.264,266.692 L62.592,266.692 L62.592,274 L63.292,274 Z M68.808,274 L68.808,270.192 C68.808,269.286667 69.0366667,268.579667 69.494,268.071 C69.9513333,267.562333 70.586,267.308 71.398,267.308 L71.398,267.308 L71.566,267.322 L71.566,266.636 C70.8846667,266.636 70.306,266.778333 69.83,267.063 C69.354,267.347667 69.004,267.756 68.78,268.288 L68.78,268.288 L68.78,266.692 L68.108,266.692 L68.108,274 L68.808,274 Z M75.598,274.056 C76.2233333,274.056 76.76,273.937 77.208,273.699 C77.656,273.461 77.9966667,273.127333 78.23,272.698 L78.23,272.698 L78.23,274 L78.902,274 L78.902,269.366 C78.902,268.47 78.6593333,267.791 78.174,267.329 C77.6886667,266.867 76.9933333,266.636 76.088,266.636 C75.528,266.636 74.9913333,266.727 74.478,266.909 C73.9646667,267.091 73.526,267.345333 73.162,267.672 L73.162,267.672 L73.512,268.176 C73.82,267.896 74.1956667,267.672 74.639,267.504 C75.0823333,267.336 75.5466667,267.252 76.032,267.252 C76.7413333,267.252 77.2803333,267.429333 77.649,267.784 C78.0176667,268.138667 78.202,268.656667 78.202,269.338 L78.202,269.338 L78.202,269.926 L75.696,269.926 C74.744,269.926 74.051,270.115 73.617,270.493 C73.183,270.871 72.966,271.363333 72.966,271.97 C72.966,272.595333 73.2016667,273.099333 73.673,273.482 C74.1443333,273.864667 74.786,274.056 75.598,274.056 Z M75.696,273.482 C75.052,273.482 74.5526667,273.344333 74.198,273.069 C73.8433333,272.793667 73.666,272.418 73.666,271.942 C73.666,271.484667 73.827,271.125333 74.149,270.864 C74.471,270.602667 74.9913333,270.472 75.71,270.472 L75.71,270.472 L78.202,270.472 L78.202,271.844 C77.9873333,272.376 77.6676667,272.782 77.243,273.062 C76.8183333,273.342 76.3026667,273.482 75.696,273.482 Z M83.914,274.056 C84.2033333,274.056 84.481,274.011667 84.747,273.923 C85.013,273.834333 85.2346667,273.706 85.412,273.538 L85.412,273.538 L85.118,273.048 C84.8193333,273.318667 84.4413333,273.454 83.984,273.454 C83.536,273.454 83.1976667,273.330333 82.969,273.083 C82.7403333,272.835667 82.626,272.474 82.626,271.998 L82.626,271.998 L82.626,267.294 L84.95,267.294 L84.95,266.692 L82.626,266.692 L82.626,265.096 L81.926,265.096 L81.926,266.692 L80.582,266.692 L80.582,267.294 L81.926,267.294 L81.926,272.068 C81.926,272.693333 82.0986667,273.181 82.444,273.531 C82.7893333,273.881 83.2793333,274.056 83.914,274.056 Z M90.34,270.556 L90.34,269.926 L86.742,269.926 L86.742,270.556 L90.34,270.556 Z M99.272,274 L99.272,273.356 L93.63,273.356 L93.63,264.2 L92.916,264.2 L92.916,274 L99.272,274 Z M101.232,264.914 C101.390667,264.914 101.526,264.858 101.638,264.746 C101.75,264.634 101.806,264.498667 101.806,264.34 C101.806,264.181333 101.75,264.048333 101.638,263.941 C101.526,263.833667 101.390667,263.78 101.232,263.78 C101.073333,263.78 100.938,263.836 100.826,263.948 C100.714,264.06 100.658,264.195333 100.658,264.354 C100.658,264.512667 100.714,264.645667 100.826,264.753 C100.938,264.860333 101.073333,264.914 101.232,264.914 Z M101.582,274 L101.582,266.692 L100.882,266.692 L100.882,274 L101.582,274 Z M107.574,276.772 C108.759333,276.772 109.646,276.482667 110.234,275.904 C110.822,275.325333 111.116,274.429333 111.116,273.216 L111.116,273.216 L111.116,266.692 L110.444,266.692 L110.444,268.344 C110.154667,267.802667 109.739333,267.382667 109.198,267.084 C108.656667,266.785333 108.05,266.636 107.378,266.636 C106.696667,266.636 106.078333,266.785333 105.523,267.084 C104.967667,267.382667 104.531333,267.802667 104.214,268.344 C103.896667,268.885333 103.738,269.496667 103.738,270.178 C103.738,270.859333 103.896667,271.470667 104.214,272.012 C104.531333,272.553333 104.967667,272.975667 105.523,273.279 C106.078333,273.582333 106.696667,273.734 107.378,273.734 C108.040667,273.734 108.638,273.589333 109.17,273.3 C109.702,273.010667 110.117333,272.6 110.416,272.068 L110.416,272.068 L110.416,273.3 C110.416,274.270667 110.182667,274.987 109.716,275.449 C109.249333,275.911 108.530667,276.142 107.56,276.142 C106.981333,276.142 106.435333,276.048667 105.922,275.862 C105.408667,275.675333 104.97,275.414 104.606,275.078 L104.606,275.078 L104.228,275.61 C104.592,275.974 105.072667,276.258667 105.67,276.464 C106.267333,276.669333 106.902,276.772 107.574,276.772 Z M107.434,273.104 C106.864667,273.104 106.353667,272.980333 105.901,272.733 C105.448333,272.485667 105.093667,272.140333 104.837,271.697 C104.580333,271.253667 104.452,270.747333 104.452,270.178 C104.452,269.608667 104.580333,269.104667 104.837,268.666 C105.093667,268.227333 105.448333,267.884333 105.901,267.637 C106.353667,267.389667 106.864667,267.266 107.434,267.266 C108.003333,267.266 108.516667,267.389667 108.974,267.637 C109.431333,267.884333 109.788333,268.227333 110.045,268.666 C110.301667,269.104667 110.43,269.608667 110.43,270.178 C110.43,270.747333 110.301667,271.253667 110.045,271.697 C109.788333,272.140333 109.431333,272.485667 108.974,272.733 C108.516667,272.980333 108.003333,273.104 107.434,273.104 Z M114.784,274 L114.784,270.108 C114.784,269.24 115.031333,268.549333 115.526,268.036 C116.020667,267.522667 116.697333,267.266 117.556,267.266 C118.302667,267.266 118.883667,267.480667 119.299,267.91 C119.714333,268.339333 119.922,268.964667 119.922,269.786 L119.922,269.786 L119.922,274 L120.622,274 L120.622,269.73 C120.622,268.731333 120.356,267.966 119.824,267.434 C119.292,266.902 118.568667,266.636 117.654,266.636 C116.982,266.636 116.398667,266.773667 115.904,267.049 C115.409333,267.324333 115.036,267.714 114.784,268.218 L114.784,268.218 L114.784,263.612 L114.084,263.612 L114.084,274 L114.784,274 Z M125.634,274.056 C125.923333,274.056 126.201,274.011667 126.467,273.923 C126.733,273.834333 126.954667,273.706 127.132,273.538 L127.132,273.538 L126.838,273.048 C126.539333,273.318667 126.161333,273.454 125.704,273.454 C125.256,273.454 124.917667,273.330333 124.689,273.083 C124.460333,272.835667 124.346,272.474 124.346,271.998 L124.346,271.998 L124.346,267.294 L126.67,267.294 L126.67,266.692 L124.346,266.692 L124.346,265.096 L123.646,265.096 L123.646,266.692 L122.302,266.692 L122.302,267.294 L123.646,267.294 L123.646,272.068 C123.646,272.693333 123.818667,273.181 124.164,273.531 C124.509333,273.881 124.999333,274.056 125.634,274.056 Z" id="Montserrat-Light" fill="#FFFFFF"></path>
                </g>
            </g>
        </g>
    </g>
</svg>