<?xml version="1.0" encoding="UTF-8"?>
<svg width="174px" height="222px" viewBox="0 0 174 222" version="1.1" xmlns="http://www.w3.org/2000/svg" xmlns:xlink="http://www.w3.org/1999/xlink">
    <title>Group 12</title>
    <g id="Page-1" stroke="none" stroke-width="1" fill="none" fill-rule="evenodd">
        <g id="Cajtel" transform="translate(-620.000000, -3451.000000)" fill="#FAFAFA" fill-rule="nonzero">
            <g id="Group" transform="translate(298.000000, 3144.000000)">
                <g id="Group-12" transform="translate(322.000000, 307.000000)">
                    <path d="M28.6,44 L28.6,43.2 C27.64,43.1466667 26.94,43.04 26.5,42.88 C26.06,42.72 25.76,42.4133333 25.6,41.96 C25.44,41.5066667 25.36,40.7733333 25.36,39.76 L25.36,39.76 L25.36,19.92 C25.36,18.9066667 25.44,18.1733333 25.6,17.72 C25.76,17.2666667 26.06,16.96 26.5,16.8 C26.94,16.64 27.64,16.5333333 28.6,16.48 L28.6,16.48 L28.6,15.68 C27.48,15.76 25.7733333,15.8 23.48,15.8 L23.0242857,15.7993878 C21.0804762,15.7940816 19.5390476,15.7542857 18.4,15.68 L18.4,15.68 L18.4,16.48 C19.36,16.5333333 20.06,16.64 20.5,16.8 C20.94,16.96 21.24,17.2666667 21.4,17.72 C21.56,18.1733333 21.64,18.9066667 21.64,19.92 L21.64,19.92 L21.64,29.36 L8.64,29.36 L8.64,19.92 C8.64,18.9066667 8.72,18.1733333 8.88,17.72 C9.04,17.2666667 9.34,16.96 9.78,16.8 C10.22,16.64 10.92,16.5333333 11.88,16.48 L11.88,16.48 L11.88,15.68 C10.6266667,15.76 8.93333333,15.8 6.8,15.8 L6.376875,15.7995313 C4.295625,15.7948437 2.73,15.755 1.68,15.68 L1.68,15.68 L1.68,16.48 C2.64,16.5333333 3.34,16.64 3.78,16.8 C4.22,16.96 4.52,17.2666667 4.68,17.72 C4.84,18.1733333 4.92,18.9066667 4.92,19.92 L4.92,19.92 L4.92,39.76 C4.92,40.7733333 4.84,41.5066667 4.68,41.96 C4.52,42.4133333 4.22,42.72 3.78,42.88 C3.34,43.04 2.64,43.1466667 1.68,43.2 L1.68,43.2 L1.68,44 C2.8,43.92 4.50666667,43.88 6.8,43.88 C8.96,43.88 10.6533333,43.92 11.88,44 L11.88,44 L11.88,43.2 C10.92,43.1466667 10.22,43.04 9.78,42.88 C9.34,42.72 9.04,42.4133333 8.88,41.96 C8.72,41.5066667 8.64,40.7733333 8.64,39.76 L8.64,39.76 L8.64,30.16 L21.64,30.16 L21.64,39.76 C21.64,40.7733333 21.56,41.5066667 21.4,41.96 C21.24,42.4133333 20.94,42.72 20.5,42.88 C20.06,43.04 19.36,43.1466667 18.4,43.2 L18.4,43.2 L18.4,44 C19.6266667,43.92 21.32,43.88 23.48,43.88 C25.7733333,43.88 27.48,43.92 28.6,44 L28.6,44 Z M40.58,44.56 C42.4466667,44.56 44.04,44.0333333 45.36,42.98 C46.68,41.9266667 47.58,40.6666667 48.06,39.2 L48.06,39.2 L47.26,38.88 C46.5933333,40.32 45.7666667,41.3466667 44.78,41.96 C43.7933333,42.5733333 42.66,42.88 41.38,42.88 C40.34,42.88 39.3466667,42.5266667 38.4,41.82 C37.4533333,41.1133333 36.6933333,40.1066667 36.12,38.8 C35.5466667,37.4933333 35.26,35.96 35.26,34.2 C35.26,33.24 35.3,32.3866667 35.38,31.64 L35.38,31.64 L47.9,31.64 C47.9,28.68 47.2533333,26.4733333 45.96,25.02 C44.6666667,23.5666667 42.82,22.84 40.42,22.84 C38.6066667,22.84 37.02,23.3 35.66,24.22 C34.3,25.14 33.2466667,26.4533333 32.5,28.16 C31.7533333,29.8666667 31.38,31.88 31.38,34.2 C31.38,36.2533333 31.7466667,38.06 32.48,39.62 C33.2133333,41.18 34.2733333,42.3933333 35.66,43.26 C37.0466667,44.1266667 38.6866667,44.56 40.58,44.56 Z M44.06,30.88 L35.34,30.88 C35.5533333,28.48 36.1133333,26.6666667 37.02,25.44 C37.9266667,24.2133333 39.0066667,23.6 40.26,23.6 C41.54,23.6 42.5066667,24.2933333 43.16,25.68 C43.8133333,27.0666667 44.1133333,28.8 44.06,30.88 L44.06,30.88 Z M66,44.28 C66.7466667,44.28 67.3666667,44.1666667 67.86,43.94 C68.3533333,43.7133333 68.9466667,43.3333333 69.64,42.8 L69.64,42.8 L69.2,42.12 C68.88,42.3866667 68.58,42.5933333 68.3,42.74 C68.02,42.8866667 67.72,42.96 67.4,42.96 C66.9466667,42.96 66.6266667,42.8133333 66.44,42.52 C66.2533333,42.2266667 66.16,41.7466667 66.16,41.08 L66.16,41.08 L66.16,29.96 C66.16,28.5466667 66.0466667,27.4066667 65.82,26.54 C65.5933333,25.6733333 65.1466667,24.9333333 64.48,24.32 C63.4133333,23.3333333 61.84,22.84 59.76,22.84 C58.5866667,22.84 57.5066667,22.9866667 56.52,23.28 C55.5333333,23.5733333 54.72,23.9466667 54.08,24.4 C53.4666667,24.8266667 53.0066667,25.2533333 52.7,25.68 C52.3933333,26.1066667 52.24,26.64 52.24,27.28 C52.24,27.9466667 52.4266667,28.5133333 52.8,28.98 C53.1733333,29.4466667 53.7333333,29.68 54.48,29.68 C55.1466667,29.68 55.6933333,29.4866667 56.12,29.1 C56.5466667,28.7133333 56.76,28.1866667 56.76,27.52 C56.76,26.88 56.58,26.3466667 56.22,25.92 C55.86,25.4933333 55.4133333,25.2133333 54.88,25.08 C55.6533333,24.12 56.9733333,23.64 58.84,23.64 C60.0133333,23.64 60.9266667,23.9266667 61.58,24.5 C62.2333333,25.0733333 62.56,26.1333333 62.56,27.68 L62.56,27.68 L62.56,30.16 C62.56,30.88 62.2,31.4533333 61.48,31.88 C60.76,32.3066667 59.6533333,32.7733333 58.16,33.28 C56.6933333,33.7866667 55.5133333,34.2666667 54.62,34.72 C53.7266667,35.1733333 52.9533333,35.7866667 52.3,36.56 C51.6466667,37.3333333 51.32,38.32 51.32,39.52 C51.32,41.0133333 51.7266667,42.18 52.54,43.02 C53.3533333,43.86 54.6,44.28 56.28,44.28 C57.5866667,44.28 58.76,44.02 59.8,43.5 C60.84,42.98 61.76,42.0533333 62.56,40.72 C62.56,41.8133333 62.8133333,42.68 63.32,43.32 C63.8266667,43.96 64.72,44.28 66,44.28 Z M58.04,42.68 C57.08,42.68 56.3066667,42.3733333 55.72,41.76 C55.1333333,41.1466667 54.84,40.24 54.84,39.04 C54.84,38 55.0666667,37.1466667 55.52,36.48 C55.9733333,35.8133333 56.5133333,35.2866667 57.14,34.9 C57.7666667,34.5133333 58.5866667,34.1066667 59.6,33.68 C60.48,33.28 61.1333333,32.96 61.56,32.72 C61.9866667,32.48 62.32,32.1733333 62.56,31.8 L62.56,31.8 L62.56,39.64 C61.3066667,41.6666667 59.8,42.68 58.04,42.68 Z M79.74,44.56 C81.1266667,44.56 82.3,44.2466667 83.26,43.62 C84.22,42.9933333 84.94,42.08 85.42,40.88 L85.42,40.88 L85.42,44.44 C86.5133333,44.0666667 87.9,43.88 89.58,43.88 C90.4066667,43.88 91.2333333,43.92 92.06,44 L92.06,44 L92.06,43.16 C90.94,43.16 90.1533333,42.88 89.7,42.32 C89.2466667,41.76 89.02,40.8666667 89.02,39.64 L89.02,39.64 L89.02,12.64 C87.9266667,13.0133333 86.54,13.2 84.86,13.2 C84.06,13.2 83.2333333,13.16 82.38,13.08 L82.38,13.08 L82.38,13.92 C83.5,13.92 84.2866667,14.2 84.74,14.76 C85.1933333,15.32 85.42,16.2133333 85.42,17.44 L85.42,17.44 L85.42,25.2 C84.9133333,24.4 84.24,23.8066667 83.4,23.42 C82.56,23.0333333 81.6333333,22.84 80.62,22.84 C78.9666667,22.84 77.4533333,23.2533333 76.08,24.08 C74.7066667,24.9066667 73.6133333,26.14 72.8,27.78 C71.9866667,29.42 71.58,31.4 71.58,33.72 C71.5533333,37.2666667 72.2666667,39.96 73.72,41.8 C75.1733333,43.64 77.18,44.56 79.74,44.56 Z M80.9,43.36 C79.1133333,43.36 77.7533333,42.5533333 76.82,40.94 C75.8866667,39.3266667 75.4333333,36.92 75.46,33.72 C75.4333333,30.4666667 75.9266667,27.9933333 76.94,26.3 C77.9533333,24.6066667 79.2866667,23.76 80.94,23.76 C83.2066667,23.76 84.7,24.7866667 85.42,26.84 L85.42,26.84 L85.42,38.76 C85.1,40.2266667 84.5266667,41.36 83.7,42.16 C82.8733333,42.96 81.94,43.36 80.9,43.36 Z M98.6,18.52 C99.2933333,18.52 99.8933333,18.2666667 100.4,17.76 C100.906667,17.2533333 101.16,16.6533333 101.16,15.96 C101.16,15.2666667 100.906667,14.6666667 100.4,14.16 C99.8933333,13.6533333 99.2933333,13.4 98.6,13.4 C97.9066667,13.4 97.3066667,13.6533333 96.8,14.16 C96.2933333,14.6666667 96.04,15.2666667 96.04,15.96 C96.04,16.6533333 96.2933333,17.2533333 96.8,17.76 C97.3066667,18.2666667 97.9066667,18.52 98.6,18.52 Z M103.72,44 L103.72,43.16 C102.6,43.16 101.813333,42.9533333 101.36,42.54 C100.906667,42.1266667 100.68,41.3733333 100.68,40.28 L100.68,40.28 L100.68,22.96 C99.5866667,23.3333333 98.2,23.52 96.52,23.52 C95.72,23.52 94.8933333,23.48 94.04,23.4 L94.04,23.4 L94.04,24.24 C95.16,24.24 95.9466667,24.52 96.4,25.08 C96.8533333,25.64 97.08,26.5333333 97.08,27.76 L97.08,27.76 L97.08,40.28 C97.08,41.3733333 96.8533333,42.1266667 96.4,42.54 C95.9466667,42.9533333 95.16,43.16 94.04,43.16 L94.04,43.16 L94.04,44 C96.4933333,43.8933333 98.1066667,43.84 98.88,43.84 C99.6533333,43.84 101.266667,43.8933333 103.72,44 L103.72,44 Z M127.86,44 L127.86,43.16 C126.74,43.16 125.953333,42.9533333 125.5,42.54 C125.046667,42.1266667 124.82,41.3733333 124.82,40.28 L124.82,40.28 L124.82,29.6 C124.82,28.24 124.713333,27.16 124.5,26.36 C124.286667,25.56 123.926667,24.8933333 123.42,24.36 C122.46,23.3466667 121.046667,22.84 119.18,22.84 C117.686667,22.84 116.346667,23.22 115.16,23.98 C113.973333,24.74 113.046667,25.9733333 112.38,27.68 L112.38,27.68 L112.38,22.96 C111.286667,23.3333333 109.9,23.52 108.22,23.52 C107.42,23.52 106.593333,23.48 105.74,23.4 L105.74,23.4 L105.74,24.24 C106.86,24.24 107.646667,24.52 108.1,25.08 C108.553333,25.64 108.78,26.5333333 108.78,27.76 L108.78,27.76 L108.78,40.28 C108.78,41.3733333 108.553333,42.1266667 108.1,42.54 C107.646667,42.9533333 106.86,43.16 105.74,43.16 L105.74,43.16 L105.74,44 C108.193333,43.8933333 109.793333,43.84 110.54,43.84 C111.286667,43.84 112.78,43.8933333 115.02,44 L115.02,44 L115.02,43.16 C114.033333,43.16 113.346667,42.9533333 112.96,42.54 C112.573333,42.1266667 112.38,41.3733333 112.38,40.28 L112.38,40.28 L112.38,31.4 C112.38,30.04 112.613333,28.8066667 113.08,27.7 C113.546667,26.5933333 114.206667,25.72 115.06,25.08 C115.913333,24.44 116.886667,24.12 117.98,24.12 C119.286667,24.12 120.153333,24.5133333 120.58,25.3 C121.006667,26.0866667 121.22,27.2266667 121.22,28.72 L121.22,28.72 L121.22,40.28 C121.22,41.3733333 121.026667,42.1266667 120.64,42.54 C120.253333,42.9533333 119.566667,43.16 118.58,43.16 L118.58,43.16 L118.58,44 C120.82,43.8933333 122.313333,43.84 123.06,43.84 C123.806667,43.84 125.406667,43.8933333 127.86,44 L127.86,44 Z M136.56,51.52 C138.826667,51.52 140.76,51.1866667 142.36,50.52 C143.96,49.8533333 145.173333,48.9733333 146,47.88 C146.826667,46.7866667 147.24,45.6 147.24,44.32 C147.24,42.7466667 146.646667,41.5666667 145.46,40.78 C144.273333,39.9933333 142.773333,39.6 140.96,39.6 L140.96,39.6 L135.96,39.6 C134.68,39.6 134.04,39.1733333 134.04,38.32 C134.04,37.7866667 134.266667,37.3066667 134.72,36.88 C135.173333,36.4533333 135.84,35.9866667 136.72,35.48 L136.72,35.48 L136.76,35.48 C138.866667,35.48 140.56,34.9533333 141.84,33.9 C143.12,32.8466667 143.76,31.2666667 143.76,29.16 C143.76,27.72 143.453333,26.5333333 142.84,25.6 C143.16,25.0666667 143.52,24.62 143.92,24.26 C144.32,23.9 144.866667,23.5733333 145.56,23.28 C145.293333,23.9733333 145.16,24.5866667 145.16,25.12 C145.16,25.7333333 145.326667,26.2 145.66,26.52 C145.993333,26.84 146.4,27 146.88,27 C147.386667,27 147.846667,26.8133333 148.26,26.44 C148.673333,26.0666667 148.88,25.5066667 148.88,24.76 C148.88,24.0133333 148.666667,23.44 148.24,23.04 C147.813333,22.64 147.253333,22.44 146.56,22.44 C145.786667,22.44 145.013333,22.6733333 144.24,23.14 C143.466667,23.6066667 142.826667,24.2 142.32,24.92 C141.12,23.5333333 139.266667,22.84 136.76,22.84 C134.653333,22.84 132.96,23.3666667 131.68,24.42 C130.4,25.4733333 129.76,27.0533333 129.76,29.16 C129.76,31.0533333 130.286667,32.52 131.34,33.56 C132.393333,34.6 133.8,35.2133333 135.56,35.4 C134.173333,36.12 133.18,36.8533333 132.58,37.6 C131.98,38.3466667 131.68,39.1333333 131.68,39.96 C131.68,41.16 132.153333,41.96 133.1,42.36 C134.046667,42.76 135.306667,42.96 136.88,42.96 L136.88,42.96 L139.84,42.96 C141.573333,42.96 142.78,43.2266667 143.46,43.76 C144.14,44.2933333 144.48,45.04 144.48,46 C144.48,47.6533333 143.746667,48.8733333 142.28,49.66 C140.813333,50.4466667 139.053333,50.84 137,50.84 C135.133333,50.84 133.646667,50.5133333 132.54,49.86 C131.433333,49.2066667 130.88,48.2666667 130.88,47.04 C130.88,46.3466667 131.053333,45.72 131.4,45.16 C131.746667,44.6 132.213333,44.2266667 132.8,44.04 L132.8,44.04 L132.56,43.4 C131.253333,43.7733333 130.233333,44.2933333 129.5,44.96 C128.766667,45.6266667 128.4,46.4133333 128.4,47.32 C128.4,48.7066667 129.18,49.7533333 130.74,50.46 C132.3,51.1666667 134.24,51.52 136.56,51.52 Z M136.76,34.76 C135.693333,34.76 134.886667,34.34 134.34,33.5 C133.793333,32.66 133.52,31.2133333 133.52,29.16 C133.52,27.1066667 133.793333,25.66 134.34,24.82 C134.886667,23.98 135.693333,23.56 136.76,23.56 C137.826667,23.56 138.633333,23.98 139.18,24.82 C139.726667,25.66 140,27.1066667 140,29.16 C140,31.2133333 139.726667,32.66 139.18,33.5 C138.633333,34.34 137.826667,34.76 136.76,34.76 Z M173.04,44 L173.04,43.16 C171.626667,43.16 170.633333,42.9266667 170.06,42.46 C169.486667,41.9933333 169.2,41.1333333 169.2,39.88 L169.2,39.88 L169.2,22.96 C168.186667,23.68 167.046667,24.1866667 165.78,24.48 C164.513333,24.7733333 162.906667,24.9466667 160.96,25 L160.96,25 L160.96,25.88 C162.266667,25.88 163.233333,25.98 163.86,26.18 C164.486667,26.38 164.933333,26.78 165.2,27.38 C165.466667,27.98 165.6,28.92 165.6,30.2 L165.6,30.2 L165.6,39.88 C165.6,41.1066667 165.246667,41.96 164.54,42.44 C163.833333,42.92 162.773333,43.16 161.36,43.16 L161.36,43.16 L161.36,44 L162.32,43.96 C165.04,43.88 166.773333,43.84 167.52,43.84 C168.32,43.84 170.16,43.8933333 173.04,44 L173.04,44 Z" id="Heading1"></path>
                    <path d="M4.7,124 L4.7,115.925 L15.65,115.925 L15.65,124 L17.475,124 L17.475,106.5 L15.65,106.5 L15.65,114.3 L4.7,114.3 L4.7,106.5 L2.85,106.5 L2.85,124 L4.7,124 Z M28.359375,124.125 C29.409375,124.125 30.371875,123.941667 31.246875,123.575 C32.121875,123.208333 32.8510417,122.675 33.434375,121.975 L33.434375,121.975 L32.434375,120.825 C31.934375,121.391667 31.3427083,121.820833 30.659375,122.1125 C29.9760417,122.404167 29.2260417,122.55 28.409375,122.55 C26.959375,122.55 25.759375,122.129167 24.809375,121.2875 C23.859375,120.445833 23.334375,119.341667 23.234375,117.975 L23.234375,117.975 L34.234375,117.975 L34.259375,117.425 C34.259375,116.125 33.984375,114.970833 33.434375,113.9625 C32.884375,112.954167 32.1260417,112.166667 31.159375,111.6 C30.1927083,111.033333 29.1010417,110.75 27.884375,110.75 C26.6677083,110.75 25.571875,111.033333 24.596875,111.6 C23.621875,112.166667 22.8552083,112.958333 22.296875,113.975 C21.7385417,114.991667 21.459375,116.141667 21.459375,117.425 C21.459375,118.708333 21.7510417,119.858333 22.334375,120.875 C22.9177083,121.891667 23.7302083,122.6875 24.771875,123.2625 C25.8135417,123.8375 27.009375,124.125 28.359375,124.125 Z M32.559375,116.65 L23.234375,116.65 C23.3510417,115.35 23.8385417,114.295833 24.696875,113.4875 C25.5552083,112.679167 26.6177083,112.275 27.884375,112.275 C29.1677083,112.275 30.2385417,112.679167 31.096875,113.4875 C31.9552083,114.295833 32.4427083,115.35 32.559375,116.65 L32.559375,116.65 Z M41.19375,124.125 C42.2604167,124.125 43.18125,123.933333 43.95625,123.55 C44.73125,123.166667 45.31875,122.633333 45.71875,121.95 L45.71875,121.95 L45.71875,124 L47.41875,124 L47.41875,115.85 C47.41875,114.166667 46.9604167,112.895833 46.04375,112.0375 C45.1270833,111.179167 43.8104167,110.75 42.09375,110.75 C41.0604167,110.75 40.0770833,110.904167 39.14375,111.2125 C38.2104167,111.520833 37.4104167,111.958333 36.74375,112.525 L36.74375,112.525 L37.54375,113.85 C38.09375,113.366667 38.7520833,112.9875 39.51875,112.7125 C40.2854167,112.4375 41.0854167,112.3 41.91875,112.3 C43.1354167,112.3 44.0604167,112.595833 44.69375,113.1875 C45.3270833,113.779167 45.64375,114.641667 45.64375,115.775 L45.64375,115.775 L45.64375,116.575 L41.46875,116.575 C39.7020833,116.575 38.4145833,116.916667 37.60625,117.6 C36.7979167,118.283333 36.39375,119.183333 36.39375,120.3 C36.39375,121.45 36.8270833,122.375 37.69375,123.075 C38.5604167,123.775 39.7270833,124.125 41.19375,124.125 Z M41.46875,122.725 C40.41875,122.725 39.6020833,122.504167 39.01875,122.0625 C38.4354167,121.620833 38.14375,121.016667 38.14375,120.25 C38.14375,118.683333 39.26875,117.9 41.51875,117.9 L41.51875,117.9 L45.64375,117.9 L45.64375,120.05 C45.29375,120.916667 44.7604167,121.579167 44.04375,122.0375 C43.3270833,122.495833 42.46875,122.725 41.46875,122.725 Z M57.503125,124.125 C58.603125,124.125 59.590625,123.891667 60.465625,123.425 C61.340625,122.958333 62.0447917,122.283333 62.578125,121.4 L62.578125,121.4 L62.578125,124 L64.278125,124 L64.278125,105.45 L62.503125,105.45 L62.503125,113.35 C61.953125,112.5 61.2489583,111.854167 60.390625,111.4125 C59.5322917,110.970833 58.5697917,110.75 57.503125,110.75 C56.2697917,110.75 55.153125,111.029167 54.153125,111.5875 C53.153125,112.145833 52.3697917,112.933333 51.803125,113.95 C51.2364583,114.966667 50.953125,116.125 50.953125,117.425 C50.953125,118.725 51.2364583,119.883333 51.803125,120.9 C52.3697917,121.916667 53.153125,122.708333 54.153125,123.275 C55.153125,123.841667 56.2697917,124.125 57.503125,124.125 Z M57.653125,122.55 C56.7197917,122.55 55.8822917,122.3375 55.140625,121.9125 C54.3989583,121.4875 53.815625,120.883333 53.390625,120.1 C52.965625,119.316667 52.753125,118.425 52.753125,117.425 C52.753125,116.425 52.965625,115.533333 53.390625,114.75 C53.815625,113.966667 54.3989583,113.3625 55.140625,112.9375 C55.8822917,112.5125 56.7197917,112.3 57.653125,112.3 C58.5697917,112.3 59.3989583,112.5125 60.140625,112.9375 C60.8822917,113.3625 61.465625,113.966667 61.890625,114.75 C62.315625,115.533333 62.528125,116.425 62.528125,117.425 C62.528125,118.425 62.315625,119.316667 61.890625,120.1 C61.465625,120.883333 60.8822917,121.4875 60.140625,121.9125 C59.3989583,122.3375 58.5697917,122.55 57.653125,122.55 Z M70.1125,107.975 C70.4791667,107.975 70.7875,107.85 71.0375,107.6 C71.2875,107.35 71.4125,107.041667 71.4125,106.675 C71.4125,106.341667 71.2875,106.054167 71.0375,105.8125 C70.7875,105.570833 70.4791667,105.45 70.1125,105.45 C69.7458333,105.45 69.4375,105.575 69.1875,105.825 C68.9375,106.075 68.8125,106.366667 68.8125,106.7 C68.8125,107.05 68.9375,107.35 69.1875,107.6 C69.4375,107.85 69.7458333,107.975 70.1125,107.975 Z M70.9875,124 L70.9875,110.85 L69.2125,110.85 L69.2125,124 L70.9875,124 Z M77.696875,124 L77.696875,117.1 C77.696875,115.616667 78.109375,114.454167 78.934375,113.6125 C79.759375,112.770833 80.8802083,112.35 82.296875,112.35 C83.5635417,112.35 84.5385417,112.708333 85.221875,113.425 C85.9052083,114.141667 86.246875,115.183333 86.246875,116.55 L86.246875,116.55 L86.246875,124 L88.021875,124 L88.021875,116.375 C88.021875,114.541667 87.534375,113.145833 86.559375,112.1875 C85.584375,111.229167 84.271875,110.75 82.621875,110.75 C81.4885417,110.75 80.4927083,110.970833 79.634375,111.4125 C78.7760417,111.854167 78.1052083,112.475 77.621875,113.275 L77.621875,113.275 L77.621875,110.85 L75.921875,110.85 L75.921875,124 L77.696875,124 Z M98.48125,128.975 C100.68125,128.975 102.327083,128.4375 103.41875,127.3625 C104.510417,126.2875 105.05625,124.633333 105.05625,122.4 L105.05625,122.4 L105.05625,110.85 L103.35625,110.85 L103.35625,113.375 C102.80625,112.525 102.08125,111.875 101.18125,111.425 C100.28125,110.975 99.2729167,110.75 98.15625,110.75 C96.90625,110.75 95.78125,111.016667 94.78125,111.55 C93.78125,112.083333 92.99375,112.833333 92.41875,113.8 C91.84375,114.766667 91.55625,115.866667 91.55625,117.1 C91.55625,118.333333 91.84375,119.4375 92.41875,120.4125 C92.99375,121.3875 93.7854167,122.145833 94.79375,122.6875 C95.8020833,123.229167 96.9229167,123.5 98.15625,123.5 C99.2395833,123.5 100.227083,123.283333 101.11875,122.85 C102.010417,122.416667 102.73125,121.783333 103.28125,120.95 L103.28125,120.95 L103.28125,122.625 C103.28125,124.258333 102.889583,125.4625 102.10625,126.2375 C101.322917,127.0125 100.097917,127.4 98.43125,127.4 C97.43125,127.4 96.4770833,127.241667 95.56875,126.925 C94.6604167,126.608333 93.8895833,126.166667 93.25625,125.6 L93.25625,125.6 L92.35625,126.95 C93.0395833,127.583333 93.9270833,128.079167 95.01875,128.4375 C96.1104167,128.795833 97.2645833,128.975 98.48125,128.975 Z M98.33125,121.925 C97.38125,121.925 96.5270833,121.720833 95.76875,121.3125 C95.0104167,120.904167 94.41875,120.333333 93.99375,119.6 C93.56875,118.866667 93.35625,118.033333 93.35625,117.1 C93.35625,116.166667 93.56875,115.333333 93.99375,114.6 C94.41875,113.866667 95.0104167,113.3 95.76875,112.9 C96.5270833,112.5 97.38125,112.3 98.33125,112.3 C99.2979167,112.3 100.160417,112.504167 100.91875,112.9125 C101.677083,113.320833 102.26875,113.8875 102.69375,114.6125 C103.11875,115.3375 103.33125,116.166667 103.33125,117.1 C103.33125,118.033333 103.11875,118.866667 102.69375,119.6 C102.26875,120.333333 101.672917,120.904167 100.90625,121.3125 C100.139583,121.720833 99.28125,121.925 98.33125,121.925 Z M127.325,124 L127.325,122.4 L117.7,122.4 L123.65,116.55 C124.766667,115.466667 125.525,114.508333 125.925,113.675 C126.325,112.841667 126.525,111.975 126.525,111.075 C126.525,109.608333 126.004167,108.454167 124.9625,107.6125 C123.920833,106.770833 122.508333,106.35 120.725,106.35 C119.391667,106.35 118.195833,106.566667 117.1375,107 C116.079167,107.433333 115.208333,108.05 114.525,108.85 L114.525,108.85 L115.8,109.95 C116.933333,108.65 118.525,108 120.575,108 C121.891667,108 122.904167,108.2875 123.6125,108.8625 C124.320833,109.4375 124.675,110.241667 124.675,111.275 C124.675,111.941667 124.5125,112.604167 124.1875,113.2625 C123.8625,113.920833 123.241667,114.7 122.325,115.6 L122.325,115.6 L115.05,122.725 L115.05,124 L127.325,124 Z" id="Heading2"></path>
                    <path d="M3.76,207 L3.76,200.54 L12.52,200.54 L12.52,207 L13.98,207 L13.98,193 L12.52,193 L12.52,199.24 L3.76,199.24 L3.76,193 L2.28,193 L2.28,207 L3.76,207 Z M22.6875,207.1 C23.5275,207.1 24.2975,206.953333 24.9975,206.66 C25.6975,206.366667 26.2808333,205.94 26.7475,205.38 L26.7475,205.38 L25.9475,204.46 C25.5475,204.913333 25.0741667,205.256667 24.5275,205.49 C23.9808333,205.723333 23.3808333,205.84 22.7275,205.84 C21.5675,205.84 20.6075,205.503333 19.8475,204.83 C19.0875,204.156667 18.6675,203.273333 18.5875,202.18 L18.5875,202.18 L27.3875,202.18 L27.4075,201.74 C27.4075,200.7 27.1875,199.776667 26.7475,198.97 C26.3075,198.163333 25.7008333,197.533333 24.9275,197.08 C24.1541667,196.626667 23.2808333,196.4 22.3075,196.4 C21.3341667,196.4 20.4575,196.626667 19.6775,197.08 C18.8975,197.533333 18.2841667,198.166667 17.8375,198.98 C17.3908333,199.793333 17.1675,200.713333 17.1675,201.74 C17.1675,202.766667 17.4008333,203.686667 17.8675,204.5 C18.3341667,205.313333 18.9841667,205.95 19.8175,206.41 C20.6508333,206.87 21.6075,207.1 22.6875,207.1 Z M26.0475,201.12 L18.5875,201.12 C18.6808333,200.08 19.0708333,199.236667 19.7575,198.59 C20.4441667,197.943333 21.2941667,197.62 22.3075,197.62 C23.3341667,197.62 24.1908333,197.943333 24.8775,198.59 C25.5641667,199.236667 25.9541667,200.08 26.0475,201.12 L26.0475,201.12 Z M32.955,207.1 C33.8083333,207.1 34.545,206.946667 35.165,206.64 C35.785,206.333333 36.255,205.906667 36.575,205.36 L36.575,205.36 L36.575,207 L37.935,207 L37.935,200.48 C37.935,199.133333 37.5683333,198.116667 36.835,197.43 C36.1016667,196.743333 35.0483333,196.4 33.675,196.4 C32.8483333,196.4 32.0616667,196.523333 31.315,196.77 C30.5683333,197.016667 29.9283333,197.366667 29.395,197.82 L29.395,197.82 L30.035,198.88 C30.475,198.493333 31.0016667,198.19 31.615,197.97 C32.2283333,197.75 32.8683333,197.64 33.535,197.64 C34.5083333,197.64 35.2483333,197.876667 35.755,198.35 C36.2616667,198.823333 36.515,199.513333 36.515,200.42 L36.515,200.42 L36.515,201.06 L33.175,201.06 C31.7616667,201.06 30.7316667,201.333333 30.085,201.88 C29.4383333,202.426667 29.115,203.146667 29.115,204.04 C29.115,204.96 29.4616667,205.7 30.155,206.26 C30.8483333,206.82 31.7816667,207.1 32.955,207.1 Z M33.175,205.98 C32.335,205.98 31.6816667,205.803333 31.215,205.45 C30.7483333,205.096667 30.515,204.613333 30.515,204 C30.515,202.746667 31.415,202.12 33.215,202.12 L33.215,202.12 L36.515,202.12 L36.515,203.84 C36.235,204.533333 35.8083333,205.063333 35.235,205.43 C34.6616667,205.796667 33.975,205.98 33.175,205.98 Z M46.0025,207.1 C46.8825,207.1 47.6725,206.913333 48.3725,206.54 C49.0725,206.166667 49.6358333,205.626667 50.0625,204.92 L50.0625,204.92 L50.0625,207 L51.4225,207 L51.4225,192.16 L50.0025,192.16 L50.0025,198.48 C49.5625,197.8 48.9991667,197.283333 48.3125,196.93 C47.6258333,196.576667 46.8558333,196.4 46.0025,196.4 C45.0158333,196.4 44.1225,196.623333 43.3225,197.07 C42.5225,197.516667 41.8958333,198.146667 41.4425,198.96 C40.9891667,199.773333 40.7625,200.7 40.7625,201.74 C40.7625,202.78 40.9891667,203.706667 41.4425,204.52 C41.8958333,205.333333 42.5225,205.966667 43.3225,206.42 C44.1225,206.873333 45.0158333,207.1 46.0025,207.1 Z M46.1225,205.84 C45.3758333,205.84 44.7058333,205.67 44.1125,205.33 C43.5191667,204.99 43.0525,204.506667 42.7125,203.88 C42.3725,203.253333 42.2025,202.54 42.2025,201.74 C42.2025,200.94 42.3725,200.226667 42.7125,199.6 C43.0525,198.973333 43.5191667,198.49 44.1125,198.15 C44.7058333,197.81 45.3758333,197.64 46.1225,197.64 C46.8558333,197.64 47.5191667,197.81 48.1125,198.15 C48.7058333,198.49 49.1725,198.973333 49.5125,199.6 C49.8525,200.226667 50.0225,200.94 50.0225,201.74 C50.0225,202.54 49.8525,203.253333 49.5125,203.88 C49.1725,204.506667 48.7058333,204.99 48.1125,205.33 C47.5191667,205.67 46.8558333,205.84 46.1225,205.84 Z M56.09,194.18 C56.3833333,194.18 56.63,194.08 56.83,193.88 C57.03,193.68 57.13,193.433333 57.13,193.14 C57.13,192.873333 57.03,192.643333 56.83,192.45 C56.63,192.256667 56.3833333,192.16 56.09,192.16 C55.7966667,192.16 55.55,192.26 55.35,192.46 C55.15,192.66 55.05,192.893333 55.05,193.16 C55.05,193.44 55.15,193.68 55.35,193.88 C55.55,194.08 55.7966667,194.18 56.09,194.18 Z M56.79,207 L56.79,196.48 L55.37,196.48 L55.37,207 L56.79,207 Z M62.1575,207 L62.1575,201.48 C62.1575,200.293333 62.4875,199.363333 63.1475,198.69 C63.8075,198.016667 64.7041667,197.68 65.8375,197.68 C66.8508333,197.68 67.6308333,197.966667 68.1775,198.54 C68.7241667,199.113333 68.9975,199.946667 68.9975,201.04 L68.9975,201.04 L68.9975,207 L70.4175,207 L70.4175,200.9 C70.4175,199.433333 70.0275,198.316667 69.2475,197.55 C68.4675,196.783333 67.4175,196.4 66.0975,196.4 C65.1908333,196.4 64.3941667,196.576667 63.7075,196.93 C63.0208333,197.283333 62.4841667,197.78 62.0975,198.42 L62.0975,198.42 L62.0975,196.48 L60.7375,196.48 L60.7375,207 L62.1575,207 Z M78.785,210.98 C80.545,210.98 81.8616667,210.55 82.735,209.69 C83.6083333,208.83 84.045,207.506667 84.045,205.72 L84.045,205.72 L84.045,196.48 L82.685,196.48 L82.685,198.5 C82.245,197.82 81.665,197.3 80.945,196.94 C80.225,196.58 79.4183333,196.4 78.525,196.4 C77.525,196.4 76.625,196.613333 75.825,197.04 C75.025,197.466667 74.395,198.066667 73.935,198.84 C73.475,199.613333 73.245,200.493333 73.245,201.48 C73.245,202.466667 73.475,203.35 73.935,204.13 C74.395,204.91 75.0283333,205.516667 75.835,205.95 C76.6416667,206.383333 77.5383333,206.6 78.525,206.6 C79.3916667,206.6 80.1816667,206.426667 80.895,206.08 C81.6083333,205.733333 82.185,205.226667 82.625,204.56 L82.625,204.56 L82.625,205.9 C82.625,207.206667 82.3116667,208.17 81.685,208.79 C81.0583333,209.41 80.0783333,209.72 78.745,209.72 C77.945,209.72 77.1816667,209.593333 76.455,209.34 C75.7283333,209.086667 75.1116667,208.733333 74.605,208.28 L74.605,208.28 L73.885,209.36 C74.4316667,209.866667 75.1416667,210.263333 76.015,210.55 C76.8883333,210.836667 77.8116667,210.98 78.785,210.98 Z M78.665,205.34 C77.905,205.34 77.2216667,205.176667 76.615,204.85 C76.0083333,204.523333 75.535,204.066667 75.195,203.48 C74.855,202.893333 74.685,202.226667 74.685,201.48 C74.685,200.733333 74.855,200.066667 75.195,199.48 C75.535,198.893333 76.0083333,198.44 76.615,198.12 C77.2216667,197.8 77.905,197.64 78.665,197.64 C79.4383333,197.64 80.1283333,197.803333 80.735,198.13 C81.3416667,198.456667 81.815,198.91 82.155,199.49 C82.495,200.07 82.665,200.733333 82.665,201.48 C82.665,202.226667 82.495,202.893333 82.155,203.48 C81.815,204.066667 81.3383333,204.523333 80.725,204.85 C80.1116667,205.176667 79.425,205.34 78.665,205.34 Z M96.48,207.12 C97.5733333,207.12 98.5,206.94 99.26,206.58 C100.02,206.22 100.593333,205.73 100.98,205.11 C101.366667,204.49 101.56,203.78 101.56,202.98 C101.56,201.833333 101.176667,200.903333 100.41,200.19 C99.6433333,199.476667 98.5266667,199.08 97.06,199 L97.06,199 L101.02,194.02 L101.02,193 L92.02,193 L92.02,194.28 L99.18,194.28 L95.3,199.14 L95.3,200.2 L96.3,200.2 C97.5666667,200.2 98.5133333,200.446667 99.14,200.94 C99.7666667,201.433333 100.08,202.113333 100.08,202.98 C100.08,203.86 99.7666667,204.55 99.14,205.05 C98.5133333,205.55 97.6266667,205.8 96.48,205.8 C95.6,205.8 94.7733333,205.65 94,205.35 C93.2266667,205.05 92.6066667,204.66 92.14,204.18 L92.14,204.18 L91.44,205.32 C91.9866667,205.866667 92.71,206.303333 93.61,206.63 C94.51,206.956667 95.4666667,207.12 96.48,207.12 Z" id="Heading3"></path>
                </g>
            </g>
        </g>
    </g>
</svg>