<?xml version="1.0" encoding="UTF-8"?>
<svg width="1203px" height="194px" viewBox="0 0 1203 194" version="1.1" xmlns="http://www.w3.org/2000/svg" xmlns:xlink="http://www.w3.org/1999/xlink">
    <title>CONTACT</title>
    <g id="Page-1" stroke="none" stroke-width="1" fill="none" fill-rule="evenodd" opacity="0.02">
        <g id="main" transform="translate(-715.000000, -9099.000000)" fill="#FFFFFF" fill-rule="nonzero">
            <path d="M809.1,9292.12 C833.28,9292.12 854.6,9284.58 869.16,9272.88 L837.44,9215.68 C829.9,9221.92 821.58,9225.04 811.7,9225.04 C794.28,9225.04 783.36,9214.12 783.36,9197.74 C783.36,9182.4 795.32,9170.96 811.96,9170.96 C820.54,9170.96 828.6,9174.08 835.1,9179.54 L869.16,9122.86 C853.04,9110.64 832.24,9103.88 811.7,9103.88 C754.5,9103.88 715.5,9142.1 715.5,9198.26 C715.5,9254.68 753.98,9292.12 809.1,9292.12 Z M965.1,9292.12 C1018.92,9292.12 1058.7,9252.34 1058.7,9197.74 C1058.7,9143.66 1018.92,9103.88 964.84,9103.88 C910.24,9103.88 870.46,9143.66 870.46,9197.74 C870.46,9252.34 910.24,9292.12 965.1,9292.12 Z M1174.66,9107 L1174.66,9194.88 L1080.8,9102.32 L1080.8,9289 L1239.66,9289 L1239.66,9107 L1174.66,9107 Z M1421.92,9107 L1262.54,9107 L1262.54,9170.96 L1311.94,9170.96 L1311.94,9289 L1376.94,9289 L1376.94,9170.96 L1421.92,9170.96 L1421.92,9107 Z M1403.98,9289 L1596.9,9289 L1500.44,9099.2 L1403.98,9289 Z M1683.48,9292.12 C1707.66,9292.12 1728.98,9284.58 1743.54,9272.88 L1711.82,9215.68 C1704.28,9221.92 1695.96,9225.04 1686.08,9225.04 C1668.66,9225.04 1657.74,9214.12 1657.74,9197.74 C1657.74,9182.4 1669.7,9170.96 1686.34,9170.96 C1694.92,9170.96 1702.98,9174.08 1709.48,9179.54 L1743.54,9122.86 C1727.42,9110.64 1706.62,9103.88 1686.08,9103.88 C1628.88,9103.88 1589.88,9142.1 1589.88,9198.26 C1589.88,9254.68 1628.36,9292.12 1683.48,9292.12 Z M1918,9107 L1918,9170.96 L1873.02,9170.96 L1873.02,9289 L1808.02,9289 L1808.02,9170.96 L1758.62,9170.96 L1758.62,9107 L1918,9107 Z" id="CONTACT"></path>
        </g>
    </g>
</svg>