<?xml version="1.0" encoding="UTF-8"?>
<svg width="39px" height="38px" viewBox="0 0 39 38" version="1.1" xmlns="http://www.w3.org/2000/svg" xmlns:xlink="http://www.w3.org/1999/xlink">
    <!-- Generator: Sketch 58 (84663) - https://sketch.com -->
    <title>Group 5</title>
    <desc>Created with Sketch.</desc>
    <g id="Page-1" stroke="none" stroke-width="1" fill="none" fill-rule="evenodd">
        <g id="Apple-TV-Copy" transform="translate(-43.000000, -998.000000)" fill="#FFFFFF" fill-rule="nonzero">
            <g id="Group-3">
                <g id="menu">
                    <g id="Group-5" transform="translate(43.000000, 998.000000)">
                        <path d="M13,30.5 C13,30.7750169 12.787037,30.9950304 12.5185185,30.9950304 C12.212963,31.036283 12,30.8162694 12,30.5 C12,30.2249831 12.212963,30.0049696 12.4814815,30.0049696 C12.7592593,29.963717 13,30.1837306 13,30.5 Z" id="Path"></path>
                        <path d="M11.0130282,30.322803 C10.9479156,30.5787206 11.1339516,30.8730259 11.4130055,30.9498011 C11.6548522,31.0777599 11.9339061,30.9498011 11.9897169,30.6938835 C12.0455276,30.4379659 11.8687935,30.1436607 11.5897396,30.0284977 C11.3478929,29.9389266 11.0781408,30.0668854 11.0130282,30.322803 Z" id="Path"></path>
                        <path d="M14.438444,30.005566 C14.1638097,30.0960703 13.9744068,30.3417248 14.0028172,30.6390961 C14.0312276,30.8976798 14.2774515,31.0657592 14.561556,30.9752549 C14.8361903,30.8847506 15.0255932,30.6390961 14.9971828,30.3805124 C14.9687724,30.1348579 14.7130783,29.9667785 14.438444,30.005566 Z" id="Path"></path>
                        <path d="M19.2483871,0 C8.34254032,0 0,8.27406633 0,19.1725753 C0,27.886668 5.48830645,35.3435426 13.327621,37.9679853 C14.3340726,38.1487104 14.6879032,37.527959 14.6879032,37.0172141 C14.6879032,36.5300421 14.6643145,33.8427385 14.6643145,32.1926398 C14.6643145,32.1926398 9.16028226,33.3712818 8.00443548,29.8510712 C8.00443548,29.8510712 7.10806452,27.5645059 5.81854839,26.9751849 C5.81854839,26.9751849 4.01794355,25.7415397 5.94435484,25.7651125 C5.94435484,25.7651125 7.90221774,25.9222648 8.97943548,27.7923766 C10.7014113,30.8254152 13.5870968,29.9532202 14.7114919,29.4346177 C14.8923387,28.1773997 15.4034274,27.3052046 15.9695565,26.7866022 C11.5741935,26.2994302 7.13951613,25.6629636 7.13951613,18.10394 C7.13951613,15.9430965 7.73709677,14.8587459 8.99516129,13.475806 C8.79072581,12.9650612 8.12237903,10.859221 9.19959677,8.14048691 C10.8429435,7.62974208 14.625,10.2620424 14.625,10.2620424 C16.1975806,9.82201606 17.8881048,9.59414529 19.5629032,9.59414529 C21.2377016,9.59414529 22.9282258,9.82201606 24.5008065,10.2620424 C24.5008065,10.2620424 28.2828629,7.62188446 29.9262097,8.14048691 C31.0034274,10.8670786 30.3350806,12.9650612 30.1306452,13.475806 C31.3887097,14.8666035 32.1592742,15.9509541 32.1592742,18.10394 C32.1592742,25.6865364 27.5280242,26.2915726 23.1326613,26.7866022 C23.8560484,27.4073536 24.4693548,28.5859955 24.4693548,30.4325346 C24.4693548,33.0805501 24.4457661,36.3571746 24.4457661,37.0014989 C24.4457661,37.5122437 24.8074597,38.1329952 25.8060484,37.9522701 C33.6689516,35.3435426 39,27.886668 39,19.1725753 C39,8.27406633 30.1542339,0 19.2483871,0 Z" id="Path"></path>
                        <path d="M7.10730913,27.0897001 C6.93425892,27.2220549 6.97419358,27.526471 7.20049002,27.7779451 C7.41347489,27.9897128 7.71964066,28.0823611 7.89269087,27.9102999 C8.06574108,27.7779451 8.02580642,27.473529 7.79950998,27.2220549 C7.58652511,27.0102872 7.28035934,26.9176389 7.10730913,27.0897001 Z" id="Path"></path>
                        <path d="M7.03161064,26.1833562 C6.93225532,26.4198621 7.07419149,26.7109463 7.35806383,26.8928739 C7.5851617,27.0748015 7.86903404,27.0202232 7.96838936,26.7655245 C8.06774468,26.5290186 7.92580851,26.2379345 7.64193617,26.0560068 C7.35806383,25.9468503 7.13096596,26.0014286 7.03161064,26.1833562 Z" id="Path"></path>
                        <path d="M9.09570632,29.1089662 C8.92525798,29.2501729 8.98917611,29.5760343 9.23419559,29.7824133 C9.47921508,30.0322404 9.78815269,30.0648265 9.92664197,29.8910338 C10.0651312,29.7498271 10.0012131,29.4239657 9.78815269,29.2175867 C9.55378623,28.9677596 9.23419559,28.9351735 9.09570632,29.1089662 Z" id="Path"></path>
                        <path d="M8.15,28.0628672 C7.95,28.1720046 7.95,28.4557618 8.15,28.7067778 C8.35,28.9577938 8.6875,29.0669312 8.85,28.9577938 C9.05,28.8159152 9.05,28.532158 8.85,28.281142 C8.675,28.030126 8.35,27.9209886 8.15,28.0628672 Z" id="Path"></path>
                    </g>
                </g>
            </g>
        </g>
    </g>
</svg>