<?xml version="1.0" encoding="UTF-8"?>
<svg width="523px" height="120px" viewBox="0 0 523 120" version="1.1" xmlns="http://www.w3.org/2000/svg" xmlns:xlink="http://www.w3.org/1999/xlink">
    <title>HELLO</title>
    <g id="Page-1" stroke="none" stroke-width="1" fill="none" fill-rule="evenodd" opacity="0.01">
        <g id="main" transform="translate(-1012.000000, -220.000000)" fill="#FFFFFF" fill-rule="nonzero">
            <g id="Group-3">
                <path d="M1080.99104,293.686441 L1050.00896,293.686441 L1050.00896,337 L1012,337 L1012,223 L1049.84925,223 L1049.84925,261.644068 L1080.83134,261.644068 L1080.83134,223 L1119,223 L1119,337 L1080.99104,337 L1080.99104,293.686441 Z M1140,223 L1218.26786,223 L1218.26786,254.881356 L1176,254.881356 L1176,264.70339 L1215.69643,264.70339 L1215.69643,294.491525 L1176,294.491525 L1176,305.118644 L1221,305.118644 L1221,337 L1140,337 L1140,223 Z M1237,223 L1275.90526,223 L1275.90526,304.152542 L1314,304.152542 L1314,337 L1237,337 L1237,223 Z M1471.41931,220 C1480.45621,220 1488.84748,221.39036 1496.59339,224.171123 C1504.3393,226.951886 1511.06308,230.909065 1516.76493,236.042781 C1522.46678,241.176496 1526.93137,247.40638 1530.15883,254.73262 C1533.38629,262.05886 1535,270.267334 1535,279.358289 C1535,288.449243 1533.38629,296.73793 1530.15883,304.224599 C1526.93137,311.711267 1522.46678,318.101578 1516.76493,323.395722 C1511.06308,328.689866 1504.3393,332.780734 1496.59339,335.668449 C1488.84748,338.556164 1480.45621,340 1471.41931,340 C1462.38242,340 1453.99114,338.556164 1446.24524,335.668449 C1438.49933,332.780734 1431.80244,328.689866 1426.15438,323.395722 C1420.50633,318.101578 1416.06863,311.711267 1412.84117,304.224599 C1409.61371,296.73793 1408,288.449243 1408,279.358289 C1408,270.267334 1409.61371,262.05886 1412.84117,254.73262 C1416.06863,247.40638 1420.50633,241.176496 1426.15438,236.042781 C1431.80244,230.909065 1438.49933,226.951886 1446.24524,224.171123 C1453.99114,221.39036 1462.38242,220 1471.41931,220 Z M1363.90526,223 L1363.90526,304.152542 L1402,304.152542 L1402,337 L1325,337 L1325,223 L1363.90526,223 Z M1471.5,255 C1468.2857,255 1465.28573,255.591392 1462.5,256.774194 C1459.71427,257.956995 1457.33037,259.596764 1455.34821,261.693548 C1453.36606,263.790333 1451.81251,266.370952 1450.6875,269.435484 C1449.56249,272.500015 1449,275.860197 1449,279.516129 C1449,283.279589 1449.56249,286.720415 1450.6875,289.83871 C1451.81251,292.957005 1453.36606,295.64515 1455.34821,297.903226 C1457.33037,300.161302 1459.71427,301.908596 1462.5,303.145161 C1465.28573,304.381727 1468.2857,305 1471.5,305 C1474.7143,305 1477.68749,304.381727 1480.41964,303.145161 C1483.1518,301.908596 1485.5357,300.161302 1487.57143,297.903226 C1489.60715,295.64515 1491.18749,292.957005 1492.3125,289.83871 C1493.43751,286.720415 1494,283.279589 1494,279.516129 C1494,275.860197 1493.43751,272.500015 1492.3125,269.435484 C1491.18749,266.370952 1489.60715,263.790333 1487.57143,261.693548 C1485.5357,259.596764 1483.1518,257.956995 1480.41964,256.774194 C1477.68749,255.591392 1474.7143,255 1471.5,255 Z" id="HELLO"></path>
            </g>
        </g>
    </g>
</svg>