<?xml version="1.0" encoding="UTF-8"?>
<svg width="37px" height="21px" viewBox="0 0 37 21" version="1.1" xmlns="http://www.w3.org/2000/svg" xmlns:xlink="http://www.w3.org/1999/xlink">
    <!-- Generator: Sketch 58 (84663) - https://sketch.com -->
    <title>Limber</title>
    <desc>Created with Sketch.</desc>
    <g id="Page-1" stroke="none" stroke-width="1" fill="none" fill-rule="evenodd">
        <g id="Cajtel-Copy" transform="translate(-388.000000, -3946.000000)" fill="#FFFFFF" fill-rule="nonzero">
            <g id="Group" transform="translate(298.000000, 3502.000000)">
                <g id="Typeface" transform="translate(76.000000, 297.000000)">
                    <path d="M14.52,167.42 C14.66,167.36 14.82,167.38 14.9,167.22 C15.044,167.204 15.124,167.0728 15.22192,167.00048 L15.3,166.96 C15.44,166.9 15.5,166.82 15.56,166.72 C15.6,166.74 15.62,166.76 15.64,166.8 C15.832,166.688 16.0624,166.6144 16.25952,166.4768 L16.4,166.36 C16.44,166.32 16.5,166.3 16.56,166.28 C16.8,166.24 17.02,166.12 17.24,166.04 L17.6711111,165.831111 C17.7444444,165.797778 17.82,165.766667 17.9,165.74 C18.32,165.6 18.7,165.42 19.1,165.26 L20.02,164.92 C20.32,164.82 20.6,164.7 20.88,164.6 C21.32,164.46 21.74,164.34 22.18,164.22 C22.24,164.2 22.3,164.18 22.36,164.18 C22.82,164.1 23.26,163.96 23.72,163.92 L24.1725,163.845 C24.325,163.82 24.48,163.8 24.64,163.8 C24.8533333,163.813333 25.0666667,163.817778 25.28,163.819259 L25.6,163.82 C25.82,163.82 26.04,163.82 26.18,164.04 C26.26,163.96 26.28,163.92 26.28,163.88 C26.28,163.866667 26.28,163.853333 26.2681481,163.84 L25.74,163.48 C25.4,163.24 25.02,163.12 24.64,162.98 C24.535,162.935 24.4075,162.92375 24.2828125,162.920938 L23.92,162.92 C23.76,162.92 23.6,162.96 23.42,162.96 C22.9,162.96 22.4,163.06 21.88,163.18 L20.62,163.5 C20.23,163.59 19.85125,163.7025 19.4753125,163.8375 L19.1,163.98 C18.79,164.09 18.485,164.22 18.18,164.3575 L17.04,164.88 C17.08,164.78 17.16,164.7 17.16,164.62 C17.16,164.6 17.16,164.58 17.14,164.54 C17.22,164.42 17.16,164.26 17.26,164.14 C17.332,164.032 17.368,163.9096 17.39392,163.78576 L17.5911111,162.78 C17.6177778,162.653333 17.6466667,162.526667 17.68,162.4 C17.78,162.08 17.82,161.76 17.9,161.44 C17.98,161.12 18,160.78 18.12,160.46 C18.18,160.22 18.24,159.96 18.32,159.72 C18.38,159.5 18.4,159.28 18.48,159.06 L18.5911111,158.611111 L18.5911111,158.611111 L18.66,158.4 C18.78,158.08 18.86,157.76 18.96,157.42 C19.04,157.08 19.16,156.74 19.24,156.4 L19.4,155.76 C19.48,155.56 19.54,155.36 19.6,155.14 C19.72,154.6 19.88,154.08 20.02,153.54 L20.1888889,152.974074 C20.2155556,152.877778 20.24,152.78 20.26,152.68 C20.3,152.56 20.28,152.4 20.34,152.28 C20.42,152.12 20.46,151.94 20.48,151.76 C20.6,151.24 20.68,150.72 20.8,150.22 C20.86,149.96 20.9,149.7 20.9,149.42 L20.9,149.3 L20.8511111,149.025926 C20.8444444,148.982222 20.84,148.94 20.84,148.9 C20.8,148.6 20.66,148.38 20.4,148.2 L20.22,148.08 C20.16,148.04 20.12,148.02 20.06,148.02 C20,148.02 19.92,148.06 19.88,148.12 C19.82,148.2 19.76,148.28 19.74,148.38 L19.655,148.92 C19.625,149.1 19.59,149.28 19.54,149.46 C19.42,149.835 19.3675,150.2325 19.2896875,150.61875 L19.2,151 C19.1,151.38 19.1,151.78 18.92,152.14 C18.9,152.16 18.88,152.48 18.86,152.52 L18.74,152.92 L18.12,155.56 C17.84,156.18 17.66,156.84 17.46,157.48 C17.4,157.74 17.3,158 17.22,158.26 L16.92,159.6 L16.855,159.8 C16.845,159.8325 16.83625,159.865 16.83,159.898125 L16.82,160 C16.82,160.14 16.78,160.2 16.76,160.26 L16.62,160.68 C16.52,161.04 16.5,161.4 16.4,161.76 C16.36,161.88 16.335,162.01 16.315,162.1425 L16.26,162.54 C16.22,162.84 16.18,163.12 16.12,163.42 C16.08,163.7 16.04,163.98 16.04,164.26 L16.04,164.44 C16.04,164.62 15.98,164.8 15.98,164.98 L16,165.12 L16,165.12 C16,165.3 15.96,165.44 15.92,165.58 C15.44,165.98 14.84,166.3 14.48,166.88 L14.4444444,166.859259 C14.4355556,166.853333 14.4266667,166.846667 14.42,166.84 L14.36,167.14 L14.12,167.2 C14.12,167.22 14.1,167.24 14.08,167.28 L14.16,167.28 C14.36,167.28 14.34,167.5 14.46,167.6 C14.5,167.52 14.5,167.46 14.52,167.42 Z M18.6,156.4 C18.64,156.44 18.66,156.5 18.66,156.54 C18.66,156.66 18.58,156.76 18.58,156.86 C18.58,156.96 18.54,157.1 18.38,157.12 L18.62,157.18 C18.52,157.34 18.44,157.46 18.34,157.58 C18.26,157.7 18.18,157.82 18.14,157.96 L18.26,157.88 C18.26,158 18.26,158.08 18.24,158.16 C18.28,158.2 18.3,158.24 18.3,158.26 L18.2940741,158.294815 L18.2940741,158.294815 L18.2210518,158.433028 C18.188595,158.488926 18.1290909,158.587273 18.02,158.76 L18.18,159 L17.96,158.96 C17.96,159.013333 17.9511111,159.066667 17.9451852,159.114074 L17.94,159.18 C17.94,159.28 17.9,159.34 17.82,159.36 L17.8051852,159.259259 C17.8022222,159.24 17.8,159.22 17.8,159.2 C17.8,159.14 17.82,159.1 17.88,159.06 L17.8,158.72 L17.78,158.62 L17.78,158.62 C17.84,158.58 17.86,158.54 17.86,158.5 C17.86,158.44 17.84,158.38 17.82,158.34 C17.8,158.26 17.78,158.18 17.78,158.1 C17.78,158 17.8,157.9 17.88,157.82 C17.92,157.78 17.92,157.74 17.94,157.7 L17.8748148,157.585926 C17.8644444,157.568889 17.8533333,157.553333 17.84,157.54 L17.98,157.3 C18,157.4 18,157.48 18,157.58 C18.12,157.5 18.22,157.42 18.22,157.26 C18.2,157.24 18.14,157.24 18.14,157.2 L18.1425,157.1075 C18.145,157.085 18.15,157.07 18.16,157.06 C18.22,156.94 18.24,156.8 18.24,156.68 C18.24,156.6 18.24,156.52 18.22,156.44 C18.22,156.4 18.26,156.36 18.32,156.26 L18.3565625,156.454063 C18.35875,156.47 18.36,156.485 18.36,156.5 C18.32,156.52 18.3,156.54 18.3,156.56 C18.3,156.6 18.38,156.66 18.42,156.7 L18.42,156.56 L18.6,156.4 Z M22.86,163.3 C22.92,163.2 23,163.1 23.1,163.1 C23.12,163.1 23.16,163.1 23.18,163.12 C23.22,163.16 23.28,163.18 23.32,163.18 L23.44,163.16 L23.44,163.16 L23.5778125,163.12625 C23.59875,163.1225 23.62,163.12 23.64,163.12 L23.7225,163.1375 C23.74,163.14 23.75,163.14 23.76,163.14 C23.805,163.14 23.83875,163.12875 23.878125,163.097812 L23.92,163.06 C23.94,163.04 23.96,163.04 23.98,163.04 C24.02,163.04 24.08,163.1 24.1,163.22 L24.26,163.12 L24.5577778,163.22 C24.7533333,163.291111 24.94,163.38 25.1,163.54 C24.92,163.54 24.64,163.38 24.42,163.36 L24.24,163.36 L23.9140741,163.408889 C23.8577778,163.415556 23.8,163.42 23.74,163.42 C23.66,163.42 23.58,163.42 23.5,163.4 C23.4,163.4 23.32,163.42 23.26,163.44 L23.14,163.32 C23.08,163.34 23.1,163.44 23,163.46 L22.92,163.46 C22.86,163.46 22.82,163.46 22.78,163.52 L22.58,163.52 C22.54,163.52 22.5,163.56 22.46,163.6 L22.26,163.52 L22.02,163.78 L21.96,163.38 L22.04,163.315 C22.065,163.295 22.09,163.28 22.12,163.28 C22.16,163.28 22.18,163.3 22.22,163.34 L22.58,163.16 L22.86,163.3 Z M21.82,163.34 C21.84,163.38 21.84,163.42 21.84,163.46 C21.84,163.58 21.78,163.68 21.7,163.76 C21.48,163.76 21.34,163.94 21.16,163.94 C21.12,163.94 21.08,163.92 21.04,163.9 L21.04,163.78 C21.02,163.78 21,163.78 20.98,163.8 C20.86,163.8 20.84,163.98 20.72,163.98 C20.56,163.98 20.44,164.08 20.34,164.08 C20.32,164.08 20.26,164.12 20.22,164.16 L19.98,164.04 L19.9,164.28 L19.8075,164.165 C19.785,164.135 19.77,164.11 19.76,164.08 C19.84,163.88 20,163.84 20.18,163.76 L20.18,163.88 C20.22,163.9 20.28,163.9 20.34,163.9 L20.5,163.6 L20.66,163.88 C20.74,163.64 20.94,163.58 21.12,163.54 C21.22,163.52 21.34,163.44 21.46,163.44 C21.52,163.44 21.58,163.44 21.64,163.5 L21.82,163.34 Z M18.6,155.96 L18.6488889,155.885926 C18.6555556,155.875556 18.66,155.866667 18.66,155.86 C18.66,155.76 18.76,155.72 18.82,155.68 L18.58,155.46 L18.5775,155.36 C18.575,155.315 18.57,155.26 18.56,155.2 C18.66,155.22 18.74,155.24 18.84,155.28 L18.8,155.04 L18.8825,154.975 C18.91,154.955 18.94,154.94 18.98,154.94 C19,154.94 19.02,154.94 19.06,154.96 L18.88,155.24 C18.94,155.26 18.98,155.26 19.02,155.26 C19,155.28 19,155.3 19,155.32 C19,155.46 18.92,155.5 18.92,155.58 C18.92,155.6 18.94,155.64 18.96,155.68 C18.98,155.7 18.98,155.72 18.98,155.74 L18.9361516,155.938484 C18.9179592,156.011429 18.8971429,156.088571 18.88,156.14 C18.86,156.12 18.82,156.1 18.78,156.1 C18.76,156.1 18.72,156.12 18.7,156.14 C18.66,156.18 18.62,156.24 18.58,156.32 L18.48,156.12 L18.545,156.1175 C18.565,156.115 18.58,156.11 18.58,156.1 C18.6,156.06 18.6,156 18.6,155.96 Z M19.14,154.44 C19,154.44 18.94,154.36 18.86,154.3 C18.94,154.26 18.98,154.22 18.98,154.16 C18.98,154.08 18.92,154.02 18.88,153.92 C18.98,153.96 19.02,154 19.06,154.02 L19.4,153.74 L19.38,153.92 C19.32,153.98 19.28,154.02 19.28,154.08 C19.28,154.1 19.28,154.14 19.3,154.16 C19.3,154.28 19.26,154.36 19.14,154.44 Z M17.7007407,159.64 L17.72,159.68 C17.74,159.7 17.74,159.74 17.74,159.76 C17.74,159.8 17.7,159.82 17.64,159.84 L17.64,159.76 C17.58,159.72 17.54,159.66 17.54,159.6 C17.54,159.56 17.56,159.52 17.58,159.48 C17.6,159.42 17.6,159.36 17.6,159.3 C17.68,159.32 17.74,159.34 17.8,159.38 C17.74,159.44 17.68,159.5 17.68,159.56 C17.68,159.586667 17.6888889,159.613333 17.7007407,159.64 L17.7007407,159.64 Z M19.58,152.84 L19.7,153.04 L19.56,153.2 C19.48,153.18 19.42,153.14 19.32,153.1 L19.58,152.84 Z M14.52,167.4 L14.4592593,167.385185 C14.4466667,167.382222 14.4333333,167.38 14.42,167.38 L14.56,167.06 L14.7,167.18 C14.64,167.26 14.52,167.28 14.52,167.4 Z M18.08,158.32 L18.16672,158.26784 C18.196,158.2472 18.208,158.228 18.22,158.18 L18.1,158.04 C18.0733333,158.08 18.0644444,158.111111 18.0614815,158.145185 L18.06,158.2 C18.06,158.24 18.06,158.28 18.08,158.32 Z M14.28,167.44 C14.14,167.48 14.06,167.52 14.06,167.56 C14.06,167.6 14.1,167.62 14.14,167.68 L14.28,167.44 Z M20.0075,150.3475 L20.09,150.3625 C20.04,150.435 19.97,150.51 19.9,150.52 C19.97,150.49 19.985,150.415 20.0075,150.3475 L20.09,150.3625 L20.0075,150.3475 Z M18.38,164.7 C18.34,164.82 18.3,164.86 18.28,164.94 C18.24,164.9 18.22,164.86 18.22,164.82 C18.22,164.78 18.26,164.74 18.38,164.7 Z M17.64,160.1 C17.68,160.12 17.7,160.14 17.7,160.18 L17.68,160.3 L17.68,160.3 C17.62,160.28 17.6,160.26 17.6,160.22 C17.6,160.18 17.62,160.14 17.64,160.1 Z M18.88,154.56 C18.98,154.62 19,154.7 19,154.78 L19,154.9 L18.88,154.56 Z M18.6,155.96 C18.56,155.94 18.54,155.9 18.54,155.86 C18.54,155.82 18.56,155.76 18.58,155.68 C18.6,155.82 18.6,155.88 18.6,155.96 Z M19.42,153.34 C19.44,153.36 19.44,153.38 19.44,153.4 C19.44,153.46 19.4,153.5 19.3,153.56 L19.42,153.34 Z M18.98,164.52 L18.97568,164.62944 C18.9728,164.6576 18.968,164.68 18.96,164.68 C18.94,164.68 18.88,164.64 18.88,164.64 C18.88,164.62 18.96,164.52 18.98,164.52 Z M21.3199999,163.779653 L21.3232275,163.76759 C21.3420957,163.697846 21.36,163.678923 21.36,163.66 C21.36,163.62 21.36,163.58 21.34,163.5 L21.3059259,163.593333 C21.3022222,163.604444 21.3,163.613333 21.3,163.62 L21.3168554,163.718265 C21.3187326,163.734784 21.3199884,163.754728 21.3199999,163.779653 Z M17.64,160.08 C17.6,160.06 17.58,160.02 17.58,159.98 C17.58,159.94 17.6,159.9 17.64,159.86 L17.64,160.08 Z M19.54,164.46 C19.5,164.42 19.48,164.38 19.48,164.36 C19.48,164.3 19.52,164.28 19.54,164.22 L19.54,164.46 Z M19.3,154.5 C19.26,154.54 19.22,154.54 19.2,154.54 C19.16,154.54 19.16,154.5 19.14,154.46 C19.2,154.46 19.24,154.48 19.3,154.5 Z M18.58,164.7 L18.5,164.56 L18.59,164.58 C18.61,164.585 18.62,164.59 18.62,164.6 C18.62,164.62 18.6,164.66 18.58,164.7 Z M19.82,151.16 C19.82,151.14 19.84,151.12 19.86,151.12 C19.88,151.12 19.92,151.16 19.94,151.16 C19.94,151.18 19.94,151.2 19.92,151.22 L19.82,151.16 Z M19.12,164.4 C19.14,164.36 19.16,164.32 19.2,164.28 C19.2,164.32 19.2,164.342222 19.1940741,164.358519 L19.18,164.38 C19.18,164.4 19.16,164.4 19.12,164.4 Z M17.72,165.04 C17.72,165.1 17.7,165.12 17.7,165.16 C17.68,165.16 17.66,165.16 17.64,165.14 L17.72,165.04 Z M19.96,151.56 C19.92,151.6 19.86,151.6 19.82,151.6 L19.96,151.56 Z M20.98,161.9 L20.9,161.98 L21.24,162.22 L21.4,162.08 C21.52,162.06 21.62,162.02 21.68,161.92 C21.7,161.84 21.68,161.74 21.72,161.7 C21.8,161.66 21.88,161.66 21.94,161.58 L22.08,161.48 C22.24,161.4 22.32,161.28 22.32,161.1 C22.32,161.06 22.32,160.96 22.44,160.96 C22.46,160.96 22.62,160.88 22.64,160.8 C22.64,160.74 22.7,160.66 22.7,160.58 C22.7,160.54 22.68,160.48 22.66,160.44 C22.68,160.44 22.74,160.5 22.76,160.54 C22.84,160.5 22.92,160.46 22.98,160.4 C23,160.38 23,160.36 23,160.34 C23,160.3 22.98,160.24 22.92,160.14 L23.0859259,160.125185 C23.1155556,160.122222 23.1466667,160.12 23.18,160.12 C23.16,160 23.14,159.92 23.14,159.78 L23.22,159.9 L23.44,159.64 L23.34,159.44 C23.32,159.48 23.28,159.52 23.24,159.52 C23.22,159.52 23.2,159.52 23.18,159.5 C23.16,159.48 23.1,159.48 23.04,159.48 C23.04,159.46 23.02,159.42 23,159.36 C22.92,159.472 22.8656,159.584 22.79584,159.65504 L22.74,159.7 C22.64,159.78 22.6,159.84 22.6,159.94 C22.6,159.98 22.6,160.02 22.62,160.06 C22.54,160.1 22.44,160.06 22.38,160.16 C22.34,160.24 22.26,160.28 22.24,160.36 C22.22,160.44 22.22,160.52 22.22,160.6 C22,160.6 21.96,160.82 21.82,160.94 L21.8540741,161.014074 C21.8577778,161.024444 21.86,161.033333 21.86,161.04 C21.86,161.104 21.7832,161.1296 21.732,161.15776 L21.7,161.18 C21.52,161.28 21.42,161.44 21.3,161.58 C21.1,161.34 21.14,161.04 21.12,160.74 C21.12,160.08 21.2,159.4 21.36,158.74 C21.48,158.32 21.62,157.9 21.78,157.48 L21.9025,157.16 C21.92125,157.1075 21.938125,157.055 21.9515625,157.001875 L21.98,156.84 C22,156.62 22.1,156.4 22.16,156.18 L22.36,155.3 L22.36,155.3 C22.36,155.18 22.28,155.1 22.2,155.06 C22.1,155 21.98,154.98 21.88,154.92 C21.8266667,154.88 21.7822222,154.822222 21.7288889,154.764444 L21.64,154.68 C21.52,154.58 21.44,154.42 21.26,154.36 C21.22,154.4 21.2,154.44 21.18,154.5 L21.025,155 C20.975,155.165 20.93,155.33 20.9,155.5 C20.88,155.62 20.8,155.74 20.8,155.86 C20.8,155.9 20.82,155.94 20.84,156 C20.8,156.12 20.78,156.28 20.7,156.4 C20.58,156.54 20.54,156.74 20.48,156.9 C20.48,157.14 20.32,157.48 20.24,157.7 C20.08,158.3 19.94,158.92 19.9,159.52 L19.88,159.86 L19.88,159.86 C19.88,160.02 19.9,160.16 19.92,160.32 C20,160.92 20.22,161.42 20.74,161.72 L20.98,161.9 Z M22.08,152.36 L22.2059259,152.305185 C22.2288889,152.295556 22.2533333,152.286667 22.28,152.28 L22.32,152.46 C22.4,152.34 22.48,152.28 22.48,152.2 C22.5,152.08 22.62,152.16 22.66,152.08 C22.8,151.8 22.98,151.54 23.12,151.26 C23.16,151.193333 23.1733333,151.117778 23.1955556,151.045185 L23.24,150.94 C23.34,150.76 23.36,150.56 23.42,150.38 C23.5,150.04 23.62,149.72 23.74,149.42 C23.8,149.26 23.82,149.1 23.82,148.94 C23.82,148.86 23.82,148.76 23.8,148.68 C23.8,148.653333 23.7822222,148.626667 23.7585185,148.605926 L23.72,148.58 C23.64,148.52 23.54,148.48 23.44,148.44 C23.34,148.38 23.16,148.34 23.12,148.24 C23.06,148.1 22.94,148.02 22.84,147.92 C22.72,147.98 22.7,148.08 22.66,148.2 C22.64,148.24 22.64,148.26 22.64,148.28 C22.64,148.36 22.68,148.44 22.74,148.52 C22.54,148.58 22.54,148.74 22.48,148.88 L22.26,149.76 C22.28,149.8 22.28,149.82 22.28,149.86 C22.28,149.96 22.22,150.04 22.22,150.14 L22.24,150.2 L22.24,150.2 C22.26,150.24 22.26,150.26 22.26,150.3 C22.26,150.42 22.18,150.54 22.14,150.64 L22.14,150.84 C22.14,150.866667 22.14,150.893333 22.1340741,150.92 L22.12,150.96 C22.04,151.12 22.06,151.28 22.04,151.44 C22.0266667,151.493333 22.0222222,151.555556 22.0207407,151.614815 L22.02,151.94 C22.02,151.98 22,152 22,152.02 C22,152.14 22.06,152.24 22.08,152.36 Z M20.36,159.16 C20.36,159.12 20.38,159.12 20.38,159.1 L20.49664,159.06544 C20.536,159.052 20.576,159.036 20.6,159.02 L20.6,158.92 C20.58,158.94 20.54,158.94 20.5,158.96 C20.46,158.9 20.44,158.82 20.4,158.74 C20.46,158.76 20.5,158.76 20.54,158.76 C20.64,158.76 20.66,158.7 20.68,158.56 L20.58,158.56 C20.52,158.56 20.48,158.54 20.48,158.46 C20.56,158.42 20.62,158.42 20.7,158.4 C20.8,157.94 20.82,157.48 20.84,157.06 L21.14,156.82 C21.14,156.7 21.14,156.6 21.16,156.52 C21.18,156.48 21.24,156.44 21.28,156.38 C21.3,156.4 21.3,156.44 21.3,156.46 L21.28,156.58 L21.28,156.58 C21.28,156.62 21.3,156.66 21.34,156.7 C21.36,156.7 21.36,156.72 21.36,156.76 C21.36,156.8 21.34,156.88 21.32,156.9 C21.3,156.92 21.24,157 21.24,157.04 C21.24,157.06 21.24,157.08 21.26,157.12 C21.28,157.14 21.28,157.18 21.28,157.2 C21.28,157.24 21.26,157.28 21.22,157.32 L21.16,157.36 L21.16,157.36 L21.2,157.84 L21.0666667,157.865185 C21.0488889,157.868889 21.0333333,157.873333 21.02,157.88 C20.98,157.96 20.96,158.04 20.94,158.12 L20.94,158.36 L20.8733333,158.435556 C20.8577778,158.451111 20.84,158.466667 20.82,158.48 L20.893125,158.609375 C20.8975,158.62 20.9,158.63 20.9,158.64 C20.9,158.7 20.86,158.72 20.78,158.78 L20.92,158.94 L20.76,159.16 C20.66,159.16 20.64,159.16 20.64,159.24 C20.64,159.26 20.68,159.28 20.7,159.3 L20.78,159.2 C20.86,159.2 20.88,159.24 20.88,159.3 L20.8,159.7 C20.7866667,159.713333 20.7822222,159.726667 20.7807407,159.74 L20.78,159.76 C20.78,159.78 20.78,159.8 20.8,159.82 C20.8,159.86 20.82,159.88 20.82,159.9 C20.82,160.016667 20.7505556,160.091667 20.6463889,160.113426 L20.58,160.12 C20.54,160.12 20.5,160.14 20.44,160.14 C20.42,160.04 20.38,159.9 20.38,159.78 C20.38,159.72 20.4,159.66 20.42,159.6 C20.42,159.58 20.4,159.54 20.38,159.5 L20.36,159.42 L20.36,159.42 C20.4,159.4 20.42,159.36 20.42,159.34 C20.42,159.28 20.36,159.24 20.36,159.16 Z M22.78,149.24 C22.78,149.2 22.8,149.18 22.86,149.18 C22.9,149.18 22.96,149.2 23.02,149.24 L23.18,149.06 L23.2288889,149.085185 C23.2355556,149.088889 23.24,149.093333 23.24,149.1 L23.24,149.2 C23.24,149.266667 23.2261111,149.291667 23.1288889,149.356019 L23.06,149.4 C23.04,149.4 22.98,149.5 22.96,149.56 L23.06,149.56 C23.14,149.56 23.16,149.56 23.2,149.62 L22.9,149.68 L23.06,150.12 L22.72,150.38 C22.7066667,150.326667 22.7022222,150.273333 22.7007407,150.214074 L22.7,149.84 C22.7,149.68 22.8,149.54 22.8,149.36 C22.8,149.32 22.8,149.28 22.78,149.24 Z M21.42,161.94 C21.34,161.94 21.324,161.876 21.3208,161.81968 L21.32,161.6 L21.54,161.82 L21.42,161.94 Z M24.08,158.44 C24.08,158.34 24.04,158.32 24,158.3 L24.04,158.18 L23.9,158.18 C23.94,158.3 23.9,158.44 24.08,158.44 Z M21.1,157.2 L21.02,157.04 L20.985,157.155 C20.97,157.195 20.95,157.24 20.92,157.3 L21.1,157.2 Z M22.84,150.38 L22.84,150.54 C22.84,150.64 22.82,150.68 22.74,150.8 L22.84,150.38 Z M20.6,159.98 C20.6,159.96 20.58,159.94 20.56,159.92 C20.54,159.92 20.5,159.94 20.5,159.94 L20.5148148,159.985926 C20.5177778,159.995556 20.52,160.006667 20.52,160.02 L20.6,159.98 Z M23.88,158.62 C23.94,158.62 23.96,158.6 23.96,158.58 L23.96,158.46 L23.88,158.62 Z M30.14,154.6325 L30.08,154.655 C30.0650261,154.640026 30.0600174,154.62007 30.06,154.600104 L30.0104932,154.666159 L30.0104932,154.666159 L29.96,154.84 C29.92,154.9 29.86,154.94 29.8,154.98 L29.7511111,155.02 C29.7444444,155.026667 29.74,155.033333 29.74,155.04 L29.5725,155.245 C29.52,155.315 29.48,155.39 29.48,155.48 L29.36,155.48 C29.3,155.7 29.18,155.88 28.98,156.02 C28.94,156.04 28.9,156.08 28.9,156.14 C28.9,156.18 28.92,156.22 28.96,156.26 L28.9175,156.32 C28.895,156.35 28.87,156.38 28.86,156.38 C28.84,156.36 28.8,156.36 28.78,156.36 C28.68,156.36 28.64,156.46 28.64,156.54 C28.625,156.645 28.55375,156.71625 28.5021875,156.795937 L28.46,156.88 C28.44,156.94 28.4,156.96 28.34,156.98 C28.3,157 28.28,157.02 28.28,157.06 C28.28,157.1 28.3,157.14 28.34,157.16 C28.2371429,157.297143 28.0608163,157.360816 28.0125364,157.527347 L28,157.62 C28,157.66 27.98,157.7 27.98,157.72 L27.8375,157.835 C27.79,157.875 27.74,157.92 27.68,157.98 L28.22,155.8 L28.27,155.735 C28.285,155.715 28.3,155.7 28.32,155.7 C28.38,155.7 28.36,155.66 28.4,155.58 L28.42,155.22 C28.46,155.2 28.48,155.18 28.48,155.16 C28.48,155.146667 28.48,155.133333 28.4740741,155.12 L28.46,155.1 C28.42,155.06 28.4,155 28.4,154.96 C28.4,154.9 28.42,154.82 28.44,154.78 L28.1,154.52 L27.9825,154.5225 C27.935,154.525 27.88,154.53 27.82,154.54 L28,154.68 L27.88,154.8 L27.82,154.74 C27.8,154.72 27.78,154.72 27.76,154.72 C27.7333333,154.72 27.7155556,154.728889 27.7007407,154.740741 L27.68,154.76 C27.58,154.84 27.6,154.98 27.48,155.06 C27.38,155.12 27.32,155.26 27.32,155.38 C27.3,155.54 27.24,155.62 27.1,155.64 L27.06,155.72 L27.0392593,155.837778 C27.0244444,155.891111 27.0066667,155.9 26.98,155.9 C26.96,155.9 26.9,155.9 26.86,155.88 C26.84,155.86 26.82,155.86 26.8,155.86 C26.74,155.86 26.72,155.9 26.7,155.98 L26.7,156.2 L26.58,156.14 L26.4288889,156.354815 C26.4022222,156.391111 26.3733333,156.426667 26.34,156.46 L26.12,156.4 L26.06,156.54 L26.06,156.68 C26,156.66 25.98,156.6 25.96,156.6 C25.8766667,156.616667 25.7516667,156.716667 25.7123148,156.807407 L25.68176,156.95952 C25.6736,156.9984 25.664,157.02 25.64,157.02 C25.62,157.02 25.58,157 25.52,156.96 C25.48,156.96 25.46,157.1 25.46,157.12 L25.28,157.08 L25.06,157.32 L25.14,156.98 C25.14,156.82 25.22,156.64 25.22,156.46 L25.22,156.28 C25.22,156.08 25.34,155.92 25.54,155.84 L25.52,155.76 L25.52,155.76 C25.56,155.7 25.58,155.64 25.58,155.58 C25.58,155.48 25.54,155.38 25.5,155.28 C25.5,155.12 25.24,154.9 25.12,154.82 C24.86,154.66 24.58,154.52 24.26,154.42 L24.06,155.26 C24,155.6 23.94,155.96 23.86,156.3 C23.74,156.82 23.6,157.34 23.46,157.86 L23.2762963,158.400741 C23.2466667,158.493333 23.22,158.586667 23.2,158.68 C23.14,158.94 23,159.18 22.94,159.44 L22.83376,159.95104 C22.78,160.2088 22.732,160.468 22.72,160.72 L22.72,160.9 C22.7,161 22.7,161.08 22.7,161.16 C22.7,161.32 22.74,161.44 22.84,161.58 C22.8933333,161.646667 22.9644444,161.695556 23.0355556,161.75037 L23.14,161.84 C23.32,162.02 23.56,162.1 23.8,162.14 C23.94,162.08 23.96,161.98 23.96,161.88 L23.96,161.72 C23.96,161.4 24,161.06 24.06,160.74 C24.06,160.54 24.18,160.36 24.3,160.28 L24.2,160.2 C24.34,160.06 24.36,159.96 24.38,159.84 C24.38,159.74 24.38,159.66 24.4,159.6 C24.4,159.58 24.44,159.56 24.46,159.54 C24.5,159.58 24.54,159.6 24.58,159.62 C24.66,159.48 24.62,159.32 24.72,159.2 L24.6875,159.165 C24.67,159.145 24.65,159.12 24.64,159.1 L24.52,159.18 C24.6,159.04 24.72,158.92 24.84,158.8 C24.88,158.78 24.9,158.74 24.9,158.72 C24.932,158.592 25.028,158.528 25.10608,158.44608 L25.16,158.38 C25.2,158.32 25.26,158.28 25.28,158.22 C25.296,158.108 25.3504,158.0344 25.41248,157.96848 L25.5525,157.8325 C25.56625,157.81875 25.578125,157.805625 25.5865625,157.793437 L25.6,157.76 C25.6,157.74 25.76,157.52 25.82,157.4 C25.84,157.36 25.92,157.32 25.96,157.28 C25.96,157.26 25.96,157.24 25.98,157.22 L25.9,157.16 C25.94,157.1 25.98,157.04 26.02,157.02 C26.26,156.98 26.38,156.8 26.54,156.68 C26.58,156.64 26.6,156.6 26.6,156.54 C26.64,156.4 26.76,156.3 26.96,156.3 C26.78,156.56 26.72,156.8 26.7,157.06 L26.64,157.2 C26.48,157.38 26.42,157.6 26.4,157.82 C26.36,158.1 26.3,158.38 26.18,158.62 C26.02,158.92 25.94,159.24 25.88,159.56 C25.76,160 25.7,160.46 25.64,160.92 C25.62,161 25.6,161.06 25.6,161.14 C25.6,161.24 25.64,161.34 25.76,161.42 L26.1168,161.66064 C26.2968,161.7768 26.484,161.88 26.7,161.94 L26.88,161.98 L26.88,161.88 C26.88,161.62 26.92,161.44 26.96,161.2 C26.96,161.16 27.08,161.18 27.08,161.14 C27.064,161.124 27.048,161.044 27.04224,160.96144 L27.04,160.8 L27.08,160.94 C27.12,160.9 27.18,160.88 27.2,160.84 C27.24,160.8 27.26,160.76 27.26,160.72 C27.26,160.68 27.22,160.62 27.22,160.58 C27.36,160.48 27.34,160.28 27.46,160.22 C27.52,160.2 27.56,160.14 27.56,160.08 L27.5451852,160.019259 C27.5422222,160.006667 27.54,159.993333 27.54,159.98 L27.5,159.78 L27.64,159.78 C27.86,159.56 27.88,159.28 27.9,158.98 L28.04,159.12 L28.1,158.9 L28.12656,158.76976 C28.13712,158.72592 28.15024,158.68464 28.16848,158.65488 L28.2,158.62 C28.38,158.48 28.38,158.28 28.44,158.1 C28.48,158.02 28.5,157.94 28.58,157.9 C28.72,157.8 28.78,157.68 28.78,157.54 C28.78,157.48 28.78,157.44 28.76,157.38 L28.96,157.42 L29.04,157.18 L29.0925,157.085 C29.10125,157.07 29.110625,157.05625 29.1215625,157.045 L29.16,157.02 C29.2,157 29.22,156.98 29.22,156.94 L29.2225,156.8575 C29.225,156.84 29.23,156.83 29.24,156.82 C29.336,156.756 29.3808,156.6536 29.40512,156.54352 L29.42,156.46 C29.42,156.44 29.44,156.44 29.56,156.42 L29.74,156.16 C29.82,156.1 29.82,156 29.82,155.92 C29.94,155.86 29.94,155.7 30.1,155.7 C30.12,155.7 30.14,155.64 30.14,155.62 C30.06,155.62 30,155.6 29.88,155.6 L30.14,155.5 L30.1425,155.41 C30.145,155.39 30.15,155.38 30.16,155.38 L30.2225,155.365 C30.255,155.355 30.29,155.34 30.3,155.32 C30.24,155.24 30.22,155.2 30.22,155.16 C30.22,155.12 30.24,155.06 30.26,155 C30.34,155.04 30.36,155.12 30.36,155.22 C30.4,155.22 30.44,155.22 30.52,155.24 C30.48,155.2 30.48,155.16 30.48,155.12 C30.48,155.04 30.54,154.96 30.54,154.86 C30.54,154.82 30.52,154.78 30.5,154.74 C30.56,154.78 30.6,154.84 30.64,154.88 C30.68,154.9 30.76,154.9 30.82,154.9 L30.7948148,154.974074 L30.7948148,154.974074 L30.78,155 C30.62,155.24 30.56,155.5 30.52,155.8 C30.52,155.92 30.48,156.06 30.44,156.18 C30.4,156.26 30.38,156.32 30.38,156.4 C30.38,156.44 30.38,156.5 30.42,156.56 C30.34,156.608 30.26,156.6688 30.2312,156.75264 L30.22,156.82 C30.22,157 29.98,157.42 29.92,157.54 C29.82,157.72 29.76,157.92 29.7,158.1 C29.62,158.38 29.58,158.68 29.5,158.96 L29.2911111,159.619259 L29.2911111,159.619259 L29.2,159.94 C29.06,160.44 28.92,160.92 28.82,161.42 L28.7562963,161.680741 C28.7466667,161.726667 28.74,161.773333 28.74,161.82 C28.74,161.88 28.76,161.96 28.78,162.02 C28.72,162.12 28.7,162.24 28.7,162.36 L28.7,162.74 L28.72,163.16 L28.72,163.16 C28.72,163.28 28.8,163.36 28.8,163.48 C28.78,163.6 28.78,163.64 28.78,163.7 C28.78,163.8 28.8,163.9 28.86,164 C28.88,164.08 28.9,164.16 28.9,164.24 L28.9,164.36 C28.9,164.6 28.98,164.82 29.06,165.04 C29.075,165.085 29.1125,165.11875 29.1303125,165.166562 L29.14,165.22 C29.14,165.42 29.36,165.52 29.36,165.7 C29.36,165.74 29.48,165.76 29.52,165.82 C29.64,165.94 29.78,166 29.92,166.08 C30.04,166.14 30.16,166.18 30.28,166.18 C30.36,166.18 30.44,166.16 30.52,166.14 C30.64,166.06 30.7,166.02 30.74,165.9 C30.92,165.84 30.98,165.66 31.1,165.52 L31.0259259,165.414815 C31.0155556,165.397778 31.0066667,165.38 31,165.36 L31.06,165.3 L31.1753125,165.370313 C31.19375,165.38 31.215,165.39 31.24,165.4 C31.24,165.22 31.42,165.1 31.42,164.92 C31.42,164.88 31.42,164.86 31.4,164.82 C31.38,164.8 31.46,164.72 31.48,164.68 L31.62,164.6 C31.56,164.54 31.52,164.54 31.48,164.54 L31.4059259,164.588889 C31.3955556,164.595556 31.3866667,164.6 31.38,164.6 L31.3,164.24 L31.1,164.58 L31.18,164.78 C31.14,164.8 31.12,164.8 31.1,164.8 C31.06,164.76 31.02,164.74 30.98,164.74 C30.94,164.74 30.92,164.76 30.9,164.8 C30.76,164.9 30.6,165 30.5,165.16 C30.42,165.3 30.32,165.42 30.2,165.54 C30.08,165.64 29.94,165.72 29.82,165.78 C29.7,165.74 29.58,165.68 29.46,165.62 L29.48,165.52 L29.48,165.52 C29.48,165.4 29.42,165.26 29.42,165.14 C29.42,165.08 29.44,165.04 29.46,164.98 C29.44,164.94 29.44,164.92 29.44,164.88 C29.44,164.826667 29.4577778,164.782222 29.4814815,164.740741 L29.52,164.68 C29.54,164.66 29.6,164.52 29.6,164.46 C29.6,164.4 29.6,164.34 29.58,164.3 C29.58,164.2 29.6,164.2 29.6,164.18 C29.66,164.12 29.7,164 29.7,163.92 L29.7,163.84 C29.7,163.78 29.7,163.72 29.72,163.66 C29.76,163.44 29.84,163.22 29.84,163 C29.86,162.64 30,162.32 30.06,161.96 C30.12,161.54 30.26,161.12 30.34,160.7 C30.38,160.5 30.42,160.32 30.52,160.12 C30.56,160.04 30.58,159.94 30.62,159.84 C30.7,159.6 30.7,159.34 30.84,159.12 C30.92,158.96 30.98,158.78 31.02,158.6 C31.04,158.46 31.1,158.36 31.12,158.24 C31.2,158 31.3,157.8 31.36,157.58 C31.4133333,157.393333 31.4755556,157.224444 31.5407407,157.055556 L31.64,156.8 C31.72,156.62 31.74,156.44 31.86,156.28 C31.89,156.22 31.875,156.12625 31.8909375,156.049375 L31.92,155.98 C31.98,155.88 31.98,155.74 32.02,155.62 L32.1488889,155.38 C32.1688889,155.34 32.1866667,155.3 32.2,155.26 L32.345,154.755 C32.395,154.59 32.45,154.43 32.52,154.28 L32.585,154.15 C32.605,154.105 32.62,154.06 32.62,154.02 L32.6,153.96 L32.6,153.96 L32.58,153.86 L32.58,153.86 C32.58,153.72 32.66,153.62 32.76,153.52 L32.6,153.38 L32.64,153.06 L32.3748148,152.905926 C32.3311111,152.882222 32.2866667,152.86 32.24,152.84 C32.18,152.8 32.12,152.78 32.06,152.78 C31.96,152.78 31.86,152.84 31.76,152.94 C31.7466667,152.966667 31.7244444,152.993333 31.6992593,153.014074 L31.66,153.04 C31.48,153.14 31.36,153.3 31.22,153.46 C31.18,153.5 31.16,153.58 31.1,153.62 C31.04,153.68 30.96,153.7 30.9,153.74 L30.86,153.8 C30.9,153.82 30.96,153.86 30.96,153.92 C30.96,153.94 30.96,153.96 30.94,153.98 C30.92,153.94 30.88,153.9 30.88,153.9 L30.76,153.945 C30.72,153.96 30.68,153.98 30.64,154.02 C30.54,154.12 30.5,154.26 30.38,154.34 C30.3,154.44 30.18,154.52 30.06,154.6 L30.1214815,154.620741 C30.1288889,154.624444 30.135,154.628333 30.14,154.6325 L30.08,154.655 L30.14,154.6325 Z M23.46,159.7 L23.52,159.38 L23.5140741,159.086667 C23.5111111,159.028889 23.5066667,158.98 23.5,158.96 C23.5,158.855 23.51125,158.795 23.53375,158.729375 L23.56,158.66 C23.56,158.64 23.6,158.6 23.62,158.6 C23.64,158.6 23.72,158.64 23.74,158.66 L23.88,158.5 L23.88,158.38 C23.88,158.26 23.9,158.2 23.9,158.12 L23.9,158.02 C23.9,157.98 23.92,157.92 23.96,157.88 C24,157.84 24.02,157.84 24.06,157.84 C24.12,157.84 24.18,157.86 24.24,157.94 L24.04,157.94 L24.1792593,158.07037 C24.2,158.091111 24.22,158.113333 24.24,158.14 L24.14,158.24 L24.26,158.4 L24.2,158.56 C24.1866667,158.6 24.1644444,158.622222 24.1511111,158.644444 L24.14,158.68 C24.14,158.7 24.08,158.86 24.02,158.9 L23.96,159.02 L24.12,159.2 L23.92,159.34 L23.975,159.4225 C23.99,159.45 24,159.48 24,159.52 C24,159.54 24,159.58 23.98,159.62 L23.8,159.36 C23.78,159.38 23.78,159.42 23.78,159.44 C23.78,159.52 23.84,159.56 23.86,159.6 C23.8,159.72 23.74,159.84 23.7,159.96 L23.62,160.38 L23.5834375,160.185937 C23.58125,160.17 23.58,160.155 23.58,160.14 L23.5207407,160.174074 C23.5133333,160.177778 23.5066667,160.18 23.5,160.18 L23.42,160.18 C23.39,160.18 23.3825,160.1575 23.380625,160.137812 L23.382963,160.095556 C23.3888889,160.073333 23.4066667,160.033333 23.46,159.94 L23.32,159.86 C23.34,159.78 23.36,159.7 23.46,159.7 Z M30.62,158.48 L30.52,158.28 L30.3,158.42 C30.34,158.52 30.34,158.62 30.34,158.72 C30.34,158.88 30.32,159.04 30.3,159.2 C30.24,159.18 30.24,159.16 30.24,159.12 L30.26,159 L30.26,159 C30.26,158.98 30.24,158.96 30.22,158.94 L30.08,159 L30.12,159.22 C30.0933333,159.233333 30.0755556,159.237778 30.0607407,159.239259 L29.92,159.24 C29.88,159.24 29.86,159.2 29.86,159.16 C29.86,159.14 29.88,159.1 29.88,159.1 C29.9,159.06 29.96,159.02 30,158.98 C29.98,158.88 29.96,158.8 29.96,158.72 C29.96,158.64 29.98,158.58 30,158.5 L30.1111111,158.58 C30.1311111,158.593333 30.1533333,158.606667 30.18,158.62 C30.2,158.56 30.22,158.48 30.22,158.42 C30.22,158.36 30.2,158.34 30.2,158.32 C30.2,158.26 30.26,158.2 30.26,158.14 C30.26,158.08 30.22,158 30.22,157.94 L30.24592,157.80896 C30.2536,157.7664 30.26,157.72 30.26,157.68 L30.7,157.54 C30.68,157.84 30.66,158.14 30.62,158.48 Z M31.22,156.54 C31.1,156.54 31.1,156.42 31.02,156.34 C31.02,156.48 31.04,156.56 31.04,156.68 L30.94752,156.79072 C30.9144,156.832 30.9,156.856 30.9,156.88 C30.9,156.92 30.94,156.94 31,156.98 L30.92,157.42 L30.8148148,157.305926 C30.7977778,157.288889 30.78,157.273333 30.76,157.26 L30.56,157.26 C30.56,157.14 30.64,157.08 30.66,157 L30.595,156.91 C30.575,156.88 30.56,156.85 30.56,156.82 C30.56,156.78 30.58,156.76 30.62,156.74 L30.78,156.94 L30.8140741,156.865926 C30.8177778,156.855556 30.82,156.846667 30.82,156.84 C30.82,156.8 30.8,156.76 30.76,156.72 C30.86,156.66 30.92,156.6 30.92,156.5 L30.9051852,156.439259 C30.9022222,156.426667 30.9,156.413333 30.9,156.4 C30.88,156.38 30.88,156.36 30.88,156.32 L30.8911111,156.24 L30.8911111,156.24 L30.94,156.08 C30.94,156.06 30.98,156.02 31.02,156.02 C31.04,156.02 31.08,156.02 31.1,156.06 C31.12,156.04 31.16,156.02 31.18,156.02 C31.28,156.02 31.34,156.22 31.34,156.3 C31.34,156.38 31.32,156.48 31.22,156.54 Z M29.74,159.96 L29.74,160.3 L29.56,160.22 L29.5975,160.125 C29.61,160.09 29.62,160.05 29.62,160 C29.6066667,159.933333 29.6022222,159.875556 29.6007407,159.826667 L29.6,159.42 C29.6,159.34 29.68,159.26 29.72,159.18 C29.78,159.24 29.76,159.38 29.86,159.38 C29.88,159.38 29.92,159.36 29.98,159.34 L29.84,159.5 L30.04,159.72 C29.94,159.82 29.82,159.88 29.74,159.96 Z M26.82,159.28 L26.66,159.1 L26.6111111,159.268889 L26.6111111,159.268889 L26.59296,159.41136 C26.5872,159.4656 26.58,159.54 26.58,159.6 L26.38,159.54 L26.52,159.32 L26.38,159.26 C26.44,159.18 26.5,159.08 26.5,159 C26.5,158.94 26.48,158.9 26.42,158.84 C26.52,158.74 26.66,158.76 26.76,158.74 C26.805,158.8 26.81625,158.87125 26.8190625,158.945312 L26.82,159.28 Z M31.66,164.08 L31.44,164.3 L31.4548148,164.381481 C31.4577778,164.4 31.46,164.42 31.46,164.44 L31.62,164.28 C31.62,164.32 31.64,164.34 31.66,164.4 L31.72,164.1 C31.7,164.1 31.66,164.08 31.66,164.08 Z M27.04,158.06 C26.96,158.02 26.94,157.96 26.94,157.9 L26.96,157.8 L26.96,157.8 C27.04,157.84 27.1,157.9 27.18,157.96 L27.04,158.06 Z M29.82,155.66 L29.77648,155.74384 C29.7544,155.7784 29.728,155.8 29.68,155.8 L29.6,155.78 L29.6,155.78 C29.62,155.7 29.66,155.64 29.74,155.64 C29.76,155.64 29.78,155.64 29.82,155.66 Z M23.9,159.08 L23.66,159.08 C23.72,159.14 23.76,159.16 23.8,159.16 C23.84,159.16 23.86,159.14 23.9,159.08 Z M23.46,159.7 L23.46,159.94 C23.5,159.9 23.54,159.86 23.54,159.82 C23.54,159.78 23.5,159.74 23.46,159.7 Z M31.32,155.42 L31.32,155.66 C31.26,155.64 31.24,155.6 31.24,155.58 C31.24,155.52 31.3,155.48 31.32,155.42 Z M29.68,156.08 C29.68,156 29.7,155.94 29.74,155.88 L29.7903704,155.900741 C29.8022222,155.906667 29.8133333,155.913333 29.82,155.92 L29.68,156.08 Z M29.34,165.86 L29.38,166.08 C29.42,166.04 29.44,166 29.44,165.98 C29.44,165.94 29.4,165.9 29.34,165.86 Z M30.76,154.76 L30.72,154.56 C30.8,154.6 30.76,154.7 30.82,154.7 L30.8496296,154.735556 C30.8555556,154.744444 30.86,154.753333 30.86,154.76 L30.76,154.76 Z M26.7975,158.54 L26.8275,158.585 C26.815,158.635 26.8,158.68 26.78,158.72 C26.78,158.65 26.785,158.59 26.7975,158.54 L26.8275,158.585 L26.7975,158.54 Z M29.38,156.26 C29.36,156.26 29.36,156.24 29.36,156.2 C29.36,156.16 29.52,156.12 29.54,156.1 L29.38,156.26 Z M31.84,163.88 C31.88,163.86 31.9,163.82 31.94,163.76 C31.84,163.76 31.82,163.78 31.82,163.82 L31.84,163.88 L31.84,163.88 Z M30.5799995,154.380333 C30.6044387,154.422281 30.6422194,154.442219 30.68,154.48 L30.6207407,154.514074 C30.6133333,154.517778 30.6066667,154.52 30.6,154.52 C30.58,154.52 30.56,154.48 30.56,154.46 L30.5747654,154.414234 C30.5777283,154.404648 30.5799627,154.393592 30.5799995,154.380333 Z M30.18,154.84 C30.18,154.78 30.3,154.74 30.32,154.72 C30.34,154.74 30.34,154.76 30.34,154.78 L30.18,154.84 Z M24.78,158.6 C24.76,158.54 24.74,158.48 24.74,158.42 L24.84,158.58 L24.78,158.6 L24.78,158.6 Z M29.3,161.98 C29.26,161.94 29.24,161.92 29.24,161.9 C29.24,161.88 29.26,161.84 29.3,161.82 L29.3,161.98 Z M26.32,156.68 L26.36,156.54 L26.42,156.58 L26.32,156.68 Z M26.505,160.13375 L26.44,160.26 L26.46,160.1 C26.475,160.1 26.50125,160.1225 26.505,160.13375 L26.505,160.13375 Z M33.32,162.16 L33.35776,161.76992 C33.376,161.5832 33.4,161.408 33.46,161.24 L33.92,161.52 C34.3,161.76 34.68,161.9 35.12,161.9 C35.24,161.9 35.38,161.88 35.5,161.86 C36.1,161.74 36.6,161.48 37.04,161.08 C37.565,160.6075 37.9521875,160.027813 38.2685547,159.421328 L38.4,159.16 C38.6,158.76 38.8,158.36 38.9,157.92 C38.96,157.54 39.1,157.18 39.12,156.8 L39.12,156.5 C39.12,156.16 39.1,155.82 39.02,155.48 C38.98,155.32 38.92,155.12 38.8,155 C38.6,154.82 38.34,154.66 38.06,154.56 C38.02,154.56 37.92,154.56 37.9,154.6 C37.88,154.66 37.82,154.66 37.78,154.66 C37.645,154.705 37.54375,154.75 37.459375,154.803438 L37.38,154.86 C37.24,154.98 37.08,155.04 36.94,155.18 C36.72,155.44 36.46,155.68 36.2,155.9 C36.155,155.945 36.14375,155.97875 36.1409375,156.009688 L36.14,156.12 C35.84,156.12 35.84,156.42 35.66,156.52 L35.7,156.7 L35.44,156.76 L35.46,156.82 L35.46,156.82 C35.46,156.9 35.34,156.92 35.3,156.98 C35.24,157.1 35.14,157.24 35.04,157.32 C34.84,157.46 34.76,157.64 34.76,157.86 C34.72,157.84 34.68,157.84 34.66,157.84 C34.58,157.98 34.38,158.1 34.38,158.28 C34.38,158.32 34.4,158.36 34.42,158.42 C34.24,158.42 34.24,158.52 34.16,158.58 C34.08,158.64 34.14,158.8 34,158.8 C33.9866667,158.8 33.9822222,158.782222 33.9807407,158.758519 L33.98,158.72 C33.98,158.68 33.98,158.64 34,158.6 C34.14,158.12 34.28,157.64 34.44,157.18 C34.54,156.86 34.68,156.54 34.8,156.24 C34.9,155.96 35,155.68 35.12,155.4 L35.58,154.44 C35.7266667,154.12 35.8822222,153.817778 36.0407407,153.521481 L36.28,153.08 C36.48,152.7 36.7,152.34 36.92,151.96 L36.975,151.81 C36.985,151.785 36.99625,151.76 37.01,151.735 L37.06,151.66 C37.34,151.28 37.54,150.82 37.84,150.42 L37.8548148,150.374074 C37.8577778,150.364444 37.86,150.353333 37.86,150.34 C37.94,150.04 38.14,149.8 38.3,149.56 C38.42,149.38 38.5175,149.1775 38.6346875,148.994687 L38.76,148.82 C38.7866667,148.793333 38.8044444,148.757778 38.8133333,148.725185 L38.82,148.68 C38.84,148.52 38.9,148.38 39.02,148.26 L38.86,148.3 L38.78,148 L38.54,148.3 C38.54,148.22 38.52,148.16 38.5,148.1 L38.36,148.26 L38.33,148.325 C38.32,148.345 38.31,148.36 38.3,148.36 C38.18,148.38 38.16,148.52 38.04,148.54 C38.04,148.7 37.86,148.7 37.8,148.8 C37.8,148.84 37.74,148.84 37.72,148.88 L37.12,149.58 L37.0032,149.72144 C36.9432,149.7896 36.876,149.852 36.78,149.9 C36.76,150.18 36.48,150.3 36.34,150.52 C36.18,150.82 35.92,151.06 35.7,151.34 C35.3,151.84 35,152.38 34.76,152.96 L34.7,153.06 C34.5,153.3 34.4,153.6 34.26,153.86 L33.9,154.68 L33.7311111,155.025185 C33.7044444,155.082222 33.68,155.14 33.66,155.2 C33.63,155.275 33.6225,155.36125 33.5953125,155.433438 L33.56,155.5 C33.416,155.74 33.3488,156.0056 33.26624,156.25584 L33.2,156.44 C33.02,156.88 32.92,157.36 32.76,157.82 C32.66,158.08 32.6,158.36 32.52,158.64 L32.22,160.04 L32.04,161.34 L32.0548148,161.440741 C32.0577778,161.46 32.06,161.48 32.06,161.5 C32.52,161.64 32.88,161.98 33.32,162.16 Z M34,160.32 C34.08,160.14 34.08,159.96 34.12,159.78 C34.12,159.76 34.12,159.7 34.14,159.7 C34.3,159.7 34.32,159.58 34.34,159.48 C34.34,159.453333 34.3488889,159.435556 34.3607407,159.420741 L34.38,159.4 C34.6,159.2 34.66,158.94 34.78,158.7 L34.82,158.64 C35.02,158.54 35.04,158.34 35.06,158.14 C35.3,158.1 35.34,158.06 35.36,157.8 L35.46,157.8 C35.56,157.766667 35.5072222,157.65 35.5678704,157.588889 L35.62,157.56 C35.68,157.54 35.7,157.5 35.7,157.46 C35.7,157.42 35.68,157.36 35.66,157.32 C35.72,157.32 35.76,157.36 35.8,157.36 C35.82,157.36 35.84,157.36 35.86,157.32 C35.86,157.3 35.82,157.26 35.8,157.24 L36.0422222,157.068148 C36.1977778,156.951111 36.3266667,156.813333 36.34,156.56 L36.52,156.6 L36.58,156.5 C36.62,156.32 36.8,156.22 36.92,156.08 C36.98,156 37.02,155.92 37.04,155.82 L37.12,155.84 L37.12,155.84 C37.232,155.84 37.3056,155.7504 37.38176,155.68384 L37.44,155.64 C37.54,155.58 37.6,155.52 37.6,155.42 C37.7,155.36 37.7,155.34 37.8,155.24 L37.8525,155.175 C37.87,155.155 37.89,155.14 37.92,155.14 L38.06,155.14 C38.12,155.14 38.16,155.12 38.18,155.02 C38.22,155.04 38.22,155.06 38.22,155.08 L38.2,155.2 L38.2,155.2 C38.2,155.24 38.22,155.26 38.26,155.28 C38.26,155.32 38.26,155.38 38.24,155.4 C38.14,155.7 38.06,156 38.04,156.32 C38.02,156.52 37.96,156.7 37.92,156.9 C37.7,157.24 37.64,157.66 37.44,158.02 L37.2088889,158.474815 L37.2088889,158.474815 L37.08,158.7 C36.96,158.92 36.84,159.14 36.7,159.34 C36.42,159.7 36.14,160.02 35.8,160.3 C35.52,160.56 35.2,160.78 34.86,160.96 C34.6,161.08 34.32,161.12 34.02,161.16 L33.84,160.76 C33.82,160.72 33.82,160.68 33.82,160.64 C33.82,160.54 33.86,160.46 33.92,160.38 C33.82,160.36 33.8,160.3 33.8,160.26 C33.8,160.22 33.82,160.16 33.86,160.1 L33.86,160.2 C33.86,160.28 33.98,160.3 34,160.32 Z M33.16,158.3 C33.18,158.26 33.2,158.2 33.2,158.16 L33.18,158.04 L33.18,158.04 C33.16,157.96 33.14,157.9 33.14,157.82 C33.14,157.726667 33.1577778,157.633333 33.1814815,157.54 L33.24,157.34 C33.26,157.3 33.26,157.24 33.26,157.18 L33.2912891,156.840391 C33.3121875,156.654063 33.3575,156.4775 33.52,156.34 C33.54,156.2 33.64,156.14 33.74,156.06 C33.68,156 33.66,155.94 33.66,155.9 C33.66,155.86 33.68,155.84 33.74,155.78 C33.78,155.82 33.78,155.86 33.78,155.9 L33.78,156.02 L33.8625,155.9675 C33.885,155.95 33.9,155.93 33.9,155.9 L33.88,155.84 L33.88,155.84 L33.8459259,155.774815 C33.8422222,155.764444 33.84,155.753333 33.84,155.74 C33.84,155.695 33.8625,155.63875 33.8990625,155.588125 L33.94,155.54 C33.94,155.54 33.96,155.52 33.8,155.4 L33.94,155.34 C34.06,155.28 34.16,155.2 34.16,155.04 C34.16,154.98 34.24,154.94 34.26,154.9 L34.48,155 L34.48,154.82 C34.48,154.76 34.42,154.64 34.38,154.6 C34.44,154.58 34.48,154.58 34.5,154.58 C34.62,154.68 34.7,154.78 34.76,154.92 L34.6,155 L34.76,155.06 C34.66,155.2 34.58,155.32 34.52,155.46 C34.52,155.48 34.56,155.62 34.62,155.64 L34.36,156.02 L34.36,156.2 C34.36,156.344 34.3472,156.488 34.28064,156.62176 L34.22,156.72 C34.12,156.86 34.06,157.02 33.98,157.18 C34,157.22 34,157.26 34,157.3 C34,157.42 33.92,157.46 33.82,157.54 C33.8,157.56 33.78,157.58 33.78,157.6 C33.78,157.64 33.82,157.68 33.88,157.72 C33.86,157.84 33.74,157.94 33.74,158.08 C33.74,158.12 33.76,158.16 33.78,158.2 C33.7,158.22 33.62,158.26 33.52,158.3 L33.52,158.06 C33.48,158.08 33.44,158.08 33.44,158.08 C33.4266667,158.12 33.4222222,158.16 33.4207407,158.205926 L33.42,158.28 C33.42,158.36 33.42,158.46 33.44,158.54 C33.44,158.64 33.34,158.66 33.34,158.74 C33.34,158.753333 33.34,158.775556 33.3518519,158.800741 L33.38,158.84 C33.4,158.86 33.4,158.88 33.4,158.9 C33.4,158.94 33.38,158.96 33.36,158.98 L33.2875,158.9675 C33.255,158.96 33.22,158.95 33.2,158.94 L33.14,159.04 C33.1133333,159.04 33.0955556,159.04 33.0866667,159.034074 L32.96,158.78 L33.14,158.64 C33.12,158.58 33.1,158.54 33.1,158.48 C33.1,158.4 33.12,158.34 33.16,158.3 Z M34.60864,154.21888 L34.64,154.2 C34.74,154.16 34.7,154.1 34.74,154.02 L34.82,153.98 C34.82,153.94 34.9,153.88 34.92,153.86 L34.78,153.76 C34.92,153.72 34.96,153.62 34.96,153.48 C34.96,153.46 35.02,153.44 35.04,153.44 C35.08,153.46 35.1,153.5 35.14,153.54 C35.14,153.46 35.14,153.4 35.12,153.36 C35.12,153.22 35.22,153.16 35.28,153.08 C35.26,153.02 35.24,152.96 35.24,152.92 C35.24,152.84 35.28,152.82 35.4,152.76 L35.6,152.6 C35.54,152.56 35.48,152.52 35.48,152.46 C35.48,152.44 35.48,152.42 35.5,152.38 L35.7,152.38 C35.72,152.34 35.76,152.28 35.76,152.22 C35.76,152.18 35.7,152.14 35.62,152.04 L35.92,152.14 C35.94,152.16 35.94,152.18 35.94,152.2 C35.94,152.3 35.8,152.32 35.78,152.42 C35.78,152.48 35.86,152.54 35.86,152.62 C35.86,152.66 35.84,152.7 35.8,152.74 L35.74,152.6 C35.72,152.66 35.7,152.7 35.66,152.74 C35.64,152.76 35.58,152.76 35.54,152.78 L35.62,152.86 C35.6,152.88 35.56,152.9 35.54,152.9 C35.48,152.9 35.46,152.8 35.4,152.78 L35.4,153.02 L35.28,153.08 L35.3288889,153.12 C35.3355556,153.126667 35.34,153.133333 35.34,153.14 C35.3,153.2 35.3,153.26 35.3,153.32 C35.3,153.4 35.32,153.48 35.32,153.58 C35.32,153.62 35.32,153.68 35.3,153.72 C35.22,153.68 35.12,153.66 35,153.62 C35.02,153.66 35.02,153.72 35.02,153.78 C35.02,153.94 34.98,154.1 34.96,154.18 L35.08,154.24 C34.92,154.36 34.86,154.44 34.84,154.6 C34.8,154.56 34.76,154.54 34.72,154.54 C34.68,154.54 34.64,154.56 34.58,154.56 C34.56,154.56 34.54,154.54 34.54,154.52 C34.54,154.48 34.56,154.42 34.56,154.4 C34.56,154.384 34.5728,154.2656 34.60864,154.21888 L34.60864,154.21888 Z M37.48,159.74 L37.48,160.08 C37.4,160.08 37.32,160.1 37.22,160.12 L37.22,160.02 C37.44,159.96 37.36,159.74 37.44,159.6 C37.44,159.58 37.38,159.52 37.36,159.48 L37.376875,159.347812 C37.37875,159.3275 37.38,159.305 37.38,159.28 L37.48592,159.38656 C37.5344,159.4312 37.58,159.46 37.64,159.46 L37.76,159.7 C37.68,159.7 37.58,159.72 37.48,159.74 Z M38.3053125,157.087187 L38.44,156.82 L38.57088,156.93328 C38.6184,156.9784 38.64,157.012 38.64,157.06 C38.64,157.1 38.64,157.14 38.62,157.18 L38.56,157.06 C38.48,157.08 38.46,157.1 38.46,157.14 C38.46,157.18 38.52,157.24 38.52,157.28 C38.5,157.3 38.44,157.38 38.44,157.42 L38.44,157.52 C38.44,157.56 38.44,157.6 38.4,157.62 C38.3,157.62 38.3,157.54 38.24,157.48 C38.3,157.44 38.36,157.38 38.36,157.32 C38.36,157.28 38.34,157.24 38.28,157.18 L38.2925,157.1275 C38.29625,157.11375 38.300625,157.099375 38.3053125,157.087187 L38.3053125,157.087187 Z M38.06,158.52 L38.06,158.86 C38.04,158.88 38.02,158.88 37.98,158.88 C37.98,158.78 37.94,158.7 37.94,158.62 C37.94,158.58 37.94,158.54 37.98,158.5 C37.98,158.46 37.92,158.38 37.92,158.34 L38.12,158.08 L38.2,158.48 L38.06,158.52 Z M37.66,159.08 L37.66,158.84 L37.98,158.9 C37.9466667,159.033333 37.8855556,159.069444 37.7966667,159.077778 L37.66,159.08 Z M37.94,151.64 C37.92,151.66 37.98,151.72 38.12,151.8 C38.12,151.66 38.14,151.52 38.14,151.36 C38,151.38 37.98,151.52 37.94,151.64 Z M36.74,153.52 C36.74,153.54 36.82,153.62 36.88,153.66 C36.92,153.54 36.94,153.42 36.96,153.32 C36.8,153.32 36.74,153.42 36.74,153.52 Z M36.34,151.34 L36.3925,151.2575 C36.41,151.235 36.43,151.22 36.46,151.22 C36.52,151.24 36.52,151.38 36.54,151.46 L36.32,151.42 C36.32,151.38 36.34,151.36 36.34,151.34 Z M32.84,159.64 L32.92,159.46 C33,159.48 33.02,159.48 33.02,159.52 C33.02,159.54 33,159.58 32.98,159.64 L32.78,159.8 L32.84,159.64 Z M37.78,152.58 C37.8,152.54 37.82,152.5 37.82,152.46 C37.82,152.42 37.8,152.38 37.76,152.34 C37.72,152.32 37.7,152.28 37.66,152.24 C37.66,152.32 37.66,152.36 37.68,152.4 L37.68,152.48 C37.68,152.52 37.68,152.56 37.78,152.58 Z M34.16,155.28 C34.06,155.34 33.98,155.4 33.98,155.52 L34.18,155.46 C34.18,155.4 34.18,155.34 34.16,155.28 Z M38.24,151.28 C38.22,151.2 38.26,151.1 38.14,151.02 L38.06,151.26 L38.24,151.28 Z M38.22,157.9 L38.3,157.72 L38.38,157.835 C38.405,157.875 38.43,157.92 38.46,157.98 L38.22,157.9 Z M38.62,149.52 L38.76,149.74 L38.84,149.48 L38.62,149.52 Z M37.12,153.16 L37.24,152.96 C37.24,152.92 37.22,152.88 37.2,152.84 C37.14,152.9 37.1,152.98 37.1,153.06 C37.1,153.1 37.1,153.12 37.12,153.16 Z M38.52,150.24 C38.52,150.22 38.48,150.22 38.46,150.2 L38.34,150.36 L38.5,150.44 C38.5,150.36 38.52,150.3 38.52,150.24 Z M36.22,153.94 C36.18,154.06 36.12,154.16 36.06,154.28 C36.18,154.2 36.26,154.14 36.26,154.06 C36.26,154.02 36.26,153.98 36.22,153.94 Z M36.4,153.8 L36.3792593,153.826667 C36.3733333,153.835556 36.3666667,153.846667 36.36,153.86 C36.4,153.9 36.42,153.9 36.46,153.9 C36.5,153.9 36.52,153.9 36.56,153.86 L36.56,153.78 C36.54,153.76 36.52,153.74 36.5,153.74 C36.46,153.74 36.46,153.8 36.4,153.8 Z M36.6,153.38 L36.54,153.56 C36.54,153.64 36.58,153.66 36.68,153.66 L36.6,153.38 Z M37.8,151.78 L37.7,152.1 L37.84,152.04 C37.82,151.94 37.8,151.86 37.8,151.78 Z M35.54,153.08 C35.52,153.1 35.5,153.1 35.48,153.1 L35.44,153.18 C35.42,153.18 35.42,153.04 35.42,153.02 C35.44,153 35.46,152.98 35.48,152.98 C35.5,152.98 35.54,153 35.56,153.02 C35.56,153.04 35.54,153.08 35.54,153.08 Z M37.58,152.62 L37.4,152.42 L37.4365625,152.605625 C37.43875,152.61875 37.44,152.63 37.44,152.64 C37.48,152.64 37.52,152.64 37.58,152.62 Z M37.62,159.36 L37.66,159.18 L37.82,159.28 C37.74,159.3 37.7,159.32 37.62,159.36 Z M34.52,155.1 L34.42,155.06 C34.36,155.06 34.34,155.08 34.34,155.14 L34.34,155.22 L34.52,155.1 Z M37.52,152.8 L37.5555556,152.779259 C37.5644444,152.773333 37.5733333,152.766667 37.58,152.76 L37.4896296,152.685926 C37.4755556,152.675556 37.46,152.666667 37.44,152.66 C37.42,152.68 37.4,152.7 37.4,152.72 C37.4,152.76 37.48,152.78 37.52,152.8 Z M33.54,156.68 C33.48,156.7 33.44,156.72 33.44,156.76 C33.44,156.8 33.48,156.86 33.52,156.9 L33.5348148,156.759259 C33.5377778,156.733333 33.54,156.706667 33.54,156.68 Z M34.26,160.06 C34.3,160.04 34.3,160.02 34.32,159.98 L34.24,159.94 C34.24,159.96 34.14,160.04 34.14,160.06 L34.26,160.06 Z M35.18,158.04 L35,157.96 C35.04,157.92 35.06,157.9 35.08,157.9 C35.12,157.9 35.14,157.96 35.18,158.04 Z M36.16,151.74 L36.2281481,151.799259 C36.2355556,151.806667 36.24,151.813333 36.24,151.82 C36.24,151.84 36.22,151.88 36.2,151.92 L36.1511111,151.88 C36.1444444,151.873333 36.14,151.866667 36.14,151.86 C36.14,151.84 36.14,151.8 36.16,151.74 Z M33.92,159.16 L33.98,159.04 L34.0792593,159.074074 C34.0933333,159.077778 34.1066667,159.08 34.12,159.08 C34.1066667,159.093333 34.0933333,159.106667 34.08,159.114074 L34.06,159.12 C34.04,159.12 33.96,159.16 33.92,159.16 Z M36.2,151.46 L36.36,151.58 C36.32,151.58 36.28,151.6 36.26,151.6 C36.22,151.58 36.22,151.54 36.2,151.46 Z M34.86,154.28 L34.64,154.28 C34.68,154.32 34.7,154.34 34.74,154.34 C34.78,154.34 34.82,154.32 34.86,154.28 Z M35.9,151.78 L35.9340741,151.845185 C35.9377778,151.855556 35.94,151.866667 35.94,151.88 C35.94,151.92 35.92,151.96 35.92,151.98 C35.9,151.98 35.88,151.98 35.86,151.96 C35.88,151.9 35.9,151.84 35.9,151.78 Z M38.76,150.18 L38.68,150 C38.66,150.04 38.66,150.08 38.66,150.1 C38.66,150.14 38.68,150.16 38.76,150.18 Z M38.925,149.1375 L38.8875,149.13 C38.87,149.165 38.85,149.2 38.82,149.24 C38.88,149.2 38.91,149.17 38.925,149.1375 L38.8875,149.13 L38.925,149.1375 Z M38.8875,149.13 L38.925,149.1375 C38.94,149.105 38.94,149.07 38.94,149.02 L38.8875,149.13 L38.8875,149.13 L38.925,149.1375 L38.8875,149.13 Z M38.38,151.34 L38.24,151.28 L38.34,151.38 C38.36,151.38 38.38,151.36 38.38,151.34 Z M39.32,161.46 C39.38,161.56 39.44,161.56 39.5,161.62 L39.6688889,161.771111 L39.6688889,161.771111 L39.74,161.86 C39.96,162.18 40.3,162.3 40.6,162.48 L40.84,162.28 C40.78,162.24 40.68,162.26 40.68,162.12 C40.68,162.08 40.64,162 40.6,161.98 L40.4,161.98 C40.38,161.9 40.3,161.82 40.3,161.74 C40.3,161.54 40.26,161.32 40.26,161.12 C40.26,161 40.28,160.88 40.32,160.74 C40.4,160.513333 40.4622222,160.286667 40.5303704,160.06 L40.64,159.72 C40.66,159.64 40.7,159.58 40.8,159.58 L40.88,159.7 C41.06,159.68 41.24,159.62 41.42,159.62 C41.5,159.62 41.54,159.52 41.62,159.52 C41.64,159.52 41.66,159.52 41.68,159.54 C41.9,159.46 42.16,159.48 42.36,159.32 L42.45728,159.21504 C42.49056,159.18048 42.52512,159.14976 42.56224,159.13312 L42.62,159.12 C42.76,159.1 42.8,159.02 42.88,158.94 C42.8933333,158.926667 42.9155556,158.922222 42.9348148,158.920741 L43.04,158.92 C43.08,158.92 43.1,158.9 43.14,158.86 C43.14,158.84 43.22,158.76 43.28,158.74 C43.46,158.64 43.54,158.42 43.76,158.36 C43.7733333,158.36 43.7777778,158.342222 43.7851852,158.324444 L43.9303704,158.111852 L43.9303704,158.111852 L44,158.04 C44.14,157.92 44.18,157.8 44.18,157.64 C44.18,157.6 44.2,157.6 44.22,157.6 C44.26,157.6 44.3,157.62 44.32,157.62 L44.3688889,157.425926 C44.3755556,157.395556 44.38,157.366667 44.38,157.34 L44.38,157.26 C44.38,157.18 44.42,157.12 44.46,157.06 L44.62,156.8 C44.58,156.74 44.54,156.72 44.5,156.68 C44.56,156.56 44.58,156.38 44.58,156.3 C44.58,156.16 44.54,156.04 44.46,156.04 C44.36,156.04 44.34,156.08 44.34,156.14 C44.34,156.2 44.4,156.22 44.4,156.24 C44.4,156.34 44.26,156.36 44.26,156.44 L44.26432,156.55808 C44.2672,156.5968 44.272,156.64 44.28,156.68 L44.2,156.74 C44.2,156.62 44.22,156.52 44.22,156.44 L44.0992593,156.577037 C44.0222222,156.668889 43.96,156.766667 43.96,156.9 C43.82,156.9 43.82,156.96 43.82,156.98 C43.82,157 43.78,157.06 43.78,157.06 C43.66,157.06 43.64,157.16 43.58,157.18 C43.505,157.21 43.4525,157.24 43.405625,157.286875 L43.36,157.34 C43.3,157.42 43.22,157.5 43.14,157.56 C42.76,157.8 42.46,158.14 42.08,158.36 C41.74,158.56 41.44,158.78 41.1,158.98 C41.1,159 41.08,158.98 41.04,158.96 L41.1325,158.89 C41.16,158.865 41.18,158.84 41.18,158.82 C41.18,158.64 41.36,158.56 41.4,158.42 C41.44,158.34 41.52,158.26 41.58,158.18 L41.6911111,158.005185 C41.7111111,157.975556 41.7333333,157.946667 41.76,157.92 C41.84,157.82 41.92,157.7 41.98,157.58 C42.06,157.46 42.2,157.38 42.28,157.24 L42.7,156.62 L42.9888889,156.254074 L42.9888889,156.254074 L43.12,156.06 C43.26,155.82 43.52,155.7 43.6,155.42 C43.76,155.36 43.82,155.2 43.88,155.08 L44.1,155.02 C44.02,154.92 43.94,154.82 43.88,154.72 C43.92,154.72 43.94,154.7 43.98,154.68 C43.98,154.65 43.9575,154.6425 43.929375,154.640625 L43.9,154.64 C43.86,154.64 43.82,154.64 43.78,154.66 L43.68,154.48 L43.58064,154.61968 C43.5624,154.644 43.548,154.66 43.54,154.66 C43.5,154.64 43.46,154.64 43.44,154.64 C43.3,154.64 43.2,154.76 43.08,154.82 C42.72,155.06 42.42,155.38 42.1,155.68 C42.04,155.74 42,155.82 41.96,155.9 L41.8,155.94 C41.7,156.06 41.66,156.26 41.46,156.3 C41.4,156.48 41.22,156.58 41.12,156.72 C40.88,157.06 40.52,157.26 40.4,157.68 C40.4,157.66 40.1,158.02 40.1,158.02 L39.82,158.46 L39.645,158.8175 C39.585,158.935 39.52,159.05 39.44,159.16 C39.3,159.4 39.22,159.66 39.16,159.94 C39.16,160.3 39.08,160.54 39.08,160.78 C39.08,160.98 39.16,161.24 39.32,161.46 Z M44.3,159.22 C44.28,159.36 44.24,159.5 44.2,159.64 L44.12,159.64 C44.02,159.64 44,159.66 43.96,159.78 C44.02,159.78 44.06,159.8 44.16,159.82 L43.88,159.92 L43.84,159.8 L43.7088,159.92352 C43.7032,159.9304 43.7,159.936 43.7,159.94 L43.72,160 L43.72,160 C43.72,160.1 43.56,160.1 43.54,160.18 C43.34,160.22 43.28,160.4 43.14,160.5 L43.2081481,160.599259 C43.2155556,160.613333 43.22,160.626667 43.22,160.64 C43.22,160.68 43.18,160.72 43.14,160.72 C43.02,160.76 42.96,160.82 42.9,160.92 C42.98,160.96 43,161 43,161.04 C43,161.1 42.96,161.16 42.96,161.22 C42.96,161.24 42.96,161.26 42.98,161.28 L43.1592593,161.205926 C43.1866667,161.195556 43.2133333,161.186667 43.24,161.18 L43.1688889,161.06 C43.1555556,161.04 43.14,161.02 43.12,161 C43.26,161 43.36,161.02 43.46,161.02 L43.52,160.6 C43.62,160.64 43.7,160.68 43.78,160.74 L43.9,160.48 C44.08,160.48 44.1,160.3 44.22,160.24 L44.1859259,160.10963 C44.1822222,160.088889 44.18,160.066667 44.18,160.04 L44.36,160.16 C44.36,160.085 44.36,160.02125 44.376875,159.96875 L44.4,159.92 C44.42,159.86 44.46,159.82 44.5,159.76 L44.5340741,159.859259 C44.5377778,159.873333 44.54,159.886667 44.54,159.9 C44.58,159.86 44.62,159.82 44.66,159.8 L44.76,159.66 C44.68,159.62 44.64,159.58 44.64,159.56 C44.64,159.46 44.94,159.36 45,159.36 C45.02,159.36 45.04,159.3 45.06,159.26 L44.96,159.2 C45.02,159.1 45.1,159.02 45.16,158.94 C45.18,158.96 45.2,159 45.2,159.04 L45.38,158.8 L45.4,158.62 L45.4,158.62 C45.48,158.62 45.48,158.56 45.48,158.52 C45.46,158.44 45.42,158.38 45.4,158.32 C45.34,158.38 45.26,158.42 45.22,158.46 C45.2,158.48 45.18,158.5 45.18,158.52 C45.18,158.56 45.24,158.6 45.26,158.62 L45.08,158.78 C45.04,158.74 45,158.72 44.96,158.72 C44.92,158.72 44.88,158.74 44.84,158.78 L44.94,158.92 L44.8,159.06 L44.72,158.9 C44.62,158.96 44.52,159.02 44.52,159.1 C44.52,159.12 44.52,159.14 44.54,159.16 L44.3,159.22 Z M39.76,159.16 C39.8,159.14 39.82,159.14 39.84,159.14 C39.9,159.14 39.96,159.18 40,159.24 L40.045,159.145 C40.055,159.12 40.06,159.1 40.06,159.08 C40.06,159.02 40,159 39.88,158.98 L39.8933333,158.902222 C39.9022222,158.853333 39.92,158.813333 40,158.8 C40.08,158.78 40.18,158.72 40.18,158.6 C40.18,158.58 40.18,158.54 40.16,158.52 C40.16,158.5 40.2,158.34 40.24,158.28 L40.32,158.4 C40.52,158.32 40.4,158.12 40.48,157.98 L40.68,157.94 C40.68,158.06 40.78,158.08 40.84,158.14 L40.84,158.5 C40.84,158.6 40.82,158.68 40.76,158.68 C40.68,158.68 40.6,159 40.56,159.1 L40.52,159.24 C40.48,159.18 40.44,159.12 40.38,159.06 C40.32,159.14 40.32,159.22 40.32,159.3 C40.34,159.36 40.34,159.4 40.34,159.44 C40.34,159.54 40.2844444,159.584444 40.1617593,159.61963 L39.9975,159.6625 C39.975,159.67 39.96,159.68 39.96,159.7 C39.96,159.713333 39.96,159.744444 39.9718519,159.76963 L40.14,159.94 C40.12,160 40.08,160 40.04,160 L39.86,159.98 L39.86,159.98 L39.86,159.88 C39.86,159.86 39.86,159.84 39.84,159.8 C39.8,159.74 39.76,159.68 39.76,159.6 C39.76,159.56 39.76,159.5 39.8,159.44 L39.82,159.38 L39.82,159.38 C39.82,159.32 39.78,159.24 39.76,159.16 Z M43.04,160.64 L43.1,160.46 C43.004,160.524 42.972,160.6008 42.9016,160.6392 L42.84,160.66 C42.74,160.68 42.64,160.78 42.54,160.84 C42.52,160.84 42.42,160.86 42.4,160.9 C42.34,160.92 42.32,160.96 42.32,161 C42.32,161.04 42.34,161.08 42.34,161.14 C42.34,161.16 42.34,161.2 42.32,161.22 C42.28,161.22 42.26,161.2 42.24,161.2 C42.168,161.2 42.1248,161.236 42.0888,161.2864 L42.02,161.4 C42.02,161.4 42,161.42 42.1,161.5 L41.96,161.56 L41.9,161.36 C41.74,161.36 41.68,161.48 41.58,161.52 C41.46,161.56 41.38,161.68 41.34,161.8 C41.28,161.8 41.24,161.78 41.2,161.78 C41.16,161.78 41.1,161.8 41.06,161.86 L41.12,161.94 C41.08,162 41.04,162.02 41.02,162.02 C40.96,162.02 40.92,161.9 40.84,161.88 C40.78,161.94 40.74,162.02 40.74,162.08 C40.74,162.12 40.74,162.14 40.76,162.18 L40.9688889,162.228889 C41.0022222,162.235556 41.0333333,162.24 41.06,162.24 L41.12,162.22 L41.12,162.22 C41.24,162.16 41.36,162.14 41.48,162.12 C41.54,162.1 41.58,162.06 41.58,161.98 C41.58,161.9 41.56,161.86 41.54,161.8 C41.62,161.82 41.7,161.82 41.78,161.82 C41.84,161.82 41.9,161.82 41.98,161.78 C42.14,161.7 42.22,161.58 42.34,161.48 L42.4451852,161.528889 C42.4622222,161.535556 42.48,161.54 42.5,161.54 C42.54,161.54 42.56,161.52 42.58,161.46 L42.54976,161.3376 C42.5392,161.3008 42.528,161.264 42.52,161.24 L42.62,161.24 C42.66,161.24 42.68,161.24 42.72,161.28 C42.72,161.34 42.72,161.4 42.74,161.48 L42.8451852,161.365926 C42.8622222,161.348889 42.88,161.333333 42.9,161.32 L42.8214815,161.294815 C42.8133333,161.291111 42.8066667,161.286667 42.8,161.28 L42.8,161.2 C42.8,161.16 42.8,161.12 42.86,161.1 C42.89,161.1 42.8975,161.08875 42.899375,161.06625 L42.9,160.94 C42.8733333,160.926667 42.8644444,160.913333 42.8614815,160.9 L42.86,160.88 C42.86,160.86 42.86,160.84 42.88,160.82 L43.04,160.64 Z M44.42,155.68 L44.18,155.5 L44.22,155.2 C44.2,155.14 44.18,155.12 44.14,155.12 C44.1,155.12 44.06,155.14 44.04,155.16 C44,155.18 43.98,155.2 43.98,155.22 C43.98,155.26 44.1,155.5 44.18,155.52 L44.34,155.94 L44.42,155.68 Z M41.16,157.96 L41.08,158.12 L40.68,157.94 C40.72,157.88 40.76,157.82 40.82,157.76 C40.88,157.82 40.9,157.88 40.94,157.92 L41.16,157.96 Z M39.68,160.34 C39.68,160.44 39.66,160.54 39.64,160.64 L39.8,160.58 L39.6,160.86 C39.56,160.82 39.54,160.78 39.54,160.74 C39.54,160.7 39.56,160.68 39.6,160.64 L39.54,160.28 L39.68,160.34 Z M42.72,158.18 L42.88,158.4 L42.82,158.64 L42.7266667,158.555556 L42.7266667,158.555556 L42.7,158.52 C42.68,158.5 42.68,158.48 42.68,158.46 L42.72,158.18 Z M39.58,160 L39.78,160.12 L39.8925,160.1225 C39.925,160.125 39.95,160.13 39.96,160.14 C39.98,160.16 40,160.18 40,160.2 C40,160.24 39.94,160.24 39.94,160.3 L39.82,160.3 C39.8,160.3 39.78,160.28 39.78,160.24 C39.74,160.14 39.58,160.14 39.58,160 Z M42.38,158.76 C42.34,158.66 42.36,158.52 42.24,158.48 L42.58,158.58 L42.38,158.76 Z M43.08,157.88 C43.14,157.92 43.16,157.96 43.16,158 C43.16,158.06 43.1,158.1 43.08,158.16 C43.04,158.14 43,158.1 42.96,158.06 L43.08,157.88 Z M43.1,158.44 C43.08,158.44 43.04,158.46 43.04,158.46 C43,158.44 42.98,158.42 42.98,158.4 C42.98,158.38 43.04,158.24 43.08,158.18 C43.12,158.2 43.14,158.22 43.14,158.24 C43.14,158.28 43.1,158.32 43.1,158.44 Z M39.78,161.34 C39.82,161.34 39.86,161.32 39.94,161.28 C39.94,161.38 39.94,161.48 39.96,161.56 L39.943125,161.556562 C39.9225,161.54625 39.885,161.505 39.78,161.34 Z M39.6,160.88 C39.6266667,160.88 39.6444444,160.88 39.6592593,160.885926 L39.68,160.9 C39.7,160.9 39.72,160.94 39.72,160.96 C39.72,161.02 39.66,161.1 39.64,161.12 C39.64,161.14 39.58,161.02 39.58,160.96 L39.6,160.88 L39.6,160.88 Z M41.38,162.04 C41.34,162.04 41.3,162.02 41.24,161.98 L41.46,161.86 L41.38,162.04 Z M43.38,158.04 C43.36,158 43.36,157.94 43.36,157.92 C43.36,157.84 43.4,157.84 43.48,157.82 L43.38,158.04 Z M41.4994848,157.140495 L41.5148157,157.240747 C41.5177782,157.260004 41.52,157.280002 41.52,157.3 C41.5,157.26 41.36,157.24 41.36,157.2 C41.36,157.180165 41.4780285,157.16033 41.4994848,157.140495 Z M39.6975,161.275 L39.75,161.2375 C39.77,161.265 39.78,161.3 39.78,161.34 C39.75,161.32 39.72,161.3 39.6975,161.275 L39.75,161.2375 L39.6975,161.275 Z M42,158.94 C41.98,158.98 41.9,158.98 41.88,158.98 L41.8651852,158.92963 C41.8622222,158.917778 41.86,158.906667 41.86,158.9 L42,158.94 Z M40.02,159.78 C40.04,159.74 40.06,159.74 40.08,159.74 C40.12,159.74 40.16,159.76 40.2,159.78 L40.02,159.78 Z M43.74,157.56 L43.8,157.62 C43.72,157.62 43.7,157.6 43.66,157.6 C43.68,157.58 43.7,157.56 43.74,157.56 Z M39.5625,159.78 L39.57,159.72 L39.5791406,159.807187 C39.5796875,159.8225 39.58,159.84 39.58,159.86 C39.57,159.83 39.565,159.805 39.5625,159.78 Z M45.78,155.2 C45.684,155.376 45.6264,155.5648 45.59696,155.7664 L45.58,155.92 C45.58,155.98 45.56,156.06 45.54,156.12 C45.46,156.58 45.32,157 45.24,157.44 C45.16,157.84 45.02,158.24 44.92,158.62 C44.82,159.02 44.78,159.42 44.64,159.8 C44.56,160.04 44.54,160.28 44.48,160.52 C44.46,160.6 44.44,160.7 44.44,160.78 C44.44,160.98 44.52,161.14 44.64,161.28 C44.86,161.56 45.2,161.84 45.5,162.02 C45.58,162.02 45.64,162.02 45.7,162 C45.66,161.84 45.62,161.56 45.6,161.42 L45.6,161.18 C45.7,160.7 45.8,160.22 45.92,159.76 L46.0948148,159.154074 C46.1244444,159.051111 46.1533333,158.946667 46.18,158.84 L46.46,157.62 C46.48,157.48 46.52,157.36 46.56,157.24 L46.8,157.14 C46.76,157.06 46.78,157 46.76,156.94 L46.88,156.94 C47,156.94 47.002449,156.793061 47.0510787,156.650321 L47.1125,156.505 C47.125,156.48 47.14,156.46 47.16,156.46 C47.256,156.444 47.3264,156.3768 47.38144,156.3096 L47.42,156.26 C47.6,155.98 47.86,155.84 48.08,155.64 C48.176,155.56 48.2592,155.4416 48.3808,155.37696 L48.5975,155.295 C48.625,155.285 48.65,155.28 48.7,155.28 L48.9,155.42 L48.48,156 C48.34,156.22 48.12,156.34 47.96,156.54 C47.78,156.72 47.52,156.7 47.36,156.88 C47.4,157.06 47.5,157.16 47.62,157.24 L47.9340741,157.425185 C47.9844444,157.455556 48.0333333,157.486667 48.08,157.52 C48.18,157.58 48.26,157.6 48.36,157.6 C48.48,157.6 48.6,157.56 48.72,157.5 C48.86,157.42 49,157.3 49.14,157.2 C49.3,157.06 49.42,156.9 49.56,156.74 C49.8,156.48 49.98,156.18 50.1,155.84 C50.14,155.72 50.18,155.58 50.18,155.46 C50.18,155.32 50.14,155.18 50.04,155.08 C49.8233333,154.863333 49.5788889,154.660556 49.2950926,154.529537 L49.12,154.46 C49.08,154.44 49.06,154.44 49.02,154.44 C48.96,154.44 48.92,154.46 48.86,154.48 C48.74,154.56 48.6,154.64 48.46,154.64 C48.38,154.64 48.3,154.72 48.24,154.76 C48.1,154.88 47.96,155 47.8,155.06 C47.76,155.06 47.72,155.1 47.7,155.14 C47.62,155.22 47.56,155.36 47.5,155.38 C47.36,155.38 47.34,155.52 47.22,155.64 C47.04,155.7 47,155.86 47,156.04 C46.96,156.02 46.96,156 46.92,155.96 C46.88,156.02 46.82,156.06 46.76,156.12 C46.66,155.72 46.64,155.3 46.42,154.96 L46.52,154.9 C46.42,154.8 46.36,154.66 46.28,154.66 C46.08,154.64 45.82,154.38 45.58,154.34 C45.6,154.58 45.66,154.94 45.78,155.2 Z M48.86,156.24 C48.88,156.2 48.92,156.18 48.94,156.18 C48.98,156.18 49.02,156.24 49.06,156.3 L49.175,156.115 C49.215,156.055 49.26,156 49.32,155.96 C49.36,155.94 49.38,155.86 49.38,155.82 L49.3,155.38 L49.3975,155.3075 C49.425,155.29 49.45,155.28 49.48,155.28 C49.52,155.28 49.58,155.32 49.68,155.38 C49.62,155.4 49.58,155.4 49.52,155.4 L49.72,155.56 L49.56,155.64 C49.54,155.68 49.54,155.7 49.54,155.72 C49.54,155.78 49.58,155.82 49.64,155.84 L49.535,155.935 C49.5175,155.9525 49.50125,155.97125 49.488125,155.991875 L49.4111111,156.18 C49.4044444,156.2 49.4,156.22 49.4,156.24 C49.4,156.28 49.4,156.3 49.44,156.34 L49.24,156.38 C49.16,156.5 49.1,156.62 49.02,156.78 C48.98,156.76 48.94,156.74 48.86,156.74 C48.86,156.78 48.84,156.82 48.8,156.88 C48.76,156.82 48.74,156.72 48.66,156.72 C48.62,156.74 48.6,156.78 48.6,156.78 L48.48,156.82 C48.48,156.78 48.48,156.72 48.5,156.66 C48.54,156.7 48.58,156.72 48.62,156.74 L48.68,156.66 C48.74,156.6 48.76,156.54 48.76,156.48 C48.76,156.42 48.74,156.36 48.68,156.3 L48.86,156.24 Z M45.98,156.98 C45.98,157 46,157.02 46.02,157.04 C46,157.08 45.98,157.1 45.98,157.14 C45.98,157.18 46,157.24 46.04,157.28 L45.96,157.52 C45.94,157.56 45.94,157.64 45.9,157.68 C45.86,157.72 45.84,157.74 45.84,157.76 L45.86,157.82 L45.86,157.82 C45.88,157.94 45.88,158 45.88,158.08 L45.8059259,158.014815 C45.7955556,158.004444 45.7866667,157.993333 45.78,157.98 L45.68848,157.76688 C45.6832,157.7536 45.68,157.744 45.68,157.74 C45.68,157.64 45.78,157.56 45.78,157.46 C45.78,157.42 45.76,157.36 45.7,157.32 C45.74,157.3 45.82,157.26 45.82,157.16 L45.82,157.04 C45.88,156.82 45.86,156.56 46.06,156.38 C46.06,156.38 46.1,156.38 46.12,156.4 L46.2,156.62 L46.06,156.5 L45.98,156.98 Z M45.6,158.28 C45.62,158.3 45.62,158.32 45.62,158.36 C45.62,158.44 45.58,158.56 45.58,158.58 L45.6,158.72 L45.6,158.72 C45.6,158.733333 45.6,158.746667 45.5940741,158.76 L45.58,158.78 C45.5666667,158.793333 45.5622222,158.806667 45.5607407,158.82 L45.56,158.84 C45.56,158.9 45.58,158.98 45.6,159.04 L45.5525,159.0825 C45.53,159.1 45.5,159.12 45.46,159.14 L45.46,158.92 C45.46,158.86 45.46,158.8 45.48,158.74 L45.5,158.68 L45.5,158.68 C45.5,158.6 45.44,158.56 45.42,158.48 L45.6,158.28 Z M49.24,155.72 L49.18,156 L49.0940741,155.968889 C49.0777778,155.962222 49.06,155.953333 49.04,155.94 L49.24,155.72 Z M48.86,156.24 L48.8259259,156.314074 C48.8222222,156.324444 48.82,156.333333 48.82,156.34 C48.82,156.38 48.86,156.42 48.94,156.42 L48.96,156.3 L48.96,156.3 C48.96,156.26 48.94,156.24 48.86,156.24 Z M45.48,159.2 C45.525,159.245 45.53625,159.29 45.5390625,159.335 L45.54,159.56 L45.485,159.395 C45.47,159.345 45.46,159.3 45.46,159.26 C45.46,159.24 45.46,159.22 45.48,159.2 Z M46.92,156.34 L46.78,156.64 L46.76,156.56 L46.76,156.56 C46.76,156.48 46.82,156.4 46.92,156.34 Z M45.66,157.58 L45.6025,157.545 C45.58,157.53 45.56,157.51 45.56,157.48 L45.56,157.4 L45.64,157.431111 C45.6533333,157.437778 45.6666667,157.446667 45.68,157.46 L45.6651852,157.526667 C45.6622222,157.542222 45.66,157.56 45.66,157.58 Z M46.12,157.18 L46.1511111,157.054074 C46.1577778,157.031111 46.1666667,157.006667 46.18,156.98 C46.2,157.02 46.22,157.08 46.22,157.1 C46.22,157.18 46.2,157.2 46.18,157.2 C46.16,157.2 46.14,157.2 46.12,157.18 Z M46.04,157.02 L46.08,156.82 L46.1140741,156.879259 C46.1177778,156.886667 46.12,156.893333 46.12,156.9 C46.12,156.94 46.08,156.98 46.04,157.02 Z" id="Limber"></path>
                </g>
            </g>
        </g>
    </g>
</svg>