<?xml version="1.0" encoding="UTF-8"?>
<svg width="128px" height="268px" viewBox="0 0 128 268" version="1.1" xmlns="http://www.w3.org/2000/svg" xmlns:xlink="http://www.w3.org/1999/xlink">
    <title>Typeface</title>
    <g id="Page-1" stroke="none" stroke-width="1" fill="none" fill-rule="evenodd">
        <g id="maya" transform="translate(-400.000000, -3441.000000)" fill-rule="nonzero">
            <g id="Group" transform="translate(298.000000, 3144.000000)">
                <g id="Typeface" transform="translate(102.000000, 297.000000)">
                    <path d="M24.21,86 L24.21,85.46 C19.17,85.46 15.12,81.5 15.12,76.46 C15.12,75.38 15.3,74.39 15.57,73.49 L16.2,71.87 L33.48,71.87 L36.09,79.43 C37.08,82.4 34.65,85.46 31.68,85.46 L31.68,86 L59.4,86 L59.4,85.46 C56.7,85.46 54.36,83.75 53.55,81.32 C50.5197,72.662 48.438117,66.677657 46.4709961,61.0009694 L46.1528751,60.0827485 C46.0470813,59.7773247 45.9414903,59.4724261 45.8359701,59.1676791 L45.3611635,57.7960794 C42.404256,49.252352 39.348,40.388 33.3,23 L14.4,75.2 C12.51,80.24 7.47,84.74 2.25,85.46 L2.25,86 L24.21,86 Z M33.3,71.33 L16.38,71.33 L25.02,47.48 C29.07,59.27 30.42,63.05 33.3,71.33 Z M84.5678571,86.45 L100.047857,84.2 L100.047857,83.66 C97.9778571,83.3 96.3578571,81.41 96.3578571,79.25 L96.3578571,52.07 C96.3578571,47.66 93.3878571,44.6 89.9678571,42.89 C86.5478571,41.09 82.0478571,40.46 77.3678571,41.18 C70.9778571,42.08 62.2478571,46.76 62.2478571,53.78 C62.2478571,57.65 65.3078571,60.71 69.1778571,60.71 C73.0478571,60.71 76.1978571,57.65 76.1978571,53.78 C76.1978571,49.64 72.3278571,48.47 72.3278571,45.14 C72.3278571,43.25 74.2178571,42.17 77.4578571,41.72 C81.8678571,41 86.1878571,41.63 89.6978571,43.34 C92.5778571,44.78 95.0078571,47.39 95.0078571,49.82 C95.0078571,53.95 87.5280224,56.7055005 79.8454192,59.2866458 L78.6728806,59.6791852 L78.6728806,59.6791852 L77.5029365,60.0699666 C73.0952768,61.544123 68.866039,63.0009091 66.2078571,64.67 C61.2578571,67.73 58.3778571,73.04 59.8178571,78.17 C61.1678571,83.21 66.2078571,86.45 71.8778571,86.45 C76.9178571,86.45 80.6078571,84.2 82.7678571,82.58 L82.7678571,84.83 C82.7678571,85.73 83.4878571,86.45 84.3878571,86.45 L84.5678571,86.45 L84.5678571,86.45 Z M75.7478571,80.69 C73.8578571,78.62 72.7778571,75.29 73.0478571,70.97 C73.5878571,63.41 79.0778571,60.53 82.7678571,58.82 L82.7678571,81.95 C80.7878571,83.39 77.7278571,82.85 75.7478571,80.69 Z" id="Aa" fill="#FAFAFA"></path>
                    <path d="M4.354,142 L4.354,133.39 L7.406,133.39 L7.406,132.662 L0.49,132.662 L0.49,133.39 L3.542,133.39 L3.542,142 L4.354,142 Z M14.628,142 L14.628,138.01 L18.338,132.662 L17.372,132.662 L14.222,137.254 L11.072,132.662 L10.106,132.662 L13.816,138.01 L13.816,142 L14.628,142 Z M22.508,142 L22.508,138.122 L25.21,138.122 C26.988,138.122 28.024,136.862 28.024,135.392 C28.024,133.922 27.002,132.662 25.21,132.662 L21.71,132.662 L21.71,142 L22.508,142 Z M25.126,137.394 L22.508,137.394 L22.508,133.39 L25.126,133.39 C26.372,133.39 27.184,134.216 27.184,135.392 C27.184,136.554 26.372,137.394 25.126,137.394 Z M37.626,142 L37.626,141.272 L32.502,141.272 L32.502,137.576 L37.528,137.576 L37.528,136.848 L32.502,136.848 L32.502,133.39 L37.626,133.39 L37.626,132.662 L31.704,132.662 L31.704,142 L37.626,142 Z M42.398,142 L42.398,137.576 L47.424,137.576 L47.424,136.848 L42.398,136.848 L42.398,133.39 L47.522,133.39 L47.522,132.662 L41.6,132.662 L41.6,142 L42.398,142 Z M50.698,142 L51.622,139.704 L56.564,139.704 L57.488,142 L58.412,142 L54.59,132.662 L53.596,132.662 L49.774,142 L50.698,142 Z M56.298,138.976 L51.888,138.976 L54.1,133.516 L56.298,138.976 Z M65.62,142.168 C67.104,142.168 68.196,141.524 69.036,140.502 L68.35,140.082 C67.762,140.894 66.74,141.44 65.62,141.44 C63.436,141.44 61.728,139.746 61.728,137.338 C61.728,134.902 63.436,133.236 65.62,133.236 C66.74,133.236 67.762,133.782 68.35,134.594 L69.022,134.16 C68.238,133.166 67.104,132.508 65.62,132.508 C62.974,132.508 60.888,134.468 60.888,137.338 C60.888,140.208 62.974,142.168 65.62,142.168 Z M78.554,142 L78.554,141.272 L73.43,141.272 L73.43,137.576 L78.456,137.576 L78.456,136.848 L73.43,136.848 L73.43,133.39 L78.554,133.39 L78.554,132.662 L72.632,132.662 L72.632,142 L78.554,142 Z" id="TYPEFACE" fill="#9A9A9A"></path>
                    <rect id="Rectangle" fill="#606060" x="0" y="171" width="1" height="92"></rect>
                    <path d="M17.498,181 L17.498,178.088 C17.498,177.626 17.876,177.248 18.338,177.248 L18.338,177.164 L14.18,177.164 L14.18,177.248 C14.656,177.248 15.034,177.626 15.034,178.088 L15.034,180.622 C14.67,180.86 14.082,180.916 13.76,180.916 C12.766,180.916 11.954,178.76 11.954,176.1 C11.954,173.44 12.766,171.284 13.76,171.284 C14.236,171.284 15.328,171.41 15.328,172.082 C15.328,172.74 14.502,172.992 14.502,173.93 C14.502,174.756 15.174,175.428 16,175.428 C16.826,175.428 17.498,174.756 17.498,173.93 C17.498,173.636 17.386,173.314 17.204,173.006 C16.616,172.068 15.258,171.2 13.76,171.2 C11.324,171.2 9.35,173.398 9.35,176.1 C9.35,178.802 11.324,181 13.76,181 C14.712,181 15.258,180.65 16.266,180.65 C16.784,180.65 17.162,180.79 17.498,181 Z M20.662,173.37 C21.264,173.37 21.754,172.88 21.754,172.292 C21.754,171.69 21.264,171.2 20.662,171.2 C20.06,171.2 19.584,171.69 19.584,172.292 C19.584,172.88 20.06,173.37 20.662,173.37 Z M22.286,181 L22.286,180.916 C21.964,180.86 21.712,180.566 21.712,180.23 L21.712,174.364 C21.712,174.224 21.614,174.126 21.474,174.126 L21.432,174.126 L21.432,174.126 L19.038,174.476 L19.038,174.56 C19.36,174.616 19.612,174.896 19.612,175.246 L19.612,180.23 C19.612,180.566 19.36,180.86 19.038,180.916 L19.038,181 L22.286,181 Z M26.906,181.07 L29.314,180.72 L29.314,180.636 C28.992,180.58 28.74,180.286 28.74,179.95 L28.74,175.722 C28.74,175.036 28.278,174.56 27.746,174.294 C27.214,174.014 26.514,173.916 25.786,174.028 C24.792,174.168 23.434,174.896 23.434,175.988 C23.434,176.59 23.91,177.066 24.512,177.066 C25.114,177.066 25.604,176.59 25.604,175.988 C25.604,175.344 25.002,175.162 25.002,174.644 C25.002,174.35 25.296,174.182 25.8,174.112 C26.486,174 27.158,174.098 27.704,174.364 C28.152,174.588 28.53,174.994 28.53,175.372 C28.53,176.45 25.254,176.926 24.05,177.682 C23.28,178.158 22.832,178.984 23.056,179.782 C23.266,180.566 24.05,181.07 24.932,181.07 C25.716,181.07 26.29,180.72 26.626,180.468 L26.626,180.818 C26.626,180.958 26.738,181.07 26.878,181.07 L26.906,181.07 L26.906,181.07 Z M25.534,180.174 C25.24,179.852 25.072,179.334 25.114,178.662 C25.198,177.486 26.052,177.038 26.626,176.772 L26.626,180.37 C26.318,180.594 25.842,180.51 25.534,180.174 Z M35.222,180.72 L35.222,178.788 L35.138,178.788 C34.046,179.474 32.016,178.368 30.938,178.942 C31.428,178.452 32.1,178.018 32.758,177.598 C34.186,176.674 35.698,175.708 35.516,173.972 L35.432,173.972 C34.284,174.728 31.33,173.356 30.336,174.308 L30.336,176.254 L30.42,176.254 C31.498,175.554 33.542,176.674 34.62,176.1 C34.102,176.632 33.402,177.08 32.702,177.528 C32.016,177.976 31.288,178.438 30.784,178.984 C30.21,179.6 29.958,180.258 30.042,181 L30.126,181 C31.26,180.244 34.228,181.672 35.222,180.72 Z M40.164,181.07 L42.572,180.72 L42.572,180.636 C42.25,180.58 41.998,180.286 41.998,179.95 L41.998,175.722 C41.998,175.036 41.536,174.56 41.004,174.294 C40.472,174.014 39.772,173.916 39.044,174.028 C38.05,174.168 36.692,174.896 36.692,175.988 C36.692,176.59 37.168,177.066 37.77,177.066 C38.372,177.066 38.862,176.59 38.862,175.988 C38.862,175.344 38.26,175.162 38.26,174.644 C38.26,174.35 38.554,174.182 39.058,174.112 C39.744,174 40.416,174.098 40.962,174.364 C41.41,174.588 41.788,174.994 41.788,175.372 C41.788,176.45 38.512,176.926 37.308,177.682 C36.538,178.158 36.09,178.984 36.314,179.782 C36.524,180.566 37.308,181.07 38.19,181.07 C38.974,181.07 39.548,180.72 39.884,180.468 L39.884,180.818 C39.884,180.958 39.996,181.07 40.136,181.07 L40.164,181.07 L40.164,181.07 Z M38.792,180.174 C38.498,179.852 38.33,179.334 38.372,178.662 C38.456,177.486 39.31,177.038 39.884,176.772 L39.884,180.37 C39.576,180.594 39.1,180.51 38.792,180.174 Z M49.46,181 L49.46,180.916 C48.984,180.916 48.606,180.538 48.606,180.076 L48.606,177.892 C49.936,177.64 53.422,177.108 53.422,174.126 C53.422,172.502 52.176,171.2 50.636,171.2 L45.302,171.2 L45.302,171.284 C45.764,171.284 46.142,171.662 46.142,172.124 L46.142,180.076 C46.142,180.538 45.764,180.916 45.302,180.916 L45.302,181 L49.46,181 Z M48.606,177.752 L48.606,171.284 L49.208,171.284 C50.09,171.284 50.804,172.558 50.804,174.126 C50.804,175.764 50.202,177.038 48.606,177.752 Z M57.37,181 L57.37,180.916 C57.048,180.86 56.796,180.566 56.796,180.23 L56.796,174.518 C57.02,174.406 57.202,174.35 57.328,174.35 C57.468,174.35 57.552,174.42 57.552,174.56 C57.552,174.672 57.51,174.742 57.51,174.924 C57.51,175.526 58,176.016 58.588,176.016 C59.19,176.016 59.68,175.526 59.68,174.924 C59.68,174.336 59.19,173.874 58.588,173.846 C58.042,173.818 57.3,174.168 56.796,174.434 L56.796,174.364 C56.796,174.238 56.698,174.126 56.558,174.126 L56.516,174.126 L56.516,174.126 L54.122,174.476 L54.122,174.56 C54.444,174.616 54.696,174.896 54.696,175.246 L54.696,180.23 C54.696,180.566 54.444,180.86 54.122,180.916 L54.122,181 L57.37,181 Z M63.572,181.07 C65.336,181.07 66.764,179.488 66.764,177.528 C66.764,175.568 65.336,173.986 63.572,173.986 C61.808,173.986 60.38,175.568 60.38,177.528 C60.38,179.488 61.808,181.07 63.572,181.07 Z M63.572,180.986 C62.872,180.986 62.48,179.824 62.48,177.528 C62.48,175.218 62.872,174.07 63.572,174.07 C64.272,174.07 64.65,175.218 64.65,177.528 C64.65,179.824 64.272,180.986 63.572,180.986 Z M75.094,176.996 L75.094,176.884 L69.494,176.884 L69.494,176.996 L75.094,176.996 Z M85.006,181.588027 C85.748,181.574 86.434,181.364 86.784,181 L86.784,180.916 C85.8570303,181.093333 85.4359247,179.980481 85.0263512,178.782545 L84.8968189,178.402826 C84.6362149,177.643355 84.3594545,176.900545 83.942,176.478 C83.662,176.186333 83.3236667,176.118278 83.2186667,176.103694 L83.186,176.1 L83.186,176.1 L83.396,176.1 C84.852,176.1 86.028,175.008 86.028,173.65 C86.028,172.292 84.852,171.2 83.396,171.2 L77.824,171.2 L77.824,171.284 C78.286,171.284 78.664,171.662 78.664,172.124 L78.664,180.076 C78.664,180.538 78.286,180.916 77.824,180.916 L77.824,181 L81.982,181 L81.982,180.916 C81.506,180.916 81.128,180.538 81.128,180.076 L81.128,176.142 L81.128,176.142 L81.198,176.142 C82.234,176.142 81.786,181.602 85.006,181.588027 Z M82.052,176.058 L81.128,176.058 L81.128,171.284 L82.052,171.284 C82.878,171.284 83.55,172.348 83.55,173.664 C83.55,174.994 82.878,176.058 82.052,176.058 Z M90.676,181.07 C91.81,181.07 92.818,180.412 93.378,179.404 L93.308,179.362 C92.916,179.824 92.412,180.104 91.866,180.104 C90.606,180.104 89.584,178.606 89.584,176.758 L93.644,176.758 C93.336,175.176 92.202,173.986 90.676,173.986 C88.912,173.986 87.484,175.568 87.484,177.528 C87.484,179.488 88.912,181.07 90.676,181.07 Z M91.74,176.674 L89.584,176.674 C89.598,176.198 89.71,174.07 90.676,174.07 C91.292,174.07 91.656,174.938 91.74,176.674 Z M99.594,184.388 C100.882,184.388 101.946,183.282 101.946,181.91 C101.946,180.734 101.148,179.74 100.098,179.488 C100.854,178.928 101.33,178.046 101.33,177.066 C101.33,175.988 100.784,175.064 99.916,174.504 C99.636,174.322 99.412,174.084 99.412,173.846 C99.412,173.636 99.58,173.44 99.888,173.314 C100.294,173.132 100.602,172.754 100.602,172.292 C100.602,171.69 100.126,171.2 99.524,171.2 C98.922,171.2 98.432,171.69 98.432,172.292 C98.432,173.118 99.02,173.846 99.482,174.266 C99.076,174.084 98.614,173.986 98.138,173.986 C96.374,173.986 94.946,175.358 94.946,177.066 C94.946,177.78 95.198,178.438 95.632,178.956 C94.89,179.18 94.344,179.908 94.344,180.762 C94.344,181.812 95.142,182.652 96.136,182.652 C97.844,182.652 98.502,180.118 100.154,180.118 C101.092,180.118 101.862,180.916 101.862,181.91 C101.862,183.24 100.84,184.304 99.594,184.304 C99.314,184.304 99.16,184.234 99.16,184.01 C99.16,183.87 99.272,183.702 99.398,183.576 C99.594,183.38 99.706,183.1 99.706,182.806 C99.706,182.204 99.23,181.714 98.628,181.714 C98.026,181.714 97.536,182.204 97.536,182.806 C97.536,183.66 98.516,184.388 99.594,184.388 Z M97.9,180.02 C97.354,179.81 97.06,178.816 97.06,177.066 C97.06,175.064 97.438,174.07 98.138,174.07 C98.852,174.07 99.23,175.064 99.23,177.066 C99.23,178.256 99.09,179.096 98.824,179.572 C98.516,179.684 98.208,179.838 97.9,180.02 Z M96.136,180.734 C95.632,180.734 95.212,180.314 95.212,179.81 C95.212,179.474 95.394,179.18 95.674,179.012 C96.178,179.6 96.906,180.006 97.732,180.118 C97.172,180.426 96.654,180.734 96.136,180.734 Z M105.544,180.86 C104.998,180.86 104.592,180.664 104.592,180.37 C104.592,179.852 105.32,179.67 105.32,178.956 L105.32,174.364 C105.32,174.224 105.222,174.126 105.082,174.126 L105.04,174.126 L105.04,174.126 L102.646,174.476 L102.646,174.56 C102.968,174.616 103.22,174.896 103.22,175.246 L103.22,179.152 C103.22,181.452278 105.482847,181.291213 106.792181,180.675814 L106.902,180.622 L106.902,180.832 C106.902,180.958 107.014,181.07 107.14,181.07 L107.182,181.07 L107.182,181.07 L109.576,180.72 L109.576,180.636 C109.254,180.58 109.002,180.286 109.002,179.95 L109.002,174.364 C109.002,174.224 108.904,174.126 108.764,174.126 L108.722,174.126 L108.722,174.126 L106.328,174.476 L106.328,174.56 C106.65,174.616 106.902,174.896 106.902,175.246 L106.902,180.538 C106.818,180.58 106.244,180.86 105.544,180.86 Z M113.524,181 L113.524,180.916 C113.202,180.86 112.95,180.566 112.95,180.23 L112.95,171.452 C112.95,171.312 112.852,171.2 112.712,171.2 L112.67,171.2 L112.67,171.2 L110.276,171.55 L110.276,171.634 C110.598,171.69 110.85,171.984 110.85,172.32 L110.85,180.23 C110.85,180.566 110.598,180.86 110.276,180.916 L110.276,181 L113.524,181 Z M118.144,181.07 L120.552,180.72 L120.552,180.636 C120.23,180.58 119.978,180.286 119.978,179.95 L119.978,175.722 C119.978,175.036 119.516,174.56 118.984,174.294 C118.452,174.014 117.752,173.916 117.024,174.028 C116.03,174.168 114.672,174.896 114.672,175.988 C114.672,176.59 115.148,177.066 115.75,177.066 C116.352,177.066 116.842,176.59 116.842,175.988 C116.842,175.344 116.24,175.162 116.24,174.644 C116.24,174.35 116.534,174.182 117.038,174.112 C117.724,174 118.396,174.098 118.942,174.364 C119.39,174.588 119.768,174.994 119.768,175.372 C119.768,176.45 116.492,176.926 115.288,177.682 C114.518,178.158 114.07,178.984 114.294,179.782 C114.504,180.566 115.288,181.07 116.17,181.07 C116.954,181.07 117.528,180.72 117.864,180.468 L117.864,180.818 C117.864,180.958 117.976,181.07 118.116,181.07 L118.144,181.07 L118.144,181.07 Z M116.772,180.174 C116.478,179.852 116.31,179.334 116.352,178.662 C116.436,177.486 117.29,177.038 117.864,176.772 L117.864,180.37 C117.556,180.594 117.08,180.51 116.772,180.174 Z M124.5,181 L124.5,180.916 C124.178,180.86 123.926,180.566 123.926,180.23 L123.926,174.518 C124.15,174.406 124.332,174.35 124.458,174.35 C124.598,174.35 124.682,174.42 124.682,174.56 C124.682,174.672 124.64,174.742 124.64,174.924 C124.64,175.526 125.13,176.016 125.718,176.016 C126.32,176.016 126.81,175.526 126.81,174.924 C126.81,174.336 126.32,173.874 125.718,173.846 C125.172,173.818 124.43,174.168 123.926,174.434 L123.926,174.364 C123.926,174.238 123.828,174.126 123.688,174.126 L123.646,174.126 L123.646,174.126 L121.252,174.476 L121.252,174.56 C121.574,174.616 121.826,174.896 121.826,175.246 L121.826,180.23 C121.826,180.566 121.574,180.86 121.252,180.916 L121.252,181 L124.5,181 Z" id="GiazaPro-Regular" fill="#FFFFFF"></path>
                    <path d="M13.928,209 C15.636,209 16.98,207.866 16.98,206.298 C16.98,205.01 15.902,204.254 15.16,204.016 C15.818,203.708 16.7,202.868 16.7,201.79 C16.7,200.32 15.412,199.2 13.746,199.2 L10.54,199.2 C10.386,199.2 10.274,199.326 10.274,199.466 L10.274,208.734 C10.274,208.874 10.386,209 10.54,209 L13.928,209 Z M13.578,203.316 L12.08,203.316 L12.08,200.866 L13.578,200.866 C14.292,200.866 14.782,201.356 14.782,202.056 C14.782,202.756 14.292,203.316 13.578,203.316 Z M13.774,207.348 L12.08,207.348 L12.08,204.856 L13.606,204.856 C14.334,204.856 15.034,205.374 15.034,206.074 C15.034,206.802 14.474,207.348 13.774,207.348 Z M19.822,209 C20.018,209 20.144,208.93 20.144,208.734 L20.144,205.346 C20.242,205.15 20.578,204.772 21.138,204.772 C21.292,204.772 21.502,204.842 21.544,204.856 C21.656,204.912 21.796,204.856 21.866,204.73 L22.384,203.82 C22.552,203.47 21.964,203.26 21.306,203.26 C20.438,203.26 19.92,203.848 19.724,204.128 L19.528,203.582 C19.486,203.47 19.402,203.4 19.276,203.4 L18.744,203.4 C18.604,203.4 18.478,203.512 18.478,203.666 L18.478,208.734 C18.478,208.874 18.604,209 18.744,209 L19.822,209 Z M24.736,209.14 C25.604,209.14 26.122,208.72 26.444,208.426 L26.612,208.804 C26.682,208.958 26.752,209 26.85,209 L27.354,209 C27.494,209 27.62,208.874 27.62,208.734 L27.62,205.696 C27.62,204.17 27.214,203.26 25.464,203.26 C24.568,203.26 23.672,203.484 23.56,203.526 C23.434,203.568 23.322,203.666 23.364,203.876 L23.49,204.604 C23.518,204.786 23.616,204.912 23.812,204.856 C24.134,204.758 24.862,204.646 25.38,204.646 C25.898,204.646 26.122,204.898 26.108,205.612 C26.108,205.612 25.646,205.458 25.086,205.458 C23.658,205.458 22.846,206.228 22.846,207.222 C22.846,208.412 23.616,209.14 24.736,209.14 Z M25.114,207.95 C24.68,207.95 24.386,207.642 24.386,207.222 C24.386,206.774 24.75,206.466 25.296,206.466 C25.702,206.466 26.08,206.634 26.08,206.634 L26.08,207.404 C25.996,207.572 25.562,207.95 25.114,207.95 Z M30.532,209 C30.798,209 30.882,208.93 30.882,208.734 L30.882,205.654 C31.022,205.276 31.47,204.772 32.198,204.772 C32.87,204.772 33.248,205.234 33.248,205.962 L33.248,208.734 C33.248,208.874 33.36,209 33.514,209 L34.662,209 C34.802,209 34.928,208.874 34.928,208.734 L34.928,206.046 C34.928,204.59 34.214,203.26 32.436,203.26 C31.358,203.26 30.672,203.862 30.462,204.086 L30.266,203.568 C30.224,203.47 30.154,203.4 30.028,203.4 L29.496,203.4 C29.356,203.4 29.23,203.512 29.23,203.666 L29.23,208.734 C29.23,208.874 29.356,209 29.496,209 L30.532,209 Z M38.764,209.14 C39.94,209.14 40.598,208.3 40.598,208.3 L40.738,208.734 C40.78,208.888 40.878,209 41.004,209 L41.55,209 C41.69,209 41.816,208.874 41.816,208.734 L41.816,199.466 C41.816,199.326 41.69,199.2 41.55,199.2 L40.36,199.2 C40.22,199.2 40.094,199.326 40.094,199.466 L40.094,203.512 C39.842,203.414 39.408,203.26 38.848,203.26 C37.182,203.26 36.076,204.562 36.076,206.2 C36.076,207.81 37.238,209.14 38.764,209.14 Z M38.974,207.628 C38.232,207.628 37.7,206.984 37.7,206.2 C37.7,205.416 38.274,204.772 39.058,204.772 C39.6503077,204.772 40.0220947,205.002544 40.1224716,205.073481 L40.15,205.094 L40.15,205.094 L40.15,206.718 C40.052,207.054 39.716,207.628 38.974,207.628 Z M45.932,209.14 C47.514,209.14 48.802,207.796 48.802,206.186 C48.802,204.604 47.514,203.26 45.932,203.26 C44.35,203.26 43.062,204.604 43.062,206.186 C43.062,207.796 44.35,209.14 45.932,209.14 Z M45.932,207.628 C45.176,207.628 44.588,206.984 44.588,206.186 C44.588,205.402 45.176,204.772 45.932,204.772 C46.674,204.772 47.276,205.402 47.276,206.186 C47.276,206.984 46.674,207.628 45.932,207.628 Z M51.35,209 C51.616,209 51.7,208.93 51.7,208.734 L51.7,205.654 C51.84,205.276 52.288,204.772 53.016,204.772 C53.688,204.772 54.066,205.234 54.066,205.962 L54.066,208.734 C54.066,208.874 54.178,209 54.332,209 L55.48,209 C55.62,209 55.746,208.874 55.746,208.734 L55.746,206.046 C55.746,204.59 55.032,203.26 53.254,203.26 C52.176,203.26 51.49,203.862 51.28,204.086 L51.084,203.568 C51.042,203.47 50.972,203.4 50.846,203.4 L50.314,203.4 C50.174,203.4 50.048,203.512 50.048,203.666 L50.048,208.734 C50.048,208.874 50.174,209 50.314,209 L51.35,209 Z M63.712,206.312 C63.866,206.312 63.978,206.2 63.978,206.06 L63.978,205.122 C63.978,204.968 63.866,204.856 63.712,204.856 L60.59,204.856 C60.436,204.856 60.324,204.968 60.324,205.122 L60.324,206.06 C60.324,206.2 60.436,206.312 60.59,206.312 L63.712,206.312 Z M72.756,209 C74.464,209 75.808,207.866 75.808,206.298 C75.808,205.01 74.73,204.254 73.988,204.016 C74.646,203.708 75.528,202.868 75.528,201.79 C75.528,200.32 74.24,199.2 72.574,199.2 L69.368,199.2 C69.214,199.2 69.102,199.326 69.102,199.466 L69.102,208.734 C69.102,208.874 69.214,209 69.368,209 L72.756,209 Z M72.406,203.316 L70.908,203.316 L70.908,200.866 L72.406,200.866 C73.12,200.866 73.61,201.356 73.61,202.056 C73.61,202.756 73.12,203.316 72.406,203.316 Z M72.602,207.348 L70.908,207.348 L70.908,204.856 L72.434,204.856 C73.162,204.856 73.862,205.374 73.862,206.074 C73.862,206.802 73.302,207.348 72.602,207.348 Z M79.742,209.14 C81.324,209.14 82.612,207.796 82.612,206.186 C82.612,204.604 81.324,203.26 79.742,203.26 C78.16,203.26 76.872,204.604 76.872,206.186 C76.872,207.796 78.16,209.14 79.742,209.14 Z M79.742,207.628 C78.986,207.628 78.398,206.984 78.398,206.186 C78.398,205.402 78.986,204.772 79.742,204.772 C80.484,204.772 81.086,205.402 81.086,206.186 C81.086,206.984 80.484,207.628 79.742,207.628 Z M85.3,209 C85.44,209 85.566,208.874 85.566,208.734 L85.566,199.466 C85.566,199.326 85.44,199.2 85.3,199.2 L84.124,199.2 C83.984,199.2 83.858,199.326 83.858,199.466 L83.858,208.734 C83.858,208.874 83.984,209 84.124,209 L85.3,209 Z M89.514,209.14 C90.69,209.14 91.348,208.3 91.348,208.3 L91.488,208.734 C91.53,208.888 91.628,209 91.754,209 L92.3,209 C92.44,209 92.566,208.874 92.566,208.734 L92.566,199.466 C92.566,199.326 92.44,199.2 92.3,199.2 L91.11,199.2 C90.97,199.2 90.844,199.326 90.844,199.466 L90.844,203.512 C90.592,203.414 90.158,203.26 89.598,203.26 C87.932,203.26 86.826,204.562 86.826,206.2 C86.826,207.81 87.988,209.14 89.514,209.14 Z M89.724,207.628 C88.982,207.628 88.45,206.984 88.45,206.2 C88.45,205.416 89.024,204.772 89.808,204.772 C90.4003077,204.772 90.7720947,205.002544 90.8724716,205.073481 L90.9,205.094 L90.9,205.094 L90.9,206.718 C90.802,207.054 90.466,207.628 89.724,207.628 Z" id="Brandon-Bold" fill="#FFFFFF"></path>
                    <path d="M13.886,236 C15.692,236 16.938,234.866 16.938,233.298 C16.938,232.01 16,231.324 15.258,231.016 C15.916,230.638 16.63,229.854 16.63,228.776 C16.63,227.306 15.468,226.2 13.76,226.2 L10.694,226.2 C10.54,226.2 10.428,226.326 10.428,226.466 L10.428,235.734 C10.428,235.874 10.54,236 10.694,236 L13.886,236 Z M13.76,230.596 L11.478,230.596 L11.478,227.166 L13.76,227.166 C14.838,227.166 15.44,227.838 15.44,228.846 C15.44,229.826 14.838,230.596 13.76,230.596 Z M13.998,235.062 L11.45,235.062 L11.45,231.562 L13.76,231.562 C14.852,231.562 15.762,232.29 15.762,233.284 C15.762,234.292 15.02,235.062 13.998,235.062 Z M19.444,236 C19.584,236 19.71,235.874 19.71,235.734 L19.71,231.996 C19.71,231.996 20.172,231.212 21.236,231.212 C21.446,231.212 21.656,231.268 21.782,231.324 C21.922,231.38 22.048,231.38 22.118,231.198 L22.286,230.722 C22.426,230.33 21.726,230.26 21.306,230.26 C20.144,230.26 19.626,231.002 19.626,231.002 L19.514,230.596 C19.486,230.47 19.388,230.4 19.276,230.4 L19.01,230.4 C18.87,230.4 18.744,230.526 18.744,230.666 L18.744,235.734 C18.744,235.874 18.87,236 19.01,236 L19.444,236 Z M24.736,236.14 C25.604,236.14 26.178,235.706 26.472,235.412 L26.584,235.79 C26.626,235.916 26.668,236 26.822,236 L27.088,236 C27.228,236 27.354,235.874 27.354,235.734 L27.354,232.626 C27.354,230.988 27.004,230.26 25.576,230.26 C24.526,230.26 23.714,230.582 23.63,230.624 C23.504,230.68 23.42,230.764 23.476,230.932 L23.588,231.282 C23.63,231.408 23.714,231.478 23.854,231.422 C24.106,231.324 24.764,231.114 25.534,231.114 C26.332,231.114 26.458,231.59 26.444,232.626 C26.444,232.626 25.856,232.444 25.254,232.444 C23.812,232.444 23.014,233.242 23.014,234.306 C23.014,235.426 23.756,236.14 24.736,236.14 Z M24.89,235.3 C24.288,235.3 23.91,234.866 23.91,234.306 C23.91,233.578 24.47,233.186 25.254,233.186 C25.87,233.186 26.262,233.312 26.43,233.41 L26.43,234.516 C26.192,234.866 25.59,235.3 24.89,235.3 Z M30,236 C30.14,236 30.266,235.874 30.266,235.734 L30.266,231.996 L30.2966387,231.965464 C30.4479516,231.81928 31.1455294,231.198 32.072,231.198 C32.856,231.198 33.332,231.716 33.332,232.78 L33.332,235.734 C33.332,235.874 33.458,236 33.598,236 L34.046,236 C34.186,236 34.312,235.874 34.312,235.734 L34.312,232.78 C34.312,231.324 33.766,230.26 32.142,230.26 C31.1167059,230.26 30.3748028,230.837682 30.2144283,230.973607 L30.182,231.002 L30.182,231.002 L30.056,230.568 C30.028,230.456 29.958,230.4 29.832,230.4 L29.566,230.4 C29.426,230.4 29.3,230.526 29.3,230.666 L29.3,235.734 C29.3,235.874 29.426,236 29.566,236 L30,236 Z M38.372,236.14 C39.422,236.14 40.094,235.398 40.094,235.398 L40.178,235.776 C40.206,235.902 40.29,236 40.416,236 L40.71,236 C40.85,236 40.976,235.874 40.976,235.734 L40.976,226.466 C40.976,226.326 40.85,226.2 40.71,226.2 L40.276,226.2 C40.136,226.2 40.01,226.326 40.01,226.466 L40.01,230.624 C40.01,230.624 39.436,230.26 38.512,230.26 C36.832,230.26 35.824,231.548 35.824,233.186 C35.824,234.796 36.944,236.14 38.372,236.14 Z M38.47,235.258 C37.448,235.258 36.804,234.292 36.804,233.2 C36.804,232.08 37.42,231.198 38.638,231.198 C39.408,231.198 39.996,231.534 39.996,231.534 L39.996,234.334 C39.996,234.334 39.478,235.258 38.47,235.258 Z M45.358,236.14 C46.912,236.14 48.144,234.796 48.144,233.186 C48.144,231.604 46.912,230.26 45.358,230.26 C43.804,230.26 42.572,231.604 42.572,233.186 C42.572,234.796 43.804,236.14 45.358,236.14 Z M45.358,235.23 C44.336,235.23 43.538,234.32 43.538,233.186 C43.538,232.08 44.336,231.184 45.358,231.184 C46.38,231.184 47.178,232.08 47.178,233.186 C47.178,234.32 46.38,235.23 45.358,235.23 Z M50.426,236 C50.566,236 50.692,235.874 50.692,235.734 L50.692,231.996 L50.7226387,231.965464 C50.8739516,231.81928 51.5715294,231.198 52.498,231.198 C53.282,231.198 53.758,231.716 53.758,232.78 L53.758,235.734 C53.758,235.874 53.884,236 54.024,236 L54.472,236 C54.612,236 54.738,235.874 54.738,235.734 L54.738,232.78 C54.738,231.324 54.192,230.26 52.568,230.26 C51.5427059,230.26 50.8008028,230.837682 50.6404283,230.973607 L50.608,231.002 L50.608,231.002 L50.482,230.568 C50.454,230.456 50.384,230.4 50.258,230.4 L49.992,230.4 C49.852,230.4 49.726,230.526 49.726,230.666 L49.726,235.734 C49.726,235.874 49.852,236 49.992,236 L50.426,236 Z M63.124,232.92 C63.278,232.92 63.39,232.808 63.39,232.668 L63.39,232.402 C63.39,232.248 63.278,232.136 63.124,232.136 L60.198,232.136 C60.044,232.136 59.932,232.248 59.932,232.402 L59.932,232.668 C59.932,232.808 60.044,232.92 60.198,232.92 L63.124,232.92 Z M69.9,236 C70.04,236 70.166,235.874 70.166,235.734 L70.166,232.164 L72.84,232.164 L74.702,235.874 C74.73,235.93 74.8,236 74.926,236 L75.64,236 C75.878,236 75.976,235.776 75.878,235.594 L73.96,232.038 C75.178,231.548 76.032,230.47 76.032,229.182 C76.032,227.516 74.66,226.2 72.98,226.2 L69.354,226.2 C69.2,226.2 69.088,226.326 69.088,226.466 L69.088,235.734 C69.088,235.874 69.2,236 69.354,236 L69.9,236 Z M72.91,231.24 L70.194,231.24 L70.194,227.222 L72.91,227.222 C73.988,227.222 74.926,228.132 74.926,229.196 C74.926,230.344 73.988,231.24 72.91,231.24 Z M80.246,236.14 C81.212,236.14 81.968,235.762 82.304,235.496 C82.514,235.342 82.458,235.258 82.36,235.132 C82.276,235.02 82.206,234.922 82.122,234.81 C82.01,234.656 81.926,234.726 81.73,234.838 C81.408,235.034 80.932,235.258 80.344,235.258 C79.35,235.258 78.524,234.376 78.468,233.438 L82.5,233.438 C82.626,233.438 82.738,233.34 82.752,233.2 C82.766,233.102 82.78,232.92 82.78,232.822 C82.78,231.352 81.716,230.26 80.246,230.26 C78.552,230.26 77.502,231.618 77.502,233.2 C77.502,234.81 78.552,236.14 80.246,236.14 Z M81.814,232.654 L78.482,232.654 C78.58,231.786 79.308,231.114 80.246,231.114 C81.1,231.114 81.772,231.842 81.814,232.654 Z M86.644,240.34 C88.338,240.34 89.542,239.234 89.542,238.072 C89.542,236.854 88.618,236.28 87.442,236.28 L85.426,236.28 C84.908,236.28 84.656,235.944 84.656,235.594 C84.656,235.034 85.272,234.754 85.272,234.754 C85.272,234.754 85.706,235.104 86.602,235.104 C88.044,235.104 88.954,233.998 88.954,232.724 C88.954,231.618 88.324,231.156 88.324,231.156 L89.08,231.002 C89.178,230.988 89.234,230.862 89.234,230.764 L89.234,230.526 C89.234,230.372 89.122,230.26 88.968,230.26 L86.602,230.26 C85.146,230.26 84.236,231.422 84.236,232.724 C84.236,233.55 84.684,234.124 84.684,234.124 C84.684,234.124 83.746,234.67 83.746,235.734 C83.746,236.602 84.404,236.966 84.768,237.064 L84.768,237.106 C84.628,237.19 83.956,237.568 83.956,238.408 C83.956,239.332 84.768,240.34 86.644,240.34 Z M86.616,234.264 C85.762,234.264 85.146,233.62 85.146,232.696 C85.146,231.772 85.762,231.128 86.616,231.128 C87.456,231.128 88.016,231.772 88.016,232.696 C88.016,233.62 87.456,234.264 86.616,234.264 Z M86.63,239.43 C85.678,239.43 84.95,238.94 84.95,238.268 C84.95,237.442 85.888,237.19 85.888,237.19 L87.442,237.19 L87.442,237.19 C88.422,237.19 88.506,237.918 88.506,238.1 C88.506,238.912 87.554,239.43 86.63,239.43 Z M92.832,236.14 C93.7889412,236.14 94.4040692,235.636775 94.5913723,235.459166 L94.6452009,235.4054 C94.6497232,235.400567 94.652,235.398 94.652,235.398 L94.75,235.762 C94.792,235.902 94.848,236 95.002,236 L95.268,236 C95.408,236 95.534,235.874 95.534,235.734 L95.534,230.666 C95.534,230.526 95.408,230.4 95.268,230.4 L94.834,230.4 C94.694,230.4 94.568,230.526 94.568,230.666 L94.568,234.404 L94.568,234.404 C94.568,234.404 93.966,235.202 92.902,235.202 C92.118,235.202 91.642,234.684 91.642,233.62 L91.642,230.666 C91.642,230.526 91.516,230.4 91.376,230.4 L90.928,230.4 C90.788,230.4 90.662,230.526 90.662,230.666 L90.662,233.606 C90.662,235.09 91.208,236.14 92.832,236.14 Z M98.236,236 C98.376,236 98.502,235.874 98.502,235.734 L98.502,226.466 C98.502,226.326 98.376,226.2 98.236,226.2 L97.802,226.2 C97.662,226.2 97.536,226.326 97.536,226.466 L97.536,235.734 C97.536,235.874 97.662,236 97.802,236 L98.236,236 Z M101.82,236.14 C102.688,236.14 103.262,235.706 103.556,235.412 L103.668,235.79 C103.71,235.916 103.752,236 103.906,236 L104.172,236 C104.312,236 104.438,235.874 104.438,235.734 L104.438,232.626 C104.438,230.988 104.088,230.26 102.66,230.26 C101.61,230.26 100.798,230.582 100.714,230.624 C100.588,230.68 100.504,230.764 100.56,230.932 L100.672,231.282 C100.714,231.408 100.798,231.478 100.938,231.422 C101.19,231.324 101.848,231.114 102.618,231.114 C103.416,231.114 103.542,231.59 103.528,232.626 C103.528,232.626 102.94,232.444 102.338,232.444 C100.896,232.444 100.098,233.242 100.098,234.306 C100.098,235.426 100.84,236.14 101.82,236.14 Z M101.974,235.3 C101.372,235.3 100.994,234.866 100.994,234.306 C100.994,233.578 101.554,233.186 102.338,233.186 C102.954,233.186 103.346,233.312 103.514,233.41 L103.514,234.516 C103.276,234.866 102.674,235.3 101.974,235.3 Z M107.084,236 C107.224,236 107.35,235.874 107.35,235.734 L107.35,231.996 C107.35,231.996 107.812,231.212 108.876,231.212 C109.086,231.212 109.296,231.268 109.422,231.324 C109.562,231.38 109.688,231.38 109.758,231.198 L109.926,230.722 C110.066,230.33 109.366,230.26 108.946,230.26 C107.784,230.26 107.266,231.002 107.266,231.002 L107.154,230.596 C107.126,230.47 107.028,230.4 106.916,230.4 L106.65,230.4 C106.51,230.4 106.384,230.526 106.384,230.666 L106.384,235.734 C106.384,235.874 106.51,236 106.65,236 L107.084,236 Z" id="Brandon-Regular" fill="#FFFFFF"></path>
                    <path d="M13.774,263 C15.594,263 16.854,261.908 16.854,260.34 C16.854,258.996 16,258.268 15.006,258.002 C15.874,257.652 16.546,256.84 16.546,255.734 C16.546,254.194 15.37,253.2 13.648,253.2 L10.666,253.2 C10.568,253.2 10.484,253.284 10.484,253.382 L10.484,262.818 C10.484,262.916 10.568,263 10.666,263 L13.774,263 Z M13.746,257.736 L11.142,257.736 L11.142,253.816 L13.648,253.816 C14.992,253.816 15.832,254.544 15.832,255.762 C15.832,256.91 15.062,257.736 13.746,257.736 Z M13.83,262.412 L11.128,262.412 L11.128,258.338 L13.746,258.338 C15.076,258.338 16.14,259.08 16.14,260.326 C16.14,261.544 15.188,262.412 13.83,262.412 Z M19.22,263 C19.346,263 19.402,262.93 19.402,262.818 L19.402,258.828 C19.444,258.744 19.976,257.862 21.068,257.862 C21.446,257.862 21.726,258.002 21.796,258.03 C21.894,258.072 21.978,258.058 22.02,257.96 L22.132,257.68 C22.174,257.568 22.104,257.47 21.978,257.428 C21.866,257.386 21.558,257.26 21.11,257.26 C20.06,257.26 19.5,257.932 19.36,258.128 L19.304,257.554 C19.29,257.456 19.22,257.4 19.136,257.4 L18.968,257.4 C18.87,257.4 18.786,257.484 18.786,257.582 L18.786,262.818 C18.786,262.916 18.842,263 18.94,263 L19.22,263 Z M24.708,263.14 C25.604,263.14 26.29,262.678 26.654,262.342 L26.71,262.846 C26.738,262.944 26.78,263 26.878,263 L27.046,263 C27.144,263 27.228,262.916 27.228,262.818 L27.228,259.71 C27.228,258.282 27.158,257.26 25.45,257.26 C24.288,257.26 23.574,257.652 23.532,257.68 C23.462,257.708 23.406,257.764 23.448,257.89 L23.518,258.058 C23.546,258.156 23.616,258.212 23.728,258.17 C23.854,258.128 24.484,257.792 25.408,257.792 C26.514,257.792 26.64,258.408 26.64,259.64 L26.5265093,259.601889 C26.2798889,259.524111 25.7626667,259.388 25.226,259.388 C23.756,259.388 22.874,260.2 22.874,261.278 C22.874,262.426 23.672,263.14 24.708,263.14 Z M24.778,262.594 C24.008,262.594 23.448,262.076 23.448,261.264 C23.448,260.438 24.162,259.892 25.226,259.892 C25.898,259.892 26.458,260.102 26.64,260.186 L26.64,261.726 C26.374,262.076 25.632,262.594 24.778,262.594 Z M29.72,263 C29.846,263 29.902,262.93 29.902,262.818 L29.902,258.828 C29.958,258.758 30.756,257.862 31.904,257.862 C32.968,257.862 33.57,258.534 33.57,259.822 L33.57,262.818 C33.57,262.916 33.654,263 33.752,263 L34.004,263 C34.102,263 34.186,262.916 34.186,262.818 L34.186,259.822 C34.186,258.254 33.5,257.26 31.932,257.26 C30.812,257.26 30.042,257.946 29.86,258.142 L29.804,257.54 C29.79,257.456 29.734,257.4 29.636,257.4 L29.496,257.4 C29.384,257.4 29.3,257.484 29.3,257.582 L29.3,262.818 C29.3,262.916 29.356,263 29.454,263 L29.72,263 Z M38.414,263.14 C39.492,263.14 40.178,262.51 40.346,262.328 L40.388,262.818 C40.402,262.944 40.472,263 40.584,263 L40.724,263 C40.822,263 40.906,262.916 40.906,262.818 L40.906,253.382 C40.906,253.284 40.822,253.2 40.738,253.2 L40.486,253.2 C40.374,253.2 40.304,253.284 40.304,253.382 L40.304,257.82 C40.304,257.82 39.646,257.26 38.582,257.26 C36.986,257.26 35.824,258.548 35.824,260.2 C35.824,261.838 36.958,263.14 38.414,263.14 Z M38.456,262.58 C37.28,262.58 36.44,261.502 36.44,260.2 C36.44,258.87 37.35,257.862 38.638,257.862 C39.66,257.862 40.304,258.45 40.304,258.45 L40.304,261.586 C40.276,261.642 39.674,262.58 38.456,262.58 Z M45.428,263.14 C46.996,263.14 48.242,261.824 48.242,260.186 C48.242,258.59 46.996,257.26 45.428,257.26 C43.846,257.26 42.614,258.59 42.614,260.186 C42.614,261.824 43.846,263.14 45.428,263.14 Z M45.428,262.566 C44.182,262.566 43.216,261.516 43.216,260.186 C43.216,258.898 44.182,257.848 45.428,257.848 C46.66,257.848 47.626,258.898 47.626,260.186 C47.626,261.516 46.66,262.566 45.428,262.566 Z M50.37,263 C50.496,263 50.552,262.93 50.552,262.818 L50.552,258.828 C50.608,258.758 51.406,257.862 52.554,257.862 C53.618,257.862 54.22,258.534 54.22,259.822 L54.22,262.818 C54.22,262.916 54.304,263 54.402,263 L54.654,263 C54.752,263 54.836,262.916 54.836,262.818 L54.836,259.822 C54.836,258.254 54.15,257.26 52.582,257.26 C51.462,257.26 50.692,257.946 50.51,258.142 L50.454,257.54 C50.44,257.456 50.384,257.4 50.286,257.4 L50.146,257.4 C50.034,257.4 49.95,257.484 49.95,257.582 L49.95,262.818 C49.95,262.916 50.006,263 50.104,263 L50.37,263 Z M66.82,259.766 C66.918,259.766 67.002,259.682 67.002,259.584 L67.002,259.43 C67.002,259.318 66.918,259.248 66.82,259.248 L63.656,259.248 C63.558,259.248 63.488,259.318 63.488,259.43 L63.488,259.584 C63.488,259.682 63.558,259.766 63.656,259.766 L66.82,259.766 Z M78.23,263 C78.328,263 78.412,262.944 78.412,262.846 L78.412,262.594 C78.412,262.496 78.398,262.412 78.23,262.412 L73.764,262.412 L73.764,253.382 C73.764,253.284 73.68,253.2 73.596,253.2 L73.288,253.2 C73.19,253.2 73.106,253.284 73.106,253.382 L73.106,262.818 C73.106,262.916 73.19,263 73.288,263 L78.23,263 Z M79.84,254.656 C80.106,254.656 80.316,254.446 80.316,254.194 C80.316,253.928 80.106,253.704 79.84,253.704 C79.574,253.704 79.364,253.928 79.364,254.194 C79.364,254.446 79.574,254.656 79.84,254.656 Z M79.966,263 C80.092,263 80.148,262.93 80.148,262.818 L80.148,257.582 C80.148,257.484 80.064,257.4 79.966,257.4 L79.714,257.4 C79.616,257.4 79.532,257.484 79.532,257.582 L79.532,262.818 C79.532,262.916 79.588,263 79.686,263 L79.966,263 Z M84.642,267.34 C86.35,267.34 87.498,266.248 87.498,265.058 C87.498,263.812 86.63,263.266 85.426,263.266 L83.396,263.266 C82.85,263.266 82.29,263.112 82.29,262.454 C82.29,261.796 82.892,261.488 83.004,261.446 C83.186,261.642 83.69,261.95 84.53,261.95 C85.958,261.95 86.854,260.872 86.854,259.626 C86.854,258.464 86.252,257.974 85.986,257.834 L86.994,257.764 C87.078,257.75 87.12,257.666 87.12,257.596 L87.12,257.442 C87.12,257.344 87.05,257.26 86.938,257.26 L84.642,257.26 L84.642,257.26 C83.13,257.26 82.192,258.282 82.192,259.626 C82.192,260.298 82.472,260.83 82.626,261.026 C82.472,261.11 81.702,261.586 81.702,262.524 C81.702,263.364 82.514,263.742 82.794,263.798 C82.5,263.98 81.912,264.442 81.912,265.268 C81.912,266.22 82.738,267.34 84.642,267.34 Z M84.544,261.404 C83.368,261.404 82.766,260.592 82.766,259.612 C82.766,258.604 83.466,257.82 84.544,257.82 C85.468,257.82 86.266,258.436 86.266,259.612 C86.266,260.606 85.594,261.404 84.544,261.404 Z M84.628,266.766 C83.27,266.766 82.528,265.968 82.528,265.198 C82.528,264.246 83.522,263.854 83.662,263.84 L85.426,263.84 C86.462,263.84 86.854,264.428 86.854,265.072 C86.854,266.024 85.888,266.766 84.628,266.766 Z M89.164,263 C89.29,263 89.346,262.93 89.346,262.818 L89.346,258.842 C89.402,258.772 90.186,257.862 91.348,257.862 C92.412,257.862 93.014,258.534 93.014,259.822 L93.014,262.818 C93.014,262.916 93.098,263 93.196,263 L93.448,263 C93.546,263 93.63,262.916 93.63,262.818 L93.63,259.822 C93.63,258.156 92.832,257.26 91.376,257.26 C90.27,257.26 89.528,257.974 89.346,258.156 L89.346,253.382 C89.346,253.284 89.262,253.2 89.164,253.2 L88.94,253.2 C88.828,253.2 88.744,253.284 88.744,253.382 L88.744,262.818 C88.744,262.916 88.8,263 88.898,263 L89.164,263 Z M97.172,263.14 C97.97,263.14 98.586,262.79 98.796,262.622 C98.88,262.566 98.894,262.482 98.838,262.384 L98.74,262.216 C98.698,262.146 98.642,262.09 98.516,262.16 C98.334,262.272 97.732,262.538 97.242,262.538 C96.584,262.538 96.514,262.174 96.514,261.516 L96.514,257.946 L98.46,257.946 C98.572,257.946 98.642,257.876 98.642,257.764 L98.642,257.582 C98.642,257.484 98.572,257.4 98.46,257.4 L96.514,257.4 L96.514,255.86 C96.514,255.762 96.43,255.678 96.332,255.678 L96.094,255.692 C95.996,255.692 95.912,255.762 95.912,255.874 L95.912,257.4 L95.254,257.4 C95.156,257.4 95.086,257.442 95.086,257.54 L95.086,257.764 C95.086,257.876 95.114,257.946 95.254,257.946 L95.912,257.946 L95.912,261.558 C95.912,262.454 96.01,263.14 97.172,263.14 Z" id="Brandon-Light" fill="#FFFFFF"></path>
                </g>
            </g>
        </g>
    </g>
</svg>