<?xml version="1.0" encoding="UTF-8"?>
<svg width="217px" height="251px" viewBox="0 0 217 251" version="1.1" xmlns="http://www.w3.org/2000/svg" xmlns:xlink="http://www.w3.org/1999/xlink">
    <title>Group 12</title>
    <g id="Page-1" stroke="none" stroke-width="1" fill="none" fill-rule="evenodd">
        <g id="maya" transform="translate(-620.000000, -3458.000000)" fill="#FAFAFA" fill-rule="nonzero">
            <g id="Group" transform="translate(298.000000, 3144.000000)">
                <g id="Group-13" transform="translate(102.000000, 297.000000)">
                    <g id="Group-12" transform="translate(220.000000, 17.000000)">
                        <path d="M17.71,41 L17.71,40.67 C15.84,40.67 14.355,39.185 14.355,37.37 L14.355,21.915 L22.66,21.915 L22.66,37.37 C22.66,39.185 21.175,40.67 19.36,40.67 L19.36,41 L35.695,41 L35.695,40.67 C33.825,40.67 32.34,39.185 32.34,37.37 L32.34,6.13 C32.34,4.315 33.825,2.83 35.695,2.83 L35.695,2.5 L19.36,2.5 L19.36,2.83 C21.175,2.83 22.66,4.315 22.66,6.13 L22.66,21.585 L14.355,21.585 L14.355,6.13 C14.355,4.315 15.84,2.83 17.71,2.83 L17.71,2.5 L1.375,2.5 L1.375,2.83 C3.19,2.83 4.675,4.315 4.675,6.13 L4.675,37.37 C4.675,39.185 3.19,40.67 1.375,40.67 L1.375,41 L17.71,41 Z M49.3075,41.275 C53.7625,41.275 57.7225,38.69 59.9225,34.73 L59.6475,34.565 C58.1075,36.38 56.1275,37.48 53.9825,37.48 C49.0325,37.48 45.0175,31.595 45.0175,24.335 L60.9675,24.335 C59.7575,18.12 55.3025,13.445 49.3075,13.445 C42.3775,13.445 36.7675,19.66 36.7675,27.36 C36.7675,35.06 42.3775,41.275 49.3075,41.275 Z M53.4875,24.005 L45.0175,24.005 C45.0725,22.135 45.5125,13.775 49.3075,13.775 C51.7275,13.775 53.1575,17.185 53.4875,24.005 Z M77.99,41.275 L87.45,39.9 L87.45,39.57 C86.185,39.35 85.195,38.195 85.195,36.875 L85.195,20.265 C85.195,17.57 83.38,15.7 81.29,14.655 C79.2,13.555 76.45,13.17 73.59,13.61 C69.685,14.16 64.35,17.02 64.35,21.31 C64.35,23.675 66.22,25.545 68.585,25.545 C70.95,25.545 72.875,23.675 72.875,21.31 C72.875,18.78 70.51,18.065 70.51,16.03 C70.51,14.875 71.665,14.215 73.645,13.94 C76.34,13.5 78.98,13.885 81.125,14.93 C82.885,15.81 84.37,17.405 84.37,18.89 C84.37,21.3188971 80.1365939,22.9698605 75.6334118,24.4965781 L74.9390207,24.7305656 C71.8094939,25.7798919 68.6480882,26.7857353 66.77,27.965 C63.745,29.835 61.985,33.08 62.865,36.215 C63.69,39.295 66.77,41.275 70.235,41.275 C73.315,41.275 75.57,39.9 76.89,38.91 L76.89,40.285 C76.89,40.835 77.33,41.275 77.88,41.275 L77.99,41.275 L77.99,41.275 Z M72.6,37.755 C71.445,36.49 70.785,34.455 70.95,31.815 C71.28,27.195 74.635,25.435 76.89,24.39 L76.89,38.525 C75.68,39.405 73.81,39.075 72.6,37.755 Z M106.7825,41.275 L116.1875,39.9 L116.1875,39.57 C114.9225,39.35 113.9325,38.195 113.9325,36.875 L113.9325,3.49 C113.9325,2.94 113.5475,2.5 112.9975,2.5 L112.8325,2.5 L112.8325,2.5 L103.4275,3.875 L103.4275,4.205 C104.6925,4.425 105.6825,5.58 105.6825,6.9 L105.6825,14.6 C104.5825,13.995 102.7125,13.445 100.8425,13.445 C95.1775,13.445 89.0725,19.385 89.0725,28.075 C89.0725,34.95 93.0875,40.67 98.6425,41.22 C101.1725,41.495 103.6475,40.615 105.6825,38.965 L105.6825,40.285 C105.6825,40.835 106.1225,41.275 106.6175,41.275 L106.7825,41.275 L106.7825,41.275 Z M103.8675,38.965 C100.2375,38.965 97.2675,33.52 97.2675,26.755 C97.2675,19.99 100.2375,14.545 103.8675,14.545 C104.4725,14.545 105.0775,14.71 105.6825,14.985 L105.6825,38.525 C105.0775,38.8 104.4725,38.965 103.8675,38.965 Z M123.64,11.025 C126.005,11.025 127.93,9.1 127.93,6.79 C127.93,4.425 126.005,2.5 123.64,2.5 C121.275,2.5 119.405,4.425 119.405,6.79 C119.405,9.1 121.275,11.025 123.64,11.025 Z M130.02,41 L130.02,40.67 C128.755,40.45 127.765,39.295 127.765,37.975 L127.765,14.93 C127.765,14.38 127.38,13.995 126.83,13.995 L126.665,13.995 L126.665,13.995 L117.26,15.37 L117.26,15.7 C118.525,15.92 119.515,17.02 119.515,18.395 L119.515,37.975 C119.515,39.295 118.525,40.45 117.26,40.67 L117.26,41 L130.02,41 Z M143.8525,41 L143.8525,40.67 C142.5875,40.45 141.5975,39.295 141.5975,37.975 L141.5975,15.535 C142.4775,15.095 144.5125,14.27 146.9325,14.27 C149.1325,14.27 150.6725,14.985 150.6725,16.195 C150.6725,18.23 147.8125,18.945 147.8125,21.75 L147.8125,37.975 C147.8125,39.295 146.8225,40.45 145.5575,40.67 L145.5575,41 L158.3175,41 L158.3175,40.67 C157.0525,40.45 156.0625,39.295 156.0625,37.975 L156.0625,20.98 C156.0625,11.685 146.6575,12.62 141.5975,15.15 L141.5975,14.93 C141.5975,14.38 141.2125,13.995 140.6625,13.995 L140.4975,13.995 L140.4975,13.995 L131.0925,15.37 L131.0925,15.7 C132.3575,15.92 133.3475,17.02 133.3475,18.395 L133.3475,37.975 C133.3475,39.295 132.3575,40.45 131.0925,40.67 L131.0925,41 L143.8525,41 Z M178.915,54.31 C183.975,54.31 188.155,49.965 188.155,44.575 C188.155,39.955 185.02,36.05 180.895,35.06 C183.865,32.86 185.735,29.395 185.735,25.545 C185.735,21.31 183.59,17.68 180.18,15.48 C179.08,14.765 178.2,13.83 178.2,12.895 C178.2,12.07 178.86,11.3 180.07,10.805 C181.665,10.09 182.875,8.605 182.875,6.79 C182.875,4.425 181.005,2.5 178.64,2.5 C176.275,2.5 174.35,4.425 174.35,6.79 C174.35,10.035 176.66,12.895 178.475,14.545 C176.88,13.83 175.065,13.445 173.195,13.445 C166.265,13.445 160.655,18.835 160.655,25.545 C160.655,28.35 161.645,30.935 163.35,32.97 C160.435,33.85 158.29,36.71 158.29,40.065 C158.29,44.19 161.425,47.49 165.33,47.49 C172.04,47.49 174.625,37.535 181.115,37.535 C184.8,37.535 187.825,40.67 187.825,44.575 C187.825,49.8 183.81,53.98 178.915,53.98 C177.815,53.98 177.21,53.705 177.21,52.825 C177.21,52.275 177.65,51.615 178.145,51.12 C178.915,50.35 179.355,49.25 179.355,48.095 C179.355,45.73 177.485,43.805 175.12,43.805 C172.755,43.805 170.83,45.73 170.83,48.095 C170.83,51.45 174.68,54.31 178.915,54.31 Z M172.26,37.15 C170.115,36.325 168.96,32.42 168.96,25.545 C168.96,17.68 170.445,13.775 173.195,13.775 C176,13.775 177.485,17.68 177.485,25.545 C177.485,30.22 176.935,33.52 175.89,35.39 C174.68,35.83 173.47,36.435 172.26,37.15 Z M165.33,39.955 C163.35,39.955 161.7,38.305 161.7,36.325 C161.7,35.005 162.415,33.85 163.515,33.19 C165.495,35.5 168.355,37.095 171.6,37.535 C169.4,38.745 167.365,39.955 165.33,39.955 Z M215.16,41 L215.16,40.67 C213.29,40.67 211.805,39.185 211.805,37.37 L211.805,2.5 L198.825,7.945 L198.825,8.275 C200.64,8.275 202.125,9.76 202.125,11.575 L202.125,37.37 C202.125,39.185 200.64,40.67 198.825,40.67 L198.825,41 L215.16,41 Z" id="Heading1"></path>
                        <path d="M8.46,139 C8.79,139 9.03,138.73 9.03,138.43 L9.03,129.76 L20.01,129.76 L20.01,138.43 C20.01,138.73 20.25,139 20.58,139 L22.56,139 C22.86,139 23.13,138.73 23.13,138.43 L23.13,118.57 C23.13,118.27 22.86,118 22.56,118 L20.58,118 C20.25,118 20.01,118.27 20.01,118.57 L20.01,126.94 L9.03,126.94 L9.03,118.57 C9.03,118.27 8.79,118 8.46,118 L6.48,118 C6.18,118 5.91,118.27 5.91,118.57 L5.91,138.43 C5.91,138.73 6.18,139 6.48,139 L8.46,139 Z M32.53125,139.3 C34.54125,139.3 36.10125,138.55 36.97125,137.8 C37.33125,137.5 37.24125,137.26 37.03125,137.02 L36.19125,135.88 C35.95125,135.58 35.74125,135.7 35.38125,135.91 C34.78125,136.3 33.79125,136.78 32.71125,136.78 C30.76125,136.78 29.35125,135.19 29.26125,133.57 L37.42125,133.57 C37.69125,133.57 37.93125,133.36 37.96125,133.06 C37.99125,132.85 38.02125,132.46 38.02125,132.25 C38.02125,129.04 35.62125,126.7 32.50125,126.7 C28.90125,126.7 26.50125,129.61 26.50125,133 C26.50125,136.45 28.90125,139.3 32.53125,139.3 Z M35.23125,131.68 L29.41125,131.68 C29.59125,130.18 30.85125,129.01 32.47125,129.01 C33.94125,129.01 35.14125,130.24 35.23125,131.68 Z M43.8825,139.3 C45.7425,139.3 46.9125,138.4 47.5725,137.77 L47.8725,138.58 C47.9925,138.88 48.1125,139 48.3825,139 L49.2225,139 C49.5225,139 49.7925,138.73 49.7925,138.43 L49.7925,132.04 C49.7925,129.04 49.4325,126.7 45.5925,126.7 C43.3725,126.7 41.6625,127.3 41.4525,127.39 C41.1825,127.48 40.9725,127.69 41.0625,128.08 L41.3025,129.19 C41.3925,129.52 41.6025,129.76 41.9625,129.67 C42.5925,129.49 43.9425,129.13 45.3225,129.13 C46.8525,129.13 47.2125,129.88 47.1825,131.77 C47.1825,131.77 46.0725,131.41 44.8125,131.41 C41.7525,131.41 40.0125,133.09 40.0125,135.28 C40.0125,137.77 41.6325,139.3 43.8825,139.3 Z M44.4525,137.17 C43.3425,137.17 42.6225,136.33 42.6225,135.25 C42.6225,134.02 43.6125,133.27 45.0525,133.27 C46.1325,133.27 46.9725,133.63 47.1525,133.75 L47.1525,135.67 C46.7925,136.27 45.6525,137.17 44.4525,137.17 Z M58.29375,139.3 C60.66375,139.3 62.10375,137.62 62.10375,137.62 L62.34375,138.49 C62.43375,138.79 62.61375,139 62.88375,139 L63.78375,139 C64.08375,139 64.35375,138.73 64.35375,138.43 L64.35375,118.57 C64.35375,118.27 64.08375,118 63.78375,118 L62.04375,118 C61.74375,118 61.47375,118.27 61.47375,118.57 L61.47375,127.36 C61.20375,127.27 60.12375,126.7 58.59375,126.7 C55.26375,126.7 52.68375,129.49 52.68375,133 C52.68375,136.45 55.11375,139.3 58.29375,139.3 Z M58.65375,136.72 C56.73375,136.72 55.47375,135.01 55.47375,133 C55.47375,130.96 56.88375,129.31 58.89375,129.31 C60.45375,129.31 61.50375,130.03 61.50375,130.03 L61.50375,134.92 C61.35375,135.25 60.48375,136.72 58.65375,136.72 Z M69.615,122.11 C70.605,122.11 71.385,121.33 71.385,120.37 C71.385,119.38 70.605,118.6 69.615,118.6 C68.655,118.6 67.905,119.38 67.905,120.37 C67.905,121.33 68.655,122.11 69.615,122.11 Z M70.515,139 C70.815,139 71.085,138.73 71.085,138.43 L71.085,127.57 C71.085,127.27 70.815,127 70.515,127 L68.805,127 C68.505,127 68.235,127.27 68.235,127.57 L68.235,138.43 C68.235,138.73 68.505,139 68.805,139 L70.515,139 Z M77.09625,139 C77.60625,139 77.78625,138.82 77.78625,138.43 L77.78625,131.11 C77.93625,130.69 79.22625,129.31 81.11625,129.31 C82.67625,129.31 83.60625,130.36 83.60625,132.28 L83.60625,138.43 C83.60625,138.73 83.84625,139 84.17625,139 L85.88625,139 C86.18625,139 86.45625,138.73 86.45625,138.43 L86.45625,132.4 C86.45625,129.28 85.10625,126.7 81.44625,126.7 C79.04625,126.7 77.45625,128.14 77.24625,128.38 L76.88625,127.36 C76.82625,127.15 76.64625,127 76.40625,127 L75.53625,127 C75.23625,127 74.96625,127.27 74.96625,127.57 L74.96625,138.43 C74.96625,138.73 75.23625,139 75.53625,139 L77.09625,139 Z M95.3775,148.3 C99.3675,148.3 101.7675,145.96 101.7675,143.32 C101.7675,140.71 99.6675,139.3 97.0575,139.3 L92.9775,139.3 C92.0775,139.3 91.5375,138.76 91.5375,138.07 C91.5375,137.11 92.5575,136.6 92.7675,136.6 C93.0075,136.6 93.8475,137.08 95.3775,137.08 C98.4975,137.08 100.4775,134.74 100.4775,132.19 C100.4775,129.94 99.1875,128.98 99.1875,128.98 L100.8375,128.53 C101.0475,128.5 101.1675,128.23 101.1675,128.02 L101.1675,127.27 C101.1675,126.94 100.9275,126.7 100.5975,126.7 L95.3475,126.7 C92.2875,126.7 90.1875,129.16 90.1875,131.95 C90.1875,133.593478 90.962793,134.661739 91.0976266,134.835097 L91.1175,134.86 L91.1175,134.86 C91.1175,134.86 88.9875,135.97 88.9875,138.28 C88.9875,140.29 90.5775,141.1 91.2075,141.28 L91.2075,141.37 C90.9075,141.55 89.4375,142.39 89.4375,144.19 C89.4375,146.14 91.1475,148.3 95.3775,148.3 Z M95.4075,134.77 C93.8775,134.77 92.7675,133.63 92.7675,132.01 C92.7675,130.39 93.8775,129.25 95.4075,129.25 C96.9075,129.25 97.9275,130.39 97.9275,132.01 C97.9275,133.63 96.9075,134.77 95.4075,134.77 Z M95.3475,145.84 C93.5175,145.84 92.2275,144.94 92.2275,143.71 C92.2275,142.36 93.6975,141.88 93.8775,141.82 C94.7475,141.76 95.6475,141.76 96.5175,141.76 C98.4675,141.76 98.7675,142.99 98.7675,143.47 C98.7675,144.91 97.1775,145.84 95.3475,145.84 Z M121.86,139 C122.16,139 122.43,138.73 122.43,138.43 L122.43,136.99 C122.43,136.69 122.16,136.42 121.86,136.42 L114.21,136.42 C115.98,134.41 118.08,131.95 119.67,130.03 C121.29,128.08 122.55,126.49 122.55,124.18 C122.55,121.03 120.27,118.3 115.98,118.3 C112.41,118.3 110.16,121.24 110.16,121.24 C109.95,121.48 110.01,121.84 110.19,122.02 L111.21,123.04 C111.45,123.28 111.78,123.28 112.02,123.04 C112.83,122.17 114.18,121.03 115.83,121.03 C118.47,121.03 119.52,122.77 119.52,124.3 C119.52,125.5 118.74,127 117.24,128.68 C115.02,131.32 111.9,135.13 109.68,137.65 L109.68,138.43 C109.68,138.73 109.92,139 110.25,139 L121.86,139 Z" id="Heading2"></path>
                        <path d="M4.55,237 C4.825,237 5.025,236.775 5.025,236.525 L5.025,229.3 L14.175,229.3 L14.175,236.525 C14.175,236.775 14.375,237 14.65,237 L16.3,237 C16.55,237 16.775,236.775 16.775,236.525 L16.775,219.975 C16.775,219.725 16.55,219.5 16.3,219.5 L14.65,219.5 C14.375,219.5 14.175,219.725 14.175,219.975 L14.175,226.95 L5.025,226.95 L5.025,219.975 C5.025,219.725 4.825,219.5 4.55,219.5 L2.9,219.5 C2.65,219.5 2.425,219.725 2.425,219.975 L2.425,236.525 C2.425,236.775 2.65,237 2.9,237 L4.55,237 Z M24.609375,237.25 C26.284375,237.25 27.584375,236.625 28.309375,236 C28.609375,235.75 28.534375,235.55 28.359375,235.35 L27.659375,234.4 C27.459375,234.15 27.284375,234.25 26.984375,234.425 C26.484375,234.75 25.659375,235.15 24.759375,235.15 C23.134375,235.15 21.959375,233.825 21.884375,232.475 L28.684375,232.475 C28.909375,232.475 29.109375,232.3 29.134375,232.05 C29.159375,231.875 29.184375,231.55 29.184375,231.375 C29.184375,228.7 27.184375,226.75 24.584375,226.75 C21.584375,226.75 19.584375,229.175 19.584375,232 C19.584375,234.875 21.584375,237.25 24.609375,237.25 Z M26.859375,230.9 L22.009375,230.9 C22.159375,229.65 23.209375,228.675 24.559375,228.675 C25.784375,228.675 26.784375,229.7 26.859375,230.9 Z M34.06875,237.25 C35.61875,237.25 36.59375,236.5 37.14375,235.975 L37.39375,236.65 C37.49375,236.9 37.59375,237 37.81875,237 L38.51875,237 C38.76875,237 38.99375,236.775 38.99375,236.525 L38.99375,231.2 C38.99375,228.7 38.69375,226.75 35.49375,226.75 C33.64375,226.75 32.21875,227.25 32.04375,227.325 C31.81875,227.4 31.64375,227.575 31.71875,227.9 L31.91875,228.825 C31.99375,229.1 32.16875,229.3 32.46875,229.225 C32.99375,229.075 34.11875,228.775 35.26875,228.775 C36.54375,228.775 36.84375,229.4 36.81875,230.975 C36.81875,230.975 35.89375,230.675 34.84375,230.675 C32.29375,230.675 30.84375,232.075 30.84375,233.9 C30.84375,235.975 32.19375,237.25 34.06875,237.25 Z M34.54375,235.475 C33.61875,235.475 33.01875,234.775 33.01875,233.875 C33.01875,232.85 33.84375,232.225 35.04375,232.225 C35.94375,232.225 36.64375,232.525 36.79375,232.625 L36.79375,234.225 C36.49375,234.725 35.54375,235.475 34.54375,235.475 Z M46.078125,237.25 C48.053125,237.25 49.253125,235.85 49.253125,235.85 L49.453125,236.575 C49.528125,236.825 49.678125,237 49.903125,237 L50.653125,237 C50.903125,237 51.128125,236.775 51.128125,236.525 L51.128125,219.975 C51.128125,219.725 50.903125,219.5 50.653125,219.5 L49.203125,219.5 C48.953125,219.5 48.728125,219.725 48.728125,219.975 L48.728125,227.3 C48.503125,227.225 47.603125,226.75 46.328125,226.75 C43.553125,226.75 41.403125,229.075 41.403125,232 C41.403125,234.875 43.428125,237.25 46.078125,237.25 Z M46.378125,235.1 C44.778125,235.1 43.728125,233.675 43.728125,232 C43.728125,230.3 44.903125,228.925 46.578125,228.925 C47.7336806,228.925 48.5534336,229.399074 48.7213349,229.504424 L48.753125,229.525 L48.753125,229.525 L48.753125,233.6 C48.628125,233.875 47.903125,235.1 46.378125,235.1 Z M55.5125,222.925 C56.3375,222.925 56.9875,222.275 56.9875,221.475 C56.9875,220.65 56.3375,220 55.5125,220 C54.7125,220 54.0875,220.65 54.0875,221.475 C54.0875,222.275 54.7125,222.925 55.5125,222.925 Z M56.2625,237 C56.5125,237 56.7375,236.775 56.7375,236.525 L56.7375,227.475 C56.7375,227.225 56.5125,227 56.2625,227 L54.8375,227 C54.5875,227 54.3625,227.225 54.3625,227.475 L54.3625,236.525 C54.3625,236.775 54.5875,237 54.8375,237 L56.2625,237 Z M61.746875,237 C62.171875,237 62.321875,236.85 62.321875,236.525 L62.321875,230.425 C62.446875,230.075 63.521875,228.925 65.096875,228.925 C66.396875,228.925 67.171875,229.8 67.171875,231.4 L67.171875,236.525 C67.171875,236.775 67.371875,237 67.646875,237 L69.071875,237 C69.321875,237 69.546875,236.775 69.546875,236.525 L69.546875,231.5 C69.546875,228.9 68.421875,226.75 65.371875,226.75 C63.371875,226.75 62.046875,227.95 61.871875,228.15 L61.571875,227.3 C61.521875,227.125 61.371875,227 61.171875,227 L60.446875,227 C60.196875,227 59.971875,227.225 59.971875,227.475 L59.971875,236.525 C59.971875,236.775 60.196875,237 60.446875,237 L61.746875,237 Z M76.98125,244.75 C80.30625,244.75 82.30625,242.8 82.30625,240.6 C82.30625,238.425 80.55625,237.25 78.38125,237.25 L74.98125,237.25 C74.23125,237.25 73.78125,236.8 73.78125,236.225 C73.78125,235.425 74.63125,235 74.80625,235 C75.00625,235 75.70625,235.4 76.98125,235.4 C79.58125,235.4 81.23125,233.45 81.23125,231.325 C81.23125,229.45 80.15625,228.65 80.15625,228.65 L81.53125,228.275 C81.70625,228.25 81.80625,228.025 81.80625,227.85 L81.80625,227.225 C81.80625,226.95 81.60625,226.75 81.33125,226.75 L76.95625,226.75 C74.40625,226.75 72.65625,228.8 72.65625,231.125 C72.65625,232.625 73.43125,233.55 73.43125,233.55 C73.43125,233.55 71.65625,234.475 71.65625,236.4 C71.65625,238.075 72.98125,238.75 73.50625,238.9 L73.50625,238.975 C73.25625,239.125 72.03125,239.825 72.03125,241.325 C72.03125,242.95 73.45625,244.75 76.98125,244.75 Z M77.00625,233.475 C75.73125,233.475 74.80625,232.525 74.80625,231.175 C74.80625,229.825 75.73125,228.875 77.00625,228.875 C78.25625,228.875 79.10625,229.825 79.10625,231.175 C79.10625,232.525 78.25625,233.475 77.00625,233.475 Z M76.95625,242.7 C75.43125,242.7 74.35625,241.95 74.35625,240.925 C74.35625,239.8 75.58125,239.4 75.73125,239.35 C76.45625,239.3 77.20625,239.3 77.93125,239.3 C79.55625,239.3 79.80625,240.325 79.80625,240.725 C79.80625,241.925 78.48125,242.7 76.95625,242.7 Z M94.175,237.25 C97.625,237.25 99.825,235.2 99.825,232.475 C99.825,230.325 97.975,228.825 96.8,228.325 L96.8,228.25 C97.925,227.725 99.375,226.25 99.375,224.325 C99.375,221.525 97.05,219.75 94.15,219.75 C91.425,219.75 89.525,221.95 89.525,221.95 C89.35,222.125 89.325,222.425 89.525,222.6 L90.45,223.425 C90.675,223.625 90.95,223.575 91.1,223.375 C91.6,222.825 92.5,221.975 94,221.975 C95.475,221.975 96.85,223.025 96.85,224.7 C96.85,226.175 95.675,227.375 93.325,227.375 L91.925,227.375 C91.575,227.375 91.425,227.525 91.425,227.9 L91.425,228.975 C91.425,229.325 91.625,229.5 91.9,229.5 L93.3,229.5 C95.975,229.5 97.25,230.925 97.25,232.425 C97.25,234.1 95.75,235.125 94.125,235.125 C92.275,235.125 90.875,233.775 90.725,233.575 C90.525,233.35 90.3,233.325 90.05,233.525 L89.075,234.425 C88.9,234.575 88.9,234.85 89.05,235.025 C89.6,235.675 91.075,237.25 94.175,237.25 Z" id="Heading3"></path>
                    </g>
                </g>
            </g>
        </g>
    </g>
</svg>