<?xml version="1.0" encoding="UTF-8"?>
<svg width="718px" height="185px" viewBox="0 0 718 185" version="1.1" xmlns="http://www.w3.org/2000/svg" xmlns:xlink="http://www.w3.org/1999/xlink">
    <title>MENU</title>
    <g id="Page-1" stroke="none" stroke-width="1" fill="none" fill-rule="evenodd" opacity="0.02">
        <g id="Apple-TV" transform="translate(-136.000000, -736.000000)" fill="#FFFFFF" fill-rule="nonzero">
            <path d="M347.75,918 L312.75,736.5 L242.25,791.75 L171.75,736.5 L136.75,918 L347.75,918 Z M500.25,918 L500.25,856.5 L428,856.5 L428,835.75 L486.75,835.75 L486.75,824.25 L428,824.25 L428,804.5 L500.25,804.5 L500.25,743 L366.5,743 L366.5,918 L500.25,918 Z M680.25,918 L680.25,743 L617.75,743 L617.75,827.5 L527.5,738.5 L527.5,918 L680.25,918 Z M780.75,920.75 C853.5,920.75 853.5,864.5 853.5,834.75 L853.5,743 L790,743 L790,857 L771.25,857 L771.25,743 L707.75,743 L707.75,836.566138 C707.7792,866.7275 709.21,920.75 780.75,920.75 Z" id="MENU"></path>
        </g>
    </g>
</svg>