<?xml version="1.0" encoding="UTF-8"?>
<svg width="43px" height="26px" viewBox="0 0 43 26" version="1.1" xmlns="http://www.w3.org/2000/svg" xmlns:xlink="http://www.w3.org/1999/xlink">
    <!-- Generator: Sketch 58 (84663) - https://sketch.com -->
    <title>Group 2</title>
    <desc>Created with Sketch.</desc>
    <g id="Page-1" stroke="none" stroke-width="1" fill="none" fill-rule="evenodd">
        <g id="Apple-TV-Copy" transform="translate(-36.000000, -59.000000)" fill-rule="nonzero">
            <g id="Group-3">
                <g id="menu">
                    <g id="Group-2" transform="translate(36.000000, 59.000000)">
                        <path d="M20,12.0786517 C20,10.3620389 20.3462851,8.77029448 21.0388655,7.30337079 C21.731446,5.8364471 22.6656104,4.56461213 23.8413866,3.48782772 C25.0171627,2.41104331 26.4103561,1.56054931 28.0210084,0.936329588 C29.6316607,0.312106742 31.3550328,-2.84217094e-14 33.1911765,-2.84217094e-14 C35.1883853,-2.84217094e-14 36.8956512,0.382330758 38.3130252,1.14700375 C39.7303922,1.91167673 40.7934138,2.80898361 41.5021008,3.83895131 C42.2107879,4.86891901 42.5007009,5.90667392 42.3718487,6.95224719 C42.2429966,7.99782046 41.5987453,8.80149532 40.4390756,9.36329588 C40.0847321,8.20848361 39.2955243,7.32678207 38.0714286,6.71816479 C36.8473328,6.10954752 35.4138738,5.78963811 33.7710084,5.75842697 C31.5805213,5.72721582 29.792724,6.3046133 28.407563,7.4906367 C27.022402,8.67666011 26.3298319,10.3308258 26.3298319,12.4531835 C26.3298319,14.5755412 26.9257643,16.2297069 28.1176471,17.4157303 C29.3095298,18.6017537 30.9362642,19.1947566 32.9978992,19.1947566 C34.3186341,19.1947566 35.4782863,19.0152952 36.4768908,18.656367 C37.4754952,18.2974389 38.3452344,17.6654228 39.0861345,16.7602996 L43,20.3183521 C40.7772998,23.4394663 37.4755121,25 33.0945378,25 C31.1939681,25 29.4383834,24.6800906 27.8277311,24.0402622 C26.2170788,23.4004338 24.8319328,22.5109295 23.6722689,21.3717228 C22.5125992,20.2325162 21.6106443,18.8670492 20.9663866,17.2752809 C20.3221256,15.6835126 20,13.9513202 20,12.0786517 Z" id="c" fill="#939393"></path>
                        <path d="M6.26102941,5.34444444 C6.96201331,5.34444444 7.64705548,5.43271517 8.31617647,5.60925926 C8.98529746,5.78580335 9.59068357,6.04259091 10.1323529,6.37962963 C10.6740223,6.71666835 11.1200963,7.14999735 11.4705882,7.67962963 C11.8210802,8.20926191 12.0441172,8.84320619 12.1397059,9.58148148 C11.5980365,9.22839506 10.9767192,9.05185185 10.2757353,9.05185185 C9.79779173,9.05185185 9.32782094,9.14012257 8.86580882,9.31666667 C8.40379671,9.49321076 7.98161956,9.74999831 7.59926471,10.087037 C7.21690985,10.4240758 6.90625119,10.8574048 6.66727941,11.387037 C6.42830763,11.9166693 6.30882353,12.5185151 6.30882353,13.1925926 C6.30882353,14.3481539 6.49203248,15.3592549 6.85845588,16.2259259 C7.22487928,17.0925969 7.70281568,17.8067873 8.29227941,18.3685185 C8.88174314,18.9302497 9.56678531,19.3555541 10.3474265,19.6444444 C11.1280676,19.9333348 11.9485294,20.0777778 12.8088235,20.0777778 C13.637259,20.0777778 14.4656821,19.9413594 15.2941176,19.6685185 C16.1225532,19.3956776 16.8633546,18.9783979 17.5165441,18.4166667 C18.1697337,17.8549355 18.6954637,17.1407451 19.09375,16.2740741 C19.4920363,15.4074031 19.6911765,14.3642036 19.6911765,13.1444444 C19.6911765,12.053081 19.5238987,11.0580292 19.1893382,10.1592593 C18.8547777,9.26048933 18.3927726,8.49815128 17.8033088,7.87222222 C17.2138451,7.24629317 16.5208373,6.7648165 15.7242647,6.42777778 C14.9276921,6.09073906 14.0674066,5.92222222 13.1433824,5.92222222 C12.5698501,5.92222222 12.04412,5.98641911 11.5661765,6.11481481 C10.9926442,5.40863844 10.267774,4.8709895 9.39154412,4.50185185 C8.51531425,4.1327142 7.58333827,3.94814815 6.59558824,3.94814815 C5.95833015,3.94814815 5.32108162,4.02036965 4.68382353,4.16481481 C4.04656544,4.30925998 3.45711055,4.55802293 2.91544118,4.91111111 C4.22182026,3.33826374 5.72731991,2.12654746 7.43198529,1.27592593 C9.13665068,0.425304389 10.992637,-2.84217094e-14 13,-2.84217094e-14 C14.9117743,-2.84217094e-14 16.6642077,0.369132111 18.2573529,1.10740741 C19.8504982,1.8456827 21.2205825,2.84073448 22.3676471,4.09259259 C23.5147116,5.3444507 24.4068596,6.77283148 25.0441176,8.37777778 C25.6813757,9.98272407 26,11.6518432 26,13.3851852 C26,15.182725 25.6495133,16.8518519 24.9485294,18.3925926 C24.2475455,19.933341 23.3155695,21.2654321 22.1525735,22.3888889 C20.9895775,23.5123513 19.6274588,24.3950585 18.0661765,25.037037 C16.5048942,25.6790123 14.8639792,26 13.1433824,26 C11.2953339,26 9.56679726,25.6388925 7.95772059,24.9166667 C6.34864392,24.1944408 4.95466276,23.2314875 3.77573529,22.0277778 C2.59680783,20.8240681 1.67279746,19.4197611 1.00367647,17.8148148 C0.334555478,16.2098685 -2.27373675e-13,14.5247002 -2.27373675e-13,12.7592593 C-2.27373675e-13,11.8283904 0.103552886,10.9216094 0.310661765,10.0388889 C0.517770643,9.15616843 0.868257335,8.36173193 1.36213235,7.65555556 C1.85600737,6.94937919 2.50122151,6.38765641 3.29779412,5.97037037 C4.09436673,5.55308433 5.08210195,5.34444444 6.26102941,5.34444444 Z" id="o" fill="#FFFFFF"></path>
                    </g>
                </g>
            </g>
        </g>
    </g>
</svg>