<?xml version="1.0" encoding="UTF-8"?>
<svg width="199px" height="252px" viewBox="0 0 199 252" version="1.1" xmlns="http://www.w3.org/2000/svg" xmlns:xlink="http://www.w3.org/1999/xlink">
    <title>Group 12</title>
    <g id="Page-1" stroke="none" stroke-width="1" fill="none" fill-rule="evenodd">
        <g id="spmedia" transform="translate(-620.000000, -3454.000000)" fill="#FAFAFA" fill-rule="nonzero">
            <g id="Group" transform="translate(298.000000, 3144.000000)">
                <g id="Group-13" transform="translate(102.000000, 288.000000)">
                    <g id="Group-12" transform="translate(220.000000, 22.000000)">
                        <path d="M10.08,45 L10.08,33.68 L19.64,33.68 L19.64,45 L27.48,45 L27.48,16.8 L19.64,16.8 L19.64,27.4 L10.08,27.4 L10.08,16.8 L2.24,16.8 L2.24,45 L10.08,45 Z M42.06,45.28 C43.9,45.28 45.58,44.9333333 47.1,44.24 C48.62,43.5466667 49.88,42.5933333 50.88,41.38 C51.88,40.1666667 52.5533333,38.7866667 52.9,37.24 L52.9,37.24 L44.54,37.24 C43.98,38.4133333 43.0466667,39 41.74,39 C40.8066667,39 40.04,38.7 39.44,38.1 C38.84,37.5 38.5,36.5866667 38.42,35.36 L38.42,35.36 L53.26,35.36 C53.34,34.7466667 53.38,34.1333333 53.38,33.52 C53.38,31.2266667 52.9,29.2333333 51.94,27.54 C50.98,25.8466667 49.6466667,24.5466667 47.94,23.64 C46.2333333,22.7333333 44.2733333,22.28 42.06,22.28 C39.82,22.28 37.84,22.7466667 36.12,23.68 C34.4,24.6133333 33.06,25.94 32.1,27.66 C31.14,29.38 30.66,31.4133333 30.66,33.76 C30.66,36.1066667 31.1466667,38.1466667 32.12,39.88 C33.0933333,41.6133333 34.44,42.9466667 36.16,43.88 C37.88,44.8133333 39.8466667,45.28 42.06,45.28 Z M45.38,31.56 L38.46,31.56 C38.6466667,30.5466667 39.0466667,29.78 39.66,29.26 C40.2733333,28.74 41.06,28.48 42.02,28.48 C42.98,28.48 43.78,28.7533333 44.42,29.3 C45.06,29.8466667 45.38,30.6 45.38,31.56 L45.38,31.56 Z M64.84,45.28 C66.36,45.28 67.6866667,44.9733333 68.82,44.36 C69.9533333,43.7466667 70.8266667,42.92 71.44,41.88 L71.44,41.88 L71.44,45 L79.28,45 L79.28,22.56 L71.44,22.56 L71.44,25.68 C70.8266667,24.64 69.96,23.8133333 68.84,23.2 C67.72,22.5866667 66.3866667,22.28 64.84,22.28 C63.0533333,22.28 61.4333333,22.7466667 59.98,23.68 C58.5266667,24.6133333 57.38,25.9466667 56.54,27.68 C55.7,29.4133333 55.28,31.44 55.28,33.76 C55.28,36.08 55.7,38.1133333 56.54,39.86 C57.38,41.6066667 58.5266667,42.9466667 59.98,43.88 C61.4333333,44.8133333 63.0533333,45.28 64.84,45.28 Z M67.36,38.44 C66.1866667,38.44 65.2133333,38.02 64.44,37.18 C63.6666667,36.34 63.28,35.2 63.28,33.76 C63.28,32.2933333 63.6666667,31.1533333 64.44,30.34 C65.2133333,29.5266667 66.1866667,29.12 67.36,29.12 C68.5066667,29.12 69.4733333,29.5333333 70.26,30.36 C71.0466667,31.1866667 71.44,32.32 71.44,33.76 C71.44,35.2266667 71.0466667,36.3733333 70.26,37.2 C69.4733333,38.0266667 68.5066667,38.44 67.36,38.44 Z M92.02,45.28 C93.54,45.28 94.86,44.9733333 95.98,44.36 C97.1,43.7466667 97.9666667,42.92 98.58,41.88 L98.58,41.88 L98.58,45 L106.46,45 L106.46,15.4 L98.58,15.4 L98.58,25.64 C97.94,24.6 97.0533333,23.78 95.92,23.18 C94.7866667,22.58 93.5,22.28 92.06,22.28 C90.2733333,22.28 88.6466667,22.7466667 87.18,23.68 C85.7133333,24.6133333 84.56,25.9466667 83.72,27.68 C82.88,29.4133333 82.46,31.44 82.46,33.76 C82.46,36.08 82.88,38.1133333 83.72,39.86 C84.56,41.6066667 85.7066667,42.9466667 87.16,43.88 C88.6133333,44.8133333 90.2333333,45.28 92.02,45.28 Z M94.54,38.44 C93.3666667,38.44 92.3933333,38.02 91.62,37.18 C90.8466667,36.34 90.46,35.2 90.46,33.76 C90.46,32.2933333 90.8466667,31.1533333 91.62,30.34 C92.3933333,29.5266667 93.3666667,29.12 94.54,29.12 C95.6866667,29.12 96.6533333,29.5333333 97.44,30.36 C98.2266667,31.1866667 98.62,32.32 98.62,33.76 C98.62,35.2266667 98.2266667,36.3733333 97.44,37.2 C96.6533333,38.0266667 95.6866667,38.44 94.54,38.44 Z M114.88,20.48 C116.24,20.48 117.34,20.1 118.18,19.34 C119.02,18.58 119.44,17.6266667 119.44,16.48 C119.44,15.3066667 119.02,14.3333333 118.18,13.56 C117.34,12.7866667 116.24,12.4 114.88,12.4 C113.493333,12.4 112.38,12.7866667 111.54,13.56 C110.7,14.3333333 110.28,15.3066667 110.28,16.48 C110.28,17.6266667 110.7,18.58 111.54,19.34 C112.38,20.1 113.493333,20.48 114.88,20.48 Z M118.76,45 L118.76,22.56 L110.92,22.56 L110.92,45 L118.76,45 Z M131.06,45 L131.06,32.96 C131.06,31.68 131.393333,30.6733333 132.06,29.94 C132.726667,29.2066667 133.646667,28.84 134.82,28.84 C135.94,28.84 136.833333,29.2066667 137.5,29.94 C138.166667,30.6733333 138.5,31.68 138.5,32.96 L138.5,32.96 L138.5,45 L146.34,45 L146.34,31.92 C146.34,28.9866667 145.58,26.66 144.06,24.94 C142.54,23.22 140.486667,22.36 137.9,22.36 C136.38,22.36 135.033333,22.6733333 133.86,23.3 C132.686667,23.9266667 131.753333,24.7466667 131.06,25.76 L131.06,25.76 L131.06,22.56 L123.22,22.56 L123.22,45 L131.06,45 Z M162,56.04 C164.586667,56.04 166.726667,55.5333333 168.42,54.52 C170.113333,53.5066667 171.36,52.1533333 172.16,50.46 C172.96,48.7666667 173.36,46.8666667 173.36,44.76 L173.36,44.76 L173.36,22.56 L165.52,22.56 L165.52,25.68 C164.906667,24.64 164.033333,23.8133333 162.9,23.2 C161.766667,22.5866667 160.44,22.28 158.92,22.28 C157.133333,22.28 155.513333,22.7466667 154.06,23.68 C152.606667,24.6133333 151.46,25.9466667 150.62,27.68 C149.78,29.4133333 149.36,31.44 149.36,33.76 C149.36,36.08 149.78,38.1133333 150.62,39.86 C151.46,41.6066667 152.606667,42.9466667 154.06,43.88 C155.513333,44.8133333 157.133333,45.28 158.92,45.28 C160.44,45.28 161.766667,44.9733333 162.9,44.36 C164.033333,43.7466667 164.906667,42.92 165.52,41.88 L165.52,41.88 L165.52,44.76 C165.52,47.7466667 164.186667,49.24 161.52,49.24 C160.506667,49.24 159.68,49.04 159.04,48.64 C158.4,48.24 158,47.68 157.84,46.96 L157.84,46.96 L150.12,46.96 C150.413333,49.76 151.6,51.9733333 153.68,53.6 C155.76,55.2266667 158.533333,56.04 162,56.04 Z M161.44,38.44 C160.266667,38.44 159.293333,38.02 158.52,37.18 C157.746667,36.34 157.36,35.2 157.36,33.76 C157.36,32.2933333 157.746667,31.1533333 158.52,30.34 C159.293333,29.5266667 160.266667,29.12 161.44,29.12 C162.586667,29.12 163.553333,29.5333333 164.34,30.36 C165.126667,31.1866667 165.52,32.32 165.52,33.76 C165.52,35.2266667 165.126667,36.3733333 164.34,37.2 C163.553333,38.0266667 162.586667,38.44 161.44,38.44 Z M196.24,45 L196.24,15.76 L183.92,15.76 L183.92,23.12 L188.04,23.12 L188.04,45 L196.24,45 Z" id="Heading1"></path>
                        <path d="M9.27,143 L9.27,134.09 L18.24,134.09 L18.24,143 L22.44,143 L22.44,122.06 L18.24,122.06 L18.24,130.67 L9.27,130.67 L9.27,122.06 L5.07,122.06 L5.07,143 L9.27,143 Z M33.82125,143.27 C35.80125,143.27 37.47125,142.755 38.83125,141.725 C40.19125,140.695 41.11125,139.38 41.59125,137.78 L41.59125,137.78 L37.06125,137.78 C36.40125,139.12 35.29125,139.79 33.73125,139.79 C32.65125,139.79 31.74125,139.45 31.00125,138.77 C30.26125,138.09 29.84125,137.15 29.74125,135.95 L29.74125,135.95 L41.89125,135.95 C41.97125,135.47 42.01125,134.93 42.01125,134.33 C42.01125,132.71 41.66625,131.275 40.97625,130.025 C40.28625,128.775 39.31625,127.81 38.06625,127.13 C36.81625,126.45 35.40125,126.11 33.82125,126.11 C32.18125,126.11 30.73125,126.46 29.47125,127.16 C28.21125,127.86 27.23125,128.86 26.53125,130.16 C25.83125,131.46 25.48125,132.97 25.48125,134.69 C25.48125,136.39 25.83625,137.89 26.54625,139.19 C27.25625,140.49 28.24625,141.495 29.51625,142.205 C30.78625,142.915 32.22125,143.27 33.82125,143.27 Z M37.66125,133.13 L29.77125,133.13 C29.93125,132.01 30.36625,131.135 31.07625,130.505 C31.78625,129.875 32.66125,129.56 33.70125,129.56 C34.80125,129.56 35.73125,129.885 36.49125,130.535 C37.25125,131.185 37.64125,132.05 37.66125,133.13 L37.66125,133.13 Z M51.5325,143.27 C52.7725,143.27 53.8675,143.015 54.8175,142.505 C55.7675,141.995 56.5125,141.35 57.0525,140.57 L57.0525,140.57 L57.0525,143 L61.2825,143 L61.2825,126.38 L57.0525,126.38 L57.0525,128.75 C56.4925,127.99 55.7475,127.36 54.8175,126.86 C53.8875,126.36 52.8025,126.11 51.5625,126.11 C50.1425,126.11 48.8575,126.46 47.7075,127.16 C46.5575,127.86 45.6475,128.86 44.9775,130.16 C44.3075,131.46 43.9725,132.95 43.9725,134.63 C43.9725,136.33 44.3075,137.835 44.9775,139.145 C45.6475,140.455 46.5575,141.47 47.7075,142.19 C48.8575,142.91 50.1325,143.27 51.5325,143.27 Z M52.6425,139.58 C51.8825,139.58 51.1675,139.38 50.4975,138.98 C49.8275,138.58 49.2875,138.005 48.8775,137.255 C48.4675,136.505 48.2625,135.63 48.2625,134.63 C48.2625,133.63 48.4675,132.765 48.8775,132.035 C49.2875,131.305 49.8225,130.75 50.4825,130.37 C51.1425,129.99 51.8625,129.8 52.6425,129.8 C53.4225,129.8 54.1525,129.995 54.8325,130.385 C55.5125,130.775 56.0525,131.335 56.4525,132.065 C56.8525,132.795 57.0525,133.67 57.0525,134.69 C57.0525,135.71 56.8525,136.585 56.4525,137.315 C56.0525,138.045 55.5125,138.605 54.8325,138.995 C54.1525,139.385 53.4225,139.58 52.6425,139.58 Z M71.88375,143.27 C73.12375,143.27 74.21375,143.02 75.15375,142.52 C76.09375,142.02 76.82375,141.36 77.34375,140.54 L77.34375,140.54 L77.34375,143 L81.60375,143 L81.60375,120.8 L77.34375,120.8 L77.34375,128.69 C76.76375,127.91 75.98375,127.285 75.00375,126.815 C74.02375,126.345 72.99375,126.11 71.91375,126.11 C70.49375,126.11 69.20375,126.46 68.04375,127.16 C66.88375,127.86 65.96875,128.86 65.29875,130.16 C64.62875,131.46 64.29375,132.95 64.29375,134.63 C64.29375,136.33 64.62875,137.835 65.29875,139.145 C65.96875,140.455 66.88375,141.47 68.04375,142.19 C69.20375,142.91 70.48375,143.27 71.88375,143.27 Z M72.96375,139.58 C72.20375,139.58 71.48875,139.38 70.81875,138.98 C70.14875,138.58 69.60875,138.005 69.19875,137.255 C68.78875,136.505 68.58375,135.63 68.58375,134.63 C68.58375,133.63 68.78875,132.765 69.19875,132.035 C69.60875,131.305 70.14375,130.75 70.80375,130.37 C71.46375,129.99 72.18375,129.8 72.96375,129.8 C73.74375,129.8 74.47375,129.995 75.15375,130.385 C75.83375,130.775 76.37375,131.335 76.77375,132.065 C77.17375,132.795 77.37375,133.67 77.37375,134.69 C77.37375,135.71 77.17375,136.585 76.77375,137.315 C76.37375,138.045 75.83375,138.605 75.15375,138.995 C74.47375,139.385 73.74375,139.58 72.96375,139.58 Z M87.825,124.4 C88.565,124.4 89.18,124.165 89.67,123.695 C90.16,123.225 90.405,122.64 90.405,121.94 C90.405,121.24 90.16,120.655 89.67,120.185 C89.18,119.715 88.565,119.48 87.825,119.48 C87.085,119.48 86.47,119.715 85.98,120.185 C85.49,120.655 85.245,121.24 85.245,121.94 C85.245,122.64 85.49,123.225 85.98,123.695 C86.47,124.165 87.085,124.4 87.825,124.4 Z M89.895,143 L89.895,126.38 L85.695,126.38 L85.695,143 L89.895,143 Z M98.21625,143 L98.21625,133.82 C98.21625,132.5 98.55125,131.485 99.22125,130.775 C99.89125,130.065 100.80625,129.71 101.96625,129.71 C103.10625,129.71 104.00625,130.065 104.66625,130.775 C105.32625,131.485 105.65625,132.5 105.65625,133.82 L105.65625,133.82 L105.65625,143 L109.85625,143 L109.85625,133.25 C109.85625,131.01 109.24625,129.265 108.02625,128.015 C106.80625,126.765 105.20625,126.14 103.22625,126.14 C102.18625,126.14 101.23125,126.345 100.36125,126.755 C99.49125,127.165 98.77625,127.73 98.21625,128.45 L98.21625,128.45 L98.21625,126.38 L94.01625,126.38 L94.01625,143 L98.21625,143 Z M121.8375,151.19 C123.5975,151.19 125.0975,150.835 126.3375,150.125 C127.5775,149.415 128.5075,148.455 129.1275,147.245 C129.7475,146.035 130.0575,144.66 130.0575,143.12 L130.0575,143.12 L130.0575,126.38 L125.8275,126.38 L125.8275,128.75 C125.2875,127.97 124.5475,127.335 123.6075,126.845 C122.6675,126.355 121.5775,126.11 120.3375,126.11 C118.9175,126.11 117.6325,126.46 116.4825,127.16 C115.3325,127.86 114.4225,128.86 113.7525,130.16 C113.0825,131.46 112.7475,132.95 112.7475,134.63 C112.7475,136.33 113.0825,137.835 113.7525,139.145 C114.4225,140.455 115.3375,141.47 116.4975,142.19 C117.6575,142.91 118.9375,143.27 120.3375,143.27 C121.5575,143.27 122.6425,143.01 123.5925,142.49 C124.5425,141.97 125.2875,141.32 125.8275,140.54 L125.8275,140.54 L125.8275,143.12 C125.8275,144.6 125.4475,145.705 124.6875,146.435 C123.9275,147.165 122.9375,147.53 121.7175,147.53 C120.6775,147.53 119.7925,147.305 119.0625,146.855 C118.3325,146.405 117.8575,145.8 117.6375,145.04 L117.6375,145.04 L113.4675,145.04 C113.6675,146.94 114.5225,148.44 116.0325,149.54 C117.5425,150.64 119.4775,151.19 121.8375,151.19 Z M121.4175,139.58 C120.6575,139.58 119.9425,139.38 119.2725,138.98 C118.6025,138.58 118.0625,138.005 117.6525,137.255 C117.2425,136.505 117.0375,135.63 117.0375,134.63 C117.0375,133.63 117.2425,132.765 117.6525,132.035 C118.0625,131.305 118.5975,130.75 119.2575,130.37 C119.9175,129.99 120.6375,129.8 121.4175,129.8 C122.1975,129.8 122.9275,129.995 123.6075,130.385 C124.2875,130.775 124.8275,131.335 125.2275,132.065 C125.6275,132.795 125.8275,133.67 125.8275,134.69 C125.8275,135.71 125.6275,136.585 125.2275,137.315 C124.8275,138.045 124.2875,138.605 123.6075,138.995 C122.9275,139.385 122.1975,139.58 121.4175,139.58 Z M155.37,142.7 L155.37,139.22 L146.52,139.22 C148.26,137.74 149.67,136.475 150.75,135.425 C151.83,134.375 152.79,133.14 153.63,131.72 C154.47,130.3 154.89,128.81 154.89,127.25 C154.89,125.27 154.28,123.675 153.06,122.465 C151.84,121.255 150.09,120.65 147.81,120.65 C145.73,120.65 144.015,121.27 142.665,122.51 C141.315,123.75 140.6,125.57 140.52,127.97 L140.52,127.97 L144.6,127.97 C144.62,126.81 144.9,125.895 145.44,125.225 C145.98,124.555 146.75,124.22 147.75,124.22 C148.75,124.22 149.49,124.51 149.97,125.09 C150.45,125.67 150.69,126.47 150.69,127.49 C150.69,128.61 150.31,129.75 149.55,130.91 C148.79,132.07 147.84,133.185 146.7,134.255 C145.56,135.325 144.03,136.66 142.11,138.26 L142.11,138.26 L140.55,139.58 L140.55,142.7 L155.37,142.7 Z" id="Heading2"></path>
                        <path d="M4.725,241 L4.725,233.4 L12.9,233.4 L12.9,241 L15.75,241 L15.75,223.625 L12.9,223.625 L12.9,231.075 L4.725,231.075 L4.725,223.625 L1.875,223.625 L1.875,241 L4.725,241 Z M25.409375,241.225 C27.0260417,241.225 28.3802083,240.820833 29.471875,240.0125 C30.5635417,239.204167 31.3177083,238.166667 31.734375,236.9 L31.734375,236.9 L28.659375,236.9 C28.0260417,238.183333 26.9427083,238.825 25.409375,238.825 C24.3427083,238.825 23.4427083,238.491667 22.709375,237.825 C21.9760417,237.158333 21.5677083,236.275 21.484375,235.175 L21.484375,235.175 L32.009375,235.175 C32.0760417,234.758333 32.109375,234.291667 32.109375,233.775 C32.109375,232.441667 31.8260417,231.2625 31.259375,230.2375 C30.6927083,229.2125 29.9010417,228.416667 28.884375,227.85 C27.8677083,227.283333 26.709375,227 25.409375,227 C24.059375,227 22.8635417,227.291667 21.821875,227.875 C20.7802083,228.458333 19.971875,229.2875 19.396875,230.3625 C18.821875,231.4375 18.534375,232.683333 18.534375,234.1 C18.534375,235.516667 18.8302083,236.7625 19.421875,237.8375 C20.0135417,238.9125 20.8302083,239.745833 21.871875,240.3375 C22.9135417,240.929167 24.0927083,241.225 25.409375,241.225 Z M29.134375,232.875 L21.509375,232.875 C21.6427083,231.808333 22.059375,230.9625 22.759375,230.3375 C23.459375,229.7125 24.3010417,229.4 25.284375,229.4 C26.3677083,229.4 27.2760417,229.716667 28.009375,230.35 C28.7427083,230.983333 29.1177083,231.825 29.134375,232.875 L29.134375,232.875 Z M40.39375,241.225 C41.4604167,241.225 42.4104167,241.008333 43.24375,240.575 C44.0770833,240.141667 44.7354167,239.6 45.21875,238.95 L45.21875,238.95 L45.21875,241 L48.09375,241 L48.09375,227.225 L45.21875,227.225 L45.21875,229.225 C44.7354167,228.591667 44.0895833,228.0625 43.28125,227.6375 C42.4729167,227.2125 41.5270833,227 40.44375,227 C39.24375,227 38.1479167,227.295833 37.15625,227.8875 C36.1645833,228.479167 35.38125,229.308333 34.80625,230.375 C34.23125,231.441667 33.94375,232.666667 33.94375,234.05 C33.94375,235.433333 34.23125,236.670833 34.80625,237.7625 C35.38125,238.854167 36.1604167,239.704167 37.14375,240.3125 C38.1270833,240.920833 39.2104167,241.225 40.39375,241.225 Z M41.04375,238.75 C40.3270833,238.75 39.6479167,238.5625 39.00625,238.1875 C38.3645833,237.8125 37.8479167,237.266667 37.45625,236.55 C37.0645833,235.833333 36.86875,235 36.86875,234.05 C36.86875,233.1 37.0645833,232.279167 37.45625,231.5875 C37.8479167,230.895833 38.3604167,230.370833 38.99375,230.0125 C39.6270833,229.654167 40.3104167,229.475 41.04375,229.475 C41.7770833,229.475 42.4604167,229.658333 43.09375,230.025 C43.7270833,230.391667 44.2395833,230.925 44.63125,231.625 C45.0229167,232.325 45.21875,233.15 45.21875,234.1 C45.21875,235.05 45.0229167,235.879167 44.63125,236.5875 C44.2395833,237.295833 43.7270833,237.833333 43.09375,238.2 C42.4604167,238.566667 41.7770833,238.75 41.04375,238.75 Z M57.378125,241.225 C58.4447917,241.225 59.390625,241.008333 60.215625,240.575 C61.040625,240.141667 61.6864583,239.591667 62.153125,238.925 L62.153125,238.925 L62.153125,241 L65.028125,241 L65.028125,222.5 L62.153125,222.5 L62.153125,229.15 C61.6364583,228.5 60.940625,227.979167 60.065625,227.5875 C59.190625,227.195833 58.303125,227 57.403125,227 C56.1864583,227 55.0822917,227.295833 54.090625,227.8875 C53.0989583,228.479167 52.315625,229.308333 51.740625,230.375 C51.165625,231.441667 50.878125,232.666667 50.878125,234.05 C50.878125,235.433333 51.165625,236.670833 51.740625,237.7625 C52.315625,238.854167 53.0989583,239.704167 54.090625,240.3125 C55.0822917,240.920833 56.178125,241.225 57.378125,241.225 Z M57.978125,238.75 C57.2614583,238.75 56.5822917,238.5625 55.940625,238.1875 C55.2989583,237.8125 54.7822917,237.266667 54.390625,236.55 C53.9989583,235.833333 53.803125,235 53.803125,234.05 C53.803125,233.1 53.9989583,232.279167 54.390625,231.5875 C54.7822917,230.895833 55.2947917,230.370833 55.928125,230.0125 C56.5614583,229.654167 57.2447917,229.475 57.978125,229.475 C58.7114583,229.475 59.3947917,229.658333 60.028125,230.025 C60.6614583,230.391667 61.1739583,230.925 61.565625,231.625 C61.9572917,232.325 62.153125,233.15 62.153125,234.1 C62.153125,235.05 61.9572917,235.879167 61.565625,236.5875 C61.1739583,237.295833 60.6614583,237.833333 60.028125,238.2 C59.3947917,238.566667 58.7114583,238.75 57.978125,238.75 Z M70.2125,225.4 C70.7125,225.4 71.1375,225.225 71.4875,224.875 C71.8375,224.525 72.0125,224.091667 72.0125,223.575 C72.0125,223.058333 71.8375,222.625 71.4875,222.275 C71.1375,221.925 70.7125,221.75 70.2125,221.75 C69.6958333,221.75 69.2625,221.925 68.9125,222.275 C68.5625,222.625 68.3875,223.058333 68.3875,223.575 C68.3875,224.091667 68.5625,224.525 68.9125,224.875 C69.2625,225.225 69.6958333,225.4 70.2125,225.4 Z M71.6125,241 L71.6125,227.225 L68.7625,227.225 L68.7625,241 L71.6125,241 Z M78.196875,241 L78.196875,233.3 C78.196875,232.066667 78.509375,231.120833 79.134375,230.4625 C79.759375,229.804167 80.6052083,229.475 81.671875,229.475 C82.7385417,229.475 83.5802083,229.804167 84.196875,230.4625 C84.8135417,231.120833 85.121875,232.066667 85.121875,233.3 L85.121875,233.3 L85.121875,241 L87.946875,241 L87.946875,232.875 C87.946875,231.625 87.7052083,230.558333 87.221875,229.675 C86.7385417,228.791667 86.0677083,228.125 85.209375,227.675 C84.3510417,227.225 83.3802083,227 82.296875,227 C81.4802083,227 80.709375,227.158333 79.984375,227.475 C79.259375,227.791667 78.6635417,228.233333 78.196875,228.8 L78.196875,228.8 L78.196875,227.225 L75.346875,227.225 L75.346875,241 L78.196875,241 Z M98.03125,247.8 C99.43125,247.8 100.635417,247.516667 101.64375,246.95 C102.652083,246.383333 103.422917,245.604167 103.95625,244.6125 C104.489583,243.620833 104.75625,242.491667 104.75625,241.225 L104.75625,241.225 L104.75625,227.225 L101.88125,227.225 L101.88125,229.225 C101.414583,228.591667 100.76875,228.0625 99.94375,227.6375 C99.11875,227.2125 98.1729167,227 97.10625,227 C95.90625,227 94.8104167,227.295833 93.81875,227.8875 C92.8270833,228.479167 92.04375,229.308333 91.46875,230.375 C90.89375,231.441667 90.60625,232.666667 90.60625,234.05 C90.60625,235.433333 90.89375,236.670833 91.46875,237.7625 C92.04375,238.854167 92.8270833,239.704167 93.81875,240.3125 C94.8104167,240.920833 95.90625,241.225 97.10625,241.225 C98.15625,241.225 99.09375,241.004167 99.91875,240.5625 C100.74375,240.120833 101.397917,239.575 101.88125,238.925 L101.88125,238.925 L101.88125,241.225 C101.88125,242.558333 101.527083,243.575 100.81875,244.275 C100.110417,244.975 99.18125,245.325 98.03125,245.325 C97.0479167,245.325 96.2020833,245.104167 95.49375,244.6625 C94.7854167,244.220833 94.3229167,243.641667 94.10625,242.925 L94.10625,242.925 L91.28125,242.925 C91.4479167,244.425 92.1479167,245.6125 93.38125,246.4875 C94.6145833,247.3625 96.1645833,247.8 98.03125,247.8 Z M97.70625,238.75 C96.9895833,238.75 96.3104167,238.5625 95.66875,238.1875 C95.0270833,237.8125 94.5104167,237.266667 94.11875,236.55 C93.7270833,235.833333 93.53125,235 93.53125,234.05 C93.53125,233.1 93.7270833,232.279167 94.11875,231.5875 C94.5104167,230.895833 95.0229167,230.370833 95.65625,230.0125 C96.2895833,229.654167 96.9729167,229.475 97.70625,229.475 C98.4395833,229.475 99.1229167,229.658333 99.75625,230.025 C100.389583,230.391667 100.902083,230.925 101.29375,231.625 C101.685417,232.325 101.88125,233.15 101.88125,234.1 C101.88125,235.05 101.685417,235.879167 101.29375,236.5875 C100.902083,237.295833 100.389583,237.833333 99.75625,238.2 C99.1229167,238.566667 98.4395833,238.75 97.70625,238.75 Z M120.6,241.1 C121.833333,241.1 122.891667,240.879167 123.775,240.4375 C124.658333,239.995833 125.325,239.391667 125.775,238.625 C126.225,237.858333 126.45,236.983333 126.45,236 C126.45,234.766667 126.175,233.754167 125.625,232.9625 C125.075,232.170833 124.308333,231.625 123.325,231.325 L123.325,231.325 L123.325,231.225 C124.091667,230.975 124.75,230.483333 125.3,229.75 C125.85,229.016667 126.125,228.133333 126.125,227.1 C126.125,226.2 125.908333,225.391667 125.475,224.675 C125.041667,223.958333 124.4,223.391667 123.55,222.975 C122.7,222.558333 121.691667,222.35 120.525,222.35 C118.825,222.35 117.429167,222.783333 116.3375,223.65 C115.245833,224.516667 114.65,225.725 114.55,227.275 L114.55,227.275 L117.325,227.275 C117.425,226.575 117.733333,225.9875 118.25,225.5125 C118.766667,225.0375 119.491667,224.8 120.425,224.8 C121.375,224.8 122.108333,225.0375 122.625,225.5125 C123.141667,225.9875 123.4,226.625 123.4,227.425 C123.4,228.358333 123.045833,229.041667 122.3375,229.475 C121.629167,229.908333 120.6,230.133333 119.25,230.15 L119.25,230.15 L118.575,230.15 L118.575,232.5 L119.225,232.5 C120.758333,232.5 121.895833,232.745833 122.6375,233.2375 C123.379167,233.729167 123.75,234.558333 123.75,235.725 C123.75,236.608333 123.475,237.329167 122.925,237.8875 C122.375,238.445833 121.591667,238.725 120.575,238.725 C119.525,238.725 118.691667,238.445833 118.075,237.8875 C117.458333,237.329167 117.116667,236.608333 117.05,235.725 L117.05,235.725 L114.3,235.725 C114.383333,237.458333 115.004167,238.7875 116.1625,239.7125 C117.320833,240.6375 118.8,241.1 120.6,241.1 Z" id="Heading3"></path>
                    </g>
                </g>
            </g>
        </g>
    </g>
</svg>