<?xml version="1.0" encoding="UTF-8"?>
<svg width="152px" height="277px" viewBox="0 0 152 277" version="1.1" xmlns="http://www.w3.org/2000/svg" xmlns:xlink="http://www.w3.org/1999/xlink">
    <title>Typeface</title>
    <g id="Page-1" stroke="none" stroke-width="1" fill="none" fill-rule="evenodd">
        <g id="spmedia" transform="translate(-400.000000, -3432.000000)" fill-rule="nonzero">
            <g id="Group" transform="translate(298.000000, 3144.000000)">
                <g id="Typeface" transform="translate(102.000000, 288.000000)">
                    <path d="M19.26,95 L22.68,84.65 L45.18,84.65 L48.6,95 L67.23,95 L44.19,31.55 L23.85,31.55 L0.72,95 L19.26,95 Z M40.77,71.15 L27.18,71.15 L33.93,50.63 L40.77,71.15 Z M91.5878571,95.63 C95.0078571,95.63 97.9928571,94.94 100.542857,93.56 C103.092857,92.18 105.057857,90.32 106.437857,87.98 L106.437857,87.98 L106.437857,95 L124.077857,95 L124.077857,44.51 L106.437857,44.51 L106.437857,51.53 C105.057857,49.19 103.107857,47.33 100.587857,45.95 C98.0678571,44.57 95.0678571,43.88 91.5878571,43.88 C87.5678571,43.88 83.9228571,44.93 80.6528571,47.03 C77.3828571,49.13 74.8028571,52.13 72.9128571,56.03 C71.0228571,59.93 70.0778571,64.49 70.0778571,69.71 C70.0778571,74.93 71.0228571,79.505 72.9128571,83.435 C74.8028571,87.365 77.3828571,90.38 80.6528571,92.48 C83.9228571,94.58 87.5678571,95.63 91.5878571,95.63 Z M97.2578571,80.24 C94.6178571,80.24 92.4278571,79.295 90.6878571,77.405 C88.9478571,75.515 88.0778571,72.95 88.0778571,69.71 C88.0778571,66.41 88.9478571,63.845 90.6878571,62.015 C92.4278571,60.185 94.6178571,59.27 97.2578571,59.27 C99.8378571,59.27 102.012857,60.2 103.782857,62.06 C105.552857,63.92 106.437857,66.47 106.437857,69.71 C106.437857,73.01 105.552857,75.59 103.782857,77.45 C102.012857,79.31 99.8378571,80.24 97.2578571,80.24 Z" id="Aa" fill="#FAFAFA"></path>
                    <path d="M4.354,151 L4.354,142.39 L7.406,142.39 L7.406,141.662 L0.49,141.662 L0.49,142.39 L3.542,142.39 L3.542,151 L4.354,151 Z M14.628,151 L14.628,147.01 L18.338,141.662 L17.372,141.662 L14.222,146.254 L11.072,141.662 L10.106,141.662 L13.816,147.01 L13.816,151 L14.628,151 Z M22.508,151 L22.508,147.122 L25.21,147.122 C26.988,147.122 28.024,145.862 28.024,144.392 C28.024,142.922 27.002,141.662 25.21,141.662 L21.71,141.662 L21.71,151 L22.508,151 Z M25.126,146.394 L22.508,146.394 L22.508,142.39 L25.126,142.39 C26.372,142.39 27.184,143.216 27.184,144.392 C27.184,145.554 26.372,146.394 25.126,146.394 Z M37.626,151 L37.626,150.272 L32.502,150.272 L32.502,146.576 L37.528,146.576 L37.528,145.848 L32.502,145.848 L32.502,142.39 L37.626,142.39 L37.626,141.662 L31.704,141.662 L31.704,151 L37.626,151 Z M42.398,151 L42.398,146.576 L47.424,146.576 L47.424,145.848 L42.398,145.848 L42.398,142.39 L47.522,142.39 L47.522,141.662 L41.6,141.662 L41.6,151 L42.398,151 Z M50.698,151 L51.622,148.704 L56.564,148.704 L57.488,151 L58.412,151 L54.59,141.662 L53.596,141.662 L49.774,151 L50.698,151 Z M56.298,147.976 L51.888,147.976 L54.1,142.516 L56.298,147.976 Z M65.62,151.168 C67.104,151.168 68.196,150.524 69.036,149.502 L68.35,149.082 C67.762,149.894 66.74,150.44 65.62,150.44 C63.436,150.44 61.728,148.746 61.728,146.338 C61.728,143.902 63.436,142.236 65.62,142.236 C66.74,142.236 67.762,142.782 68.35,143.594 L69.022,143.16 C68.238,142.166 67.104,141.508 65.62,141.508 C62.974,141.508 60.888,143.468 60.888,146.338 C60.888,149.208 62.974,151.168 65.62,151.168 Z M78.554,151 L78.554,150.272 L73.43,150.272 L73.43,146.576 L78.456,146.576 L78.456,145.848 L73.43,145.848 L73.43,142.39 L78.554,142.39 L78.554,141.662 L72.632,141.662 L72.632,151 L78.554,151 Z" id="TYPEFACE" fill="#9A9A9A"></path>
                    <rect id="Rectangle" fill="#606060" x="0" y="180" width="1" height="92"></rect>
                    <path d="M12.528,190 L12.528,186.668 L13.886,186.668 C14.6886667,186.668 15.3676667,186.521 15.923,186.227 C16.4783333,185.933 16.8936667,185.541 17.169,185.051 C17.4443333,184.561 17.582,184.017333 17.582,183.42 C17.582,182.776 17.442,182.206667 17.162,181.712 C16.882,181.217333 16.4643333,180.83 15.909,180.55 C15.3536667,180.27 14.6793333,180.13 13.886,180.13 L13.886,180.13 L9.784,180.13 L9.784,190 L12.528,190 Z M13.62,184.484 L12.528,184.484 L12.528,182.342 L13.62,182.342 C14.3946667,182.342 14.782,182.701333 14.782,183.42 C14.782,184.129333 14.3946667,184.484 13.62,184.484 L13.62,184.484 Z M22.342,190.098 C23.126,190.098 23.8306667,189.934667 24.456,189.608 C25.0813333,189.281333 25.5736667,188.812333 25.933,188.201 C26.2923333,187.589667 26.472,186.878 26.472,186.066 C26.472,185.254 26.2923333,184.544667 25.933,183.938 C25.5736667,183.331333 25.0836667,182.864667 24.463,182.538 C23.8423333,182.211333 23.14,182.048 22.356,182.048 C21.572,182.048 20.8696667,182.211333 20.249,182.538 C19.6283333,182.864667 19.1383333,183.331333 18.779,183.938 C18.4196667,184.544667 18.24,185.254 18.24,186.066 C18.24,186.887333 18.4173333,187.601333 18.772,188.208 C19.1266667,188.814667 19.6143333,189.281333 20.235,189.608 C20.8556667,189.934667 21.558,190.098 22.342,190.098 Z M22.342,187.718 C21.9593333,187.718 21.6466667,187.578 21.404,187.298 C21.1613333,187.018 21.04,186.607333 21.04,186.066 C21.04,185.534 21.166,185.128 21.418,184.848 C21.67,184.568 21.9826667,184.428 22.356,184.428 C22.7293333,184.428 23.0443333,184.568 23.301,184.848 C23.5576667,185.128 23.686,185.534 23.686,186.066 C23.686,186.598 23.5576667,187.006333 23.301,187.291 C23.0443333,187.575667 22.7246667,187.718 22.342,187.718 Z M30.336,193.752 L30.336,188.908 C30.56,189.272 30.8656667,189.561333 31.253,189.776 C31.6403333,189.990667 32.1,190.098 32.632,190.098 C33.2573333,190.098 33.8243333,189.934667 34.333,189.608 C34.8416667,189.281333 35.243,188.812333 35.537,188.201 C35.831,187.589667 35.978,186.878 35.978,186.066 C35.978,185.254 35.831,184.544667 35.537,183.938 C35.243,183.331333 34.8416667,182.864667 34.333,182.538 C33.8243333,182.211333 33.2573333,182.048 32.632,182.048 C32.1,182.048 31.638,182.155333 31.246,182.37 C30.854,182.584667 30.5506667,182.874 30.336,183.238 L30.336,183.238 L30.336,182.146 L27.592,182.146 L27.592,193.752 L30.336,193.752 Z M31.764,187.704 C31.3626667,187.704 31.0243333,187.559333 30.749,187.27 C30.4736667,186.980667 30.336,186.579333 30.336,186.066 C30.336,185.562 30.4736667,185.165333 30.749,184.876 C31.0243333,184.586667 31.3626667,184.442 31.764,184.442 C32.1653333,184.442 32.5036667,184.584333 32.779,184.869 C33.0543333,185.153667 33.192,185.552667 33.192,186.066 C33.192,186.57 33.0543333,186.969 32.779,187.263 C32.5036667,187.557 32.1653333,187.704 31.764,187.704 Z M39.856,193.752 L39.856,188.908 C40.08,189.272 40.3856667,189.561333 40.773,189.776 C41.1603333,189.990667 41.62,190.098 42.152,190.098 C42.7773333,190.098 43.3443333,189.934667 43.853,189.608 C44.3616667,189.281333 44.763,188.812333 45.057,188.201 C45.351,187.589667 45.498,186.878 45.498,186.066 C45.498,185.254 45.351,184.544667 45.057,183.938 C44.763,183.331333 44.3616667,182.864667 43.853,182.538 C43.3443333,182.211333 42.7773333,182.048 42.152,182.048 C41.62,182.048 41.158,182.155333 40.766,182.37 C40.374,182.584667 40.0706667,182.874 39.856,183.238 L39.856,183.238 L39.856,182.146 L37.112,182.146 L37.112,193.752 L39.856,193.752 Z M41.284,187.704 C40.8826667,187.704 40.5443333,187.559333 40.269,187.27 C39.9936667,186.980667 39.856,186.579333 39.856,186.066 C39.856,185.562 39.9936667,185.165333 40.269,184.876 C40.5443333,184.586667 40.8826667,184.442 41.284,184.442 C41.6853333,184.442 42.0236667,184.584333 42.299,184.869 C42.5743333,185.153667 42.712,185.552667 42.712,186.066 C42.712,186.57 42.5743333,186.969 42.299,187.263 C42.0236667,187.557 41.6853333,187.704 41.284,187.704 Z M48.018,181.418 C48.494,181.418 48.879,181.285 49.173,181.019 C49.467,180.753 49.614,180.419333 49.614,180.018 C49.614,179.607333 49.467,179.266667 49.173,178.996 C48.879,178.725333 48.494,178.59 48.018,178.59 C47.5326667,178.59 47.143,178.725333 46.849,178.996 C46.555,179.266667 46.408,179.607333 46.408,180.018 C46.408,180.419333 46.555,180.753 46.849,181.019 C47.143,181.285 47.5326667,181.418 48.018,181.418 Z M49.376,190 L49.376,182.146 L46.632,182.146 L46.632,190 L49.376,190 Z M53.688,190 L53.688,185.786 C53.688,185.338 53.8046667,184.985667 54.038,184.729 C54.2713333,184.472333 54.5933333,184.344 55.004,184.344 C55.396,184.344 55.7086667,184.472333 55.942,184.729 C56.1753333,184.985667 56.292,185.338 56.292,185.786 L56.292,185.786 L56.292,190 L59.036,190 L59.036,185.422 C59.036,184.395333 58.77,183.581 58.238,182.979 C57.706,182.377 56.9873333,182.076 56.082,182.076 C55.55,182.076 55.0786667,182.185667 54.668,182.405 C54.2573333,182.624333 53.9306667,182.911333 53.688,183.266 L53.688,183.266 L53.688,182.146 L50.944,182.146 L50.944,190 L53.688,190 Z M63.894,190.098 C64.5566667,190.098 65.133,189.993 65.623,189.783 C66.113,189.573 66.491,189.286 66.757,188.922 C67.023,188.558 67.156,188.147333 67.156,187.69 C67.156,187.120667 67.0136667,186.670333 66.729,186.339 C66.4443333,186.007667 66.113,185.767333 65.735,185.618 C65.357,185.468667 64.8833333,185.333333 64.314,185.212 C63.838,185.109333 63.4926667,185.009 63.278,184.911 C63.0633333,184.813 62.956,184.670667 62.956,184.484 C62.956,184.334667 63.0143333,184.218 63.131,184.134 C63.2476667,184.05 63.418,184.008 63.642,184.008 C63.9313333,184.008 64.1623333,184.075667 64.335,184.211 C64.5076667,184.346333 64.6173333,184.54 64.664,184.792 L64.664,184.792 L67.142,184.792 C67.0486667,183.970667 66.708,183.308 66.12,182.804 C65.532,182.3 64.7246667,182.048 63.698,182.048 C63.0073333,182.048 62.417,182.16 61.927,182.384 C61.437,182.608 61.066,182.909 60.814,183.287 C60.562,183.665 60.436,184.087333 60.436,184.554 C60.436,185.095333 60.5736667,185.524667 60.849,185.842 C61.1243333,186.159333 61.4486667,186.388 61.822,186.528 C62.1953333,186.668 62.662,186.794 63.222,186.906 C63.7166667,187.018 64.0713333,187.120667 64.286,187.214 C64.5006667,187.307333 64.608,187.452 64.608,187.648 C64.608,187.797333 64.5426667,187.918667 64.412,188.012 C64.2813333,188.105333 64.104,188.152 63.88,188.152 C63.5906667,188.152 63.348,188.082 63.152,187.942 C62.956,187.802 62.8393333,187.606 62.802,187.354 L62.802,187.354 L60.142,187.354 C60.1793333,187.876667 60.359,188.345667 60.681,188.761 C61.003,189.176333 61.4416667,189.503 61.997,189.741 C62.5523333,189.979 63.1846667,190.098 63.894,190.098 Z M77.236,186.29 L77.236,184.008 L70.894,184.008 L70.894,186.29 L77.236,186.29 Z M88.254,190 L88.254,187.802 L84.684,187.802 L84.684,186.024 L87.834,186.024 L87.834,183.938 L84.684,183.938 L84.684,182.328 L88.254,182.328 L88.254,180.13 L81.94,180.13 L81.94,190 L88.254,190 Z M91.978,190 L93.098,188.026 L94.512,190 L97.592,190 L94.82,186.15 L97.494,182.146 L94.484,182.146 L93.35,184.12 L91.936,182.146 L88.856,182.146 L91.586,185.926 L88.968,190 L91.978,190 Z M103.038,190 L103.038,187.662 L102.24,187.662 C102.006667,187.662 101.841,187.615333 101.743,187.522 C101.645,187.428667 101.596,187.274667 101.596,187.06 L101.596,187.06 L101.596,184.428 L103.024,184.428 L103.024,182.146 L101.596,182.146 L101.596,180.242 L98.838,180.242 L98.838,182.146 L97.872,182.146 L97.872,184.428 L98.838,184.428 L98.838,187.018 C98.838,189.006 99.8413333,190 101.848,190 L101.848,190 L103.038,190 Z M107.042,190 L107.042,186.57 C107.042,185.991333 107.186667,185.585333 107.476,185.352 C107.765333,185.118667 108.208667,185.002 108.806,185.002 L108.806,185.002 L109.576,185.002 L109.576,182.076 C109.072,182.076 108.600667,182.206667 108.162,182.468 C107.723333,182.729333 107.35,183.084 107.042,183.532 L107.042,183.532 L107.042,182.146 L104.298,182.146 L104.298,190 L107.042,190 Z M113.454,190.098 C113.986,190.098 114.450333,189.990667 114.847,189.776 C115.243667,189.561333 115.549333,189.272 115.764,188.908 L115.764,188.908 L115.764,190 L118.508,190 L118.508,182.146 L115.764,182.146 L115.764,183.238 C115.549333,182.874 115.246,182.584667 114.854,182.37 C114.462,182.155333 113.995333,182.048 113.454,182.048 C112.828667,182.048 112.261667,182.211333 111.753,182.538 C111.244333,182.864667 110.843,183.331333 110.549,183.938 C110.255,184.544667 110.108,185.254 110.108,186.066 C110.108,186.878 110.255,187.589667 110.549,188.201 C110.843,188.812333 111.244333,189.281333 111.753,189.608 C112.261667,189.934667 112.828667,190.098 113.454,190.098 Z M114.336,187.704 C113.925333,187.704 113.584667,187.557 113.314,187.263 C113.043333,186.969 112.908,186.57 112.908,186.066 C112.908,185.552667 113.043333,185.153667 113.314,184.869 C113.584667,184.584333 113.925333,184.442 114.336,184.442 C114.737333,184.442 115.075667,184.586667 115.351,184.876 C115.626333,185.165333 115.764,185.562 115.764,186.066 C115.764,186.579333 115.626333,186.980667 115.351,187.27 C115.075667,187.559333 114.737333,187.704 114.336,187.704 Z M124.962,190 C126.007333,190 126.819333,189.762 127.398,189.286 C127.976667,188.81 128.266,188.152 128.266,187.312 C128.266,186.742667 128.095667,186.236333 127.755,185.793 C127.414333,185.349667 126.954667,185.062667 126.376,184.932 C126.88,184.792 127.283667,184.528333 127.587,184.141 C127.890333,183.753667 128.042,183.270667 128.042,182.692 C128.042,181.88 127.755,181.25 127.181,180.802 C126.607,180.354 125.816,180.13 124.808,180.13 L124.808,180.13 L120.076,180.13 L120.076,190 L124.962,190 Z M124.206,184.05 L122.82,184.05 L122.82,182.314 L124.206,182.314 C124.896667,182.314 125.242,182.608 125.242,183.196 C125.242,183.765333 124.896667,184.05 124.206,184.05 L124.206,184.05 Z M124.416,187.788 L122.82,187.788 L122.82,185.996 L124.402,185.996 C124.738,185.996 124.997,186.075333 125.179,186.234 C125.361,186.392667 125.452,186.621333 125.452,186.92 C125.452,187.498667 125.106667,187.788 124.416,187.788 L124.416,187.788 Z M133.124,190.098 C133.908,190.098 134.612667,189.934667 135.238,189.608 C135.863333,189.281333 136.355667,188.812333 136.715,188.201 C137.074333,187.589667 137.254,186.878 137.254,186.066 C137.254,185.254 137.074333,184.544667 136.715,183.938 C136.355667,183.331333 135.865667,182.864667 135.245,182.538 C134.624333,182.211333 133.922,182.048 133.138,182.048 C132.354,182.048 131.651667,182.211333 131.031,182.538 C130.410333,182.864667 129.920333,183.331333 129.561,183.938 C129.201667,184.544667 129.022,185.254 129.022,186.066 C129.022,186.887333 129.199333,187.601333 129.554,188.208 C129.908667,188.814667 130.396333,189.281333 131.017,189.608 C131.637667,189.934667 132.34,190.098 133.124,190.098 Z M133.124,187.718 C132.741333,187.718 132.428667,187.578 132.186,187.298 C131.943333,187.018 131.822,186.607333 131.822,186.066 C131.822,185.534 131.948,185.128 132.2,184.848 C132.452,184.568 132.764667,184.428 133.138,184.428 C133.511333,184.428 133.826333,184.568 134.083,184.848 C134.339667,185.128 134.468,185.534 134.468,186.066 C134.468,186.598 134.339667,187.006333 134.083,187.291 C133.826333,187.575667 133.506667,187.718 133.124,187.718 Z M141.118,190 L141.118,179.64 L138.374,179.64 L138.374,190 L141.118,190 Z M145.584,190.098 C146.116,190.098 146.578,189.990667 146.97,189.776 C147.362,189.561333 147.665333,189.272 147.88,188.908 L147.88,188.908 L147.88,190 L150.638,190 L150.638,179.64 L147.88,179.64 L147.88,183.224 C147.656,182.86 147.345667,182.573 146.949,182.363 C146.552333,182.153 146.102,182.048 145.598,182.048 C144.972667,182.048 144.403333,182.211333 143.89,182.538 C143.376667,182.864667 142.973,183.331333 142.679,183.938 C142.385,184.544667 142.238,185.254 142.238,186.066 C142.238,186.878 142.385,187.589667 142.679,188.201 C142.973,188.812333 143.374333,189.281333 143.883,189.608 C144.391667,189.934667 144.958667,190.098 145.584,190.098 Z M146.466,187.704 C146.055333,187.704 145.714667,187.557 145.444,187.263 C145.173333,186.969 145.038,186.57 145.038,186.066 C145.038,185.552667 145.173333,185.153667 145.444,184.869 C145.714667,184.584333 146.055333,184.442 146.466,184.442 C146.867333,184.442 147.205667,184.586667 147.481,184.876 C147.756333,185.165333 147.894,185.562 147.894,186.066 C147.894,186.579333 147.756333,186.980667 147.481,187.27 C147.205667,187.559333 146.867333,187.704 146.466,187.704 Z" id="Poppins-ExtraBold" fill="#FFFFFF"></path>
                    <path d="M11.926,218 L11.926,214.248 L13.564,214.248 C14.3666667,214.248 15.0316667,214.108 15.559,213.828 C16.0863333,213.548 16.4736667,213.179333 16.721,212.722 C16.9683333,212.264667 17.092,211.774667 17.092,211.252 C17.092,210.673333 16.959,210.155333 16.693,209.698 C16.427,209.240667 16.028,208.881333 15.496,208.62 C14.964,208.358667 14.32,208.228 13.564,208.228 L13.564,208.228 L9.966,208.228 L9.966,218 L11.926,218 Z M13.48,212.666 L11.926,212.666 L11.926,209.824 L13.48,209.824 C14.544,209.824 15.076,210.3 15.076,211.252 C15.076,211.7 14.9453333,212.047667 14.684,212.295 C14.4226667,212.542333 14.0213333,212.666 13.48,212.666 L13.48,212.666 Z M21.922,218.126 C22.678,218.126 23.3616667,217.960333 23.973,217.629 C24.5843333,217.297667 25.0696667,216.828667 25.429,216.222 C25.7883333,215.615333 25.968,214.915333 25.968,214.122 C25.968,213.328667 25.793,212.628667 25.443,212.022 C25.093,211.415333 24.6146667,210.946333 24.008,210.615 C23.4013333,210.283667 22.7246667,210.118 21.978,210.118 C21.2313333,210.118 20.5546667,210.283667 19.948,210.615 C19.3413333,210.946333 18.863,211.415333 18.513,212.022 C18.163,212.628667 17.988,213.328667 17.988,214.122 C17.988,214.915333 18.1583333,215.615333 18.499,216.222 C18.8396667,216.828667 19.3086667,217.297667 19.906,217.629 C20.5033333,217.960333 21.1753333,218.126 21.922,218.126 Z M21.922,216.418 C21.362,216.418 20.8976667,216.219667 20.529,215.823 C20.1603333,215.426333 19.976,214.859333 19.976,214.122 C19.976,213.384667 20.165,212.817667 20.543,212.421 C20.921,212.024333 21.39,211.826 21.95,211.826 C22.51,211.826 22.9836667,212.024333 23.371,212.421 C23.7583333,212.817667 23.952,213.384667 23.952,214.122 C23.952,214.616667 23.8586667,215.036667 23.672,215.382 C23.4853333,215.727333 23.2356667,215.986333 22.923,216.159 C22.6103333,216.331667 22.2766667,216.418 21.922,216.418 Z M29.37,221.696 L29.37,216.894 C29.6406667,217.248667 29.993,217.542667 30.427,217.776 C30.861,218.009333 31.3626667,218.126 31.932,218.126 C32.5946667,218.126 33.1943333,217.958 33.731,217.622 C34.2676667,217.286 34.6923333,216.812333 35.005,216.201 C35.3176667,215.589667 35.474,214.887333 35.474,214.094 C35.474,213.300667 35.3176667,212.603 35.005,212.001 C34.6923333,211.399 34.2676667,210.934667 33.731,210.608 C33.1943333,210.281333 32.5946667,210.118 31.932,210.118 C31.3626667,210.118 30.8563333,210.237 30.413,210.475 C29.9696667,210.713 29.622,211.009333 29.37,211.364 L29.37,211.364 L29.37,210.244 L27.41,210.244 L27.41,221.696 L29.37,221.696 Z M31.414,216.404 C31.0593333,216.404 30.7256667,216.313 30.413,216.131 C30.1003333,215.949 29.8483333,215.685333 29.657,215.34 C29.4656667,214.994667 29.37,214.588667 29.37,214.122 C29.37,213.655333 29.4656667,213.249333 29.657,212.904 C29.8483333,212.558667 30.1003333,212.295 30.413,212.113 C30.7256667,211.931 31.0593333,211.84 31.414,211.84 C31.778,211.84 32.1163333,211.928667 32.429,212.106 C32.7416667,212.283333 32.9936667,212.542333 33.185,212.883 C33.3763333,213.223667 33.472,213.627333 33.472,214.094 C33.472,214.57 33.3763333,214.980667 33.185,215.326 C32.9936667,215.671333 32.7416667,215.937333 32.429,216.124 C32.1163333,216.310667 31.778,216.404 31.414,216.404 Z M38.862,221.696 L38.862,216.894 C39.1326667,217.248667 39.485,217.542667 39.919,217.776 C40.353,218.009333 40.8546667,218.126 41.424,218.126 C42.0866667,218.126 42.6863333,217.958 43.223,217.622 C43.7596667,217.286 44.1843333,216.812333 44.497,216.201 C44.8096667,215.589667 44.966,214.887333 44.966,214.094 C44.966,213.300667 44.8096667,212.603 44.497,212.001 C44.1843333,211.399 43.7596667,210.934667 43.223,210.608 C42.6863333,210.281333 42.0866667,210.118 41.424,210.118 C40.8546667,210.118 40.3483333,210.237 39.905,210.475 C39.4616667,210.713 39.114,211.009333 38.862,211.364 L38.862,211.364 L38.862,210.244 L36.902,210.244 L36.902,221.696 L38.862,221.696 Z M40.906,216.404 C40.5513333,216.404 40.2176667,216.313 39.905,216.131 C39.5923333,215.949 39.3403333,215.685333 39.149,215.34 C38.9576667,214.994667 38.862,214.588667 38.862,214.122 C38.862,213.655333 38.9576667,213.249333 39.149,212.904 C39.3403333,212.558667 39.5923333,212.295 39.905,212.113 C40.2176667,211.931 40.5513333,211.84 40.906,211.84 C41.27,211.84 41.6083333,211.928667 41.921,212.106 C42.2336667,212.283333 42.4856667,212.542333 42.677,212.883 C42.8683333,213.223667 42.964,213.627333 42.964,214.094 C42.964,214.57 42.8683333,214.980667 42.677,215.326 C42.4856667,215.671333 42.2336667,215.937333 41.921,216.124 C41.6083333,216.310667 41.27,216.404 40.906,216.404 Z M47.388,209.32 C47.7333333,209.32 48.0203333,209.210333 48.249,208.991 C48.4776667,208.771667 48.592,208.498667 48.592,208.172 C48.592,207.845333 48.4776667,207.572333 48.249,207.353 C48.0203333,207.133667 47.7333333,207.024 47.388,207.024 C47.0426667,207.024 46.7556667,207.133667 46.527,207.353 C46.2983333,207.572333 46.184,207.845333 46.184,208.172 C46.184,208.498667 46.2983333,208.771667 46.527,208.991 C46.7556667,209.210333 47.0426667,209.32 47.388,209.32 Z M48.354,218 L48.354,210.244 L46.394,210.244 L46.394,218 L48.354,218 Z M52.246,218 L52.246,213.716 C52.246,213.1 52.4023333,212.626333 52.715,212.295 C53.0276667,211.963667 53.4546667,211.798 53.996,211.798 C54.528,211.798 54.948,211.963667 55.256,212.295 C55.564,212.626333 55.718,213.1 55.718,213.716 L55.718,213.716 L55.718,218 L57.678,218 L57.678,213.45 C57.678,212.404667 57.3933333,211.590333 56.824,211.007 C56.2546667,210.423667 55.508,210.132 54.584,210.132 C54.0986667,210.132 53.653,210.227667 53.247,210.419 C52.841,210.610333 52.5073333,210.874 52.246,211.21 L52.246,211.21 L52.246,210.244 L50.286,210.244 L50.286,218 L52.246,218 Z M62.508,218.126 C63.124,218.126 63.663,218.025667 64.125,217.825 C64.587,217.624333 64.9416667,217.346667 65.189,216.992 C65.4363333,216.637333 65.56,216.236 65.56,215.788 C65.5506667,215.274667 65.413,214.861667 65.147,214.549 C64.881,214.236333 64.566,214.005333 64.202,213.856 C63.838,213.706667 63.376,213.562 62.816,213.422 C62.2653333,213.282 61.8593333,213.144333 61.598,213.009 C61.3366667,212.873667 61.206,212.675333 61.206,212.414 C61.206,212.180667 61.3016667,211.998667 61.493,211.868 C61.6843333,211.737333 61.9573333,211.672 62.312,211.672 C62.6946667,211.672 63.0003333,211.763 63.229,211.945 C63.4576667,212.127 63.586,212.372 63.614,212.68 L63.614,212.68 L65.49,212.68 C65.434,211.896 65.1306667,211.273 64.58,210.811 C64.0293333,210.349 63.292,210.118 62.368,210.118 C61.7426667,210.118 61.199,210.220667 60.737,210.426 C60.275,210.631333 59.9203333,210.911333 59.673,211.266 C59.4256667,211.620667 59.302,212.012667 59.302,212.442 C59.302,212.964667 59.435,213.38 59.701,213.688 C59.967,213.996 60.2843333,214.224667 60.653,214.374 C61.0216667,214.523333 61.4953333,214.668 62.074,214.808 C62.634,214.957333 63.0423333,215.095 63.299,215.221 C63.5556667,215.347 63.684,215.536 63.684,215.788 C63.684,216.021333 63.579,216.212667 63.369,216.362 C63.159,216.511333 62.8673333,216.586 62.494,216.586 C62.1113333,216.586 61.7916667,216.488 61.535,216.292 C61.2783333,216.096 61.1313333,215.848667 61.094,215.55 L61.094,215.55 L59.12,215.55 C59.148,216.026 59.309,216.46 59.603,216.852 C59.897,217.244 60.296,217.554333 60.8,217.783 C61.304,218.011667 61.8733333,218.126 62.508,218.126 Z M76.466,213.828 L76.466,212.176 L70.53,212.176 L70.53,213.828 L76.466,213.828 Z M85.37,218.098 C86.0886667,218.098 86.7093333,217.965 87.232,217.699 C87.7546667,217.433 88.1513333,217.076 88.422,216.628 C88.6926667,216.18 88.828,215.694667 88.828,215.172 C88.828,214.565333 88.6833333,214.075333 88.394,213.702 C88.1046667,213.328667 87.7593333,213.048667 87.358,212.862 C86.9566667,212.675333 86.4386667,212.488667 85.804,212.302 C85.3373333,212.162 84.9756667,212.038333 84.719,211.931 C84.4623333,211.823667 84.2476667,211.683667 84.075,211.511 C83.9023333,211.338333 83.816,211.121333 83.816,210.86 C83.816,210.486667 83.9303333,210.202 84.159,210.006 C84.3876667,209.81 84.6933333,209.712 85.076,209.712 C85.5146667,209.712 85.867,209.821667 86.133,210.041 C86.399,210.260333 86.5413333,210.538 86.56,210.874 L86.56,210.874 L88.716,210.874 C88.6506667,209.996667 88.303,209.313 87.673,208.823 C87.043,208.333 86.224,208.088 85.216,208.088 C84.544,208.088 83.9466667,208.202333 83.424,208.431 C82.9013333,208.659667 82.4953333,208.988667 82.206,209.418 C81.9166667,209.847333 81.772,210.351333 81.772,210.93 C81.772,211.546 81.9143333,212.038333 82.199,212.407 C82.4836667,212.775667 82.8243333,213.051 83.221,213.233 C83.6176667,213.415 84.1333333,213.599333 84.768,213.786 C85.2346667,213.916667 85.601,214.035667 85.867,214.143 C86.133,214.250333 86.3546667,214.397333 86.532,214.584 C86.7093333,214.770667 86.798,215.008667 86.798,215.298 C86.798,215.652667 86.6673333,215.939667 86.406,216.159 C86.1446667,216.378333 85.7853333,216.488 85.328,216.488 C84.88,216.488 84.5276667,216.371333 84.271,216.138 C84.0143333,215.904667 83.872,215.587333 83.844,215.186 L83.844,215.186 L81.744,215.186 C81.7533333,215.783333 81.9166667,216.301333 82.234,216.74 C82.5513333,217.178667 82.983,217.514667 83.529,217.748 C84.075,217.981333 84.6886667,218.098 85.37,218.098 Z M93.91,218.126 C94.834,218.126 95.6133333,217.885667 96.248,217.405 C96.8826667,216.924333 97.312,216.310667 97.536,215.564 L97.536,215.564 L95.422,215.564 C95.114,216.189333 94.596,216.502 93.868,216.502 C93.364,216.502 92.9393333,216.343333 92.594,216.026 C92.2486667,215.708667 92.0526667,215.27 92.006,214.71 L92.006,214.71 L97.676,214.71 C97.7133333,214.486 97.732,214.234 97.732,213.954 C97.732,213.198 97.571,212.528333 97.249,211.945 C96.927,211.361667 96.4743333,210.911333 95.891,210.594 C95.3076667,210.276667 94.6473333,210.118 93.91,210.118 C93.1446667,210.118 92.468,210.281333 91.88,210.608 C91.292,210.934667 90.8346667,211.401333 90.508,212.008 C90.1813333,212.614667 90.018,213.319333 90.018,214.122 C90.018,214.915333 90.1836667,215.615333 90.515,216.222 C90.8463333,216.828667 91.3083333,217.297667 91.901,217.629 C92.4936667,217.960333 93.1633333,218.126 93.91,218.126 Z M95.702,213.394 L92.02,213.394 C92.0946667,212.871333 92.2976667,212.463 92.629,212.169 C92.9603333,211.875 93.3686667,211.728 93.854,211.728 C94.3673333,211.728 94.8013333,211.879667 95.156,212.183 C95.5106667,212.486333 95.6926667,212.89 95.702,213.394 L95.702,213.394 Z M101.12,218 L101.12,213.716 C101.12,213.109333 101.276333,212.645 101.589,212.323 C101.901667,212.001 102.328667,211.84 102.87,211.84 C103.402,211.84 103.822,212.001 104.13,212.323 C104.438,212.645 104.592,213.109333 104.592,213.716 L104.592,213.716 L104.592,218 L106.552,218 L106.552,213.716 C106.552,213.109333 106.708333,212.645 107.021,212.323 C107.333667,212.001 107.756,211.84 108.288,211.84 C108.82,211.84 109.24,212.001 109.548,212.323 C109.856,212.645 110.01,213.109333 110.01,213.716 L110.01,213.716 L110.01,218 L111.97,218 L111.97,213.45 C111.97,212.404667 111.678333,211.590333 111.095,211.007 C110.511667,210.423667 109.744,210.132 108.792,210.132 C108.232,210.132 107.711667,210.267333 107.231,210.538 C106.750333,210.808667 106.384,211.168 106.132,211.616 C105.870667,211.14 105.502,210.773667 105.026,210.517 C104.55,210.260333 104.008667,210.132 103.402,210.132 C102.926,210.132 102.489667,210.225333 102.093,210.412 C101.696333,210.598667 101.372,210.855333 101.12,211.182 L101.12,211.182 L101.12,210.244 L99.16,210.244 L99.16,218 L101.12,218 Z M114.826,209.32 C115.171333,209.32 115.458333,209.210333 115.687,208.991 C115.915667,208.771667 116.03,208.498667 116.03,208.172 C116.03,207.845333 115.915667,207.572333 115.687,207.353 C115.458333,207.133667 115.171333,207.024 114.826,207.024 C114.480667,207.024 114.193667,207.133667 113.965,207.353 C113.736333,207.572333 113.622,207.845333 113.622,208.172 C113.622,208.498667 113.736333,208.771667 113.965,208.991 C114.193667,209.210333 114.480667,209.32 114.826,209.32 Z M115.792,218 L115.792,210.244 L113.832,210.244 L113.832,218 L115.792,218 Z M122.246,218.126 C122.908667,218.126 123.508333,217.958 124.045,217.622 C124.581667,217.286 125.006333,216.812333 125.319,216.201 C125.631667,215.589667 125.788,214.887333 125.788,214.094 C125.788,213.300667 125.631667,212.603 125.319,212.001 C125.006333,211.399 124.581667,210.934667 124.045,210.608 C123.508333,210.281333 122.908667,210.118 122.246,210.118 C121.676667,210.118 121.170333,210.234667 120.727,210.468 C120.283667,210.701333 119.936,211.004667 119.684,211.378 L119.684,211.378 L119.684,207.64 L117.724,207.64 L117.724,218 L119.684,218 L119.684,216.894 C119.945333,217.258 120.293,217.554333 120.727,217.783 C121.161,218.011667 121.667333,218.126 122.246,218.126 Z M121.728,216.404 C121.373333,216.404 121.039667,216.313 120.727,216.131 C120.414333,215.949 120.162333,215.685333 119.971,215.34 C119.779667,214.994667 119.684,214.588667 119.684,214.122 C119.684,213.655333 119.779667,213.249333 119.971,212.904 C120.162333,212.558667 120.414333,212.295 120.727,212.113 C121.039667,211.931 121.373333,211.84 121.728,211.84 C122.092,211.84 122.430333,211.928667 122.743,212.106 C123.055667,212.283333 123.307667,212.542333 123.499,212.883 C123.690333,213.223667 123.786,213.627333 123.786,214.094 C123.786,214.57 123.690333,214.980667 123.499,215.326 C123.307667,215.671333 123.055667,215.937333 122.743,216.124 C122.430333,216.310667 122.092,216.404 121.728,216.404 Z M130.66,218.126 C131.416,218.126 132.099667,217.960333 132.711,217.629 C133.322333,217.297667 133.807667,216.828667 134.167,216.222 C134.526333,215.615333 134.706,214.915333 134.706,214.122 C134.706,213.328667 134.531,212.628667 134.181,212.022 C133.831,211.415333 133.352667,210.946333 132.746,210.615 C132.139333,210.283667 131.462667,210.118 130.716,210.118 C129.969333,210.118 129.292667,210.283667 128.686,210.615 C128.079333,210.946333 127.601,211.415333 127.251,212.022 C126.901,212.628667 126.726,213.328667 126.726,214.122 C126.726,214.915333 126.896333,215.615333 127.237,216.222 C127.577667,216.828667 128.046667,217.297667 128.644,217.629 C129.241333,217.960333 129.913333,218.126 130.66,218.126 Z M130.66,216.418 C130.1,216.418 129.635667,216.219667 129.267,215.823 C128.898333,215.426333 128.714,214.859333 128.714,214.122 C128.714,213.384667 128.903,212.817667 129.281,212.421 C129.659,212.024333 130.128,211.826 130.688,211.826 C131.248,211.826 131.721667,212.024333 132.109,212.421 C132.496333,212.817667 132.69,213.384667 132.69,214.122 C132.69,214.616667 132.596667,215.036667 132.41,215.382 C132.223333,215.727333 131.973667,215.986333 131.661,216.159 C131.348333,216.331667 131.014667,216.418 130.66,216.418 Z M138.108,218 L138.108,207.64 L136.148,207.64 L136.148,218 L138.108,218 Z M143.078,218.126 C143.656667,218.126 144.165333,218.009333 144.604,217.776 C145.042667,217.542667 145.383333,217.234667 145.626,216.852 L145.626,216.852 L145.626,218 L147.614,218 L147.614,207.64 L145.626,207.64 L145.626,211.322 C145.355333,210.958 144.991333,210.666333 144.534,210.447 C144.076667,210.227667 143.596,210.118 143.092,210.118 C142.429333,210.118 141.827333,210.281333 141.286,210.608 C140.744667,210.934667 140.317667,211.401333 140.005,212.008 C139.692333,212.614667 139.536,213.31 139.536,214.094 C139.536,214.887333 139.692333,215.589667 140.005,216.201 C140.317667,216.812333 140.744667,217.286 141.286,217.622 C141.827333,217.958 142.424667,218.126 143.078,218.126 Z M143.582,216.404 C143.227333,216.404 142.893667,216.310667 142.581,216.124 C142.268333,215.937333 142.016333,215.669 141.825,215.319 C141.633667,214.969 141.538,214.560667 141.538,214.094 C141.538,213.627333 141.633667,213.223667 141.825,212.883 C142.016333,212.542333 142.266,212.283333 142.574,212.106 C142.882,211.928667 143.218,211.84 143.582,211.84 C143.946,211.84 144.286667,211.931 144.604,212.113 C144.921333,212.295 145.173333,212.556333 145.36,212.897 C145.546667,213.237667 145.64,213.646 145.64,214.122 C145.64,214.598 145.546667,215.006333 145.36,215.347 C145.173333,215.687667 144.921333,215.949 144.604,216.131 C144.286667,216.313 143.946,216.404 143.582,216.404 Z" id="Poppins-Semibold" fill="#FFFFFF"></path>
                    <path d="M11.646,245 L11.646,241.052 L13.41,241.052 C14.2126667,241.052 14.8706667,240.914333 15.384,240.639 C15.8973333,240.363667 16.2706667,240.006667 16.504,239.568 C16.7373333,239.129333 16.854,238.662667 16.854,238.168 C16.854,237.626667 16.7256667,237.136667 16.469,236.698 C16.2123333,236.259333 15.825,235.911667 15.307,235.655 C14.789,235.398333 14.1566667,235.27 13.41,235.27 L13.41,235.27 L10.05,235.27 L10.05,245 L11.646,245 Z M13.41,239.75 L11.646,239.75 L11.646,236.572 L13.41,236.572 C14.614,236.572 15.216,237.104 15.216,238.168 C15.216,238.672 15.0666667,239.061667 14.768,239.337 C14.4693333,239.612333 14.0166667,239.75 13.41,239.75 L13.41,239.75 Z M21.726,245.126 C22.4633333,245.126 23.1376667,244.960333 23.749,244.629 C24.3603333,244.297667 24.8433333,243.828667 25.198,243.222 C25.5526667,242.615333 25.73,241.92 25.73,241.136 C25.73,240.352 25.5573333,239.656667 25.212,239.05 C24.8666667,238.443333 24.3953333,237.976667 23.798,237.65 C23.2006667,237.323333 22.5333333,237.16 21.796,237.16 C21.0586667,237.16 20.3913333,237.323333 19.794,237.65 C19.1966667,237.976667 18.7253333,238.443333 18.38,239.05 C18.0346667,239.656667 17.862,240.352 17.862,241.136 C17.862,241.929333 18.03,242.627 18.366,243.229 C18.702,243.831 19.164,244.297667 19.752,244.629 C20.34,244.960333 20.998,245.126 21.726,245.126 Z M21.726,243.74 C21.082,243.74 20.5476667,243.513667 20.123,243.061 C19.6983333,242.608333 19.486,241.966667 19.486,241.136 C19.486,240.576 19.5886667,240.102333 19.794,239.715 C19.9993333,239.327667 20.277,239.036 20.627,238.84 C20.977,238.644 21.3573333,238.546 21.768,238.546 C22.1786667,238.546 22.5613333,238.644 22.916,238.84 C23.2706667,239.036 23.5553333,239.327667 23.77,239.715 C23.9846667,240.102333 24.092,240.576 24.092,241.136 C24.092,241.696 23.98,242.172 23.756,242.564 C23.532,242.956 23.2403333,243.25 22.881,243.446 C22.5216667,243.642 22.1366667,243.74 21.726,243.74 Z M28.908,248.668 L28.908,243.88 C29.1973333,244.234667 29.5706667,244.531 30.028,244.769 C30.4853333,245.007 31.008,245.126 31.596,245.126 C32.268,245.126 32.8816667,244.955667 33.437,244.615 C33.9923333,244.274333 34.4286667,243.798333 34.746,243.187 C35.0633333,242.575667 35.222,241.882667 35.222,241.108 C35.222,240.333333 35.0633333,239.647333 34.746,239.05 C34.4286667,238.452667 33.9923333,237.988333 33.437,237.657 C32.8816667,237.325667 32.268,237.16 31.596,237.16 C31.008,237.16 30.4806667,237.281333 30.014,237.524 C29.5473333,237.766667 29.1786667,238.065333 28.908,238.42 L28.908,238.42 L28.908,237.286 L27.312,237.286 L27.312,248.668 L28.908,248.668 Z M31.246,243.74 C30.8446667,243.74 30.4643333,243.637333 30.105,243.432 C29.7456667,243.226667 29.4563333,242.925667 29.237,242.529 C29.0176667,242.132333 28.908,241.668 28.908,241.136 C28.908,240.604 29.0176667,240.142 29.237,239.75 C29.4563333,239.358 29.7456667,239.059333 30.105,238.854 C30.4643333,238.648667 30.8446667,238.546 31.246,238.546 C31.6566667,238.546 32.0416667,238.646333 32.401,238.847 C32.7603333,239.047667 33.0496667,239.341667 33.269,239.729 C33.4883333,240.116333 33.598,240.576 33.598,241.108 C33.598,241.64 33.4883333,242.106667 33.269,242.508 C33.0496667,242.909333 32.7603333,243.215 32.401,243.425 C32.0416667,243.635 31.6566667,243.74 31.246,243.74 Z M38.4,248.668 L38.4,243.88 C38.6893333,244.234667 39.0626667,244.531 39.52,244.769 C39.9773333,245.007 40.5,245.126 41.088,245.126 C41.76,245.126 42.3736667,244.955667 42.929,244.615 C43.4843333,244.274333 43.9206667,243.798333 44.238,243.187 C44.5553333,242.575667 44.714,241.882667 44.714,241.108 C44.714,240.333333 44.5553333,239.647333 44.238,239.05 C43.9206667,238.452667 43.4843333,237.988333 42.929,237.657 C42.3736667,237.325667 41.76,237.16 41.088,237.16 C40.5,237.16 39.9726667,237.281333 39.506,237.524 C39.0393333,237.766667 38.6706667,238.065333 38.4,238.42 L38.4,238.42 L38.4,237.286 L36.804,237.286 L36.804,248.668 L38.4,248.668 Z M40.738,243.74 C40.3366667,243.74 39.9563333,243.637333 39.597,243.432 C39.2376667,243.226667 38.9483333,242.925667 38.729,242.529 C38.5096667,242.132333 38.4,241.668 38.4,241.136 C38.4,240.604 38.5096667,240.142 38.729,239.75 C38.9483333,239.358 39.2376667,239.059333 39.597,238.854 C39.9563333,238.648667 40.3366667,238.546 40.738,238.546 C41.1486667,238.546 41.5336667,238.646333 41.893,238.847 C42.2523333,239.047667 42.5416667,239.341667 42.761,239.729 C42.9803333,240.116333 43.09,240.576 43.09,241.108 C43.09,241.64 42.9803333,242.106667 42.761,242.508 C42.5416667,242.909333 42.2523333,243.215 41.893,243.425 C41.5336667,243.635 41.1486667,243.74 40.738,243.74 Z M47.108,236.264 C47.388,236.264 47.626,236.166 47.822,235.97 C48.018,235.774 48.116,235.531333 48.116,235.242 C48.116,234.952667 48.018,234.71 47.822,234.514 C47.626,234.318 47.388,234.22 47.108,234.22 C46.8186667,234.22 46.576,234.318 46.38,234.514 C46.184,234.71 46.086,234.952667 46.086,235.242 C46.086,235.531333 46.184,235.774 46.38,235.97 C46.576,236.166 46.8186667,236.264 47.108,236.264 Z M47.892,245 L47.892,237.286 L46.296,237.286 L46.296,245 L47.892,245 Z M51.588,245 L51.588,240.688 C51.588,239.997333 51.763,239.467667 52.113,239.099 C52.463,238.730333 52.9366667,238.546 53.534,238.546 C54.1313333,238.546 54.6026667,238.730333 54.948,239.099 C55.2933333,239.467667 55.466,239.997333 55.466,240.688 L55.466,240.688 L55.466,245 L57.048,245 L57.048,240.45 C57.048,239.75 56.9126667,239.152667 56.642,238.658 C56.3713333,238.163333 55.9956667,237.79 55.515,237.538 C55.0343333,237.286 54.4906667,237.16 53.884,237.16 C53.4266667,237.16 52.995,237.248667 52.589,237.426 C52.183,237.603333 51.8493333,237.850667 51.588,238.168 L51.588,238.168 L51.588,237.286 L49.992,237.286 L49.992,245 L51.588,245 Z M61.878,245.126 C62.4753333,245.126 62.9956667,245.028 63.439,244.832 C63.8823333,244.636 64.2253333,244.365333 64.468,244.02 C64.7106667,243.674667 64.832,243.282667 64.832,242.844 C64.8226667,242.349333 64.6873333,241.952667 64.426,241.654 C64.1646667,241.355333 63.8543333,241.129 63.495,240.975 C63.1356667,240.821 62.676,240.669333 62.116,240.52 C61.696,240.398667 61.3786667,240.298333 61.164,240.219 C60.9493333,240.139667 60.7673333,240.03 60.618,239.89 C60.4686667,239.75 60.394,239.577333 60.394,239.372 C60.394,239.110667 60.506,238.900667 60.73,238.742 C60.954,238.583333 61.276,238.504 61.696,238.504 C62.1253333,238.504 62.466,238.606667 62.718,238.812 C62.97,239.017333 63.11,239.292667 63.138,239.638 L63.138,239.638 L64.734,239.638 C64.6966667,238.872667 64.4096667,238.268333 63.873,237.825 C63.3363333,237.381667 62.6293333,237.16 61.752,237.16 C61.164,237.16 60.6436667,237.258 60.191,237.454 C59.7383333,237.65 59.3906667,237.918333 59.148,238.259 C58.9053333,238.599667 58.784,238.975333 58.784,239.386 C58.784,239.89 58.917,240.296 59.183,240.604 C59.449,240.912 59.764,241.140667 60.128,241.29 C60.492,241.439333 60.9633333,241.593333 61.542,241.752 C62.1393333,241.92 62.5756667,242.074 62.851,242.214 C63.1263333,242.354 63.264,242.568667 63.264,242.858 C63.264,243.128667 63.1403333,243.350333 62.893,243.523 C62.6456667,243.695667 62.298,243.782 61.85,243.782 C61.4206667,243.782 61.0636667,243.672333 60.779,243.453 C60.4943333,243.233667 60.338,242.960667 60.31,242.634 L60.31,242.634 L58.658,242.634 C58.6766667,243.100667 58.826,243.523 59.106,243.901 C59.386,244.279 59.7663333,244.577667 60.247,244.797 C60.7276667,245.016333 61.2713333,245.126 61.878,245.126 Z M76.116,240.604 L76.116,239.26 L70.362,239.26 L70.362,240.604 L76.116,240.604 Z M83.62,245 L83.62,238.336 L86.602,245 L87.708,245 L90.676,238.336 L90.676,245 L92.272,245 L92.272,235.27 L90.564,235.27 L87.162,242.9 L83.746,235.27 L82.024,235.27 L82.024,245 L83.62,245 Z M97.69,245.126 C98.5953333,245.126 99.3536667,244.899667 99.965,244.447 C100.576333,243.994333 100.998667,243.413333 101.232,242.704 L101.232,242.704 L99.51,242.704 C99.1553333,243.422667 98.5486667,243.782 97.69,243.782 C97.0926667,243.782 96.5886667,243.595333 96.178,243.222 C95.7673333,242.848667 95.5386667,242.354 95.492,241.738 L95.492,241.738 L101.386,241.738 C101.423333,241.504667 101.442,241.243333 101.442,240.954 C101.442,240.207333 101.283333,239.547 100.966,238.973 C100.648667,238.399 100.205333,237.953333 99.636,237.636 C99.0666667,237.318667 98.418,237.16 97.69,237.16 C96.934,237.16 96.2643333,237.323333 95.681,237.65 C95.0976667,237.976667 94.645,238.441 94.323,239.043 C94.001,239.645 93.84,240.342667 93.84,241.136 C93.84,241.929333 94.0056667,242.627 94.337,243.229 C94.6683333,243.831 95.1256667,244.297667 95.709,244.629 C96.2923333,244.960333 96.9526667,245.126 97.69,245.126 Z M99.776,240.45 L95.506,240.45 C95.5806667,239.852667 95.814,239.379 96.206,239.029 C96.598,238.679 97.0693333,238.504 97.62,238.504 C98.2266667,238.504 98.7353333,238.681333 99.146,239.036 C99.5566667,239.390667 99.7666667,239.862 99.776,240.45 L99.776,240.45 Z M106.118,245.126 C106.715333,245.126 107.245,245.004667 107.707,244.762 C108.169,244.519333 108.530667,244.211333 108.792,243.838 L108.792,243.838 L108.792,245 L110.402,245 L110.402,234.64 L108.792,234.64 L108.792,238.364 C108.502667,238 108.113,237.708333 107.623,237.489 C107.133,237.269667 106.636,237.16 106.132,237.16 C105.450667,237.16 104.832333,237.325667 104.277,237.657 C103.721667,237.988333 103.283,238.452667 102.961,239.05 C102.639,239.647333 102.478,240.333333 102.478,241.108 C102.478,241.882667 102.639,242.575667 102.961,243.187 C103.283,243.798333 103.721667,244.274333 104.277,244.615 C104.832333,244.955667 105.446,245.126 106.118,245.126 Z M106.454,243.74 C106.052667,243.74 105.672333,243.635 105.313,243.425 C104.953667,243.215 104.664333,242.909333 104.445,242.508 C104.225667,242.106667 104.116,241.64 104.116,241.108 C104.116,240.576 104.225667,240.116333 104.445,239.729 C104.664333,239.341667 104.951333,239.047667 105.306,238.847 C105.660667,238.646333 106.043333,238.546 106.454,238.546 C106.864667,238.546 107.247333,238.648667 107.602,238.854 C107.956667,239.059333 108.243667,239.358 108.463,239.75 C108.682333,240.142 108.792,240.604 108.792,241.136 C108.792,241.668 108.682333,242.132333 108.463,242.529 C108.243667,242.925667 107.956667,243.226667 107.602,243.432 C107.247333,243.637333 106.864667,243.74 106.454,243.74 Z M113.314,236.264 C113.594,236.264 113.832,236.166 114.028,235.97 C114.224,235.774 114.322,235.531333 114.322,235.242 C114.322,234.952667 114.224,234.71 114.028,234.514 C113.832,234.318 113.594,234.22 113.314,234.22 C113.024667,234.22 112.782,234.318 112.586,234.514 C112.39,234.71 112.292,234.952667 112.292,235.242 C112.292,235.531333 112.39,235.774 112.586,235.97 C112.782,236.166 113.024667,236.264 113.314,236.264 Z M114.098,245 L114.098,237.286 L112.502,237.286 L112.502,245 L114.098,245 Z M119.306,245.112 C119.763333,245.112 120.195,245.021 120.601,244.839 C121.007,244.657 121.336,244.407333 121.588,244.09 L121.588,244.09 L121.588,245 L123.184,245 L123.184,237.286 L121.588,237.286 L121.588,241.584 C121.588,242.274667 121.413,242.804333 121.063,243.173 C120.713,243.541667 120.239333,243.726 119.642,243.726 C119.044667,243.726 118.573333,243.541667 118.228,243.173 C117.882667,242.804333 117.71,242.274667 117.71,241.584 L117.71,241.584 L117.71,237.286 L116.128,237.286 L116.128,241.822 C116.128,242.522 116.265667,243.119333 116.541,243.614 C116.816333,244.108667 117.194333,244.482 117.675,244.734 C118.155667,244.986 118.699333,245.112 119.306,245.112 Z M126.88,245 L126.88,240.688 C126.88,239.997333 127.055,239.467667 127.405,239.099 C127.755,238.730333 128.228667,238.546 128.826,238.546 C129.423333,238.546 129.894667,238.730333 130.24,239.099 C130.585333,239.467667 130.758,239.997333 130.758,240.688 L130.758,240.688 L130.758,245 L132.34,245 L132.34,240.688 C132.34,239.997333 132.515,239.467667 132.865,239.099 C133.215,238.730333 133.688667,238.546 134.286,238.546 C134.883333,238.546 135.354667,238.730333 135.7,239.099 C136.045333,239.467667 136.218,239.997333 136.218,240.688 L136.218,240.688 L136.218,245 L137.8,245 L137.8,240.45 C137.8,239.75 137.662333,239.152667 137.387,238.658 C137.111667,238.163333 136.733667,237.79 136.253,237.538 C135.772333,237.286 135.228667,237.16 134.622,237.16 C134.052667,237.16 133.520667,237.297667 133.026,237.573 C132.531333,237.848333 132.167333,238.219333 131.934,238.686 C131.672667,238.191333 131.299333,237.813333 130.814,237.552 C130.328667,237.290667 129.778,237.16 129.162,237.16 C128.704667,237.16 128.275333,237.248667 127.874,237.426 C127.472667,237.603333 127.141333,237.850667 126.88,238.168 L126.88,238.168 L126.88,237.286 L125.284,237.286 L125.284,245 L126.88,245 Z" id="Poppins-Medium" fill="#FFFFFF"></path>
                    <path d="M11.1,272 L11.1,267.828 L13.074,267.828 C14.1753333,267.828 15.0013333,267.571333 15.552,267.058 C16.1026667,266.544667 16.378,265.868 16.378,265.028 C16.378,264.178667 16.1003333,263.497333 15.545,262.984 C14.9896667,262.470667 14.166,262.214 13.074,262.214 L13.074,262.214 L10.12,262.214 L10.12,272 L11.1,272 Z M13.074,266.988 L11.1,266.988 L11.1,263.04 L13.074,263.04 C13.8766667,263.04 14.46,263.208 14.824,263.544 C15.188,263.88 15.37,264.374667 15.37,265.028 C15.37,266.334667 14.6046667,266.988 13.074,266.988 L13.074,266.988 Z M21.362,272.112 C22.0806667,272.112 22.734,271.951 23.322,271.629 C23.91,271.307 24.372,270.847333 24.708,270.25 C25.044,269.652667 25.212,268.962 25.212,268.178 C25.212,267.384667 25.0463333,266.691667 24.715,266.099 C24.3836667,265.506333 23.9263333,265.049 23.343,264.727 C22.7596667,264.405 22.1086667,264.244 21.39,264.244 C20.6713333,264.244 20.0226667,264.405 19.444,264.727 C18.8653333,265.049 18.408,265.506333 18.072,266.099 C17.736,266.691667 17.568,267.384667 17.568,268.178 C17.568,268.971333 17.7336667,269.664333 18.065,270.257 C18.3963333,270.849667 18.849,271.307 19.423,271.629 C19.997,271.951 20.6433333,272.112 21.362,272.112 Z M21.362,271.258 C20.858,271.258 20.3936667,271.143667 19.969,270.915 C19.5443333,270.686333 19.2036667,270.341 18.947,269.879 C18.6903333,269.417 18.562,268.85 18.562,268.178 C18.562,267.506 18.6903333,266.939 18.947,266.477 C19.2036667,266.015 19.5466667,265.669667 19.976,265.441 C20.4053333,265.212333 20.872,265.098 21.376,265.098 C21.88,265.098 22.3466667,265.212333 22.776,265.441 C23.2053333,265.669667 23.5506667,266.015 23.812,266.477 C24.0733333,266.939 24.204,267.506 24.204,268.178 C24.204,268.85 24.071,269.417 23.805,269.879 C23.539,270.341 23.1913333,270.686333 22.762,270.915 C22.3326667,271.143667 21.866,271.258 21.362,271.258 Z M27.97,275.612 L27.97,270.32 C28.2126667,270.833333 28.6,271.260333 29.132,271.601 C29.664,271.941667 30.2893333,272.112 31.008,272.112 C31.6986667,272.112 32.3216667,271.948667 32.877,271.622 C33.4323333,271.295333 33.8663333,270.833333 34.179,270.236 C34.4916667,269.638667 34.648,268.948 34.648,268.164 C34.648,267.38 34.4916667,266.691667 34.179,266.099 C33.8663333,265.506333 33.4323333,265.049 32.877,264.727 C32.3216667,264.405 31.6986667,264.244 31.008,264.244 C30.28,264.244 29.6523333,264.414333 29.125,264.755 C28.5976667,265.095667 28.2126667,265.522667 27.97,266.036 L27.97,266.036 L27.97,264.356 L27.004,264.356 L27.004,275.612 L27.97,275.612 Z M30.812,271.258 C30.2893333,271.258 29.811,271.132 29.377,270.88 C28.943,270.628 28.6,270.268667 28.348,269.802 C28.096,269.335333 27.97,268.794 27.97,268.178 C27.97,267.562 28.096,267.020667 28.348,266.554 C28.6,266.087333 28.943,265.728 29.377,265.476 C29.811,265.224 30.2893333,265.098 30.812,265.098 C31.3533333,265.098 31.8386667,265.219333 32.268,265.462 C32.6973333,265.704667 33.0356667,266.057 33.283,266.519 C33.5303333,266.981 33.654,267.529333 33.654,268.164 C33.654,268.789333 33.5303333,269.337667 33.283,269.809 C33.0356667,270.280333 32.6973333,270.639667 32.268,270.887 C31.8386667,271.134333 31.3533333,271.258 30.812,271.258 Z M37.42,275.612 L37.42,270.32 C37.6626667,270.833333 38.05,271.260333 38.582,271.601 C39.114,271.941667 39.7393333,272.112 40.458,272.112 C41.1486667,272.112 41.7716667,271.948667 42.327,271.622 C42.8823333,271.295333 43.3163333,270.833333 43.629,270.236 C43.9416667,269.638667 44.098,268.948 44.098,268.164 C44.098,267.38 43.9416667,266.691667 43.629,266.099 C43.3163333,265.506333 42.8823333,265.049 42.327,264.727 C41.7716667,264.405 41.1486667,264.244 40.458,264.244 C39.73,264.244 39.1023333,264.414333 38.575,264.755 C38.0476667,265.095667 37.6626667,265.522667 37.42,266.036 L37.42,266.036 L37.42,264.356 L36.454,264.356 L36.454,275.612 L37.42,275.612 Z M40.262,271.258 C39.7393333,271.258 39.261,271.132 38.827,270.88 C38.393,270.628 38.05,270.268667 37.798,269.802 C37.546,269.335333 37.42,268.794 37.42,268.178 C37.42,267.562 37.546,267.020667 37.798,266.554 C38.05,266.087333 38.393,265.728 38.827,265.476 C39.261,265.224 39.7393333,265.098 40.262,265.098 C40.8033333,265.098 41.2886667,265.219333 41.718,265.462 C42.1473333,265.704667 42.4856667,266.057 42.733,266.519 C42.9803333,266.981 43.104,267.529333 43.104,268.164 C43.104,268.789333 42.9803333,269.337667 42.733,269.809 C42.4856667,270.280333 42.1473333,270.639667 41.718,270.887 C41.2886667,271.134333 40.8033333,271.258 40.262,271.258 Z M46.394,262.914 C46.59,262.914 46.758,262.844 46.898,262.704 C47.038,262.564 47.108,262.391333 47.108,262.186 C47.108,261.980667 47.038,261.810333 46.898,261.675 C46.758,261.539667 46.59,261.472 46.394,261.472 C46.198,261.472 46.03,261.539667 45.89,261.675 C45.75,261.810333 45.68,261.980667 45.68,262.186 C45.68,262.391333 45.75,262.564 45.89,262.704 C46.03,262.844 46.198,262.914 46.394,262.914 Z M46.884,272 L46.884,264.356 L45.904,264.356 L45.904,272 L46.884,272 Z M50.09,272 L50.09,267.828 C50.09,266.922667 50.3093333,266.236667 50.748,265.77 C51.1866667,265.303333 51.7746667,265.07 52.512,265.07 C53.2306667,265.07 53.7976667,265.289333 54.213,265.728 C54.6283333,266.166667 54.836,266.801333 54.836,267.632 L54.836,267.632 L54.836,272 L55.802,272 L55.802,267.52 C55.802,266.446667 55.5126667,265.627667 54.934,265.063 C54.3553333,264.498333 53.6086667,264.216 52.694,264.216 C52.1153333,264.216 51.5973333,264.339667 51.14,264.587 C50.6826667,264.834333 50.3326667,265.191333 50.09,265.658 L50.09,265.658 L50.09,264.356 L49.11,264.356 L49.11,272 L50.09,272 Z M60.604,272.112 C61.1266667,272.112 61.5886667,272.018667 61.99,271.832 C62.3913333,271.645333 62.704,271.391 62.928,271.069 C63.152,270.747 63.264,270.380667 63.264,269.97 C63.2546667,269.522 63.1333333,269.162667 62.9,268.892 C62.6666667,268.621333 62.3866667,268.416 62.06,268.276 C61.7333333,268.136 61.2946667,267.991333 60.744,267.842 C60.2866667,267.711333 59.9226667,267.592333 59.652,267.485 C59.3813333,267.377667 59.155,267.228333 58.973,267.037 C58.791,266.845667 58.7,266.600667 58.7,266.302 C58.7,265.956667 58.854,265.667333 59.162,265.434 C59.47,265.200667 59.8713333,265.084 60.366,265.084 C60.926,265.084 61.367,265.221667 61.689,265.497 C62.011,265.772333 62.186,266.134 62.214,266.582 L62.214,266.582 L63.194,266.582 C63.1566667,265.854 62.886,265.282333 62.382,264.867 C61.878,264.451667 61.2153333,264.244 60.394,264.244 C59.8713333,264.244 59.4046667,264.337333 58.994,264.524 C58.5833333,264.710667 58.266,264.962667 58.042,265.28 C57.818,265.597333 57.706,265.942667 57.706,266.316 C57.706,266.810667 57.8296667,267.205 58.077,267.499 C58.3243333,267.793 58.6253333,268.014667 58.98,268.164 C59.3346667,268.313333 59.7966667,268.462667 60.366,268.612 C60.8046667,268.724 61.1523333,268.829 61.409,268.927 C61.6656667,269.025 61.878,269.158 62.046,269.326 C62.214,269.494 62.298,269.708667 62.298,269.97 C62.298,270.343333 62.1463333,270.656 61.843,270.908 C61.5396667,271.16 61.122,271.286 60.59,271.286 C59.9833333,271.286 59.5003333,271.153 59.141,270.887 C58.7816667,270.621 58.5786667,270.273333 58.532,269.844 L58.532,269.844 L57.524,269.844 C57.5893333,270.544 57.8996667,271.097 58.455,271.503 C59.0103333,271.909 59.7266667,272.112 60.604,272.112 Z M73.694,267.226 L73.694,266.4 L68.248,266.4 L68.248,267.226 L73.694,267.226 Z M84.544,272 L84.544,271.202 L81.03,271.202 L81.03,262.214 L80.05,262.214 L80.05,272 L84.544,272 Z M86.434,262.914 C86.63,262.914 86.798,262.844 86.938,262.704 C87.078,262.564 87.148,262.391333 87.148,262.186 C87.148,261.980667 87.078,261.810333 86.938,261.675 C86.798,261.539667 86.63,261.472 86.434,261.472 C86.238,261.472 86.07,261.539667 85.93,261.675 C85.79,261.810333 85.72,261.980667 85.72,262.186 C85.72,262.391333 85.79,262.564 85.93,262.704 C86.07,262.844 86.238,262.914 86.434,262.914 Z M86.924,272 L86.924,264.356 L85.944,264.356 L85.944,272 L86.924,272 Z M92.79,275.752 C93.4806667,275.752 94.0966667,275.605 94.638,275.311 C95.1793333,275.017 95.6016667,274.599333 95.905,274.058 C96.2083333,273.516667 96.36,272.896 96.36,272.196 L96.36,272.196 L96.36,264.356 L95.38,264.356 L95.38,266.022 C95.1466667,265.508667 94.764,265.084 94.232,264.748 C93.7,264.412 93.0746667,264.244 92.356,264.244 C91.656,264.244 91.0283333,264.405 90.473,264.727 C89.9176667,265.049 89.4836667,265.506333 89.171,266.099 C88.8583333,266.691667 88.702,267.38 88.702,268.164 C88.702,268.948 88.8583333,269.638667 89.171,270.236 C89.4836667,270.833333 89.9176667,271.295333 90.473,271.622 C91.0283333,271.948667 91.656,272.112 92.356,272.112 C93.0746667,272.112 93.6976667,271.941667 94.225,271.601 C94.7523333,271.260333 95.1373333,270.828667 95.38,270.306 L95.38,270.306 L95.38,272.196 C95.38,272.756 95.268,273.241333 95.044,273.652 C94.82,274.062667 94.512,274.373 94.12,274.583 C93.728,274.793 93.2846667,274.898 92.79,274.898 C92.1086667,274.898 91.5323333,274.739333 91.061,274.422 C90.5896667,274.104667 90.27,273.68 90.102,273.148 L90.102,273.148 L89.136,273.148 C89.2946667,273.950667 89.6983333,274.585333 90.347,275.052 C90.9956667,275.518667 91.81,275.752 92.79,275.752 Z M92.538,271.258 C91.9966667,271.258 91.5113333,271.134333 91.082,270.887 C90.6526667,270.639667 90.3143333,270.280333 90.067,269.809 C89.8196667,269.337667 89.696,268.789333 89.696,268.164 C89.696,267.529333 89.8196667,266.981 90.067,266.519 C90.3143333,266.057 90.6526667,265.704667 91.082,265.462 C91.5113333,265.219333 91.9966667,265.098 92.538,265.098 C93.0606667,265.098 93.539,265.224 93.973,265.476 C94.407,265.728 94.75,266.087333 95.002,266.554 C95.254,267.020667 95.38,267.562 95.38,268.178 C95.38,268.794 95.254,269.335333 95.002,269.802 C94.75,270.268667 94.407,270.628 93.973,270.88 C93.539,271.132 93.0606667,271.258 92.538,271.258 Z M99.58,272 L99.58,267.828 C99.58,266.922667 99.7993333,266.236667 100.238,265.77 C100.676667,265.303333 101.264667,265.07 102.002,265.07 C102.720667,265.07 103.287667,265.289333 103.703,265.728 C104.118333,266.166667 104.326,266.801333 104.326,267.632 L104.326,267.632 L104.326,272 L105.292,272 L105.292,267.52 C105.292,266.801333 105.159,266.192333 104.893,265.693 C104.627,265.193667 104.263,264.822667 103.801,264.58 C103.339,264.337333 102.818667,264.216 102.24,264.216 C101.652,264.216 101.122333,264.342 100.651,264.594 C100.179667,264.846 99.8226667,265.200667 99.58,265.658 L99.58,265.658 L99.58,261.64 L98.6,261.64 L98.6,272 L99.58,272 Z M110.836,272 L110.836,271.16 L109.94,271.16 C109.492,271.16 109.179333,271.071333 109.002,270.894 C108.824667,270.716667 108.736,270.394667 108.736,269.928 L108.736,269.928 L108.736,265.182 L110.836,265.182 L110.836,264.356 L108.736,264.356 L108.736,262.438 L107.742,262.438 L107.742,264.356 L106.678,264.356 L106.678,265.182 L107.742,265.182 L107.742,269.928 C107.742,270.665333 107.91,271.195 108.246,271.517 C108.582,271.839 109.095333,272 109.786,272 L109.786,272 L110.836,272 Z" id="Poppins-Light" fill="#FFFFFF"></path>
                </g>
            </g>
        </g>
    </g>
</svg>